<svg width="16" height="24" viewBox="0 0 16 24" fill="none" xmlns="http://www.w3.org/2000/svg">
<path d="M7.75391 0.050293C9.33947 0.0514864 10.8838 0.541757 12.1768 1.45068L12.4326 1.63818L12.6826 1.84033C13.9084 2.87511 14.7861 4.26621 15.1914 5.82373C15.6237 7.48505 15.4937 9.2429 14.8223 10.8228C14.2057 12.2718 13.2733 13.5136 12.333 14.7446C11.8483 15.3792 11.3621 16.0166 10.8525 16.6333C10.7888 16.7104 10.7427 16.7736 10.7148 16.8247C10.6866 16.8766 10.6824 16.9078 10.6875 16.9272C10.6922 16.9447 10.7088 16.9673 10.7607 16.9907C10.8124 17.014 10.8903 17.034 11.001 17.0522L11.3789 17.1167C12.2563 17.2808 13.1073 17.5456 13.9023 17.9829C14.2929 18.1845 14.6465 18.4526 14.9453 18.7749L14.9463 18.7759C15.27 19.1425 15.4338 19.5525 15.4307 19.9634C15.4276 20.3743 15.2577 20.781 14.9268 21.1421C14.3122 21.8135 13.5085 22.1751 12.6787 22.439C10.6281 23.089 8.52008 23.2536 6.3877 23.0933C4.90314 22.9811 3.4323 22.7605 2.05078 22.1392V22.1382C1.56945 21.9382 1.12522 21.6583 0.738281 21.3091L0.737305 21.3081C0.295093 20.8832 0.0679137 20.4129 0.0693359 19.9399C0.0708925 19.4668 0.301262 18.9997 0.753906 18.5815C1.43901 17.9481 2.2816 17.6056 3.15723 17.3608L3.58496 17.2437C3.99509 17.1392 4.42145 17.0479 4.87207 16.9429C4.30198 16.2103 3.75441 15.513 3.21289 14.811C2.30697 13.6362 1.40884 12.4514 0.78125 11.0874L0.65918 10.812C-0.00659484 9.22962 -0.131056 7.4713 0.305664 5.81104C0.742402 4.15083 1.71605 2.68131 3.07422 1.63135C4.41815 0.604646 6.06268 0.0491155 7.75391 0.050293ZM10.2529 17.9331C10.1047 17.9074 9.99308 17.9204 9.89941 17.9653C9.80497 18.0107 9.72266 18.0915 9.63867 18.2124C9.19635 18.8389 8.73175 19.4498 8.27637 20.064C8.18262 20.1906 8.09331 20.288 8.00586 20.354C7.91806 20.4202 7.82915 20.456 7.73633 20.4546C7.64359 20.4531 7.55451 20.4148 7.4668 20.3462C7.37938 20.2778 7.29046 20.1774 7.19629 20.0483C6.94062 19.6998 6.68603 19.3477 6.43066 18.9985C6.211 18.698 6.04849 18.4753 5.9043 18.314C5.76056 18.1532 5.63875 18.0579 5.50293 18.0073C5.36701 17.9567 5.21107 17.9486 4.99414 17.9751C4.77658 18.0017 4.50338 18.0616 4.13477 18.1431C3.34935 18.3176 2.58962 18.547 1.90918 18.9634L1.62305 19.1538C1.24114 19.4281 1.06613 19.7049 1.06934 19.9692C1.07273 20.2336 1.25477 20.5084 1.64258 20.7788H1.6416C2.07895 21.0761 2.558 21.3068 3.0625 21.4653V21.4663C4.57651 21.9541 6.13984 22.1161 7.72461 22.145L8.42188 22.1333C9.11875 22.1064 9.81352 22.0357 10.502 21.9214L10.5029 21.9204C11.0082 21.8493 11.5078 21.7417 11.9971 21.5981L12.4824 21.4429C13.0625 21.2322 13.6254 20.997 14.0791 20.5796C14.3039 20.3728 14.4125 20.1601 14.4131 19.9536C14.4135 19.7476 14.3067 19.535 14.0732 19.3276V19.3267C13.9144 19.1904 13.7443 19.0677 13.5654 18.9595L13.3828 18.856C12.4114 18.3207 11.3393 18.1202 10.2529 17.9331ZM8.24414 1.06299C6.55974 0.939907 4.89104 1.45809 3.57227 2.51318C2.25348 3.56831 1.38232 5.08301 1.13281 6.75342C0.85707 8.64378 1.33705 10.3631 2.37695 11.9409C3.17537 13.1505 4.06341 14.2929 4.95996 15.4312C5.85622 16.569 6.76149 17.7035 7.59277 18.8931H7.59375C7.67535 19.0106 7.72496 19.0249 7.75488 19.019C7.77298 19.0155 7.79578 19.0036 7.82324 18.9771C7.85041 18.9507 7.87903 18.9138 7.91113 18.8677C8.13052 18.5531 8.36465 18.2468 8.59082 17.939C9.31073 16.9579 10.0751 16.0098 10.8252 15.0542C11.5756 14.0981 12.3119 13.1334 12.9795 12.1177L13.2939 11.6157C13.9927 10.4361 14.4463 9.19184 14.416 7.9126V7.91162C14.416 4.35279 11.9012 1.51548 8.56934 1.09619L8.24414 1.06299Z" fill="#FA8B02" stroke="#FA8B02" stroke-width="0.1"/>
<path d="M7.74902 4.5459C8.16756 4.54677 8.5824 4.63005 8.96875 4.79102C9.35485 4.95195 9.70578 5.18703 10.001 5.4834C10.2963 5.77996 10.5301 6.13252 10.6895 6.51953C10.8488 6.90644 10.9305 7.32084 10.9297 7.73926C10.9279 8.58453 10.5901 9.39475 9.99121 9.99121C9.39237 10.5875 8.58138 10.9216 7.73633 10.9199C6.89105 10.9182 6.08084 10.5804 5.48438 9.98145C4.88807 9.3826 4.554 8.57165 4.55566 7.72656C4.55741 6.88142 4.8944 6.07105 5.49316 5.47461C5.78973 5.17927 6.14229 4.9455 6.5293 4.78613C6.91623 4.62682 7.33058 4.54505 7.74902 4.5459ZM7.72266 5.54785C7.14335 5.55367 6.59025 5.78954 6.18457 6.20312C5.77877 6.61699 5.55387 7.17529 5.55957 7.75488C5.56529 8.33446 5.80099 8.88816 6.21484 9.29395C6.62858 9.69949 7.18631 9.92452 7.76562 9.91895C8.34507 9.91324 8.89891 9.67734 9.30469 9.26367C9.71047 8.84982 9.93537 8.29148 9.92969 7.71191C9.92398 7.13232 9.68828 6.57866 9.27441 6.17285C8.86056 5.76712 8.3022 5.54215 7.72266 5.54785Z" fill="#FA8B02" stroke="#FA8B02" stroke-width="0.1"/>
</svg>
