<svg width="24" height="24" viewBox="0 0 24 24" fill="none" xmlns="http://www.w3.org/2000/svg">
<path d="M9.82227 7.33276C10.4364 7.11679 10.914 7.47243 11.2705 7.8269C11.718 8.27254 11.9535 8.83203 12.0752 9.40894L12.1211 9.65698V9.65796C12.3241 10.9839 12.2734 12.3151 11.6338 13.5554L11.6348 13.5564C11.5971 13.6298 11.5758 13.6801 11.5664 13.7146C11.6002 13.7216 11.6534 13.727 11.7344 13.7263C13.3108 13.7132 14.869 13.7357 16.4414 13.7136C16.7591 13.7089 17.0618 13.7485 17.3213 13.8757C17.5851 14.0051 17.7941 14.2194 17.9307 14.5408L17.9736 14.6531C18.0646 14.9141 18.0828 15.1719 18.0215 15.4167C17.9514 15.6965 17.781 15.9452 17.5254 16.1541C17.4933 16.1803 17.4799 16.198 17.4746 16.2068L17.4717 16.2126C17.4717 16.2153 17.4724 16.2258 17.4814 16.2488C17.4909 16.2727 17.5056 16.3011 17.5264 16.3416H17.5254C17.723 16.7243 17.808 17.0642 17.7285 17.3884C17.6494 17.711 17.4163 17.9836 17.0615 18.2517H17.0605L16.9814 18.3259C16.9814 18.3262 16.9805 18.3276 16.9805 18.3289C16.9804 18.3314 16.9812 18.336 16.9824 18.3435L17.0098 18.4294L17.0107 18.4314C17.1768 18.858 17.2305 19.2195 17.1104 19.5427C16.9905 19.8647 16.7111 20.1133 16.3018 20.3464H16.3008C16.2198 20.3917 16.2249 20.4085 16.2275 20.3982C16.2278 20.3969 16.2259 20.403 16.2295 20.4236C16.2334 20.4454 16.2414 20.4737 16.2549 20.5164C16.4315 21.0745 16.371 21.5855 16.0947 21.9607C15.8186 22.3357 15.3476 22.5465 14.7627 22.5476C12.5244 22.5476 10.2882 22.5425 8.05176 22.5535H8.05078C7.84777 22.5535 7.66264 22.4925 7.50684 22.4402C7.34225 22.3849 7.21475 22.3419 7.09082 22.3406C7.05624 22.3408 7.03462 22.3518 7.01074 22.3777C6.98019 22.4109 6.95259 22.4624 6.91602 22.5398C6.88283 22.61 6.84156 22.7036 6.78809 22.7859C6.73302 22.8706 6.65667 22.9543 6.54492 23.0085L6.5459 23.0095C6.30175 23.1318 6.03281 23.1965 5.75977 23.198H1.7002C1.27699 23.1953 0.934232 23.0877 0.697266 22.8474C0.460895 22.6076 0.35442 22.2609 0.349609 21.8337V14.1179C0.349609 13.6171 0.441135 13.2309 0.693359 12.9744C0.946311 12.7172 1.32754 12.6238 1.82031 12.6238C3.09107 12.6238 4.35809 12.6339 5.625 12.6179C5.93232 12.6138 6.22588 12.6528 6.47363 12.7839C6.72694 12.9182 6.9181 13.1416 7.03125 13.4753C7.04089 13.5038 7.05219 13.5208 7.05859 13.532C7.06752 13.5277 7.08058 13.5232 7.09668 13.5134C7.11265 13.5037 7.12636 13.4951 7.14551 13.4832C7.16284 13.4723 7.18369 13.4601 7.20508 13.449L7.40625 13.3357C8.38083 12.7469 8.86059 11.8191 9.05566 10.6755C9.16945 10.0105 9.15367 9.34395 9.16992 8.65015C9.17522 8.42625 9.17435 8.15366 9.25 7.91577C9.33003 7.66412 9.49655 7.4469 9.82227 7.33374V7.33276ZM4.4209 13.3611C4.23255 13.3455 4.18182 13.3833 4.16406 13.405C4.1358 13.4396 4.11514 13.5169 4.11816 13.699V13.7C4.13721 14.9686 4.12503 16.2392 4.12402 17.5085C4.12721 17.6436 4.12101 17.7785 4.10742 17.9128C4.10508 18.0012 4.07079 18.0862 4.00977 18.1501C3.95158 18.2111 3.87353 18.2476 3.79004 18.2566L3.79102 18.2576H3.78809C3.78463 18.2579 3.78082 18.2593 3.77734 18.2595L3.77637 18.2576C3.72981 18.2632 3.68285 18.2618 3.6377 18.2488C3.58785 18.2344 3.54181 18.2089 3.50293 18.1746C3.46419 18.1403 3.43351 18.098 3.41309 18.0505C3.39527 18.0089 3.38659 17.9638 3.38574 17.9187V17.9197C3.37169 17.7805 3.36527 17.6406 3.36816 17.5007C3.36815 16.2195 3.35905 14.9339 3.37305 13.6501L3.36914 13.5496C3.36038 13.4664 3.34047 13.4295 3.32324 13.4119C3.30785 13.3962 3.27469 13.3767 3.19434 13.3708L3.09766 13.3699C2.64925 13.3909 2.175 13.3699 1.74219 13.3767C1.45114 13.3822 1.31105 13.4309 1.23535 13.5066C1.16024 13.5819 1.11283 13.721 1.1123 14.0125C1.10696 16.6169 1.10696 19.2193 1.1123 21.8191V21.8201C1.11236 22.1035 1.16182 22.2465 1.24023 22.325C1.29926 22.3839 1.39483 22.426 1.55762 22.4441L1.74414 22.4539L3.69531 22.4587C4.34618 22.4587 4.99755 22.4569 5.64941 22.4539H5.65039C5.96449 22.4539 6.11449 22.4024 6.19531 22.3191C6.27753 22.2342 6.32663 22.0776 6.32715 21.7595L6.32422 17.906V14.0984C6.3242 13.7496 6.2785 13.5891 6.19824 13.5046C6.11989 13.4224 5.9704 13.3734 5.63379 13.3699C5.24627 13.3699 4.82901 13.3947 4.4209 13.3611ZM10.5469 8.22046C10.3669 8.08576 10.2313 8.01725 10.0898 8.07202C10.0169 8.10124 9.98852 8.14653 9.97168 8.21069C9.9611 8.25117 9.95658 8.29274 9.9541 8.3396L9.94727 8.50171C9.91022 9.16659 9.92624 9.87826 9.84668 10.5593C9.6556 12.2143 8.89329 13.5341 7.31055 14.2595L7.30957 14.2585C7.19126 14.3137 7.14795 14.3752 7.12598 14.4353C7.09936 14.5084 7.09766 14.5974 7.09766 14.7312V20.99C7.09766 21.2754 7.15735 21.4582 7.26172 21.5779C7.36531 21.6964 7.5354 21.7787 7.81445 21.8162C7.92413 21.8254 8.03458 21.8279 8.14453 21.823H8.14941L11.4033 21.8005H14.8105C15.3033 21.8005 15.629 21.4816 15.6396 21.0906C15.645 20.89 15.5755 20.7436 15.4512 20.6433C15.3217 20.539 15.1163 20.4709 14.832 20.4685C14.0351 20.4625 13.2283 20.4688 12.4277 20.4578C12.38 20.4578 12.3445 20.4611 12.2793 20.4626C12.2239 20.464 12.1566 20.4631 12.0918 20.449C12.0256 20.4345 11.9503 20.404 11.8926 20.3367C11.8343 20.2686 11.8093 20.1812 11.8076 20.0857C11.806 19.991 11.8278 19.9039 11.8818 19.8337C11.9357 19.764 12.0082 19.7294 12.0742 19.7117C12.1387 19.6944 12.2063 19.6906 12.2627 19.6902C12.2914 19.69 12.32 19.6906 12.3457 19.6912C12.3724 19.6918 12.396 19.6923 12.418 19.6921H12.4189C13.5029 19.6921 14.5876 19.6923 15.6719 19.6853H15.6729C15.9431 19.6852 16.1303 19.6187 16.2471 19.5173C16.3601 19.4191 16.4255 19.2717 16.4238 19.0662L16.4092 18.9294C16.3832 18.8026 16.3242 18.7046 16.2402 18.6326C16.1254 18.5343 15.9463 18.4698 15.6943 18.4666C15.0614 18.4576 14.4311 18.4666 13.793 18.4666C13.7442 18.4666 13.7114 18.4699 13.6445 18.4714C13.5893 18.4727 13.5212 18.4712 13.4561 18.4558C13.3893 18.44 13.314 18.4067 13.2588 18.3347C13.2037 18.2628 13.1843 18.1726 13.1875 18.0759L13.1943 18.0066C13.2058 17.9393 13.2318 17.879 13.2754 17.8289C13.3329 17.7628 13.4068 17.7316 13.4727 17.7166C13.5371 17.7018 13.6037 17.6993 13.6592 17.7C13.7255 17.7007 13.7603 17.7044 13.8096 17.7039H16.1641C16.4767 17.7039 16.6755 17.6449 16.7949 17.5515C16.9069 17.4637 16.9739 17.3256 16.9766 17.1013C16.9792 16.8789 16.9127 16.7334 16.7998 16.6384C16.7109 16.5637 16.5791 16.5088 16.3936 16.4841L16.1904 16.4695H13.9385C13.852 16.4695 13.7368 16.4604 13.6426 16.4021C13.5918 16.3707 13.5478 16.3251 13.5195 16.2634C13.5057 16.2332 13.4961 16.2016 13.4912 16.1687L13.4883 16.0671C13.4921 16.0023 13.5102 15.9415 13.5459 15.8894C13.5822 15.8366 13.6301 15.8026 13.6777 15.781C13.765 15.7415 13.8679 15.7373 13.9307 15.7341H14.2891C15.0735 15.7341 15.8578 15.7343 16.6416 15.7292H16.6426C16.7867 15.7292 16.9084 15.7031 17.0049 15.6501C17.0988 15.5986 17.1774 15.5165 17.2324 15.3884L17.2354 15.3816C17.2888 15.2709 17.3103 15.1472 17.2959 15.0251C17.2815 14.9031 17.2321 14.7873 17.1543 14.6921L17.1523 14.6902C16.992 14.4844 16.7668 14.4802 16.4482 14.4802H11.0889C11.0533 14.4802 11.027 14.4821 10.9805 14.4832C10.9403 14.484 10.8925 14.4838 10.8438 14.4763C10.7384 14.4602 10.6273 14.4097 10.5527 14.283C10.4766 14.1534 10.4904 14.0295 10.5352 13.9294C10.554 13.8874 10.5815 13.8461 10.6074 13.8093L10.6738 13.7185C11.5833 12.4392 11.593 11.0065 11.3291 9.50854V9.50659C11.2445 8.99314 10.9639 8.53265 10.5469 8.22144V8.22046Z" fill="#FA8B02" stroke="#FA8B02" stroke-width="0.3"/>
<path d="M16.6582 0.803223C19.9965 0.827936 22.8185 3.15869 23.5049 6.45166C24.1691 9.63739 22.4951 12.945 19.5312 14.2554L19.5303 14.2544C19.4724 14.2802 19.407 14.3209 19.3232 14.3687C19.2447 14.4135 19.1523 14.4641 19.0586 14.4966C18.9655 14.5288 18.8511 14.5502 18.7373 14.5132C18.6175 14.4741 18.5287 14.3803 18.4688 14.2485C18.41 14.1191 18.3958 13.9917 18.4502 13.8774C18.5017 13.7694 18.5998 13.7064 18.6846 13.6675C18.7706 13.6281 18.8691 13.6014 18.9502 13.5796C19.0386 13.5558 19.1042 13.5385 19.1504 13.5171L19.4014 13.394C21.9567 12.0703 23.3059 9.23422 22.6582 6.43799C22.0022 3.60266 19.4118 1.59433 16.4805 1.64502C15.1837 1.66704 13.9262 2.09665 12.8877 2.87354C11.8492 3.65042 11.0826 4.73541 10.6953 5.97314H10.6943C10.657 6.09164 10.6185 6.23092 10.5752 6.35791L10.5742 6.35693C10.5611 6.40892 10.5399 6.45835 10.5078 6.50146C10.472 6.54947 10.4258 6.58933 10.373 6.61768C10.3203 6.64601 10.2619 6.66218 10.2021 6.66553C10.1468 6.66861 10.0921 6.65907 10.04 6.64014V6.64209C10.0363 6.64098 10.033 6.6384 10.0293 6.63721H10.0273V6.63623C9.92066 6.60142 9.83821 6.5353 9.79297 6.43994C9.74795 6.34479 9.74803 6.23986 9.76953 6.146C9.80356 5.97826 9.84721 5.81258 9.90039 5.6499L9.99316 5.38525C10.4814 4.07619 11.3486 2.93933 12.4873 2.12256C13.7022 1.25123 15.1632 0.789454 16.6582 0.803223Z" fill="#FA8B02" stroke="#FA8B02" stroke-width="0.3"/>
<path d="M16.5693 3.34399C16.6695 3.33738 16.7617 3.35216 16.8389 3.39673C16.9175 3.44214 16.9662 3.50998 16.9951 3.58032C17.0484 3.71021 17.0386 3.8666 17.0293 3.97095V3.97388C17.0138 4.11618 17.0461 4.1633 17.0723 4.18677C17.1124 4.22262 17.1882 4.24984 17.333 4.27466C18.1048 4.40656 18.5897 4.89868 18.835 5.60571C18.8684 5.70292 18.926 5.8565 18.9268 6.00024C18.9272 6.07634 18.9124 6.16057 18.8633 6.23755C18.8257 6.29641 18.7731 6.34349 18.708 6.37817L18.6387 6.40845C18.5337 6.44697 18.4304 6.45839 18.3359 6.4231C18.2401 6.38727 18.1825 6.31464 18.1475 6.24731C18.1135 6.18196 18.0931 6.108 18.0781 6.04907C18.0614 5.98328 18.0509 5.93607 18.0361 5.89575V5.89478C17.9189 5.57768 17.7243 5.34711 17.4727 5.2063C17.2513 5.08254 16.977 5.02312 16.6572 5.04321L16.5176 5.05688C16.1779 5.1004 15.9122 5.21861 15.7256 5.38989C15.5635 5.53872 15.4547 5.73377 15.4092 5.97095L15.3936 6.07544C15.36 6.38202 15.4258 6.64653 15.5732 6.85669C15.721 7.06708 15.9585 7.23477 16.2861 7.33228C16.455 7.38053 16.6295 7.41444 16.8125 7.45337C16.9926 7.49167 17.1798 7.53459 17.3613 7.59985L17.5166 7.66138C18.2706 7.99039 18.6806 8.63941 18.6777 9.45239L18.6729 9.61743C18.6478 9.99756 18.5352 10.3372 18.333 10.6204C18.1019 10.9441 17.7607 11.1836 17.3252 11.3293V11.3303C17.1893 11.3753 17.1156 11.4146 17.0752 11.4602C17.0423 11.4974 17.016 11.557 17.0264 11.6858L17.0391 11.8586C17.0402 11.9247 17.0352 11.9961 17.0166 12.0618C16.9963 12.1331 16.9571 12.2077 16.8857 12.2639C16.8146 12.3198 16.7253 12.3466 16.624 12.3508C16.5239 12.355 16.433 12.3365 16.3574 12.2883C16.2811 12.2396 16.2351 12.1704 16.209 12.0999C16.1607 11.9688 16.1729 11.8128 16.1836 11.7102C16.1982 11.5678 16.1716 11.5202 16.1494 11.4973C16.1175 11.4645 16.0506 11.4336 15.8975 11.4036C15.0372 11.2337 14.4389 10.6047 14.3154 9.81958V9.8186C14.3019 9.73141 14.2862 9.61336 14.3184 9.5061C14.3358 9.44789 14.3675 9.39162 14.4189 9.34497C14.4694 9.2993 14.5319 9.26885 14.6025 9.25024C14.7444 9.21295 14.8719 9.2311 14.9727 9.31763C15.0594 9.39222 15.107 9.50325 15.1406 9.59399C15.3166 10.07 15.5353 10.3572 15.8096 10.5051C16.0839 10.653 16.4444 10.6783 16.9395 10.5627L16.9453 10.5608C17.2003 10.5116 17.4297 10.3742 17.5928 10.1721C17.7559 9.96984 17.842 9.71606 17.8359 9.4563V9.45239C17.8359 8.93104 17.5076 8.49723 16.9248 8.33325C16.7646 8.28829 16.599 8.25884 16.4238 8.22485C16.2515 8.19141 16.0707 8.15407 15.8955 8.09497C15.0312 7.80327 14.5483 7.09887 14.5537 6.20532C14.5539 5.75402 14.6669 5.35649 14.8984 5.0354C15.1304 4.71377 15.4736 4.48016 15.916 4.34399L16.0078 4.31079C16.0848 4.27781 16.1239 4.24401 16.1455 4.21216C16.1669 4.18049 16.182 4.13494 16.1836 4.05884L16.1807 3.97192C16.1724 3.87472 16.1628 3.7326 16.2051 3.60962C16.2277 3.54399 16.2666 3.4776 16.332 3.427C16.3976 3.37638 16.4786 3.35007 16.5693 3.34399Z" fill="#FA8B02" stroke="#FA8B02" stroke-width="0.3"/>
<path d="M4.83398 20.0273L4.83301 20.0283C4.96169 20.0247 5.08976 20.0455 5.20996 20.0918C5.33433 20.1397 5.44794 20.2122 5.54297 20.3057C5.63796 20.3991 5.71273 20.5112 5.7627 20.6348C5.81121 20.7548 5.83472 20.8833 5.83301 21.0127C5.84014 21.1497 5.81855 21.2866 5.77051 21.415C5.72244 21.5435 5.64894 21.6611 5.55371 21.7598C5.4584 21.8584 5.34351 21.9368 5.2168 21.9893C5.09067 22.0414 4.95483 22.0666 4.81836 22.0645H4.81738L4.81641 22.0654V22.0645C4.22732 22.0633 3.80492 21.6053 3.81641 21.0107C3.81362 20.8797 3.83745 20.7495 3.88672 20.6279C3.93688 20.5042 4.01175 20.3919 4.10742 20.2988C4.2031 20.2057 4.31734 20.1337 4.44238 20.0869C4.56739 20.0402 4.70073 20.0199 4.83398 20.0273ZM4.8457 20.7686C4.73993 20.7686 4.6772 20.797 4.64062 20.8311C4.60468 20.8646 4.57516 20.9219 4.57129 21.0195C4.56731 21.1199 4.59151 21.1811 4.62305 21.2168C4.65342 21.2512 4.70864 21.2826 4.81152 21.2861L4.8291 21.2881C4.86109 21.2928 4.89391 21.2898 4.9248 21.2803C4.95571 21.2707 4.98407 21.2544 5.00781 21.2324C5.03159 21.2104 5.05058 21.1835 5.0625 21.1533C5.07436 21.1233 5.07939 21.0908 5.07715 21.0586L5.07617 21.043L5.07812 21.0283C5.08238 20.9957 5.079 20.9621 5.06934 20.9307C5.05966 20.8994 5.04323 20.8702 5.02148 20.8457C4.99975 20.8213 4.97323 20.8013 4.94336 20.7881C4.91337 20.7748 4.88045 20.7682 4.84766 20.7686H4.8457Z" fill="#FA8B02" stroke="#FA8B02" stroke-width="0.3"/>
</svg>
