<svg width="24" height="24" viewBox="0 0 24 24" fill="none" xmlns="http://www.w3.org/2000/svg">
<path d="M11.9704 0.25C14.3275 0.25 16.6846 0.25 19.0417 0.25C19.9845 0.25 20.8472 0.425604 21.3493 1.35784C21.5373 1.68041 21.6407 2.04529 21.6498 2.41853C21.6498 2.85106 21.6498 3.28241 21.6498 3.71494C21.6498 4.5305 21.6498 4.5305 22.4571 4.60474C23.6204 4.71081 24.377 6.13686 23.8042 7.15748C23.7605 7.2458 23.6903 7.31821 23.6033 7.36454C23.5164 7.41087 23.4171 7.42879 23.3194 7.41579C23.2218 7.40279 23.1306 7.35951 23.0588 7.29204C22.987 7.22457 22.9382 7.1363 22.9191 7.03963C22.8844 6.82662 22.8725 6.6105 22.8838 6.39496C22.9097 5.85636 22.6481 5.65837 22.1319 5.67369C21.7783 5.68312 21.6263 5.82219 21.6498 6.17104C21.6604 6.32778 21.6498 6.48571 21.6498 6.64246C21.6498 10.589 21.6498 14.5356 21.6498 18.4822C21.6498 19.5488 21.4236 19.8623 20.3794 20.1451C20.0635 20.23 19.9692 20.3914 19.9751 20.6825C19.9751 21.0361 19.9869 21.3897 19.9669 21.7432C19.9589 22.0604 19.8383 22.3644 19.6267 22.6009C19.4151 22.8373 19.1263 22.9907 18.8119 23.0337C18.2876 23.1195 17.7538 23.1294 17.2267 23.0632C16.364 22.956 15.9539 22.494 15.9303 21.6077C15.9209 21.2742 15.9209 20.9395 15.9303 20.6059C15.9303 20.3101 15.7948 20.1758 15.5025 20.1758C13.1454 20.1758 10.7883 20.1758 8.43121 20.1758C8.10593 20.1758 7.96922 20.3231 7.97747 20.6472C7.98572 20.9713 7.98572 21.3154 7.97747 21.6489C7.94447 22.4987 7.53552 22.9583 6.70228 23.0632C6.17553 23.132 5.6416 23.124 5.11713 23.0396C4.80252 23.0011 4.51168 22.8525 4.29601 22.6202C4.08035 22.388 3.95374 22.0869 3.93858 21.7703C3.92909 21.6527 3.92909 21.5344 3.93858 21.4168C3.99397 20.7226 4.00694 20.1451 3.05113 19.9813C2.40057 19.8634 2.25443 19.2129 2.25679 18.567C2.26739 14.6201 2.25679 10.6707 2.25679 6.72731C2.25679 6.57057 2.24618 6.41264 2.25679 6.25589C2.28625 5.87876 2.17665 5.65837 1.7394 5.67487C1.33634 5.68901 1.03817 5.7774 1.03227 6.25354C1.0345 6.50823 1.0219 6.76283 0.99456 7.01606C0.983337 7.12762 0.930564 7.23088 0.846723 7.30534C0.762882 7.37979 0.654106 7.41999 0.541997 7.41794C0.482436 7.42495 0.422074 7.41985 0.364529 7.40297C0.306985 7.38608 0.253442 7.35775 0.20711 7.31967C0.160778 7.28159 0.122612 7.23455 0.0948979 7.18137C0.0671841 7.12819 0.0504937 7.06995 0.0458272 7.01017C-0.0991345 5.87051 0.0104707 4.62124 1.72055 4.61064C2.14011 4.61064 2.26622 4.42207 2.25207 4.03315C2.2344 3.5028 2.23793 2.97245 2.25207 2.44328C2.28389 1.26473 3.02992 0.452711 4.19786 0.311285C4.51079 0.274426 4.82561 0.255931 5.1407 0.255893C7.41609 0.251964 9.69265 0.25 11.9704 0.25ZM11.9539 4.5246C9.26327 4.5246 6.57146 4.5246 3.88083 4.5246C3.50369 4.5246 3.23852 4.55642 3.24441 5.0467C3.26327 6.73674 3.2562 8.4256 3.24441 10.1145C3.24441 10.4456 3.37995 10.6177 3.69933 10.6908C6.13658 11.2471 8.5856 11.6819 11.0912 11.755C14.1366 11.8422 17.1183 11.4097 20.0729 10.7191C20.4972 10.6201 20.6622 10.4386 20.6551 10.0037C20.6375 8.41264 20.6245 6.8216 20.661 5.23055C20.674 4.64128 20.4536 4.51046 19.9079 4.51517C17.2574 4.53874 14.6056 4.52578 11.9539 4.52578V4.5246ZM11.9539 19.0997C14.6434 19.0997 17.334 19.0997 20.0234 19.0997C20.5243 19.0997 20.654 18.864 20.661 18.4079C20.6681 17.9518 20.4913 17.7739 20.0376 17.7915C19.4878 17.8177 18.937 17.8138 18.3876 17.7798C17.9174 17.747 17.4781 17.5339 17.1611 17.1851C16.8442 16.8362 16.6741 16.3785 16.6864 15.9073C16.6988 15.4361 16.8925 14.9879 17.2272 14.6561C17.5619 14.3243 18.0118 14.1345 18.4831 14.1263C19.0523 14.1098 19.6215 14.1145 20.1908 14.1263C20.5137 14.1263 20.6551 13.986 20.6504 13.6643C20.6434 13.1928 20.6257 12.7214 20.6575 12.25C20.6917 11.7456 20.5573 11.5924 20.0293 11.7456C17.5426 12.4704 14.9816 12.7143 12.4065 12.7462C9.49191 12.7827 6.6021 12.5281 3.78419 11.7255C3.4153 11.6207 3.22673 11.6654 3.24795 12.1062C3.27152 12.6165 3.26327 13.128 3.24795 13.6383C3.2397 13.9919 3.39409 14.1345 3.74176 14.1274C4.27211 14.1156 4.80246 14.118 5.3328 14.1274C6.35814 14.1486 7.19727 14.9524 7.21848 15.9283C7.24323 16.8805 6.40175 17.7491 5.38937 17.7927C4.86021 17.8163 4.32868 17.8128 3.79951 17.7927C3.3988 17.7821 3.23616 17.9424 3.2397 18.349C3.2397 18.9795 3.33045 19.0927 3.99397 19.0938C6.64728 19.1025 9.29941 19.1068 11.9504 19.1068L11.9539 19.0997ZM11.9622 3.52991H14.2603C16.1825 3.52991 18.1059 3.52991 20.0281 3.52991C20.2698 3.52991 20.5467 3.59473 20.6422 3.23409C20.9262 2.13568 20.3157 1.30009 19.1808 1.29891C14.3534 1.2942 9.52648 1.2942 4.69992 1.29891C3.67458 1.29891 3.27623 1.70197 3.25148 2.71317C3.23145 3.49808 3.25148 3.52401 4.07647 3.52401L11.9622 3.52991ZM4.51135 16.7497C4.78596 16.7497 5.05938 16.7497 5.33634 16.7497C5.82662 16.7497 6.10711 16.5057 6.14836 16.0131C6.18607 15.5476 5.89144 15.1881 5.38702 15.1504C4.9592 15.1151 4.52668 15.1339 4.09061 15.1339C3.24441 15.1339 3.24441 15.1339 3.24795 15.9671C3.24795 16.7344 3.26563 16.7497 4.03993 16.7544L4.51135 16.7497ZM19.2986 16.7438C20.7471 16.7509 20.7471 16.7509 20.6457 15.5818C20.6457 15.5429 20.6457 15.504 20.6398 15.4639C20.6431 15.4195 20.6366 15.375 20.621 15.3334C20.6053 15.2917 20.5807 15.254 20.549 15.2228C20.5172 15.1916 20.4791 15.1677 20.4372 15.1528C20.3953 15.1379 20.3506 15.1322 20.3063 15.1363C19.6805 15.1363 19.05 15.1044 18.43 15.1634C17.9963 15.2034 17.7312 15.5099 17.7524 15.9766C17.7759 16.4633 18.0364 16.732 18.5349 16.7415C18.7895 16.7497 19.0441 16.7426 19.2986 16.7426V16.7438ZM6.96745 21.0773C6.96745 20.1746 6.96745 20.1746 6.12479 20.1722C4.99927 20.1722 4.99927 20.1722 4.99574 20.9795C4.99574 22.0308 5.0087 22.0496 5.95861 22.0508C6.93445 22.0532 6.9651 22.0225 6.96745 21.0773ZM17.902 20.1675C16.9309 20.1675 16.9309 20.1675 16.9309 21.0031C16.9309 22.0237 16.9521 22.0473 17.928 22.0461C18.8814 22.0461 18.9038 22.0225 18.9026 21.0443C18.9026 20.1675 18.9026 20.1675 17.902 20.1675Z" fill="#FA8B02" stroke="#FA8B02" stroke-width="0.5"/>
<path d="M11.9193 17.7185C11.1332 17.7185 10.3483 17.7326 9.56218 17.7185C8.68769 17.6984 8.18092 17.1858 8.14792 16.3207C8.13967 16.105 8.14203 15.8882 8.14792 15.6725C8.16677 14.7768 8.65469 14.1911 9.53743 14.1687C11.1458 14.127 12.7564 14.127 14.3695 14.1687C15.2522 14.1911 15.7413 14.7756 15.759 15.6725C15.759 15.9082 15.7684 16.1439 15.759 16.3796C15.7154 17.1763 15.2098 17.676 14.4037 17.7208C14.3648 17.7208 14.3247 17.7208 14.2858 17.7208L11.9193 17.7185ZM12.0088 15.2247C11.2652 15.2247 10.5215 15.2376 9.77785 15.2247C9.27343 15.2129 9.13908 15.4733 9.14615 15.9212C9.15322 16.3466 9.17326 16.7191 9.74485 16.7167C11.2133 16.7104 12.6814 16.7104 14.1491 16.7167C14.7183 16.7167 14.7454 16.3525 14.7513 15.9247C14.7513 15.4792 14.6335 15.2117 14.1232 15.2247C13.4196 15.2376 12.7136 15.2247 12.0088 15.2247Z" fill="#FA8B02" stroke="#FA8B02" stroke-width="0.5"/>
</svg>
