<svg width="60" height="60" viewBox="0 0 60 60" fill="none" xmlns="http://www.w3.org/2000/svg">
<path d="M27.9876 2.01104C35.4869 2.01104 42.9871 2.01104 50.4883 2.01104C51.2666 2.01104 52.0865 2.19444 52.0198 0.919022C51.9892 0.363287 52.5035 0.0326239 53.0761 0.0270665C54.2324 0.0270665 55.4053 -0.0618512 56.545 0.0826401C58.638 0.360508 59.9889 2.10552 59.9944 4.44239C60.0056 11.0612 60.0056 17.68 59.9944 24.2988C59.9944 31.9346 59.9944 39.5714 59.9944 47.209C59.9944 50.4351 58.4657 51.9495 55.2219 51.9522C50.4077 51.9522 45.5907 51.9717 40.7681 51.9522C39.962 51.9522 39.3144 52.0773 38.8752 52.7858C38.8279 52.8636 38.7446 52.9192 38.6945 52.9942C36.2985 56.5482 32.8129 58.4738 28.8131 59.6436C28.3156 59.7909 27.8236 59.9965 27.365 59.6186C26.848 59.1879 26.9953 58.6461 27.1593 58.0876C27.6485 56.4009 28.0932 54.7003 28.5908 53.0165C28.7937 52.3218 28.8354 51.9383 27.8708 51.9439C22.2227 51.9828 16.5746 51.9745 10.9154 51.9439C10.1899 51.9439 9.95089 52.1579 9.96757 52.8886C10.012 54.7392 9.95089 56.5926 9.99259 58.446C10.0176 59.588 9.5145 60.0437 8.40267 59.9993C7.38534 59.9604 6.36524 59.9993 5.34513 59.9993C2.12638 59.9437 0 57.8236 0 54.5475C0 43.4384 0 32.3301 0 21.2228C0 16.6852 0 12.1504 0 7.6073C0.0138979 4.06449 2.05411 2.02216 5.62309 2.01382C13.0779 2.00271 20.5328 2.00178 27.9876 2.01104ZM28.0599 4.06171H5.96498C2.95469 4.06171 2.00964 5.02313 2.00964 8.07968V49.2041C2.00964 49.4347 2.00964 49.6682 2.00964 49.8988C1.96794 50.5823 2.16251 50.8769 2.87408 50.4962C3.80524 49.996 4.81979 49.9933 5.85379 49.9933C13.6366 49.9933 21.4194 49.9933 29.2023 49.9933C29.5719 49.9933 29.9444 49.9933 30.3141 49.9933C30.5021 49.9898 30.6838 49.9244 30.831 49.8074C30.9782 49.6904 31.0827 49.5282 31.1285 49.3458C31.248 48.979 30.9145 48.7679 30.6504 48.5817C30.1983 48.2504 29.6569 48.0625 29.0966 48.0426C28.31 48.0232 27.5234 48.0093 26.7368 48.0232C26.0502 48.0232 26.003 47.5869 26.0419 47.0951C26.0725 46.6783 25.8362 46.0448 26.5589 46.0225C28.3573 45.9697 30.2529 45.6835 31.765 46.9451C32.5989 47.6369 32.9658 47.4758 33.6162 46.745C37.9552 41.8656 42.3608 37.0446 46.7108 32.1764C47.9311 30.8093 49.3486 30.2007 51.1582 30.5842C51.4167 30.637 51.8308 30.976 51.9031 30.4119C51.9753 29.8478 51.4945 30.0312 51.2193 30.0285C49.6433 30.0118 48.0673 30.0118 46.494 30.0285C45.7324 30.0285 45.0125 29.9062 45.0514 28.9642C45.0876 28.0973 45.8075 28.0473 46.494 28.05C47.9755 28.05 49.4598 28.0139 50.9413 28.05C51.7169 28.0778 52.0004 27.8444 51.9754 27.0414C51.9235 25.3742 51.9235 23.707 51.9754 22.0398C52.0031 21.2062 51.6974 21.02 50.9274 21.0422C49.4015 21.0895 47.8699 21.0589 46.3439 21.0422C45.6157 21.0422 45.0097 20.7977 45.0431 19.9557C45.0764 19.1916 45.6768 19.011 46.3356 19.0082C47.8199 19.0082 49.3014 18.9638 50.7829 19.0082C51.6501 19.0388 52.0198 18.822 51.9809 17.8634C51.9086 15.9683 51.9059 14.0649 51.9809 12.1699C52.0198 11.2085 51.6529 11.0056 50.7857 11.039C49.2597 11.0945 47.7282 11.064 46.2022 11.039C45.5128 11.039 45.0097 10.7111 45.0431 9.95529C45.0764 9.26339 45.599 9.04944 46.2105 9.03554C46.9054 9.02165 47.6003 9.05777 48.2952 9.01887C49.4848 8.95496 51.0748 9.54126 51.753 8.741C52.3367 8.06578 51.8586 6.51806 51.9781 5.38158C52.0977 4.2451 51.6196 4.01725 50.5883 4.02281C43.0835 4.07838 35.5786 4.06171 28.0737 4.06171H28.0599ZM57.9931 23.8459C57.9931 17.5476 57.9931 11.2548 57.9931 4.96756C58.0148 4.46143 57.9671 3.95472 57.8514 3.46151C57.5067 2.28057 56.2142 1.7304 54.616 2.03049C53.4152 2.25557 53.985 3.22533 53.9822 3.82274C53.947 16.2657 53.9405 28.7077 53.9627 41.1487C53.9627 42.0185 53.6236 43.0466 54.1379 43.7135C54.6021 44.3136 55.6222 43.8385 56.381 43.9913C56.4754 43.9957 56.5689 44.0125 56.6589 44.0413C57.9737 44.6443 58.0265 43.9274 58.0209 42.8715C57.9737 36.525 57.9931 30.1868 57.9931 23.8459ZM51.9587 38.5006C49.9574 40.279 42.2552 48.9596 41.7715 49.9794C46.5718 49.9794 51.3221 50.0155 56.0724 49.9544C57.2343 49.9405 57.9653 49.1208 57.9487 47.9454C57.932 46.77 57.1898 46.0837 56.003 46.0003C55.1691 45.9475 54.3352 45.9503 53.5013 45.9781C52.3895 46.017 51.917 45.5113 51.942 44.3887C51.9781 42.5131 51.9587 40.618 51.9587 38.5006ZM8.04132 54.9977C8.04132 51.5938 8.04132 51.5938 4.80589 51.9717C4.71264 51.977 4.61981 51.9882 4.52793 52.005C3.3355 52.3301 2.45715 52.9998 2.13194 54.2446C1.98125 54.7592 1.98268 55.3063 2.13607 55.8201C2.28945 56.3338 2.58824 56.7922 2.99639 57.14C4.35004 58.3988 6.10952 58.2015 7.59659 57.8514C8.63059 57.6096 7.8134 56.1536 8.03576 55.2728C8.04783 55.1815 8.04876 55.0891 8.03854 54.9977H8.04132ZM31.8595 52.8108C32.2904 52.7775 32.4766 52.4218 32.7156 52.1579C36.4329 48.051 40.1455 43.9395 43.8534 39.8233C44.0063 39.651 44.1536 39.4732 44.3037 39.2981C44.356 39.2521 44.3966 39.1943 44.4223 39.1295C44.448 39.0648 44.458 38.9948 44.4515 38.9255C44.445 38.8561 44.4221 38.7893 44.3849 38.7304C44.3476 38.6716 44.2969 38.6223 44.237 38.5868C44.1962 38.5484 44.1479 38.5188 44.0952 38.4997C44.0424 38.4806 43.9864 38.4725 43.9304 38.4759C43.8744 38.4793 43.8197 38.4941 43.7697 38.5194C43.7197 38.5446 43.6753 38.5799 43.6394 38.6229C43.442 38.8174 43.2586 39.023 43.0835 39.2287L32.118 51.3493C31.8906 51.5779 31.685 51.8272 31.5037 52.0939C31.2369 52.5163 31.5593 52.6608 31.8568 52.8108H31.8595ZM46.7386 41.0237C46.6191 40.857 46.5524 40.6597 46.4162 40.5902C45.8797 40.3123 45.6824 40.8208 45.4294 41.0987C41.6622 45.2445 37.9051 49.3986 34.1582 53.5611C33.8942 53.8556 33.2521 54.1807 33.8442 54.6726C34.4362 55.1644 34.6475 54.4503 34.906 54.1696C38.6473 50.0627 42.3747 45.9438 46.0882 41.8128C46.2994 41.5766 46.4912 41.321 46.7358 41.0237H46.7386ZM52.0476 34.3549C52.0361 33.9393 51.8963 33.5375 51.6474 33.2045C50.9358 32.2875 49.6544 32.2125 48.7205 32.9878C47.478 34.0214 48.751 34.3771 49.2236 34.9551C49.3945 35.1746 49.6024 35.3626 49.8379 35.5108C50.2659 35.7581 50.4994 36.5722 51.1637 36.1388C51.4543 35.9455 51.6887 35.6791 51.8434 35.3664C51.9981 35.0537 52.0676 34.7058 52.0448 34.3576L52.0476 34.3549ZM49.3681 38.1589C49.3987 37.7254 49.1235 37.5865 48.9317 37.4058C48.3953 36.9001 47.8199 36.4361 47.3001 35.9137C46.7803 35.3913 46.4301 35.4747 45.9464 35.9971C45.4267 36.5528 45.3683 36.9585 46.0048 37.4475C46.5607 37.8699 47.0305 38.3728 47.5586 38.8202C47.8199 39.0397 48.0839 39.4454 48.4898 39.0981C48.8001 38.8037 49.0925 38.491 49.3653 38.1616L49.3681 38.1589ZM29.6581 57.0178C30.5405 56.8356 31.3861 56.5069 32.1597 56.0452C31.6652 55.4054 31.0666 54.8531 30.3891 54.4114C29.9934 55.2302 29.7458 56.1126 29.6581 57.0178Z" fill="#FA8B02"/>
<path d="M19.3068 16.0462C16.48 11.6864 16.3799 9.22173 18.826 7.18218C19.7736 6.42162 20.9625 6.02559 22.1771 6.06586C23.3917 6.10613 24.5517 6.58004 25.4469 7.40169C27.6706 9.49681 27.451 12.3255 24.6297 16.0406C26.3836 15.9822 27.9652 16.3351 29.5051 15.7072C31.1145 15.0431 31.9317 13.7621 31.9595 12.0087C31.9873 10.3415 32.0095 8.67433 31.9595 7.00712C31.9289 6.13461 32.3486 6.05681 33.0491 6.04014C33.7968 6.02069 34.0108 6.31801 33.9913 7.01268C33.9552 8.49371 33.9913 9.97475 33.9913 11.4586C33.9747 15.596 31.5592 18.0329 27.4427 18.0413C21.7028 18.0413 15.9602 18.0274 10.2093 18.0413C7.66595 18.0413 5.95095 19.8418 6.08159 22.2509C6.12027 23.067 6.41176 23.8509 6.91572 24.4941C7.41969 25.1373 8.11119 25.608 8.89452 25.841C10.6012 26.3467 10.9598 26.1189 11.0376 24.3516C11.0765 23.4124 11.4907 23.0262 12.4135 23.0345C14.7733 23.054 17.1388 23.0707 19.4958 23.0345C20.6494 23.0151 21.1636 23.5347 21.0302 24.6239C20.8856 25.8049 21.3748 26.1189 22.5145 26.0522C24.2684 25.9633 26.0306 26.0133 27.7957 26.0355C31.3924 26.0772 33.9608 28.553 33.9774 31.9624C33.9941 35.4135 31.3702 37.9949 27.7401 38.0144C21.8585 38.045 15.9769 38.0144 10.0981 38.0366C7.741 38.0366 6.10383 39.6872 6.07881 41.9268C6.05379 44.1664 7.64649 45.8169 9.97022 45.9586C10.2474 45.988 10.5269 45.988 10.8041 45.9586C11.9965 45.7697 12.0827 46.4782 11.9965 47.3674C12.0043 47.5248 11.9507 47.6791 11.847 47.7977C11.7434 47.9164 11.5977 47.9903 11.4406 48.0037C9.17248 48.515 6.23447 47.2368 4.92251 45.1361C4.28037 44.0811 3.97715 42.8546 4.05369 41.622C4.13022 40.3894 4.58284 39.2098 5.35056 38.2422C6.64862 36.6723 8.32471 35.9887 10.3538 35.9971C15.913 36.0249 21.4721 35.9971 27.0313 35.9971C27.5888 36.013 28.1466 35.9823 28.699 35.9054C29.6672 35.7437 30.5397 35.2251 31.1443 34.452C31.7489 33.6789 32.0417 32.7073 31.965 31.729C31.9257 30.7662 31.5242 29.8538 30.8408 29.1743C30.1574 28.4947 29.2426 28.0982 28.2793 28.0639C26.1502 27.9806 24.0182 28.0639 21.8863 28.025C21.1914 28.025 20.9857 28.3029 21.0524 28.9309C21.0802 29.2977 21.0274 29.6728 21.0524 30.0424C21.158 31.3206 20.7939 32.1569 19.2985 31.9735C19.0684 31.9386 18.8332 31.98 18.6289 32.0914C18.4246 32.2028 18.2624 32.3781 18.1672 32.5904C18.006 32.8683 17.8086 33.1267 17.6252 33.3962C16.1214 35.5803 15.8351 35.5942 14.4064 33.374C13.8505 32.5404 13.403 31.7596 12.1661 31.943C11.36 32.0625 11.0709 31.4567 11.0543 30.6981C11.0292 29.8645 11.3961 28.8281 10.8736 28.289C10.4427 27.8416 9.40875 28.0111 8.64992 27.8305C7.21052 27.5044 5.94487 26.6526 5.10108 25.442C4.2573 24.2315 3.89622 22.7496 4.08863 21.2867C4.41106 18.3386 6.85987 16.1156 9.9591 16.0573C11.4879 16.0212 13.0166 16.0573 14.5454 16.0573L19.3068 16.0462ZM15.9852 25.0074C13.0417 25.0074 13.0305 25.0074 13.0472 27.9306C13.0472 28.9337 12.6247 30.248 14.437 30.1535C15.5044 32.0236 16.5606 31.9958 17.6057 30.1341C19.3346 30.2841 18.9955 29.0448 18.9955 28.0445C19.0011 25.0074 18.9983 25.0074 15.9852 25.0074ZM24.9883 11.0834C24.9935 10.6848 24.9188 10.2891 24.7685 9.91973C24.6183 9.5504 24.3955 9.21492 24.1133 8.9331C23.8312 8.65128 23.4954 8.42883 23.1258 8.2789C22.7563 8.12897 22.3604 8.0546 21.9616 8.06017C21.5628 8.06574 21.1691 8.15114 20.8039 8.31134C20.4386 8.47153 20.1092 8.70327 19.8351 8.99286C19.5609 9.28245 19.3476 9.62403 19.2077 9.99741C19.0678 10.3708 19.0041 10.7684 19.0205 11.1668C19.0483 13.1313 20.5827 14.0955 21.739 15.3126C21.8752 15.4543 22.0336 15.4404 22.2309 15.357C23.3483 14.8847 24.9911 12.3672 24.9883 11.0834Z" fill="#FA8B02"/>
<path d="M43.0198 10.611C43.0198 14.3206 43.2977 14.0371 39.5536 14.0316C35.5927 14.0316 36.018 14.365 36.0097 10.4193C36.0097 6.72088 35.6817 6.98764 39.4563 6.98764C43.3616 6.99875 43.0253 6.70977 43.0198 10.611ZM39.3507 11.9476C40.3097 12.1004 41.1296 12.1199 41.0185 10.6666C40.9462 9.65795 41.0185 8.85491 39.5953 8.9994C38.7086 9.09665 37.8136 8.89103 37.9998 10.2943C38.1221 11.1807 37.7108 12.3338 39.3507 11.9476Z" fill="#FA8B02"/>
<path d="M39.5005 31.9763C35.6813 31.9541 36.0121 32.4126 36.0065 28.4918C36.001 24.5711 35.7119 25.0074 39.506 25.0074C43.2418 25.0074 43.0278 24.6156 43.0222 28.503C43.0166 32.3903 43.2835 31.9541 39.5005 31.9763ZM40.9458 28.5502C41.2238 27.4387 40.9208 26.883 39.5922 26.9413C38.4998 26.9775 37.8605 27.0525 37.9884 28.4113C38.0829 29.4032 37.955 30.1979 39.4115 30.0396C40.4261 29.9284 41.3294 30.034 40.9458 28.5502Z" fill="#FA8B02"/>
<path d="M43.0196 19.5362C43.0363 23.3874 43.2642 23.0429 39.5007 23.0401C35.7371 23.0373 36.004 23.4069 36.0067 19.5306C36.0095 15.6544 35.6676 16.0545 39.509 16.0517C43.3504 16.0489 43.0252 15.6516 43.0196 19.5362ZM38.0608 19.4945C37.7996 20.6838 38.2109 21.1006 39.4757 21.0867C40.6709 21.0867 41.0517 20.781 41.0406 19.5473C41.0267 18.3719 40.7626 17.9607 39.5201 17.9968C38.3583 18.0301 37.7301 18.2052 38.0608 19.4945Z" fill="#FA8B02"/>
<path d="M14.9321 46.0031C15.7854 45.8669 16.08 46.1698 16.0717 46.9756C16.0717 47.7342 15.8577 48.0371 15.0516 48.0315C14.2455 48.026 13.9731 47.8092 13.9981 47.0117C14.0204 46.2921 14.1232 45.7808 14.9321 46.0031Z" fill="#FA8B02"/>
<path d="M19.9825 47.0506C20.1548 47.9065 19.6767 48.0009 18.9624 48.0315C18.084 48.0676 18.0479 47.6203 18.0118 46.9395C17.9673 46.1059 18.3509 45.9753 19.0708 45.9531C19.9325 45.928 20.102 46.3337 19.9825 47.0506Z" fill="#FA8B02"/>
<path d="M23.0008 45.9892C23.8347 45.8475 23.9987 46.2809 24.0126 47.0145C24.0126 47.8148 23.7096 48.0204 22.9536 48.0315C22.1364 48.0315 21.9641 47.7092 21.9529 46.9673C21.9418 46.167 22.2365 45.8669 23.0008 45.9892Z" fill="#FA8B02"/>
<path d="M21.9586 10.0275C22.5479 10.0664 22.9454 10.3693 22.9954 10.9445C23.0133 11.0716 23.0032 11.2012 22.9657 11.324C22.9283 11.4468 22.8644 11.56 22.7786 11.6555C22.6928 11.7511 22.5872 11.8268 22.469 11.8772C22.3509 11.9277 22.2232 11.9517 22.0948 11.9476C21.9681 11.9715 21.8377 11.9665 21.7132 11.9331C21.5886 11.8997 21.4732 11.8387 21.3755 11.7546C21.2778 11.6705 21.2003 11.5655 21.1487 11.4474C21.0971 11.3293 21.0728 11.2011 21.0775 11.0723C21.033 10.4832 21.386 10.1581 21.9586 10.0275Z" fill="#FA8B02"/>
</svg>
