<svg width="19" height="28" viewBox="0 0 19 28" fill="none" xmlns="http://www.w3.org/2000/svg">
<path d="M18.7045 9.99306C18.5655 18.5258 13.8861 25.1322 6.15635 27.6904C5.97102 27.7474 5.80423 27.8045 5.62632 27.8543C4.54404 28.1637 3.67673 27.9077 3.16709 27.1323C2.65746 26.3569 2.74085 25.4471 3.47473 24.6036C4.85787 23.0318 6.03022 21.2885 6.9625 19.4172C7.4814 18.3675 7.48696 18.3693 6.40653 18.0378C2.50364 16.837 -0.111259 13.1056 0.00364074 8.90091C0.112981 4.88959 3.04478 1.28899 7.01068 0.288921C8.97014 -0.216649 11.0427 -0.0656319 12.907 0.718556C14.7713 1.50274 16.3232 2.87629 17.322 4.62622C18.2783 6.25169 18.7572 8.11089 18.7045 9.99306Z" fill="#FA8B02"/>
</svg>
