<svg width="24" height="24" viewBox="0 0 24 24" fill="none" xmlns="http://www.w3.org/2000/svg">
<path d="M12.005 22.7793C12.005 21.6442 12.0049 21.6539 13.1427 21.6787L13.1436 21.6797C13.4387 21.6862 13.5608 21.7614 13.547 22.0723L13.3468 22.0645L13.3458 21.9824C13.3441 21.9614 13.3412 21.9452 13.338 21.9336C13.3351 21.9235 13.3327 21.9177 13.3311 21.915C13.33 21.913 13.3289 21.9118 13.3282 21.9111C13.3269 21.91 13.3168 21.9022 13.2852 21.8945C13.2527 21.8866 13.206 21.8814 13.1388 21.8799C12.8492 21.8736 12.649 21.8687 12.502 21.8809C12.353 21.8932 12.3047 21.9199 12.2852 21.9385C12.2666 21.9563 12.2382 22.0012 12.2218 22.1475C12.2055 22.2919 12.2052 22.4905 12.2052 22.7793C12.2052 23.0404 12.1948 23.2778 12.2042 23.5234L12.2081 23.6318C12.2083 23.6687 12.2075 23.7059 12.2042 23.7422C12.1975 23.8149 12.1801 23.8978 12.1349 23.9746C12.0323 24.1484 11.843 24.2051 11.6251 24.2051C11.4142 24.205 11.2248 24.1581 11.1173 23.9912C11.0692 23.9165 11.0502 23.8344 11.0411 23.7627C11.0321 23.6916 11.0311 23.615 11.0313 23.5439H11.2315C11.2306 23.7955 11.2423 23.9598 11.4991 23.9971L11.6251 24.0059C12.0046 24.0059 12.019 23.8101 12.005 23.5332V22.7793ZM20.6222 20.5068C20.8663 20.5308 20.9451 20.6445 20.9386 20.9326C20.9192 21.8117 20.9374 22.6922 20.9288 23.5713C20.9256 23.8363 20.9565 24.0009 21.296 24.002C21.5933 24.0029 21.7091 23.9116 21.7159 23.6719L21.712 23.5605C21.7007 23.4265 21.7026 23.2918 21.7052 23.1572L21.7042 22.7539L21.9044 22.7441C21.9112 22.8866 21.9069 23.0296 21.9044 23.1611C21.9031 23.2283 21.9027 23.2931 21.9034 23.3564L21.9112 23.5439C21.9249 23.7154 21.9135 23.9034 21.7882 24.0391C21.6628 24.1746 21.4754 24.2027 21.295 24.2021C21.0992 24.2015 20.9221 24.1533 20.8175 23.9971C20.7281 23.8636 20.7271 23.6926 20.7286 23.5684C20.7371 22.7011 20.719 21.8058 20.7384 20.9287C20.742 20.772 20.7142 20.7395 20.7101 20.7354C20.7039 20.7294 20.6675 20.7022 20.5069 20.7021C18.6746 20.7158 16.8416 20.7158 15.0079 20.7021C14.9244 20.7022 14.8727 20.7092 14.8419 20.7178C14.8371 20.7191 14.8332 20.7206 14.8302 20.7217C14.83 20.7246 14.8301 20.7282 14.8302 20.7324C14.8303 20.7479 14.8326 20.7677 14.837 20.793L14.8585 20.8867C14.8952 21.0242 14.929 21.1955 14.8995 21.3643C14.8677 21.5459 14.7663 21.7089 14.5714 21.8271L14.5704 21.8262C14.5529 21.8371 14.548 21.8462 14.546 21.8496C14.5434 21.8542 14.5395 21.8631 14.5372 21.8818C14.5346 21.9027 14.5345 21.929 14.5362 21.9668C14.5377 21.999 14.5414 22.0501 14.5411 22.0957L14.3399 22.0938C14.3409 21.9399 14.2919 21.7639 14.4669 21.6562C14.7601 21.4785 14.7352 21.2023 14.6651 20.9395C14.5768 20.6163 14.6423 20.502 15.0089 20.502C16.842 20.5156 18.6743 20.5156 20.5059 20.502L20.5069 20.5029L20.6222 20.5068ZM13.5372 23.5811C13.5275 23.8728 13.6058 23.9999 13.9288 24L13.9317 24.2002H13.9288C13.7513 24.2001 13.5745 24.1669 13.4571 24.0303C13.3453 23.9 13.333 23.7255 13.338 23.5742L13.5372 23.5811ZM14.4073 22.0947L14.5411 22.0957L14.5323 22.8496C14.531 23.0989 14.5326 23.3469 14.5411 23.5947L14.5382 23.7266C14.5263 23.8562 14.4838 23.9774 14.3819 24.0674C14.2556 24.1788 14.0833 24.1985 13.9317 24.2002L13.9288 24C14.222 23.9968 14.3528 23.916 14.3409 23.6025C14.3237 23.1007 14.3344 22.5977 14.3409 22.0947L14.3399 22.0938L14.4073 22.0947ZM1.1456 22.7988C1.1456 21.588 1.14493 21.5954 2.37704 21.6719C2.63033 21.688 2.7232 21.7624 2.71786 22.0176C2.70924 22.5559 2.72735 23.0945 2.70907 23.6328L2.50985 23.627C2.52831 23.0845 2.50873 22.5719 2.51767 22.0137L2.50985 21.9111C2.50569 21.8964 2.50194 21.8953 2.50497 21.8984C2.50278 21.8969 2.49577 21.8932 2.48056 21.8887C2.45675 21.8816 2.4202 21.8747 2.36435 21.8711C2.05164 21.8517 1.83383 21.8388 1.67392 21.8457C1.51044 21.8527 1.45592 21.8802 1.43368 21.9004C1.41279 21.9195 1.38117 21.9676 1.36337 22.124C1.34585 22.2783 1.34579 22.4912 1.34579 22.7988C1.34579 23.0595 1.33731 23.2979 1.34579 23.5459C1.3498 23.6629 1.35399 23.8351 1.2706 23.9727C1.17048 24.1375 0.991104 24.1935 0.783292 24.1924C0.609289 24.1923 0.425189 24.1682 0.297941 24.0391C0.168224 23.9074 0.149893 23.722 0.160245 23.5459L0.359464 23.5576C0.340171 23.8858 0.452791 23.9931 0.783292 23.9932C1.13368 23.9953 1.15422 23.8048 1.1456 23.5527V22.7988ZM2.70907 23.6328C2.69967 23.8957 2.81416 23.9734 3.00888 23.9863L3.09775 23.9883C3.31465 23.9854 3.45411 23.9642 3.48544 23.748L3.49228 23.6436C3.48635 22.9169 3.48393 22.1899 3.48446 21.4629L3.49228 19.2812C3.49331 19.0552 3.41619 18.9892 3.18661 18.958L3.21396 18.7598C3.33254 18.7759 3.46996 18.8061 3.56845 18.9062C3.67317 19.013 3.69306 19.1547 3.69247 19.2822C3.6887 20.0093 3.6852 20.7364 3.68466 21.4629L3.69247 23.6416V23.6436C3.69245 23.8248 3.6502 23.9952 3.50107 24.0977C3.4341 24.1436 3.3607 24.1643 3.29599 24.1748C3.23176 24.1852 3.16294 24.1877 3.0997 24.1885C2.97277 24.1901 2.81048 24.18 2.68466 24.084C2.54297 23.9757 2.50348 23.8064 2.50985 23.627L2.70907 23.6328ZM13.547 22.0723C13.5265 22.5751 13.5543 23.0783 13.5382 23.5801L13.338 23.5742C13.3459 23.3283 13.3433 23.0816 13.3409 22.8291C13.3385 22.5781 13.3363 22.3217 13.3468 22.0645L13.547 22.0723ZM0.0948156 21.5117C0.426725 21.7218 0.360453 22.0242 0.360441 22.3193C0.367984 22.7317 0.384108 23.1453 0.360441 23.5566L0.160245 23.5459C0.171826 23.345 0.17398 23.1437 0.171964 22.9404L0.160245 22.3232V22.3193C0.160249 22.2491 0.164275 22.1525 0.165128 22.0957C0.16614 22.027 0.16436 21.9695 0.155362 21.9189C0.139525 21.8303 0.102334 21.7529 -0.0116298 21.6807L0.0948156 21.5117ZM11.6534 18.9658C11.3182 18.9658 11.2316 19.0735 11.2315 19.3965C11.2455 20.7785 11.2412 22.1619 11.2315 23.5439H11.0313L11.0411 21.4707C11.0416 20.7798 11.0383 20.0888 11.0313 19.3984V19.3965C11.0314 19.2321 11.0498 19.0515 11.171 18.9229C11.2955 18.7908 11.4777 18.7656 11.6534 18.7656V18.9658ZM23.6456 19.8857V16.709C23.6467 16.5431 23.5773 16.3382 23.7755 16.2197L23.878 16.3916C23.8568 16.4043 23.8499 16.4144 23.8468 16.4199C23.8429 16.4268 23.8382 16.4396 23.836 16.4639C23.8337 16.4899 23.8348 16.5211 23.838 16.5645L23.8448 16.71C23.8394 17.7683 23.8448 18.8254 23.8448 19.8857C23.8448 20.5345 23.7156 21.0757 23.419 21.5166C23.122 21.9581 22.6714 22.2782 22.0704 22.5098C21.9698 22.5485 21.9381 22.5788 21.9259 22.5967C21.9149 22.6128 21.8999 22.6477 21.9044 22.7441L21.7042 22.7539C21.6936 22.5229 21.766 22.4116 21.9981 22.3223C23.0755 21.9071 23.581 21.2234 23.6397 20.1133L23.6456 19.8857ZM-0.0116298 21.6807L-0.0135829 21.6797L0.0948156 21.5117L-0.0116298 21.6807ZM3.29306 14.4795L3.27255 14.6768C2.07282 14.5555 0.808913 15.4832 0.598722 16.8984C0.396037 18.2644 0.212298 19.6337 0.0225499 21.0029C-0.00219274 21.1792 -0.0622768 21.4091 0.093839 21.5107L-0.0135829 21.6797C-0.173886 21.5765 -0.207859 21.4106 -0.209872 21.2891C-0.211684 21.1762 -0.185337 21.0441 -0.175692 20.9756C0.0139121 19.6074 0.198586 18.2364 0.401456 16.8691C0.626657 15.3528 1.98209 14.3466 3.29306 14.4795ZM22.8643 16.6543L22.8653 16.6553C22.8438 17.8014 22.8641 18.9485 22.8565 20.0957C22.8618 20.3581 22.7976 20.6172 22.672 20.8477C22.5462 21.0782 22.3624 21.2724 22.1388 21.4102C22.0257 21.4834 21.8933 21.6288 21.7608 21.5312C21.727 21.5065 21.7129 21.4497 21.7071 21.3848L21.7032 21.1865V18.9238C21.7032 18.1709 21.7326 17.4168 21.6895 16.666C21.671 16.3042 21.8354 16.2502 22.0343 16.251L22.2393 16.2607C22.5131 16.2726 22.8737 16.1251 22.8643 16.6543L22.6661 16.6514C22.6682 16.5375 22.6491 16.49 22.6397 16.4746C22.6355 16.4676 22.6315 16.4633 22.6104 16.458C22.5804 16.4505 22.5364 16.4483 22.4649 16.4521C22.4045 16.4554 22.3119 16.4645 22.2306 16.4609C22.1478 16.4574 22.0958 16.4514 22.0333 16.4512C21.9757 16.4509 21.9441 16.457 21.9268 16.4639C21.9175 16.4676 21.9133 16.4697 21.9073 16.4824C21.8978 16.5026 21.8845 16.5521 21.8897 16.6553C21.9332 17.4134 21.9034 18.1815 21.9034 18.9238V21.1865C21.9034 21.2409 21.9038 21.2872 21.9054 21.3301C21.9132 21.3246 21.9232 21.3195 21.9327 21.3125C21.9575 21.2943 21.9955 21.2648 22.0304 21.2422L22.0343 21.2402C22.2283 21.1207 22.3881 20.9519 22.4972 20.752C22.5788 20.6021 22.63 20.4381 22.6485 20.2695L22.6563 20.0996L22.6554 18.375C22.6542 17.8001 22.6553 17.2243 22.6661 16.6514L22.8643 16.6543ZM13.5987 20.9082L13.5997 20.8398L13.5977 20.9102C13.0966 20.8984 12.5125 21.0473 12.1202 20.832L12.2149 20.6562H12.2169C12.3626 20.7361 12.5593 20.7556 12.8116 20.7471C12.936 20.7428 13.0623 20.7328 13.1974 20.7236C13.3294 20.7147 13.4677 20.7068 13.6026 20.71C13.618 20.7104 13.6304 20.7079 13.6388 20.707L13.6397 20.7061C13.6409 20.6851 13.6386 20.656 13.6329 20.6162L13.3624 18.7246C13.2713 18.0953 13.177 17.4671 13.0743 16.8398L13.047 16.708C13.0162 16.5921 12.975 16.5195 12.9249 16.4756C12.8668 16.4247 12.7546 16.3778 12.503 16.4199L12.4698 16.2227C13.0343 16.1281 13.2036 16.3953 13.2716 16.8066C13.4775 18.0638 13.6479 19.3265 13.8311 20.5869C13.8581 20.7743 13.8334 20.9145 13.5987 20.9082ZM1.55966 17.0869C1.47534 17.6434 1.40096 18.2021 1.32626 18.7627C1.25168 19.3225 1.17678 19.8844 1.09189 20.4453L1.08017 20.5605C1.07692 20.6498 1.09378 20.6707 1.09482 20.6719C1.10074 20.6783 1.14305 20.7088 1.33603 20.71C1.68526 20.71 1.93043 20.7128 2.11142 20.6943C2.29448 20.6757 2.36643 20.6395 2.40243 20.6045C2.43735 20.5703 2.47412 20.5021 2.49423 20.3232C2.50424 20.2341 2.50932 20.128 2.51181 20.001L2.51376 19.5498C2.51376 19.4772 2.51018 19.3788 2.51376 19.2969C2.51744 19.2126 2.52876 19.1115 2.57138 19.0186C2.61827 18.9166 2.69985 18.8327 2.82138 18.7871C2.9337 18.7449 3.06684 18.7402 3.21396 18.7598L3.18661 18.958C2.66189 18.8881 2.71396 19.2138 2.71396 19.5498L2.71103 20.0049C2.69282 20.9262 2.53943 20.9111 1.33603 20.9111L1.20321 20.9053C0.923128 20.8776 0.842763 20.7514 0.893644 20.416C1.06285 19.298 1.19121 18.1735 1.36044 17.0566L1.55966 17.0869ZM11.6534 18.7656C11.8574 18.7656 12.0413 18.8183 12.1417 18.9854C12.1863 19.0598 12.2033 19.1399 12.2091 19.21C12.2148 19.2798 12.2105 19.3525 12.2052 19.4189V19.4209L12.2013 19.5107C12.2013 19.5407 12.2025 19.5707 12.2052 19.6006C12.2189 19.7264 12.2097 19.8595 12.1974 19.9805C12.1838 20.1132 12.168 20.2187 12.1593 20.332C12.1508 20.4415 12.153 20.5222 12.1671 20.5791C12.1794 20.6289 12.1963 20.6461 12.2149 20.6562L12.1192 20.8311C11.7984 20.6558 12.0533 20.0368 12.0059 19.6182C11.9995 19.5467 11.9995 19.4748 12.0059 19.4033C12.0239 19.1781 12.0121 19.0117 11.7716 18.9736L11.6534 18.9658V18.7656ZM21.3204 12.7412C21.0103 12.7413 20.9249 12.8493 20.9249 13.1465C20.94 15.1597 20.9179 17.1698 20.9405 19.1787C20.9459 19.6171 20.8411 19.7604 20.3809 19.7529C18.6561 19.726 16.931 19.7292 15.2061 19.7529C14.8476 19.7576 14.7291 19.667 14.7052 19.377L14.7003 19.2402C14.7105 18.2456 14.7124 17.2499 14.712 16.2539L14.7091 13.2646C14.7091 13.0375 14.7615 12.8075 14.4757 12.752L14.3311 12.7393L14.3321 12.5391C14.4605 12.5397 14.5758 12.5582 14.671 12.6074C14.773 12.6602 14.8383 12.7412 14.8741 12.833C14.9067 12.9167 14.9116 13.0034 14.9122 13.0713C14.9125 13.1064 14.9112 13.1423 14.9102 13.1738C14.9092 13.2067 14.9083 13.236 14.9083 13.2646C14.9083 15.2548 14.921 17.2512 14.9005 19.2422C14.9006 19.4417 14.9293 19.4948 14.9444 19.5107C14.9563 19.5231 15.003 19.5563 15.2032 19.5537C16.9297 19.53 18.6566 19.5267 20.3839 19.5537C20.6081 19.5574 20.6688 19.5192 20.6886 19.498C20.7127 19.472 20.743 19.4021 20.7403 19.1816C20.7177 17.177 20.7397 15.1509 20.7247 13.1475C20.7247 12.9929 20.7438 12.8197 20.8604 12.6953C20.9802 12.5676 21.1536 12.5411 21.3204 12.541V12.7412ZM10.4727 15.4346C10.9707 16.3866 11.752 16.3422 12.4698 16.2227L12.503 16.4199C12.1421 16.48 11.7291 16.5289 11.337 16.4238C11.0462 16.3459 10.7783 16.186 10.5489 15.9102C10.2175 16.9621 9.62035 17.6986 8.64755 18.1221C6.82095 18.9174 4.74719 17.9149 4.18661 15.9619C4.13861 15.7956 4.09433 15.7257 4.05575 15.6943C4.02637 15.6705 3.97044 15.6447 3.82235 15.6621L3.81064 15.6631C3.62556 15.6737 3.44006 15.6735 3.25497 15.6631C2.77104 15.664 2.38495 15.7965 2.10458 16.0303C1.82401 16.2643 1.63126 16.6154 1.55966 17.0869L1.36142 17.0557C1.51698 16.0341 2.21465 15.464 3.25985 15.4639C3.43927 15.4741 3.6195 15.4741 3.79892 15.4639C4.14712 15.4229 4.27873 15.5584 4.379 15.9062C4.90724 17.7472 6.85551 18.6846 8.56747 17.9395C9.59703 17.4913 10.186 16.6723 10.4727 15.4346ZM6.18857 14.709V13.7588C6.83738 13.9171 7.40692 13.9869 7.96591 13.8828L8.20517 13.8271C8.41847 13.7706 8.51556 13.8444 8.52841 14.0205L8.52939 14.1016L8.32919 14.0918C8.33113 14.0537 8.32736 14.0276 8.32431 14.0107C8.31011 14.0114 8.28818 14.0122 8.25692 14.0205L8.25595 14.0195C7.64723 14.1887 7.045 14.1499 6.38876 14.0098V14.709C6.38876 14.8815 6.38814 15.0287 6.37411 15.1445C6.36008 15.2603 6.32864 15.3816 6.23935 15.4766C6.14945 15.5721 6.02985 15.6093 5.91513 15.6289C5.80083 15.6484 5.65572 15.6557 5.48544 15.6631C5.41967 15.666 5.37316 15.6676 5.33407 15.6729C5.32819 15.6736 5.32294 15.674 5.31845 15.6748C5.31861 15.6764 5.31922 15.678 5.31943 15.6797L5.337 15.7617C5.55638 16.5482 6.43177 17.1991 7.35946 17.1973L7.36044 17.3975L7.17196 17.3896C6.23397 17.3112 5.37508 16.6426 5.14462 15.8164C5.04575 15.4733 5.23211 15.4746 5.47665 15.4639C6.08597 15.4375 6.17418 15.4198 6.18661 14.9434L6.18857 14.709ZM9.56357 15.8086C9.34133 16.6864 8.36938 17.3952 7.36044 17.3975L7.35946 17.1973C8.2897 17.1953 9.17329 16.5382 9.37021 15.7607L9.56357 15.8086ZM23.2745 10.4902C23.3888 10.6367 23.4565 10.8133 23.4737 10.998H23.4757C23.6976 12.5054 23.9389 14.0118 24.172 15.5215C24.1902 15.6401 24.2163 15.8007 24.1895 15.9541C24.1596 16.125 24.0667 16.2798 23.878 16.3916L23.7755 16.2197C24.0501 16.057 24.0125 15.8038 23.9737 15.5518C23.8573 14.7976 23.7394 14.0433 23.6222 13.2891L23.2774 11.0273C23.2655 10.8768 23.2102 10.7324 23.1173 10.6133L23.1163 10.6123L23.2745 10.4902ZM13.7452 13.2549C13.7452 13.2105 13.742 13.1134 13.7433 13.0566C13.7447 12.988 13.7517 12.9009 13.7872 12.8174C13.8261 12.726 13.8942 12.6495 13.9962 12.6006C14.0911 12.5552 14.205 12.5385 14.3321 12.5391L14.3311 12.7393C13.8852 12.7372 13.9454 12.9867 13.9454 13.2549V16.1885C13.6522 15.8362 13.463 15.5925 13.5352 15.1875C13.5787 14.9738 13.5498 14.7518 13.4522 14.5566L13.4513 14.5557L13.6309 14.4668C13.6898 14.5845 13.7282 14.7102 13.7452 14.8389V13.2549ZM8.32919 14.5332C8.32919 14.4049 8.32136 14.2421 8.32919 14.0918L8.52939 14.1016C8.52184 14.2459 8.52939 14.3899 8.52939 14.5332L8.53036 14.8076C8.54118 15.367 8.62855 15.3847 9.3331 15.4629C9.58839 15.492 9.6205 15.5817 9.56357 15.8086L9.37021 15.7607C9.37978 15.7226 9.38173 15.695 9.38388 15.6758C9.36759 15.6716 9.34437 15.665 9.31064 15.6611C9.11389 15.6393 8.94957 15.6206 8.82235 15.5908C8.69388 15.5608 8.56799 15.5121 8.47665 15.4053C8.38689 15.3001 8.35669 15.1687 8.34286 15.0371C8.32904 14.9052 8.32919 14.7361 8.32919 14.5332ZM13.7315 15.2217L13.7325 15.2227C13.7126 15.3344 13.7173 15.4289 13.7452 15.5215V15.1406C13.7418 15.1678 13.7369 15.1947 13.7315 15.2217ZM21.711 14.4951C21.711 14.0459 21.6916 13.5965 21.711 13.1494C21.7223 12.8863 21.6528 12.7707 21.4268 12.7461L21.3204 12.7412V12.541C21.4866 12.541 21.6628 12.5676 21.7833 12.6963C21.9025 12.8238 21.9181 12.9992 21.9112 13.1582C21.892 13.6002 21.9112 14.0336 21.9112 14.4951C21.9112 14.7479 21.9118 14.9187 21.9259 15.042C21.94 15.166 21.9638 15.1966 21.9737 15.2061C21.9855 15.2172 22.0219 15.2404 22.1534 15.2529C22.2823 15.2652 22.4577 15.2646 22.714 15.2646V15.4648L22.3829 15.4639C21.8071 15.4558 21.7247 15.3869 21.713 14.8213L21.711 14.4951ZM15.6612 9.96094C15.8939 9.85335 15.9833 9.9051 16.1104 10.127C16.9601 11.5982 18.6748 11.5914 19.547 10.1113C19.6849 9.87877 19.7867 9.86778 20.002 9.96777C20.719 10.2985 21.4415 10.6172 22.1671 10.9307C22.3975 11.0307 22.5383 11.1617 22.5763 11.4336L22.5772 11.4346C22.7411 12.626 22.9208 13.8141 23.1163 14.999C23.1745 15.3566 23.0804 15.4648 22.714 15.4648V15.2646C22.798 15.2646 22.8534 15.2584 22.8888 15.249C22.922 15.2402 22.9259 15.232 22.9229 15.2354C22.92 15.2388 22.9274 15.2343 22.9308 15.2021C22.9344 15.1672 22.9314 15.113 22.9181 15.0312C22.7224 13.8451 22.543 12.6546 22.379 11.4619C22.3645 11.357 22.3322 11.2943 22.2931 11.249C22.2515 11.2011 22.1888 11.1581 22.088 11.1143C21.3617 10.8004 20.6371 10.4811 19.9181 10.1494L19.8155 10.1104C19.7965 10.1061 19.7938 10.1088 19.7989 10.1074C19.8094 10.1045 19.7847 10.1044 19.7198 10.2139L19.7188 10.2129C19.2531 11.0031 18.5471 11.4227 17.8214 11.4258C17.0949 11.4288 16.3916 11.0146 15.9366 10.2266L16.045 10.1641L16.1104 10.127L15.9366 10.2266C15.9073 10.1755 15.8855 10.1429 15.8683 10.123C15.8519 10.1041 15.8462 10.1037 15.8507 10.1055C15.8649 10.1111 15.8523 10.0935 15.7462 10.1426L15.7452 10.1416C15.011 10.483 14.2683 10.8078 13.5294 11.1318L13.5304 11.1328C13.4442 11.1711 13.392 11.205 13.3585 11.2412C13.329 11.2732 13.3039 11.3177 13.2931 11.3984C13.1935 12.1296 13.0763 12.8591 12.9532 13.584C12.9319 13.7087 12.9331 13.7688 12.9464 13.8076C12.9551 13.8332 12.978 13.8757 13.0821 13.9297C13.3198 14.0424 13.5132 14.2316 13.6309 14.4668L13.4513 14.5557C13.3536 14.3609 13.1941 14.2038 12.9972 14.1104C12.7222 13.9703 12.7128 13.8019 12.7559 13.5498C12.8174 13.188 12.8778 12.8258 12.9347 12.4629L13.0948 11.3721C13.1261 11.1383 13.2574 11.0343 13.4493 10.9492C14.1887 10.625 14.9294 10.3013 15.6612 9.96094ZM11.254 15.0908C11.2523 15.066 11.2536 15.0411 11.2569 15.0166L11.2745 14.9443C11.2912 14.8975 11.3177 14.8547 11.3517 14.8184C11.3857 14.782 11.427 14.7522 11.4727 14.7324C11.5183 14.7127 11.5676 14.7031 11.6173 14.7031V14.9033C11.5948 14.9033 11.5724 14.9071 11.5518 14.916C11.5313 14.9249 11.5125 14.9387 11.4972 14.9551C11.4821 14.9713 11.4704 14.9909 11.463 15.0117C11.4556 15.0327 11.4527 15.055 11.4542 15.0771L11.4552 15.0908C11.4552 15.1625 11.4759 15.1917 11.4933 15.207C11.5161 15.2272 11.5632 15.2495 11.6495 15.2549L11.6524 15.2559L11.6388 15.4258L11.6378 15.4424L11.6524 15.2559C11.7696 15.2648 11.877 15.2578 12.0157 15.2578H12.2159V15.2607H12.2843V15.46H12.0157V15.458C11.8907 15.458 11.764 15.4648 11.6368 15.4551C11.4106 15.441 11.254 15.3287 11.254 15.0908ZM12.2647 14.6934C12.5288 14.6912 12.7422 14.7719 12.753 15.0723C12.7638 15.3727 12.5483 15.4599 12.2843 15.46V15.2607C12.4013 15.2607 12.4721 15.2397 12.5079 15.2148C12.5281 15.2008 12.5561 15.174 12.5528 15.0801C12.5493 14.983 12.5186 14.9525 12.4942 14.9365C12.4558 14.9113 12.3843 14.8926 12.2667 14.8936H12.2647C12.0372 14.8936 11.8395 14.884 11.6358 14.9023L11.6261 14.9033H11.6173V14.7031C11.8329 14.6837 12.0491 14.6934 12.2647 14.6934ZM4.84286 12.9678C5.39255 13.3373 5.43891 13.7765 5.42489 14.3291C5.41627 14.6157 5.32795 14.7009 5.05087 14.6934L4.60653 14.6924C4.16097 14.6999 3.71424 14.7221 3.27353 14.6777L3.27255 14.6768L3.29306 14.4795C3.5743 14.5079 3.86093 14.5074 4.15634 14.502C4.44837 14.4965 4.75493 14.4855 5.05673 14.4932C5.16622 14.4961 5.19545 14.48 5.19931 14.4775C5.20226 14.4734 5.22109 14.4426 5.2247 14.3232C5.2316 14.0498 5.22198 13.8336 5.15634 13.6455C5.09361 13.4658 4.97446 13.2971 4.73153 13.1338L4.84286 12.9678ZM11.6475 10.416L11.6837 10.6143C11.5281 10.6418 11.462 10.6791 11.4249 10.7168C11.3853 10.7573 11.3492 10.8271 11.3136 10.9824C11.1005 11.9329 10.5465 12.7719 9.75692 13.3428C9.72973 13.363 9.68397 13.4226 9.6329 13.5332C9.58471 13.6376 9.54147 13.7673 9.51083 13.9023C9.48021 14.0374 9.46351 14.1717 9.462 14.2842C9.46048 14.3995 9.47692 14.4648 9.48935 14.4902C9.49082 14.4919 9.49214 14.4942 9.49423 14.4951C9.497 14.4963 9.50006 14.4966 9.50302 14.4961L9.51864 14.4932L9.53427 14.4922C9.65957 14.4872 9.78923 14.4948 9.8995 14.499C10.0149 14.5035 10.1151 14.5047 10.2071 14.4922C10.2969 14.4799 10.3735 14.4555 10.4405 14.4121C10.5071 14.3689 10.5757 14.2996 10.6397 14.1836L10.7159 14.0723C10.9139 13.8332 11.2494 13.7298 11.5352 13.75C11.6709 13.759 11.7015 13.7257 11.712 13.7129C11.738 13.6812 11.7591 13.6177 11.7794 13.4805L11.9581 12.334C12.0181 11.9564 12.0748 11.5804 12.1173 11.1982L12.3155 11.2197C12.2304 11.9856 12.0854 12.7452 11.9776 13.5078C11.9377 13.7782 11.8721 13.9739 11.5206 13.9502C11.2458 13.9309 10.9429 14.0499 10.8145 14.2803C10.504 14.8426 10.0024 14.6741 9.54208 14.6924C9.49844 14.701 9.45283 14.6958 9.4122 14.6777L9.35653 14.6416C9.34023 14.627 9.32584 14.6098 9.31454 14.5908C9.15956 14.3105 9.36521 13.3855 9.63778 13.1826C10.3889 12.6401 10.9149 11.8413 11.1173 10.9375L11.1837 10.9521L11.1183 10.9365C11.1937 10.6089 11.301 10.4774 11.6475 10.416ZM2.12021 5.90332C1.90408 3.48121 3.86829 1.92043 5.67587 2.09375L6.03427 2.11621C6.39348 2.12968 6.75702 2.11817 7.13193 2.11133C7.62656 2.1023 8.13766 2.10236 8.64853 2.19043L8.61337 2.38672C7.63272 2.21785 6.63796 2.38549 5.65732 2.29297L5.65634 2.29199C3.91537 2.1254 1.99449 3.68778 2.34579 6.11133C2.41478 6.59067 2.46302 7.07241 2.53525 7.55176C2.56133 7.65408 2.55839 7.76165 2.52646 7.8623C2.49444 7.96303 2.43504 8.05348 2.35458 8.12207L2.21103 8.27344C1.91202 8.63982 1.85934 9.0843 2.02255 9.55566C2.09751 9.79767 2.24477 10.0109 2.44442 10.167C2.64403 10.323 2.88676 10.4142 3.13974 10.4287L3.14071 10.4297C3.43702 10.4556 3.5218 10.5891 3.57138 10.8486C3.73197 11.71 4.12452 12.4831 4.84189 12.9668L4.73153 13.1338C3.95605 12.6114 3.54228 11.782 3.37509 10.8857C3.35178 10.7638 3.32683 10.7132 3.30282 10.6875C3.28469 10.6681 3.24456 10.6395 3.12314 10.6289C2.83141 10.6111 2.55171 10.5052 2.32138 10.3252C2.08952 10.144 1.91824 9.89624 1.83114 9.61523C1.62475 9.01245 1.73375 8.42573 2.21884 7.97559L2.2247 7.96973C2.27672 7.92537 2.31534 7.86684 2.33603 7.80176C2.3566 7.73685 2.35865 7.66755 2.34189 7.60156L2.33896 7.5918L2.33798 7.58203L2.2413 6.85645C2.21146 6.61573 2.18167 6.37777 2.14755 6.14062L2.12021 5.90332ZM4.25009 8.54297C4.25117 8.0022 4.96873 7.62225 5.45712 7.90332C6.92277 8.74669 7.69395 8.75632 8.91024 7.83008L9.15927 7.63281C9.35649 7.47349 9.50938 7.46235 9.68075 7.59375C9.95567 7.80362 10.4702 7.7362 10.464 8.27441V9.42969C10.4931 10.1493 10.4575 10.9809 9.95517 11.7285C9.1876 12.8757 7.82203 13.4097 6.52841 13.0469C5.88437 12.8629 5.31516 12.4787 4.90536 11.9492L4.90439 11.9482L5.06357 11.8262C5.44727 12.3219 5.98001 12.6822 6.5831 12.8545C7.78879 13.1928 9.06686 12.6968 9.78915 11.6172L9.87118 11.4863C10.2587 10.8281 10.2917 10.1039 10.2647 9.4375L10.2638 9.42969V8.27246L10.2608 8.20508C10.2539 8.146 10.2366 8.11054 10.2198 8.08691C10.1957 8.05304 10.1575 8.02273 10.0929 7.99219C10.0228 7.95915 9.95066 7.93736 9.85165 7.90137C9.78449 7.87694 9.70648 7.846 9.63192 7.80176L9.55868 7.75293L9.48642 7.70996C9.468 7.70337 9.45454 7.70336 9.44442 7.7041C9.41818 7.70604 9.36901 7.72039 9.28524 7.78809C8.59425 8.35522 8.01937 8.68121 7.39657 8.72559C6.77503 8.76982 6.14683 8.53036 5.35751 8.07617C5.18581 7.97741 4.95898 7.98889 4.76474 8.0918C4.59402 8.18225 4.48085 8.32487 4.45517 8.47754L4.45028 8.54297C4.45028 9.06804 4.44067 9.58102 4.45028 10.0986L4.46493 10.333C4.52156 10.8751 4.72804 11.3925 5.06357 11.8262L4.90439 11.9482C4.49513 11.419 4.26634 10.7722 4.25009 10.1035V8.54297ZM14.0196 6.17285C14.2577 6.20515 14.3571 6.27409 14.4024 6.51074C14.557 7.3133 14.9994 8.03243 15.6466 8.53223C16.0002 8.8134 15.9565 9.00419 15.5587 9.17871C14.704 9.55031 13.8575 9.96122 12.9952 10.3037C12.5461 10.4814 12.3673 10.7601 12.3155 11.2197L12.3058 11.2178L12.1173 11.1982C12.1454 10.9486 12.2108 10.7266 12.3448 10.54C12.48 10.3518 12.6717 10.2171 12.922 10.1182L13.5626 9.85156C14.1994 9.57608 14.8289 9.27758 15.4786 8.99512C15.5693 8.95532 15.627 8.92018 15.6602 8.8916C15.6923 8.86405 15.6892 8.85455 15.6876 8.86426C15.6858 8.87586 15.6929 8.87025 15.671 8.83691C15.6482 8.80218 15.6034 8.75344 15.5245 8.69043L15.2774 8.48145C14.8048 8.04241 14.4603 7.48285 14.2813 6.86328L14.2061 6.54883C14.1873 6.45042 14.1642 6.42629 14.1544 6.41797C14.1396 6.40551 14.1036 6.38608 13.9933 6.37109L14.0196 6.17285ZM12.5899 8.13477C13.02 8.55501 13.0829 9.1312 12.8956 9.61719C12.7092 10.1007 12.2719 10.5084 11.6837 10.6143L11.6475 10.416C12.6781 10.2307 13.1797 8.99154 12.4503 8.27832L12.5899 8.13477ZM20.2286 9.01855C21.0913 9.41185 21.9588 9.80576 22.8321 10.1729C23.007 10.2345 23.1603 10.3439 23.2745 10.4902L23.1163 10.6123C23.0235 10.4938 22.8976 10.4056 22.755 10.3574L22.754 10.3564C22.3162 10.1724 21.8799 9.98194 21.4454 9.78809L20.1456 9.2002L20.2286 9.01855ZM18.9767 9.4209C18.9184 9.96269 18.395 10.4382 17.7989 10.4502L17.6554 10.4375C17.5138 10.4166 17.3768 10.3697 17.252 10.2979L17.2511 10.2969L17.3517 10.124C17.4878 10.2024 17.6418 10.2452 17.7989 10.249C18.2995 10.2368 18.7318 9.83432 18.7784 9.40039L18.9767 9.4209ZM16.6827 9.2041C16.8002 9.0107 17.0651 9.21039 17.2569 9.24512L17.2481 9.29492L17.2227 9.44238L17.1202 9.41602C17.0879 9.40554 17.0575 9.39384 17.0313 9.38379C16.9721 9.36104 16.9285 9.34303 16.8868 9.33105C16.8689 9.32592 16.8557 9.32457 16.8468 9.32324C16.8312 9.36076 16.8297 9.41164 16.8556 9.49023C16.871 9.53716 16.8935 9.58609 16.921 9.63672L17.0147 9.79395L17.0177 9.79785C17.0997 9.93293 17.2147 10.045 17.3517 10.124L17.2511 10.2969C17.0852 10.2011 16.9462 10.0651 16.8468 9.90137C16.7088 9.68591 16.5555 9.41956 16.6827 9.2041ZM3.32528 8.54199C3.67108 8.58239 3.35573 8.94692 3.53036 9.07227C3.39417 9.27594 3.67998 9.62555 3.2706 9.64062C2.93891 9.65229 2.73925 9.43719 2.73153 9.10254C2.72399 8.76753 2.913 8.53911 3.24716 8.53906L3.24911 8.73828H3.24716C3.12815 8.7383 3.05514 8.77744 3.01083 8.82715C2.96423 8.87956 2.9288 8.96753 2.93173 9.09766C2.93466 9.2272 2.97397 9.31163 3.02255 9.36133C3.0692 9.40896 3.14431 9.44468 3.26376 9.44043L3.30185 9.43555L3.30282 9.43262C3.3022 9.41193 3.30006 9.38907 3.29696 9.35645C3.29412 9.32648 3.29093 9.28821 3.29013 9.24902C3.28927 9.20596 3.29196 9.15265 3.30575 9.09668C3.27951 9.03514 3.27251 8.97342 3.27353 8.92676C3.27445 8.8853 3.27982 8.84499 3.28427 8.81445C3.28875 8.7837 3.29089 8.76224 3.29306 8.74219C3.28179 8.74124 3.26717 8.73807 3.24911 8.73828L3.24716 8.53906L3.32528 8.54199ZM11.4835 8.54102C11.8109 8.55845 11.9959 8.78647 11.9874 9.10938C11.9788 9.43256 11.7718 9.66806 11.4483 9.63574L11.4688 9.43652C11.5741 9.44693 11.6457 9.41484 11.6934 9.36621C11.7446 9.3141 11.7839 9.22596 11.7872 9.10449C11.7905 8.98208 11.7571 8.89625 11.71 8.8418C11.6758 8.80223 11.6255 8.76882 11.5528 8.75195L11.4727 8.74023L11.4835 8.54102ZM11.4835 8.54102L11.4727 8.74023C11.4576 8.73941 11.4444 8.74087 11.4347 8.74121C11.4351 8.75377 11.436 8.76865 11.4376 8.78711C11.4398 8.81221 11.4437 8.84818 11.4454 8.88184C11.4474 8.92199 11.446 8.97828 11.4327 9.03906C11.455 9.10881 11.4573 9.17544 11.4542 9.22461C11.4517 9.26344 11.4468 9.30183 11.4425 9.33203C11.4378 9.36487 11.4335 9.3889 11.4317 9.41113C11.4312 9.41788 11.4319 9.42391 11.4317 9.42871C11.4403 9.43069 11.4527 9.43491 11.4688 9.43652L11.4483 9.63574L11.3809 9.62402C11.0831 9.55033 11.3427 9.21947 11.2198 9.05078V9.04883C11.3196 8.87105 11.0715 8.51871 11.4835 8.54102ZM18.6934 9.16895C18.9712 9.09043 19.0012 9.19541 18.9767 9.4209L18.7784 9.40039C18.7803 9.38312 18.7804 9.36741 18.7813 9.35352C18.7715 9.35584 18.7601 9.35697 18.7481 9.36035L18.7491 9.36133C18.2533 9.50509 17.731 9.53264 17.2227 9.44238L17.2569 9.24512C17.7351 9.33009 18.227 9.30423 18.6934 9.16895ZM21.4034 6.5918C21.2475 7.44081 20.7804 8.10131 20.1573 8.64551C20.06 8.73051 20.0006 8.7916 19.9679 8.83691C19.9616 8.84566 19.9575 8.85373 19.9542 8.85938C19.96 8.865 19.9673 8.87362 19.9796 8.88281C20.0275 8.91875 20.1064 8.96302 20.2286 9.01855L20.1446 9.19922C19.6456 8.97228 19.6249 8.84388 20.0255 8.49414C20.6246 7.97073 21.0606 7.34819 21.2061 6.55566L21.4034 6.5918ZM16.0518 7.66211C16.5181 8.13134 17.1518 8.39703 17.8136 8.39941L17.8126 8.59863C17.0978 8.59605 16.4129 8.31057 15.9093 7.80371L15.9083 7.80273L16.0518 7.66211ZM19.7208 7.81738C19.2135 8.32064 18.5274 8.6012 17.8126 8.59863L17.8136 8.39941C18.4753 8.40174 19.1106 8.14063 19.5802 7.6748L19.7208 7.81738ZM12.004 6.8916V5.70605C12.0039 4.64301 11.5313 4.07212 10.4942 3.875C10.3121 3.84054 10.1015 3.81989 10.0821 3.60449C10.0001 2.6966 9.33546 2.51265 8.61435 2.3877L8.64853 2.19043C9.00764 2.25266 9.39309 2.33464 9.69833 2.53516C10.0194 2.74618 10.2353 3.0766 10.2813 3.58691C10.2823 3.59747 10.2842 3.60358 10.2852 3.60645C10.2862 3.60901 10.2878 3.60982 10.2882 3.61035C10.2888 3.61121 10.2939 3.6182 10.3126 3.62695C10.3323 3.63609 10.3603 3.64461 10.3995 3.65332C10.4411 3.66254 10.4792 3.66884 10.5313 3.67871C11.078 3.78262 11.5049 3.9907 11.7921 4.33887C12.0791 4.68683 12.2041 5.14639 12.2042 5.70605V6.8916C12.2042 7.15119 12.203 7.3613 12.2511 7.56152C12.297 7.7527 12.3895 7.93928 12.5899 8.13477L12.4493 8.27734C12.1088 7.94484 12.0288 7.61646 12.0099 7.25977L12.004 6.8916ZM20.3184 4.68164V3.49902C20.3169 3.42226 20.32 3.33074 20.3204 3.25488C20.3208 3.17271 20.3187 3.09807 20.3106 3.0332C20.2925 2.88767 20.2551 2.87827 20.2472 2.87598C20.202 2.86309 20.125 2.87393 20.0128 2.95801C19.905 3.0388 19.7988 3.16318 19.7179 3.29199L19.7169 3.29297L19.6339 3.41406C19.6049 3.45344 19.5737 3.49098 19.5421 3.52832L19.5431 3.5293C19.3911 3.71105 19.1546 3.9564 18.8311 3.97754L18.8321 3.97852C18.5794 3.99603 18.3306 4.03234 18.0597 4.06055C17.7965 4.08793 17.5232 4.10662 17.2559 4.08203C16.9865 4.05718 16.7178 3.98718 16.4669 3.83594C16.2206 3.6874 16.0017 3.46615 15.8155 3.15137C15.7771 3.10387 15.7303 3.06389 15.6768 3.03418L15.7735 2.85938C15.8518 2.90284 15.9212 2.96102 15.9767 3.03125C16.6731 4.2324 17.7921 3.85041 18.8184 3.7793C19.049 3.76422 19.2367 3.5844 19.3897 3.40137C19.4474 3.3333 19.5001 3.26082 19.5479 3.18555C19.7279 2.89907 20.0344 2.60627 20.3028 2.68359C20.5713 2.76116 20.5122 3.20081 20.5186 3.49707C20.5251 3.89336 20.5186 4.2875 20.5186 4.68164C20.5186 5.09411 20.5327 5.50687 20.5177 5.91504C20.5151 6.62933 20.2281 7.31412 19.7208 7.81738L19.5802 7.6748C20.0497 7.20898 20.315 6.57612 20.3175 5.91504V5.9082L20.3243 5.30176C20.3227 5.09851 20.3184 4.89269 20.3184 4.68164ZM15.1417 3.1543C15.1615 2.64711 15.2694 2.54806 15.6124 2.75293L15.7735 2.85938L15.7716 2.8623L15.6768 3.03418L15.6681 3.0293L15.6593 3.02344L15.5099 2.9248C15.4674 2.89943 15.4319 2.8814 15.4024 2.86914C15.394 2.86565 15.3861 2.86441 15.38 2.8623C15.3789 2.86556 15.3772 2.86912 15.3761 2.87305C15.3597 2.92961 15.3474 3.02128 15.3419 3.16211C15.3065 4.0698 15.3036 4.98431 15.3272 5.89062V5.89648L15.338 6.14355C15.3927 6.71437 15.6439 7.25157 16.0518 7.66211L15.9083 7.80273C15.4053 7.29603 15.1246 6.61017 15.127 5.89648C15.1033 4.98617 15.1061 4.06677 15.1417 3.1543ZM5.49423 3.08301C6.53223 3.09484 7.57567 2.99671 8.61044 3.16895L8.57919 3.36719L8.57821 3.36621L8.19735 3.31543C7.31059 3.22078 6.42455 3.29386 5.4913 3.2832C4.37081 3.26947 3.49636 4.00875 3.32431 5.10449C3.26091 5.51615 3.28847 5.92464 3.34677 6.35449C3.38838 6.66132 3.44775 6.99541 3.49521 7.33594C3.69282 7.2034 3.89936 7.12495 4.10068 7.06836C4.25062 7.02624 4.40404 6.99398 4.54208 6.96289C4.6835 6.93104 4.81354 6.89903 4.93564 6.85449L5.07821 6.81055C5.22057 6.77442 5.36326 6.76433 5.50595 6.79297C5.65018 6.82198 5.78203 6.88752 5.90341 6.98633L6.02157 7.0957L6.12997 7.19727C6.39209 7.41432 6.72525 7.50927 7.10263 7.52246H7.10653C7.38104 7.53718 7.65524 7.48502 7.90536 7.37109L7.98739 7.55273C7.70788 7.68009 7.40255 7.73813 7.09579 7.72168C6.6314 7.70547 6.20036 7.57341 5.87704 7.23438C5.61302 6.95871 5.33899 6.91937 5.00497 7.04199C4.46493 7.23896 3.83338 7.19873 3.34189 7.72754C3.24918 6.79687 2.99033 5.95328 3.12607 5.07324C3.31362 3.87878 4.27526 3.06829 5.49423 3.08301ZM8.61044 3.16895C9.00503 3.23143 9.29478 3.36014 9.35946 3.84277C9.42419 4.32533 9.81972 4.57626 10.3145 4.64844C11.0076 4.74973 11.2339 5.0174 11.2403 5.71973V7.5C10.7229 7.24041 10.2752 7.05079 9.86337 6.7998C9.39887 6.5156 9.04832 6.5595 8.70126 6.99023C8.51254 7.23247 8.26692 7.42536 7.98739 7.55273L7.90536 7.37109C8.15555 7.25709 8.37514 7.08397 8.54403 6.86719L8.54599 6.86523L8.69345 6.70312C8.84632 6.55655 9.0154 6.45961 9.2081 6.42969C9.46298 6.39019 9.71572 6.47464 9.96786 6.62891L10.2755 6.80371C10.5115 6.92853 10.7614 7.04492 11.0401 7.17969V5.72168L11.0284 5.49609C11.0065 5.29713 10.9555 5.1732 10.8829 5.08887C10.7866 4.97727 10.6165 4.89507 10.2852 4.84668C9.7476 4.76821 9.24292 4.47871 9.16122 3.86914C9.13423 3.66792 9.06558 3.56802 8.98642 3.50684C8.8981 3.43858 8.76865 3.39719 8.57919 3.36719L8.61044 3.16895ZM17.8243 -0.200195C19.736 -0.200195 21.2112 1.13595 21.4727 3.09766L21.5001 3.2207C21.5087 3.24281 21.516 3.25045 21.5186 3.25293C21.5285 3.26182 21.56 3.28097 21.6866 3.29883C22.5166 3.42025 23.078 4.06843 23.0606 4.85742C23.0555 5.23407 22.9122 5.59651 22.6563 5.87305C22.4016 6.14828 22.054 6.31881 21.6808 6.35449C21.5504 6.37032 21.4995 6.39655 21.4747 6.41797C21.4535 6.43638 21.425 6.47533 21.4034 6.5918L21.2061 6.55566C21.2569 6.28247 21.3729 6.19168 21.6573 6.15723C21.9833 6.1272 22.2866 5.97735 22.5089 5.7373C22.7312 5.49705 22.8569 5.18266 22.8614 4.85547C22.8776 4.17247 22.3957 3.60481 21.6583 3.49707C21.4308 3.465 21.3359 3.41287 21.2911 3.2168L21.2745 3.12402C21.0254 1.25606 19.6301 0 17.8243 0V-0.200195ZM14.3556 3.11816C14.32 3.37218 14.2565 3.46915 13.9796 3.50684C13.2413 3.60823 12.7569 4.17996 12.7677 4.85742C12.7784 5.53498 13.2651 6.06506 14.0196 6.17285L13.9933 6.37109H13.9913C13.1511 6.25106 12.581 5.64755 12.5684 4.86035C12.5562 4.07679 13.1196 3.42388 13.9532 3.30957C14.0766 3.29275 14.1029 3.26801 14.1095 3.26074C14.1203 3.24877 14.1399 3.21547 14.1573 3.09082L14.3556 3.11816ZM21.5626 4.25293C21.8611 4.309 22.0741 4.50011 22.0558 4.86523C22.0384 5.20006 21.8233 5.37572 21.5001 5.40918H21.4298C21.3628 5.40104 21.3077 5.36538 21.3077 5.27832C21.2969 4.97359 21.2948 4.66986 21.3077 4.36621C21.3121 4.25315 21.4203 4.24539 21.5626 4.25293ZM14.1114 4.2627C14.5579 4.28312 14.1945 4.67519 14.3761 4.82031C14.2444 5.0294 14.5206 5.3863 14.1329 5.40137C13.788 5.41316 13.5649 5.1678 13.5724 4.81348C13.5724 4.48707 13.788 4.25195 14.1114 4.2627ZM21.5059 4.45117C21.4974 4.70126 21.4981 4.95219 21.5059 5.20508C21.6234 5.18897 21.704 5.15192 21.7559 5.10352C21.8088 5.05428 21.8501 4.97853 21.8565 4.85449C21.8634 4.7152 21.8266 4.62994 21.7784 4.5752C21.7289 4.51896 21.6489 4.47509 21.5352 4.45215C21.5246 4.45169 21.5149 4.45132 21.5059 4.45117ZM14.1026 4.46289C13.9948 4.45982 13.9171 4.49614 13.8653 4.5498C13.8118 4.60555 13.7725 4.69429 13.7725 4.81348V4.81738C13.7697 4.95174 13.8104 5.04784 13.8663 5.10742C13.9206 5.16518 14.0045 5.20507 14.1251 5.20117C14.1348 5.2008 14.1428 5.19899 14.1495 5.19824C14.1495 5.19585 14.1506 5.19317 14.1505 5.19043C14.1497 5.1682 14.1478 5.14399 14.1446 5.11035C14.1417 5.07931 14.1376 5.0407 14.1368 5.00098C14.1359 4.95663 14.1386 4.90205 14.1524 4.84473C14.1261 4.78237 14.119 4.72027 14.1202 4.67188C14.1213 4.62991 14.1272 4.589 14.1319 4.55762C14.1373 4.52208 14.1411 4.49857 14.1436 4.47461C14.1439 4.47258 14.1435 4.47059 14.1436 4.46875C14.1334 4.46715 14.1202 4.4637 14.1026 4.46289ZM17.8243 0C16.0188 8.94303e-05 14.6188 1.24518 14.3556 3.11816L14.1573 3.09082C14.4335 1.12413 15.9136 -0.200105 17.8243 -0.200195V0ZM16.1104 1.37695C17.1475 0.511983 18.8202 0.603426 19.7345 1.55762C19.9544 1.78704 19.9656 1.92813 19.6671 2.07031L19.5479 2.13281C19.2755 2.28759 19.0475 2.51106 18.8878 2.78223C18.629 3.20991 18.1863 3.03594 17.8165 3.06934C17.2734 3.15215 16.8262 3.05078 16.546 2.51465C16.4651 2.37031 16.2894 2.26979 16.1417 2.17285C15.6037 1.81842 15.6005 1.80033 16.1104 1.37695ZM19.5909 1.69629C18.7505 0.818911 17.196 0.731524 16.2384 1.53027L16.0753 1.66895C16.0311 1.70754 15.9963 1.73955 15.9698 1.76758C15.9619 1.77593 15.9564 1.78388 15.9513 1.79004C15.9561 1.79463 15.961 1.80079 15.9679 1.80664C16.0243 1.85489 16.114 1.91492 16.252 2.00586C16.3181 2.04924 16.4104 2.10613 16.4903 2.16699C16.5511 2.21331 16.616 2.27035 16.67 2.34082L16.7208 2.41699L16.7227 2.42188L16.8184 2.5752C16.9183 2.70992 17.0319 2.79014 17.1544 2.83691C17.3239 2.90161 17.5329 2.90991 17.7872 2.87109L17.7989 2.87012C17.9077 2.86029 18.0191 2.86623 18.1143 2.87109C18.2147 2.87622 18.2994 2.87991 18.379 2.87402C18.4566 2.86828 18.5182 2.85334 18.5694 2.82617C18.6186 2.80009 18.6695 2.75707 18.7169 2.67871C18.9197 2.33537 19.2206 2.06031 19.5811 1.88965L19.6563 1.84863C19.6715 1.83888 19.6819 1.83006 19.6895 1.82324C19.6882 1.82063 19.6876 1.81683 19.6856 1.81348C19.67 1.78621 19.6406 1.74815 19.5909 1.69629Z" fill="#FA8B02"/>
</svg>
