<svg width="24" height="15" viewBox="0 0 24 15" fill="none" xmlns="http://www.w3.org/2000/svg">
<path d="M12.0482 0.209007H23.223C23.9688 0.209007 23.9941 0.23985 23.9941 0.980069C23.9941 1.89763 23.9809 2.8152 23.9996 3.73386C24.0073 4.11939 23.8895 4.31877 23.4918 4.44103C22.0797 4.88164 21.2381 6.02722 21.2491 7.42394C21.2601 8.79423 22.1017 9.91777 23.4929 10.3518C23.852 10.4619 24.0062 10.6238 23.9996 11.0039C23.982 11.9952 23.9798 12.9866 23.9996 13.978C24.0095 14.4318 23.8289 14.5926 23.3817 14.5926C15.8032 14.5853 8.2248 14.5853 0.646364 14.5926C0.172712 14.5926 -0.0145458 14.4274 0.00087546 13.9482C0.0251088 12.9767 0.0184997 12.0029 0.00087546 11.0303C0.00087546 10.6657 0.111027 10.4795 0.482238 10.3595C1.91531 9.91447 2.75687 8.79202 2.75687 7.39861C2.75687 6.00519 1.91641 4.88494 0.487746 4.43553C0.11323 4.31877 0.00307849 4.1271 0.00307849 3.7636C0.0240073 2.80859 0.036124 1.85247 0.00307849 0.90076C-0.0134443 0.367626 0.181524 0.200195 0.708049 0.200195C4.48735 0.216718 8.26445 0.209007 12.0482 0.209007ZM8.77666 0.898557C6.263 0.898557 3.74823 0.90847 1.23457 0.889745C0.817099 0.88644 0.689323 1.01532 0.708049 1.42288C0.73779 2.04524 0.732282 2.6709 0.708049 3.29546C0.695932 3.63913 0.818201 3.80546 1.13984 3.94425C2.46166 4.50823 3.23933 5.53264 3.41117 6.95249C3.58962 8.42522 3.10605 9.77788 1.80846 10.4366C0.709151 10.9951 0.632044 11.7265 0.713557 12.6958C0.735588 12.8968 0.735588 13.0996 0.713557 13.3005C0.644161 13.794 0.849043 13.9119 1.3271 13.9097C6.11649 13.892 10.9103 13.8998 15.6953 13.8976C16.0257 13.8976 16.398 13.9703 16.6679 13.8392C16.9378 13.7081 16.7439 13.3027 16.8034 13.0252C16.8453 12.8236 16.9323 12.6727 17.1581 12.6837C17.3839 12.6947 17.4654 12.8588 17.4797 13.0604C17.4913 13.207 17.4935 13.3541 17.4863 13.501C17.4698 13.7687 17.5535 13.9053 17.8543 13.9042C19.5432 13.8954 21.2322 13.8954 22.9212 13.9042C23.2109 13.9042 23.3068 13.794 23.3035 13.5131C23.2935 12.7982 23.2924 12.0812 23.3035 11.3674C23.3035 11.0997 23.1834 10.9918 22.951 10.8915C21.4088 10.2306 20.5783 9.04868 20.5838 7.38318C20.5838 5.74082 21.4177 4.56771 22.9322 3.91891C23.2252 3.79334 23.3101 3.63583 23.3046 3.34502C23.2902 2.68411 23.2825 2.02321 23.3046 1.3623C23.3178 0.996592 23.1845 0.888643 22.8287 0.893049C21.4155 0.90847 20.0022 0.893049 18.5901 0.902963C18.2475 0.902963 17.8521 0.769679 17.5734 0.984475C17.3586 1.1497 17.5227 1.50549 17.4775 1.77206C17.4434 1.97694 17.3476 2.12234 17.1228 2.11463C16.9268 2.10802 16.8331 1.97474 16.8089 1.79189C16.7889 1.68291 16.7845 1.57166 16.7957 1.46143C16.8662 0.991084 16.6569 0.883136 16.2086 0.88644C13.7313 0.909572 11.254 0.898557 8.77666 0.898557Z" fill="#FA8B02"/>
<path d="M23.9941 0.980469C23.9941 0.24025 23.9684 0.208984 23.2226 0.208984V0.00878906C23.406 0.00878906 23.5616 0.0107962 23.6846 0.0273438C23.8075 0.0439162 23.9342 0.0790609 24.0303 0.175781C24.1262 0.272419 24.1607 0.399143 24.1768 0.521484C24.1928 0.643875 24.1943 0.798747 24.1943 0.980469C24.1943 1.90169 24.1806 2.81372 24.1992 3.72949C24.2034 3.93932 24.1755 4.13599 24.0625 4.2998C23.9484 4.46508 23.7707 4.56315 23.5508 4.63086L23.5518 4.63184C22.2202 5.04729 21.4391 6.11721 21.4492 7.42188L21.46 7.65918C21.5589 8.82963 22.3215 9.776 23.5508 10.1602C23.7444 10.2195 23.9193 10.3027 24.0391 10.4502C24.1622 10.6018 24.203 10.7913 24.1992 11.0078C24.1816 11.9969 24.1795 12.9855 24.1992 13.9736L24.1934 14.1533C24.1758 14.3274 24.1209 14.4822 24.001 14.5986C23.8437 14.7513 23.62 14.7929 23.3818 14.793C19.5926 14.7893 15.8029 14.7871 12.0137 14.7871L0.646478 14.793C0.39666 14.793 0.163206 14.7513 0.000969753 14.5938C-0.164364 14.433 -0.207526 14.1993 -0.199226 13.9414C-0.175149 12.9746 -0.18164 12.0048 -0.199226 11.0342V11.0303C-0.199222 10.8317 -0.170251 10.6454 -0.0625068 10.4893C0.0464824 10.3314 0.214239 10.2358 0.420892 10.1689H0.422845C1.77769 9.74822 2.55663 8.69868 2.55663 7.39844C2.55657 6.09826 1.77872 5.05096 0.427728 4.62598L0.487298 4.43555C1.91591 4.88495 2.75676 6.0051 2.75683 7.39844C2.75683 8.79179 1.91537 9.91432 0.482415 10.3594C0.111215 10.4794 0.000976092 10.6657 0.000969753 11.0303C0.018594 12.0029 0.0252031 12.9767 0.000969753 13.9482C-0.0125253 14.3677 0.129147 14.5469 0.482415 14.585L0.646478 14.5928C4.43554 14.5891 8.2246 14.5869 12.0137 14.5869L23.3818 14.5928C23.8289 14.5927 24.0089 14.4313 23.999 13.9775H24C23.9901 13.4821 23.9851 12.9867 23.9853 12.4912L24 11.0039C24.0066 10.6239 23.8521 10.4617 23.4932 10.3516C22.1019 9.91757 21.26 8.79411 21.249 7.42383C21.238 6.02716 22.0801 4.882 23.4922 4.44141C23.8896 4.31913 24.0067 4.11885 23.999 3.7334H24C23.9906 3.27418 23.9893 2.81525 23.9902 2.35645L23.9941 0.980469ZM17.1582 12.6836C16.9327 12.6726 16.8456 12.8232 16.8037 13.0244L16.7373 13.0107L16.8027 13.0254H16.8037C16.7443 13.3029 16.9375 13.7077 16.668 13.8389C16.4654 13.9372 16.2052 13.9215 15.9482 13.9072L15.6953 13.8975V13.6973C15.7843 13.6973 15.875 13.7023 15.96 13.707C16.0467 13.7119 16.1276 13.7169 16.206 13.7178C16.366 13.7195 16.4882 13.7037 16.5801 13.6592C16.5953 13.6518 16.6004 13.6458 16.6055 13.6309C16.6136 13.6066 16.6185 13.5659 16.6152 13.4971C16.6114 13.4178 16.6028 13.365 16.5957 13.2646C16.5898 13.1813 16.5865 13.0811 16.6074 12.9834C16.6308 12.8713 16.6726 12.7422 16.7627 12.6416C16.8629 12.5299 17.0025 12.4763 17.168 12.4844L17.1582 12.6836ZM17.5732 0.984375C17.8519 0.769626 18.2473 0.903262 18.5898 0.90332L18.5918 1.10254H18.5898C18.4929 1.10252 18.3948 1.09307 18.3057 1.08398C18.2133 1.07456 18.1308 1.06643 18.0508 1.06348C17.9302 1.05906 17.8376 1.06963 17.7637 1.10254L17.6953 1.14258C17.6756 1.15772 17.6529 1.18944 17.6611 1.32812C17.6657 1.40407 17.6734 1.45019 17.6807 1.54395C17.6867 1.62187 17.6903 1.71435 17.6748 1.80566C17.6547 1.92579 17.6124 2.05755 17.5185 2.15918C17.4171 2.26891 17.2775 2.31994 17.1162 2.31445C16.9696 2.30951 16.8431 2.25434 16.7519 2.15234C16.6657 2.05565 16.6257 1.93388 16.6103 1.81836V1.81738C16.5886 1.69329 16.5839 1.56678 16.5967 1.44141L16.5976 1.43164C16.6298 1.21734 16.5854 1.16479 16.5664 1.14844C16.5287 1.1161 16.4351 1.08525 16.21 1.08691C13.7316 1.11005 11.2523 1.09863 8.77636 1.09863C6.26395 1.09863 3.74784 1.10857 1.23339 1.08984C1.03174 1.08825 0.970368 1.12237 0.950189 1.14258C0.931898 1.16108 0.899294 1.21777 0.908196 1.41309L0.923821 1.88574C0.930469 2.2009 0.929814 2.51623 0.922845 2.83105L0.908196 3.30273C0.903022 3.45027 0.927332 3.53007 0.96386 3.58398C1.00225 3.64046 1.07334 3.69797 1.21874 3.76074L1.47167 3.87695C2.7054 4.48905 3.4401 5.53012 3.60937 6.92871C3.7944 8.45635 3.29437 9.90697 1.89941 10.6152C1.38191 10.8781 1.12927 11.1679 1.00488 11.4854C0.876488 11.813 0.872638 12.1976 0.913079 12.6787H0.912103C0.935217 12.8926 0.93555 13.1084 0.912103 13.3223V13.3281L0.862298 13.3213L0.911126 13.3281C0.878841 13.5577 0.92426 13.6203 0.948235 13.6416C0.988506 13.6771 1.08675 13.7111 1.32617 13.71L1.32714 13.9102L1.16015 13.9043C0.802026 13.8764 0.653242 13.7322 0.71386 13.3008C0.735892 13.0998 0.735892 12.8963 0.71386 12.6953C0.637495 11.7867 0.700165 11.087 1.61425 10.543L1.80859 10.4365C3.10608 9.77779 3.58957 8.42483 3.41113 6.95215C3.24994 5.62112 2.55611 4.63805 1.38085 4.05566L1.13964 3.94434C0.818236 3.80562 0.696007 3.63922 0.708001 3.2959V3.29492C0.732217 2.67054 0.737734 2.04503 0.708001 1.42285C0.689286 1.01538 0.817062 0.886387 1.23437 0.889648C3.74793 0.908374 6.2628 0.898438 8.77636 0.898438C11.2537 0.898438 13.7317 0.909851 16.209 0.886719C16.657 0.88348 16.8664 0.991705 16.7959 1.46191C16.7847 1.57199 16.7886 1.68317 16.8086 1.79199C16.8298 1.95184 16.9043 2.07391 17.0537 2.10645L17.123 2.11426C17.3475 2.12188 17.4433 1.97708 17.4775 1.77246C17.5227 1.50591 17.3585 1.14961 17.5732 0.984375ZM15.6953 13.8975C10.9103 13.8997 6.11652 13.8925 1.32714 13.9102L1.32617 13.71C6.11598 13.6923 10.9109 13.6995 15.6953 13.6973V13.8975ZM17.168 12.4844C17.3342 12.4925 17.469 12.5607 17.5586 12.6807C17.6412 12.7915 17.6712 12.9267 17.6797 13.0459H17.6787C17.6909 13.2005 17.6941 13.3558 17.6865 13.5107L17.6855 13.5137C17.6781 13.6347 17.6999 13.6686 17.7051 13.6748C17.7059 13.6759 17.729 13.7046 17.8535 13.7041L17.8545 13.9043L17.751 13.8984C17.534 13.8693 17.4719 13.735 17.4863 13.501C17.4899 13.4274 17.4913 13.3538 17.4902 13.2803L17.4795 13.0605L17.5391 13.0557L17.4785 13.0596C17.4658 12.8836 17.4031 12.7358 17.2363 12.6943L17.1582 12.6836L17.168 12.4844ZM22.9512 10.8916C23.1834 10.9918 23.3036 11.0997 23.3037 11.3672C23.2927 12.0808 23.2938 12.798 23.3037 13.5127H23.3027C23.306 13.7936 23.2106 13.9043 22.9209 13.9043L20.3877 13.8975C19.5433 13.8975 18.6989 13.8999 17.8545 13.9043L17.8535 13.7041C19.5426 13.6953 21.2318 13.6943 22.9209 13.7031C23.0476 13.7031 23.0746 13.6784 23.0771 13.6758C23.0798 13.673 23.0943 13.6559 23.1006 13.5938L23.1035 13.5156C23.0936 12.8002 23.0925 12.0822 23.1035 11.3672L23.0996 11.3008C23.0923 11.2437 23.0754 11.2132 23.0586 11.1924C23.0308 11.1582 22.9799 11.1217 22.8721 11.0752L22.9512 10.8916ZM20.584 7.38281C20.5785 9.04795 21.4087 10.2296 22.9502 10.8906L22.8721 11.0752C22.0731 10.7328 21.4466 10.2504 21.0215 9.62695C20.596 9.00285 20.381 8.25005 20.3838 7.38281H20.584ZM22.8291 0.892578C23.1846 0.888259 23.3179 0.99674 23.3047 1.3623L23.293 1.8584C23.2865 2.35384 23.2939 2.84928 23.3047 3.34473C23.3102 3.63543 23.2254 3.79339 22.9326 3.91895C21.4181 4.56769 20.5841 5.74065 20.584 7.38281H20.3838C20.3838 6.52667 20.602 5.78204 21.0254 5.16504C21.4484 4.54878 22.0682 4.07175 22.8535 3.73535C22.9802 3.68105 23.0334 3.63131 23.0605 3.58789C23.0881 3.54374 23.1068 3.47699 23.1045 3.34961L23.0908 2.35449C23.0898 2.02203 23.0934 1.68882 23.1045 1.35547L23.1025 1.25098C23.0955 1.16724 23.0755 1.14148 23.0674 1.13379C23.0559 1.12299 23.0242 1.1045 22.9375 1.09668L22.831 1.09277C21.4218 1.10815 19.9947 1.09269 18.5918 1.10254L18.5898 0.902344C20.0018 0.892431 21.4151 0.907989 22.8281 0.892578H22.8291ZM-0.197272 3.76367V3.75879L0.00292288 3.76367L0.00878225 3.8916C0.0348592 4.17321 0.159623 4.33233 0.486321 4.43457L0.427728 4.62598C0.2183 4.5606 0.0499326 4.46455 -0.0595771 4.30566C-0.167608 4.14882 -0.197265 3.96168 -0.197272 3.76367ZM0.708978 0C4.48757 0.0165194 8.26372 0.00878948 12.0478 0.00878906V0.208984C8.26424 0.208985 4.4872 0.216718 0.708001 0.200195C0.18163 0.200204 -0.0134968 0.367566 0.00292288 0.900391C0.035958 1.8518 0.0238395 2.80798 0.00292288 3.7627L-0.197272 3.75879C-0.181595 3.04329 -0.170199 2.32934 -0.179694 1.61816L-0.197272 0.907227L-0.19239 0.703125C-0.175823 0.506336 -0.118884 0.334178 0.0126885 0.207031C0.184739 0.0410879 0.436602 0 0.708978 0ZM23.2226 0.00878906V0.208984H12.0478V0.00878906H23.2226Z" fill="#FA8B02"/>
<path d="M6.49221 10.9884C6.23005 10.9334 6.07914 10.7824 6.23225 10.4916C6.32348 10.3533 6.43486 10.2292 6.56271 10.1237C8.50798 8.17626 10.454 6.23025 12.4007 4.2857L12.5186 4.17555C12.6904 4.00592 12.8821 3.89356 13.0903 4.09845C13.2985 4.30333 13.1707 4.4983 13.0044 4.66352C12.1334 5.52858 11.2629 6.39511 10.3927 7.2631C9.25077 8.40501 8.10923 9.54691 6.96806 10.6888C6.83919 10.8166 6.72243 10.9686 6.49221 10.9884Z" fill="#FA8B02"/>
<path d="M12.7417 3.80258C12.915 3.75957 13.0845 3.81277 13.2299 3.9559C13.3006 4.02539 13.353 4.1043 13.3794 4.1932C13.406 4.28339 13.4016 4.37089 13.3794 4.45004C13.3481 4.56108 13.2808 4.65695 13.2124 4.73422L13.145 4.80551C12.2742 5.67047 11.4038 6.53722 10.5337 7.40512L10.5327 7.40414C9.3909 8.54593 8.2499 9.68814 7.10885 10.8299L6.96725 10.6883C8.1083 9.54654 9.25027 8.4053 10.3921 7.26352C11.2621 6.39565 12.1326 5.52884 13.0034 4.66391V4.66293C13.1697 4.49773 13.2975 4.30332 13.0893 4.09848C12.8812 3.89394 12.6898 4.00606 12.518 4.17563L12.3999 4.28598C10.4532 6.23043 8.50717 8.17648 6.56198 10.1239C6.43419 10.2294 6.3231 10.3537 6.2319 10.492C6.07895 10.7827 6.22961 10.933 6.49167 10.9881C6.72167 10.9683 6.83851 10.817 6.96725 10.6893L7.10885 10.8299L7.10788 10.8309C7.00239 10.9356 6.82823 11.1597 6.50924 11.1873L6.47897 11.1903L6.45065 11.1844L6.33639 11.1532C6.22132 11.1139 6.10872 11.0476 6.03756 10.9354C5.9329 10.7704 5.96062 10.5778 6.05514 10.3983L6.05905 10.3895L6.06491 10.3817C6.16355 10.2321 6.28339 10.0977 6.42038 9.98227C8.36571 8.03473 10.3124 6.08897 12.2592 4.14438L12.2631 4.13949L12.3921 4.27816L12.3969 4.28207L12.2641 4.13949L12.3813 4.02914C12.4715 3.94064 12.5934 3.83951 12.7417 3.80258Z" fill="#FA8B02"/>
<path d="M7.44033 3.62052C7.64662 3.62037 7.85091 3.66101 8.04145 3.74008C8.23199 3.81916 8.40501 3.93512 8.55058 4.0813C8.69614 4.22748 8.81138 4.401 8.88965 4.59187C8.96793 4.78273 9.0077 4.98719 9.00668 5.19349C9.0043 5.40135 8.96099 5.60671 8.87924 5.79784C8.79749 5.98897 8.67889 6.16213 8.53022 6.30743C8.38154 6.45272 8.20571 6.56731 8.01275 6.64466C7.8198 6.722 7.6135 6.76058 7.40563 6.75819C7.19776 6.7558 6.9924 6.7125 6.80127 6.63074C6.61014 6.54899 6.43698 6.4304 6.29169 6.28172C6.14639 6.13305 6.0318 5.95722 5.95446 5.76426C5.87712 5.5713 5.83854 5.365 5.84092 5.15714C5.8445 4.95106 5.88877 4.74772 5.97119 4.5588C6.05361 4.36989 6.17255 4.19912 6.32118 4.05633C6.46981 3.91353 6.6452 3.80152 6.83726 3.72673C7.02932 3.65194 7.23427 3.61584 7.44033 3.62052ZM7.40838 6.07139C7.52468 6.07378 7.64032 6.05324 7.74868 6.01094C7.85704 5.96863 7.95601 5.9054 8.03993 5.82485C8.12386 5.7443 8.1911 5.64801 8.23781 5.54148C8.28452 5.43494 8.30979 5.32025 8.31218 5.20395C8.31456 5.08765 8.29402 4.97202 8.25172 4.86365C8.20942 4.75529 8.14619 4.65632 8.06564 4.5724C7.98509 4.48847 7.8888 4.42124 7.78226 4.37452C7.67573 4.32781 7.56103 4.30254 7.44473 4.30016C7.20985 4.29534 6.98268 4.38402 6.81318 4.5467C6.64369 4.70937 6.54576 4.93272 6.54094 5.1676C6.53612 5.40248 6.6248 5.62966 6.78748 5.79915C6.95016 5.96864 7.1735 6.06657 7.40838 6.07139Z" fill="#FA8B02"/>
<path d="M7.44445 3.42188C7.67569 3.42225 7.90467 3.46701 8.11828 3.55566C8.3331 3.64485 8.52837 3.77561 8.6925 3.94043C8.85646 4.10513 8.98609 4.30063 9.07433 4.51563C9.16259 4.73084 9.20827 4.96173 9.20714 5.19434V5.19531C9.20446 5.42944 9.15567 5.66167 9.06359 5.87695C8.97153 6.09209 8.83738 6.28663 8.67003 6.4502C8.50258 6.61385 8.30436 6.74296 8.08703 6.83008C7.86973 6.91716 7.63751 6.9607 7.40343 6.95801C7.16931 6.95532 6.93804 6.90653 6.72277 6.81445C6.50754 6.72239 6.31218 6.58929 6.14855 6.42188C5.98492 6.25444 5.85578 6.05617 5.76867 5.83887C5.68161 5.62167 5.63811 5.38926 5.64074 5.15527V5.15332L5.84093 5.15723L5.84679 5.3125C5.86026 5.46728 5.8962 5.61991 5.95421 5.76465C6.03154 5.95748 6.1469 6.13265 6.2921 6.28125C6.43722 6.42973 6.61005 6.54814 6.80089 6.62988C6.99191 6.71159 7.19764 6.75538 7.40539 6.75781C7.61325 6.7602 7.81985 6.72187 8.01281 6.64453C8.20574 6.5672 8.38173 6.45288 8.53039 6.30762C8.67902 6.16235 8.79727 5.98893 8.87902 5.79785C8.94034 5.65448 8.98017 5.50307 8.99718 5.34863L9.00695 5.19336C9.00795 4.98711 8.96802 4.78263 8.88976 4.5918C8.81149 4.40095 8.69644 4.22722 8.55089 4.08106L8.43664 3.97754C8.35726 3.91217 8.27141 3.85522 8.18078 3.80664L8.04113 3.74023C7.89839 3.68103 7.74807 3.64301 7.59484 3.62793L7.44054 3.62012C7.23449 3.61544 7.02909 3.65177 6.83703 3.72656C6.64506 3.80135 6.46997 3.91391 6.3214 4.05664C6.17303 4.19921 6.0532 4.36907 5.97082 4.55762L5.7882 4.47852C5.88115 4.26558 6.01518 4.07308 6.18273 3.91211C6.35036 3.75106 6.54814 3.62439 6.76476 3.54004C6.97999 3.45624 7.20965 3.41721 7.44054 3.42188V3.4209L7.44152 3.42188C7.44266 3.4219 7.44428 3.42087 7.44542 3.4209L7.44445 3.42188ZM6.93175 5.66113C7.0576 5.79216 7.2306 5.86727 7.41222 5.87109L7.40832 6.07129C7.1735 6.06642 6.94986 5.96828 6.78722 5.79883L6.93175 5.66113ZM7.44445 4.29981C7.56075 4.30219 7.6758 4.32829 7.78234 4.375C7.88874 4.42168 7.98506 4.48846 8.06554 4.57227C8.12591 4.63517 8.17654 4.70676 8.21593 4.78418L8.25207 4.86328C8.29437 4.97164 8.315 5.0878 8.31261 5.2041L8.30578 5.29102C8.29548 5.37703 8.27325 5.46137 8.23839 5.54102C8.19168 5.64755 8.12408 5.74465 8.04015 5.8252C7.95625 5.90569 7.85647 5.96846 7.74816 6.01074C7.63994 6.05292 7.52444 6.07367 7.40832 6.07129L7.41222 5.87109C7.50226 5.87294 7.592 5.85697 7.67589 5.82422C7.75975 5.79148 7.83652 5.74299 7.90148 5.68066C7.96646 5.6183 8.01864 5.54342 8.0548 5.46094C8.09086 5.37862 8.11053 5.29004 8.11242 5.2002C8.11426 5.1102 8.09826 5.02038 8.06554 4.93652C8.03279 4.85263 7.98337 4.77591 7.92101 4.71094C7.85872 4.64609 7.7846 4.59374 7.70226 4.55762C7.61978 4.52145 7.53058 4.50185 7.44054 4.5C7.25878 4.49632 7.08343 4.56553 6.95226 4.69141C6.82104 4.81735 6.74506 4.99003 6.74132 5.17188C6.73764 5.35367 6.80584 5.52995 6.93175 5.66113L6.78722 5.79883C6.62484 5.62946 6.53641 5.40256 6.54113 5.16797C6.54535 4.96244 6.62068 4.7653 6.75304 4.61035L6.81359 4.54688C6.98298 4.38433 7.20974 4.2951 7.44445 4.29981ZM5.97082 4.55762V4.55859C5.88852 4.74724 5.84462 4.95047 5.84093 5.15625L5.64074 5.15332C5.64481 4.92101 5.69529 4.69148 5.7882 4.47852L5.97082 4.55762Z" fill="#FA8B02"/>
<path d="M13.3754 9.57848C13.3773 9.78453 13.3385 9.98893 13.2611 10.1799C13.1838 10.3709 13.0695 10.5448 12.9247 10.6914C12.78 10.8381 12.6077 10.9547 12.4178 11.0346C12.2278 11.1145 12.0239 11.1561 11.8179 11.157C11.6121 11.1633 11.4071 11.1283 11.215 11.0541C11.0229 10.98 10.8476 10.8681 10.6994 10.7251C10.5513 10.582 10.4333 10.4108 10.3524 10.2214C10.2715 10.0321 10.2293 9.82845 10.2284 9.62254C10.2214 9.41197 10.257 9.20216 10.333 9.00566C10.409 8.80917 10.5239 8.63002 10.6708 8.47895C10.8176 8.32788 10.9934 8.20799 11.1877 8.12646C11.382 8.04492 11.5907 8.00341 11.8014 8.00441C12.2171 8.00983 12.6144 8.17741 12.9084 8.47144C13.2024 8.76547 13.37 9.1627 13.3754 9.57848ZM12.6705 9.56306C12.6689 9.44907 12.6448 9.33653 12.5996 9.23187C12.5544 9.12721 12.489 9.03251 12.4072 8.95319C12.3253 8.87387 12.2286 8.81151 12.1225 8.76967C12.0165 8.72783 11.9032 8.70734 11.7892 8.70938C11.6707 8.7093 11.5533 8.73314 11.4442 8.77948C11.3351 8.82581 11.2364 8.8937 11.1542 8.97906C11.0719 9.06442 11.0077 9.1655 10.9654 9.27626C10.9231 9.38702 10.9036 9.50517 10.908 9.62364C10.9203 9.85331 11.0194 10.0697 11.1853 10.229C11.3512 10.3884 11.5714 10.4787 11.8014 10.4817C11.9193 10.4802 12.0357 10.455 12.1437 10.4077C12.2517 10.3604 12.3491 10.2919 12.4302 10.2062C12.5112 10.1205 12.5743 10.0195 12.6155 9.90898C12.6568 9.79851 12.6755 9.68088 12.6705 9.56306Z" fill="#FA8B02"/>
<path d="M11.8037 7.80422L11.9785 7.81496C12.3819 7.8597 12.7603 8.04026 13.0498 8.32961C13.3807 8.66046 13.569 9.10785 13.5752 9.5757L13.375 9.57863C13.3696 9.16285 13.2022 8.76524 12.9082 8.47121C12.6143 8.17742 12.2173 8.00994 11.8018 8.00441C11.5911 8.00341 11.3818 8.04495 11.1875 8.12648L11.0459 8.19484C10.9076 8.27005 10.7811 8.3657 10.6709 8.47902L10.5664 8.59719C10.4687 8.72044 10.39 8.85813 10.333 9.00539C10.257 9.20189 10.2215 9.41201 10.2285 9.62258C10.2292 9.7769 10.2529 9.92997 10.2988 10.0767L10.3525 10.2212C10.4334 10.4105 10.5511 10.5821 10.6992 10.7251C10.8473 10.8681 11.0228 10.98 11.2148 11.0542C11.4068 11.1283 11.6117 11.162 11.8174 11.1558V11.1568C12.0234 11.1559 12.228 11.1146 12.418 11.0347C12.6078 10.9548 12.7802 10.8385 12.9248 10.6919C13.0695 10.5453 13.1834 10.3711 13.2607 10.1802C13.3187 10.0371 13.3554 9.88616 13.3691 9.73293L13.375 9.57863L13.5752 9.57668C13.5773 9.80908 13.5335 10.04 13.4463 10.2554C13.3591 10.4705 13.2304 10.6663 13.0674 10.8316C12.9041 10.997 12.7094 11.1292 12.4951 11.2193C12.2823 11.3087 12.054 11.3544 11.8232 11.356C11.8219 11.356 11.8206 11.3559 11.8193 11.356L11.8184 11.357L11.8174 11.356C11.5871 11.3622 11.3575 11.3237 11.1426 11.2407C10.9257 11.1569 10.7278 11.0302 10.5605 10.8687C10.3934 10.7072 10.2603 10.514 10.1689 10.3003C10.0776 10.0864 10.0294 9.85614 10.0283 9.62356L10.0293 9.62258C10.0224 9.38733 10.0616 9.15267 10.1465 8.93313C10.2322 8.71168 10.3618 8.50964 10.5273 8.33938C10.6929 8.16906 10.8913 8.03385 11.1104 7.94191C11.3294 7.84999 11.5652 7.80309 11.8027 7.80422H11.8037ZM11.793 8.90969H11.7891C11.6975 8.90963 11.6068 8.92762 11.5225 8.9634C11.4381 8.99922 11.3615 9.05171 11.2979 9.1177C11.2344 9.18356 11.185 9.26176 11.1523 9.34719C11.1201 9.43176 11.1045 9.52236 11.1074 9.61281C11.117 9.79181 11.1949 9.96032 11.3242 10.0845C11.4527 10.2079 11.6227 10.2776 11.8008 10.2808C11.8913 10.2794 11.9806 10.2605 12.0635 10.2241C12.1469 10.1876 12.2225 10.135 12.2852 10.0689L12.4307 10.2056V10.2066C12.3496 10.2922 12.2516 10.3604 12.1436 10.4077L12.0615 10.439C11.9777 10.4661 11.8902 10.4808 11.8018 10.482H11.8008V10.481C11.5998 10.4782 11.4062 10.4096 11.25 10.2857L11.1855 10.229C11.0197 10.0697 10.9205 9.85322 10.9082 9.62356C10.9038 9.50512 10.9226 9.38663 10.9648 9.2759C11.0071 9.16537 11.0713 9.06426 11.1533 8.97902C11.2356 8.89366 11.3352 8.82614 11.4443 8.77981C11.5534 8.73349 11.6706 8.70943 11.7891 8.70949L11.793 8.90969ZM11.874 8.71242C11.959 8.71925 12.0425 8.73867 12.1221 8.77004C12.2278 8.81175 12.3245 8.87368 12.4062 8.95266C12.4881 9.03197 12.5544 9.1273 12.5996 9.23195C12.6448 9.33658 12.6693 9.44906 12.6709 9.56301C12.6759 9.68077 12.6565 9.79829 12.6152 9.90871C12.5741 10.0189 12.5115 10.12 12.4307 10.2056L12.2852 10.0689C12.3477 10.0028 12.3958 9.92456 12.4277 9.83938C12.4437 9.79671 12.4558 9.7523 12.4629 9.70754L12.4707 9.5718V9.56594C12.4695 9.47828 12.4508 9.39154 12.416 9.31106C12.3813 9.23061 12.3305 9.15816 12.2676 9.09719C12.2046 9.03622 12.1303 8.98775 12.0488 8.95559C11.9674 8.92351 11.8805 8.90814 11.793 8.90969L11.7891 8.70949L11.874 8.71242Z" fill="#FA8B02"/>
<path d="M17.475 7.40843C17.475 7.61 17.4882 7.81158 17.475 8.01096C17.4618 8.21033 17.3351 8.36344 17.1181 8.34141C16.9011 8.31938 16.8075 8.16186 16.8031 7.95918C16.7943 7.59348 16.7954 7.22778 16.8031 6.86318C16.8031 6.64287 16.8967 6.4468 17.1401 6.4446C17.3836 6.4424 17.4805 6.62745 17.4871 6.85436C17.4871 7.03722 17.4871 7.22007 17.4871 7.40512L17.475 7.40843Z" fill="#FA8B02"/>
<path d="M17.4873 6.85476C17.4807 6.628 17.3837 6.44265 17.1406 6.4446C16.8972 6.44681 16.8027 6.64325 16.8027 6.86355C16.795 7.22803 16.7939 7.59367 16.8027 7.95925C16.8072 8.16191 16.9012 8.31906 17.1182 8.34109C17.3351 8.36311 17.4614 8.21035 17.4746 8.01101C17.4812 7.91122 17.4811 7.81085 17.4795 7.71023L17.4746 7.40847V7.40749L17.4873 7.40554V6.85476ZM17.6875 7.55789L17.6768 7.55984C17.6799 7.7083 17.6849 7.87181 17.6748 8.02468C17.6657 8.16086 17.6166 8.29861 17.5146 8.40066C17.4083 8.50703 17.2609 8.55688 17.0977 8.54031C16.9405 8.52429 16.8099 8.45543 16.7217 8.33914C16.6376 8.22803 16.6064 8.09241 16.6035 7.96414L16.5967 7.41042C16.5968 7.22627 16.5996 7.04209 16.6035 6.85867C16.6041 6.72573 16.6321 6.5781 16.7168 6.4573C16.8092 6.32546 16.9552 6.24607 17.1387 6.24441C17.3185 6.24287 17.4658 6.31431 17.5625 6.44363C17.6518 6.56335 17.6835 6.71316 17.6875 6.8489V7.55789Z" fill="#FA8B02"/>
<path d="M16.7994 4.29451C16.7994 4.09404 16.7895 3.89356 16.7994 3.69419C16.8093 3.49481 16.9095 3.33509 17.1298 3.33399C17.3501 3.33289 17.4603 3.4871 17.4669 3.68868C17.4812 4.0709 17.4801 4.45423 17.4669 4.83646C17.4669 5.05676 17.3567 5.2308 17.1045 5.21869C16.8754 5.20657 16.8005 5.03914 16.7895 4.84197C16.7784 4.64479 16.7983 4.47736 16.7994 4.29451Z" fill="#FA8B02"/>
<path d="M17.1297 3.33399C16.9094 3.33509 16.8096 3.49497 16.7996 3.69434C16.7897 3.89368 16.7996 4.0945 16.7996 4.29493C16.7985 4.47756 16.7779 4.64486 16.7889 4.8418C16.7985 5.01425 16.8574 5.1641 17.0252 5.20704L17.1043 5.21876L17.0936 5.41798C16.925 5.40901 16.7897 5.33829 16.702 5.21583C16.6219 5.10377 16.5962 4.96905 16.5897 4.85352C16.5836 4.74528 16.5859 4.64617 16.5897 4.5547C16.5936 4.46129 16.5989 4.381 16.5994 4.29493L16.5955 3.9961C16.5943 3.89269 16.5944 3.78696 16.5994 3.68458C16.6058 3.55739 16.6416 3.42093 16.7313 3.31251C16.8264 3.19769 16.9651 3.13462 17.1287 3.1338L17.1297 3.33399ZM17.1287 3.1338C17.2896 3.13301 17.4296 3.1916 17.5282 3.30372C17.6226 3.41116 17.6624 3.54855 17.6668 3.68165L17.6766 4.2627C17.6765 4.4565 17.6735 4.65054 17.6668 4.84376C17.6656 4.98151 17.6299 5.12894 17.5321 5.24415C17.4265 5.36823 17.2722 5.42651 17.0946 5.41798H17.0936L17.1043 5.21876C17.3249 5.22935 17.4371 5.09757 17.4617 4.917L17.4666 4.83692H17.4803L17.4666 4.83595C17.4798 4.45389 17.4809 4.07054 17.4666 3.68848C17.4608 3.51213 17.3757 3.37227 17.2069 3.34083L17.1297 3.33399L17.1287 3.1338Z" fill="#FA8B02"/>
<path d="M17.4787 10.5545C17.4787 10.7362 17.4875 10.9191 17.4787 11.1052C17.4655 11.3057 17.3686 11.4654 17.1483 11.4699C16.928 11.4743 16.8178 11.3222 16.8068 11.1218C16.7936 10.7208 16.7936 10.3202 16.8068 9.92002C16.8035 9.87403 16.8104 9.82788 16.8271 9.78491C16.8438 9.74194 16.8699 9.70323 16.9034 9.67159C16.937 9.63995 16.9771 9.61618 17.021 9.60199C17.0649 9.5878 17.1114 9.58355 17.1571 9.58956C17.3862 9.60058 17.4655 9.7625 17.4765 9.96077C17.4875 10.159 17.4798 10.3518 17.4787 10.5545Z" fill="#FA8B02"/>
<path d="M17.4788 11.1043L17.679 11.114V11.1179L17.6672 11.2136C17.6496 11.3097 17.6124 11.4058 17.5461 11.4871C17.4523 11.6022 17.3159 11.6664 17.1526 11.6697C16.9918 11.6729 16.8511 11.6171 16.7512 11.5066C16.6795 11.4272 16.6383 11.3302 16.6194 11.2312L16.6077 11.1326L16.6067 11.1277L16.7903 11.1218L16.8059 11.1209L16.8069 11.1218C16.8166 11.297 16.9021 11.4356 17.0706 11.4646L17.1487 11.4695C17.3688 11.465 17.4655 11.3056 17.4788 11.1052V11.1043ZM17.1663 9.39138L17.1672 9.38943C17.1712 9.38962 17.175 9.39112 17.179 9.39138C17.1804 9.39156 17.1824 9.39119 17.1838 9.39138L17.1829 9.39236C17.3416 9.40377 17.4717 9.46828 17.5588 9.58474C17.642 9.69588 17.6694 9.831 17.676 9.949C17.6875 10.1554 17.68 10.3617 17.679 10.5554C17.679 10.7233 17.688 10.923 17.679 11.114L17.4788 11.1043V10.5545C17.4799 10.3518 17.4878 10.1589 17.4768 9.96071C17.4658 9.76249 17.3865 9.60071 17.1575 9.58962L17.1565 9.58864L17.1575 9.58767V9.58962C17.112 9.58364 17.0654 9.58729 17.0217 9.60134C16.978 9.61549 16.9371 9.63917 16.9036 9.67068C16.87 9.70231 16.8441 9.74196 16.8274 9.78493C16.8107 9.82781 16.8036 9.87382 16.8069 9.9197C16.7937 10.3197 16.7927 10.7202 16.8059 11.1209L16.6067 11.1277C16.5933 10.7225 16.5933 10.3173 16.6067 9.91286H16.6086C16.6066 9.84438 16.616 9.77568 16.6409 9.71169C16.6684 9.6412 16.7118 9.57806 16.7669 9.52614C16.8218 9.47431 16.8874 9.43522 16.9592 9.41189C17.026 9.39031 17.0966 9.38457 17.1663 9.39138Z" fill="#FA8B02"/>
</svg>
