<svg width="22" height="24" viewBox="0 0 22 24" fill="none" xmlns="http://www.w3.org/2000/svg">
<path d="M10.8048 23.9991H1.10551C0.271164 23.9991 0.062577 23.754 0.0114733 22.9155C-0.0865625 21.179 0.440119 19.7053 1.72814 18.5122C2.24961 18.0304 2.86703 17.7196 3.50113 17.4297C4.59176 16.9319 5.72031 16.5217 6.87607 16.2032C7.22962 16.0989 7.41109 15.9289 7.47158 15.5847C7.52581 15.2718 7.59986 14.9725 7.65618 14.6659C7.81471 13.7898 7.70207 13.0462 6.85834 12.5039C6.25865 12.118 5.96871 11.4902 6.01043 10.7538C6.02607 10.491 5.93743 10.3617 5.68503 10.2564C4.86842 9.91741 4.42517 9.28957 4.43351 8.39577C4.43873 7.52805 4.85903 6.90438 5.66209 6.57377C5.91969 6.46947 5.96871 6.35892 5.92595 6.0815C5.82166 5.39734 5.56301 4.87691 4.84443 4.66728C4.61498 4.60158 4.40744 4.45869 4.19468 4.33876C3.56892 3.98937 3.21537 3.45226 3.21432 2.73368C3.21432 1.99111 3.57831 1.44149 4.23327 1.0994C5.17191 0.608182 6.19294 0.393337 7.22753 0.252541C9.94959 -0.116657 12.6664 -0.0989274 15.3697 0.424625C16.0547 0.548088 16.7189 0.767159 17.343 1.07542C18.0219 1.41958 18.4078 1.97025 18.4067 2.73472C18.4067 3.47625 18.0323 4.01962 17.3795 4.36587C17.0269 4.5536 16.6744 4.74446 16.3094 4.90403C16.1875 4.94828 16.0801 5.02519 15.999 5.12636C15.9179 5.22752 15.8662 5.34905 15.8495 5.47764C15.8005 5.76758 15.6409 6.06586 15.6774 6.33702C15.7139 6.60818 16.1185 6.59671 16.3355 6.75419C16.9456 7.20578 17.2355 7.79713 17.1844 8.55221C17.1312 9.33233 16.7328 9.90802 16.0247 10.2115C15.6951 10.3523 15.5898 10.514 15.6023 10.8592C15.6294 11.5538 15.2696 12.0679 14.7742 12.5279C14.4613 12.8116 13.9857 12.9816 13.9399 13.4738C13.8587 14.3077 13.9704 15.1492 14.2663 15.9331C14.3476 16.1416 14.5729 16.1364 14.7492 16.1927C16.1404 16.6318 17.539 17.0626 18.8166 17.7843C21.2477 19.1589 21.7493 21.1217 21.5773 23.2847C21.5376 23.7832 21.1903 23.997 20.7106 23.9991C19.7017 23.9991 18.6936 23.9991 17.6861 23.9991H10.8048ZM6.01877 7.29339C5.4243 7.5656 5.19277 7.96295 5.21154 8.48964C5.22927 8.99754 5.62872 9.51588 6.12932 9.55343C6.7749 9.60245 6.85938 9.96226 6.80827 10.4681C6.76589 10.7621 6.80629 11.062 6.92493 11.3343C7.04357 11.6066 7.23576 11.8404 7.47992 12.0095C7.88844 12.3057 8.2674 12.6407 8.61151 13.0097C9.34156 13.8315 10.2281 14.1413 11.3117 14.0068C11.6715 13.963 11.9864 13.8858 12.2597 13.6438C12.8594 13.115 13.4434 12.5665 14.0713 12.0732C14.6303 11.6341 14.8858 11.1053 14.8076 10.4045C14.7554 9.92993 14.8618 9.61392 15.4479 9.56386C15.9767 9.52005 16.3709 9.00276 16.4106 8.47816C16.446 8.00363 16.1613 7.5802 15.6565 7.36639C15.5616 7.56351 15.6263 7.7721 15.6075 7.97338C15.5846 8.21326 15.4719 8.37387 15.2237 8.39056C14.9755 8.40724 14.841 8.24559 14.8191 8.00676C14.7965 7.8167 14.7937 7.62482 14.8107 7.43419C14.8597 7.02431 14.7064 6.94296 14.308 6.99615C12.0657 7.2963 9.79413 7.30822 7.54876 7.03161C6.8187 6.94401 6.8187 6.94296 6.80723 7.70952C6.80829 7.8285 6.80027 7.9474 6.78324 8.06516C6.76899 8.15546 6.72297 8.23771 6.65347 8.2971C6.58397 8.35649 6.49556 8.38912 6.40414 8.38912C6.31272 8.38912 6.2243 8.35649 6.1548 8.2971C6.0853 8.23771 6.03928 8.15546 6.02503 8.06516C6.00869 7.80822 6.0066 7.55056 6.01877 7.29339ZM17.5953 2.72117C17.5953 2.27062 17.3534 1.97651 16.9696 1.78253C16.4694 1.53802 15.9397 1.35924 15.3937 1.25063C12.8385 0.695788 10.2604 0.69996 7.676 0.990939C6.64141 1.10775 5.61307 1.30382 4.66609 1.77001C4.04033 2.08289 3.80567 2.72847 4.16026 3.23638C4.55867 3.80686 5.247 3.94974 5.82896 4.23551C5.88736 4.26367 6.01565 4.17293 6.09908 4.1187C6.66259 3.77095 7.29043 3.54038 7.94507 3.44079C9.54702 3.14877 11.1636 3.15607 12.7707 3.30521C13.7615 3.39699 14.7314 3.58472 15.571 4.17397C15.6264 4.21508 15.6932 4.23796 15.7621 4.23945C15.831 4.24095 15.8987 4.22098 15.9558 4.18232C16.3396 3.98207 16.7339 3.79852 17.1114 3.58576C17.2649 3.50126 17.3916 3.3755 17.4774 3.22271C17.5631 3.06991 17.6043 2.89618 17.5964 2.72117H17.5953ZM10.8006 6.39229C12.0149 6.43823 13.2307 6.35996 14.429 6.15868C14.6084 6.12843 14.8034 6.1399 14.9129 5.92297C15.3436 5.07194 15.2008 4.709 14.2965 4.41176C14.182 4.36983 14.065 4.335 13.9461 4.30747C11.8803 3.89874 9.75436 3.89874 7.68851 4.30747C7.44999 4.35371 7.2188 4.43194 7.00122 4.54004C6.75926 4.66311 6.37546 4.72256 6.5173 5.14286C6.65288 5.54335 6.5173 6.09089 7.21919 6.17641C8.41335 6.32555 9.59917 6.43297 10.8006 6.39229ZM11.2084 20.9694C11.2084 20.6742 11.2084 20.3791 11.2084 20.0839C11.2084 19.0858 11.6923 18.7563 12.6174 19.1547C14.2183 19.843 15.2049 21.0507 15.5199 22.7674C15.5929 23.1679 15.7848 23.2367 16.1175 23.1919C16.5576 23.1335 16.2917 22.8237 16.3073 22.6256C16.2997 22.4871 16.2708 22.3506 16.2218 22.2209C15.9077 20.9806 15.1776 19.8856 14.1533 19.1188C13.1291 18.352 11.8728 17.9598 10.5942 18.0078C9.31561 18.0558 8.09221 18.541 7.12831 19.3824C6.16441 20.2238 5.51837 21.3704 5.29811 22.6308C5.20946 23.146 5.34087 23.2784 5.81957 23.196C6.13245 23.1418 6.05423 22.8832 6.09282 22.709C6.48705 20.9204 7.52999 19.6928 9.24874 19.065C9.91935 18.8199 10.3855 19.162 10.4074 19.8764C10.422 20.3457 10.4074 20.815 10.4074 21.2833C10.4074 21.8642 10.5232 22.4775 9.88597 22.854C9.86203 22.8653 9.84058 22.8814 9.82287 22.9011C9.80516 22.9208 9.79154 22.9439 9.78281 22.9689C9.77408 22.9939 9.77041 23.0204 9.772 23.0469C9.7736 23.0734 9.78043 23.0992 9.79211 23.123C9.85573 23.2273 9.97775 23.1919 10.0768 23.1929C10.5284 23.1929 10.98 23.1992 11.4326 23.1929C11.5641 23.1929 11.7455 23.2586 11.8144 23.1189C11.8999 22.9478 11.7341 22.806 11.6172 22.7403C11.223 22.5067 11.1761 22.1552 11.2001 21.7526C11.223 21.4919 11.2084 21.2301 11.2084 20.9694ZM5.29185 17.6977L5.18756 17.5934C4.58787 17.8521 3.97149 18.0805 3.39058 18.3756C1.58318 19.2923 0.727969 20.7744 0.804103 22.8049C0.814533 23.0865 0.882323 23.2096 1.18477 23.2044C2.15575 23.1908 3.12672 23.1961 4.09769 23.2044C4.32401 23.2044 4.43664 23.1512 4.46167 22.8915C4.51096 22.3549 4.63669 21.8281 4.83504 21.3271C4.92474 21.1039 4.89762 21.0028 4.63897 20.9235C3.81505 20.6711 3.66174 20.2122 4.13106 19.4801C4.51591 18.8825 4.90596 18.2911 5.29185 17.6977ZM16.2958 17.6508C16.713 18.3005 17.1166 18.9023 17.5025 19.5103C17.9468 20.2101 17.781 20.6784 16.9894 20.9204C16.7516 20.9923 16.6765 21.0705 16.7725 21.3136C16.9751 21.8133 17.1017 22.3407 17.1479 22.878C17.173 23.1721 17.319 23.2013 17.5526 23.1992C18.5058 23.1929 19.4601 23.1898 20.4134 23.1992C20.7002 23.1992 20.7951 23.1105 20.8086 22.8133C20.9452 19.9682 19.0899 18.3443 16.2958 17.6508ZM8.53537 14.0996C8.45715 14.7358 8.40709 15.3407 8.21311 15.9195C8.17243 16.0405 8.16722 16.1667 8.3174 16.224C9.1288 16.5296 9.93916 16.8342 10.7537 17.1303C10.8391 17.1449 10.927 17.1325 11.005 17.0949C11.7351 16.8237 12.4651 16.5473 13.1952 16.272C13.3297 16.2209 13.4716 16.1604 13.4132 15.98C13.215 15.3772 13.1691 14.7431 13.069 14.1111C11.5495 15.1039 10.0737 15.1217 8.53537 14.0996ZM12.0156 21.0132C12.0626 21.3261 11.9114 21.713 12.0949 22.0426C12.7499 23.2023 12.7593 23.1971 14.1213 23.1898C14.2079 23.1898 14.2955 23.1825 14.381 23.1898C14.72 23.2242 14.8034 23.0855 14.7241 22.7611C14.4269 21.5493 13.75 20.6304 12.6466 20.0412C12.0501 19.722 12.0209 19.7502 12.0209 20.4427L12.0156 21.0132ZM9.59395 21.0966C9.59395 20.6972 9.58769 20.4198 9.59395 20.1434C9.60021 19.867 9.49487 19.8076 9.25083 19.9192C7.95237 20.4959 7.17747 21.4919 6.87189 22.8686C6.82496 23.0834 6.88858 23.1981 7.12741 23.196C7.61133 23.196 8.0963 23.196 8.58126 23.196C8.68556 23.196 8.81592 23.2044 8.85451 23.0918C9.09647 22.3815 9.92352 21.8788 9.59917 21.0966H9.59395ZM7.31827 18.1764C7.10968 18.0002 6.89275 17.8698 6.74048 17.6883C6.51521 17.4203 6.3911 17.4568 6.21902 17.7405C5.81019 18.4038 5.36485 19.0452 4.95081 19.7064C4.8778 19.8232 4.61394 19.9817 4.85382 20.1184C5.05093 20.231 5.32105 20.3561 5.52547 20.0214C5.91031 19.3956 6.43803 18.8908 7.02103 18.4455C7.09612 18.3892 7.16704 18.3162 7.31827 18.1806V18.1764ZM15.1872 17.4776C15.0829 17.4683 14.3779 18.1587 14.3988 18.2244C14.4233 18.2873 14.4653 18.3419 14.5197 18.3819C15.1614 18.8581 15.7167 19.4408 16.1613 20.1048C16.3365 20.3718 16.5983 20.2091 16.7683 20.1194C16.9863 20.0068 16.761 19.8524 16.6953 19.7471C16.2698 19.0733 15.8297 18.4079 15.3916 17.7425C15.3259 17.6476 15.2467 17.5579 15.1872 17.4818V17.4776ZM12.5799 17.3598C13.4956 17.924 13.5592 17.9219 14.1641 17.268C14.2475 17.1783 14.4488 17.0991 14.3383 16.9478C14.2486 16.8279 14.0629 16.8175 13.9044 16.8748C13.4695 17.0354 13.0408 17.195 12.5767 17.364L12.5799 17.3598ZM9.1288 17.3838C8.57605 17.1846 8.1401 17.0229 7.70207 16.8707C7.54563 16.8164 7.36312 16.8352 7.2776 16.9666C7.20459 17.0803 7.38189 17.1606 7.44029 17.2565C7.77612 17.7571 8.18599 17.9146 8.7231 17.5569C8.85325 17.4914 8.98776 17.4349 9.12567 17.3879L9.1288 17.3838Z" fill="#FA8B02"/>
<path d="M10.8045 11.9928C10.5281 11.9928 10.2507 12.0074 9.97639 11.9865C9.92823 11.9856 9.88073 11.9751 9.83666 11.9557C9.79258 11.9362 9.7528 11.9083 9.71962 11.8733C9.68644 11.8384 9.66053 11.7972 9.64338 11.7522C9.62623 11.7072 9.61818 11.6592 9.61971 11.6111C9.61389 11.563 9.61816 11.5141 9.63225 11.4677C9.64633 11.4213 9.66991 11.3784 9.7015 11.3416C9.73309 11.3048 9.77199 11.275 9.81572 11.2541C9.85946 11.2331 9.90707 11.2215 9.95553 11.22C10.5239 11.1991 11.0944 11.1991 11.6628 11.22C11.7113 11.2217 11.7589 11.2336 11.8026 11.2549C11.8462 11.2762 11.8849 11.3063 11.9161 11.3435C11.9474 11.3806 11.9705 11.4239 11.984 11.4706C11.9975 11.5172 12.0011 11.5661 11.9945 11.6142C11.9959 11.7114 11.9587 11.8052 11.891 11.875C11.8234 11.9448 11.7308 11.9849 11.6336 11.9865C11.3583 12.0105 11.0809 11.9928 10.8045 11.9928Z" fill="#FA8B02"/>
<path d="M8.86928 7.61255C9.13835 7.64071 9.54301 7.50826 9.5743 8.02138C9.58786 8.24144 9.04136 8.77959 8.82234 8.78689C8.60333 8.79419 8.01198 8.22892 8.00781 8.00991C8.00781 7.71684 8.23309 7.61255 8.86928 7.61255Z" fill="#FA8B02"/>
<path d="M12.8221 7.61255C13.135 7.63028 13.5261 7.52077 13.598 8.00156C13.6304 8.21015 13.0202 8.79002 12.7991 8.78898C12.578 8.78794 12.0461 8.24978 12.0336 8.03285C12.0138 7.71058 12.2005 7.61255 12.8221 7.61255Z" fill="#FA8B02"/>
<path d="M10.8161 10.4222C10.6616 10.4246 10.5071 10.4148 10.3541 10.393C10.2581 10.3805 10.1706 10.3314 10.1098 10.2561C10.049 10.1807 10.0196 10.0848 10.0277 9.98835C10.0263 9.9403 10.0345 9.89246 10.0518 9.84761C10.0691 9.80277 10.0952 9.76182 10.1285 9.72716C10.1618 9.6925 10.2016 9.66482 10.2457 9.64574C10.2899 9.62666 10.3373 9.61655 10.3854 9.61602C10.6253 9.59829 10.8662 9.6035 11.1071 9.60455C11.3845 9.60455 11.5931 9.7151 11.5827 10.0217C11.5743 10.2918 11.3804 10.4024 11.1269 10.4139C11.0226 10.4191 10.9183 10.4139 10.814 10.4139L10.8161 10.4222Z" fill="#FA8B02"/>
<path d="M10.8507 12.3975C10.9884 12.4048 11.1271 12.3975 11.2679 12.4204C11.3552 12.4276 11.4368 12.4671 11.4968 12.531C11.5567 12.595 11.5907 12.679 11.5922 12.7667C11.61 12.9815 11.5015 13.1536 11.2866 13.1838C10.9963 13.2144 10.7039 13.22 10.4127 13.2005C10.3601 13.2018 10.3079 13.1919 10.2594 13.1715C10.211 13.151 10.1675 13.1205 10.1318 13.0819C10.096 13.0433 10.069 12.9976 10.0523 12.9477C10.0356 12.8979 10.0298 12.845 10.0351 12.7927C10.0456 12.5529 10.202 12.4235 10.4429 12.4141C10.5806 12.4141 10.7182 12.4141 10.8601 12.4141L10.8507 12.3975Z" fill="#FA8B02"/>
</svg>
