<svg width="21" height="24" viewBox="0 0 21 24" fill="none" xmlns="http://www.w3.org/2000/svg">
<path d="M10.2636 23.9971H1.21784C1.075 24.0025 0.931969 24.0003 0.789362 23.9905C0.573996 23.9734 0.373013 23.8757 0.226646 23.7168C0.0802799 23.5579 -0.000669057 23.3495 4.16571e-06 23.1335C0.00122522 22.9167 0.0855496 22.7087 0.235598 22.5523C0.385647 22.3959 0.589986 22.303 0.806501 22.2927C1.26605 22.267 1.72667 22.267 2.18621 22.2927C2.51186 22.3118 2.58327 22.187 2.57375 21.888C2.52804 20.4084 2.61279 18.9449 3.11649 17.5309C3.8173 15.5627 5.02085 14.0411 6.96045 13.1737C7.47558 12.9442 7.7717 12.55 7.76694 11.993C7.76218 11.436 7.45558 11.056 6.94331 10.8218C4.50096 9.69918 3.28693 7.66437 2.76514 5.12871C2.56804 4.17653 2.54709 3.20721 2.58518 2.24074C2.60041 1.84368 2.52519 1.64658 2.07861 1.71324C1.81486 1.75227 1.54063 1.7199 1.27021 1.7199C0.420868 1.71609 -0.00475674 1.43044 0.00381289 0.849608C0.0123825 0.268777 0.424677 0.00216674 1.24165 0.00216674H19.3264C19.4692 0.00216674 19.6121 -0.00545071 19.7539 0.00787983C19.9707 0.0197526 20.175 0.112717 20.3264 0.268305C20.4777 0.423893 20.565 0.630721 20.5709 0.847703C20.5733 0.95953 20.5536 1.07073 20.513 1.17494C20.4723 1.27914 20.4115 1.3743 20.334 1.45497C20.2566 1.53564 20.1639 1.60023 20.0614 1.64503C19.959 1.68984 19.8486 1.71399 19.7368 1.71609C19.2928 1.74231 18.8477 1.74231 18.4038 1.71609C18.0562 1.69229 17.9819 1.82369 17.9924 2.14648C18.0381 3.60903 17.9505 5.05634 17.4563 6.457C16.7546 8.4442 15.5453 9.98007 13.5838 10.8475C13.0858 11.0684 12.804 11.4588 12.7992 11.9901C12.7992 12.5462 13.0896 12.9366 13.6038 13.1727C16.0795 14.3153 17.3087 16.3673 17.8182 18.9487C18.0086 19.8894 18.0229 20.8387 17.9896 21.79C17.9762 22.1708 18.0581 22.346 18.4733 22.2918C18.7423 22.2724 19.0123 22.2702 19.2817 22.2851C20.1453 22.2851 20.5585 22.5574 20.5662 23.1316C20.5738 23.7058 20.1529 23.9971 19.3055 23.9971H10.2636ZM10.2921 1.71609C8.43537 1.71609 6.57862 1.72657 4.72282 1.70752C4.36194 1.70752 4.26577 1.80274 4.28006 2.15695C4.30767 2.88537 4.26387 3.61665 4.37527 4.34125C4.71616 6.55984 5.64168 8.36041 7.81265 9.34116C8.92575 9.84391 9.48944 10.7989 9.48563 12.0073C9.48563 13.2556 8.86957 14.1973 7.71838 14.7105C6.43199 15.2818 5.55693 16.234 4.97896 17.4861C4.31243 18.9382 4.25244 20.4855 4.28482 22.0471C4.28482 22.287 4.42193 22.2851 4.59142 22.2851C8.38427 22.2851 12.1765 22.2851 15.9681 22.2851C16.2214 22.2851 16.2928 22.2061 16.288 21.9595C16.2747 21.1825 16.3147 20.4036 16.1928 19.6323C15.8481 17.4337 14.9302 15.6389 12.7802 14.6658C11.6642 14.1601 11.091 13.2213 11.0853 12.0158C11.0796 10.7913 11.6566 9.83915 12.7916 9.32687C14.0856 8.74414 14.993 7.80338 15.5815 6.53508C16.2318 5.13061 16.3099 3.63474 16.2928 2.11982C16.288 1.77322 16.1804 1.70562 15.8595 1.70847C14.0009 1.72752 12.1479 1.71609 10.2921 1.71609Z" fill="#FA8B02"/>
<path d="M10.2794 21.4262C8.91591 21.4262 7.55239 21.4262 6.18982 21.4262C5.43664 21.4262 5.12337 21.0939 5.14242 20.3407C5.21954 17.7774 7.34481 15.6007 9.93093 15.436C12.5904 15.2665 14.9642 17.1499 15.3498 19.7399C15.3641 19.8351 15.385 19.9303 15.3974 20.0255C15.5326 21.0643 15.2136 21.4319 14.1758 21.4319L10.2794 21.4262Z" fill="#FA8B02"/>
<path d="M10.3392 5.14392C11.1476 5.14392 11.9579 5.14392 12.7634 5.14392C13.4604 5.14868 13.7765 5.50861 13.7032 6.19799C13.6391 6.8349 13.3457 7.4268 12.8776 7.86349C12.4096 8.30018 11.7988 8.5519 11.159 8.57177C10.5743 8.59082 9.98684 8.59177 9.40125 8.57177C8.77033 8.55014 8.16812 8.30276 7.70418 7.87464C7.24023 7.44652 6.94537 6.86609 6.87321 6.23893C6.78371 5.52479 7.09983 5.15154 7.82063 5.14392C8.66046 5.14392 9.50028 5.14392 10.3392 5.14392Z" fill="#FA8B02"/>
</svg>
