<svg width="24" height="24" viewBox="0 0 24 24" fill="none" xmlns="http://www.w3.org/2000/svg">
<path d="M15 22V20H19V10H5V14H3V6C3 5.45 3.19567 4.97933 3.587 4.588C3.979 4.196 4.45 4 5 4H6V2H8V4H16V2H18V4H19C19.55 4 20.021 4.196 20.413 4.588C20.8043 4.97933 21 5.45 21 6V20C21 20.55 20.8043 21.021 20.413 21.413C20.021 21.8043 19.55 22 19 22H15ZM5 8H19V6H5V8Z" fill="#5AB819"/>
<path d="M4.5 17.75L7 20.25L12 15.25" stroke="#5AB819" stroke-width="2" stroke-linecap="round" stroke-linejoin="round"/>
</svg>
