<svg width="14" height="18" viewBox="0 0 14 18" fill="none" xmlns="http://www.w3.org/2000/svg">
<path d="M9.07031 0C9.78125 0 10.4883 0.0820312 11.1914 0.246094C11.9023 0.402344 12.5586 0.617188 13.1602 0.890625L11.7656 4.39453C11.3125 4.19922 10.8711 4.05078 10.4414 3.94922C10.0117 3.84766 9.55469 3.79688 9.07031 3.79688C8.63281 3.79688 8.24609 3.85156 7.91016 3.96094C7.58203 4.07031 7.30078 4.22656 7.06641 4.42969C6.83203 4.63281 6.64453 4.875 6.50391 5.15625C6.36328 5.4375 6.26953 5.75 6.22266 6.09375H10.1836V8.49609H6.04688C6.03906 8.54297 6.03125 8.61328 6.02344 8.70703C6.02344 8.79297 6.02344 8.89062 6.02344 9C6.02344 9.10156 6.02344 9.19531 6.02344 9.28125C6.03125 9.36719 6.03906 9.44141 6.04688 9.50391H9.41016V11.9062H6.31641C6.40234 12.3359 6.57422 12.6953 6.83203 12.9844C7.09766 13.2656 7.44141 13.4766 7.86328 13.6172C8.29297 13.7578 8.79297 13.8281 9.36328 13.8281C9.96484 13.8281 10.5234 13.7695 11.0391 13.6523C11.5547 13.5352 12.0352 13.3789 12.4805 13.1836V16.9688C12.0664 17.1953 11.5703 17.3594 10.9922 17.4609C10.4219 17.5625 9.78125 17.6133 9.07031 17.6133C7.80469 17.6133 6.67578 17.4062 5.68359 16.9922C4.69141 16.5703 3.86719 15.9375 3.21094 15.0938C2.55469 14.25 2.09375 13.1875 1.82812 11.9062H0V9.50391H1.51172C1.50391 9.44141 1.49609 9.36328 1.48828 9.26953C1.48828 9.16797 1.48828 9.07812 1.48828 9C1.48828 8.90625 1.49219 8.80078 1.5 8.68359C1.50781 8.56641 1.51172 8.50391 1.51172 8.49609H0V6.09375H1.73438C1.98438 4.82812 2.42188 3.74219 3.04688 2.83594C3.67969 1.92188 4.49609 1.22266 5.49609 0.738281C6.50391 0.246094 7.69531 0 9.07031 0Z" fill="#FA8B02"/>
</svg>
