<svg width="48" height="60" viewBox="0 0 48 60" fill="none" xmlns="http://www.w3.org/2000/svg">
<path d="M34.099 58.0564C34.9364 56.8381 35.7059 55.7999 36.3842 54.7042C36.6119 54.2826 36.9587 53.9374 37.3813 53.7115C37.8039 53.4856 38.2836 53.389 38.7607 53.4338C39.7155 53.4729 40.6755 53.3608 41.6303 53.4155C42.7964 53.4808 42.7285 53.0425 42.2459 52.2468C41.7059 51.3573 41.2442 50.4208 40.7459 49.5025C40.4381 48.939 40.3729 48.3834 41.025 48.0547C41.6277 47.7495 42.0085 48.1616 42.2772 48.6521C43.005 49.9877 43.759 51.3103 44.4294 52.6747C45.0294 53.8929 44.3955 54.9338 43.005 55.0486C41.9247 55.174 40.8359 55.2124 39.7494 55.1634C38.5416 55.0668 37.8111 55.5625 37.2477 56.5616C36.8224 57.3155 36.2981 58.0173 35.7998 58.7268C34.5868 60.4512 33.3581 60.399 32.3511 58.5573C30.4546 55.0877 28.5555 51.6181 26.7111 48.1225C26.2546 47.2538 25.8607 46.706 24.7755 47.246C24.4565 47.3966 24.1077 47.4734 23.755 47.4707C23.4023 47.468 23.0547 47.3858 22.7381 47.2303C21.7155 46.7295 21.3346 47.2068 20.8911 48.0521C19.065 51.5138 17.1868 54.9416 15.3216 58.3773C14.1946 60.4642 12.7781 60.6312 11.719 58.5468C10.3103 55.7764 8.29635 54.8242 5.28592 55.0355C2.90679 55.2025 2.36157 54.0573 3.51461 51.9338C5.25374 48.7251 6.99287 45.5164 8.732 42.3077C9.52766 40.8364 9.3007 39.7851 7.88418 38.799C7.15326 38.3284 6.38756 37.9142 5.59374 37.5599C3.54331 36.5608 2.39287 34.9721 2.68766 32.6634C2.99027 30.2738 2.39548 28.2468 0.958092 26.3321C-0.330604 24.6181 -0.314952 22.7164 0.978961 21.0051C1.67891 20.1197 2.19135 19.101 2.4851 18.0112C2.77885 16.9214 2.84777 15.7833 2.68766 14.666C2.41114 12.4225 3.47027 10.7712 5.53114 9.88684C7.54505 9.02337 9.01896 7.72945 9.85896 5.65032C10.8111 3.3025 12.6816 2.27467 15.1755 2.62163C16.1411 2.77076 17.1272 2.71645 18.0706 2.46218C19.014 2.20792 19.8939 1.7593 20.6537 1.1451C22.7016 -0.420113 24.8537 -0.420113 26.8964 1.1451C27.6773 1.76733 28.5795 2.21979 29.5453 2.47358C30.511 2.72737 31.5191 2.7769 32.505 2.61902C34.8868 2.30597 36.705 3.28423 37.6285 5.53815C38.4894 7.64076 39.9477 9.01293 42.019 9.88945C44.0903 10.766 45.1494 12.4251 44.865 14.666C44.7066 15.7826 44.7761 16.9198 45.0693 18.0089C45.3626 19.098 45.8734 20.1163 46.5711 21.0025C47.899 22.7712 47.8494 24.6912 46.5294 26.4442C45.1468 28.2703 44.565 30.2321 44.865 32.5329C45.1833 34.9486 44.0042 36.5921 41.8468 37.6277C40.6468 38.2042 39.3659 38.6712 38.625 39.9468C38.2364 40.6173 38.1294 41.1651 38.5624 41.8564C39.1155 42.7381 39.572 43.6825 40.0624 44.6008C40.3624 45.1616 40.4224 45.7329 39.7624 46.046C39.165 46.3303 38.792 45.9208 38.5181 45.4251C38.4346 45.2738 38.3563 45.1173 38.2572 44.966C37.9103 44.366 37.6964 43.5103 37.1746 43.2364C36.5746 42.9234 36.259 43.9225 35.7137 44.2173C34.4094 44.9268 33.0216 44.8225 31.6364 44.739C30.4024 44.666 29.2024 44.6764 28.125 45.4147C27.7364 45.6755 27.4259 45.8842 27.7311 46.4373C29.839 50.2408 31.9129 54.0521 34.099 58.0564ZM15.932 4.42423C13.3233 3.76684 11.8546 4.96945 10.9755 7.2938C10.2555 9.20597 8.76592 10.3773 6.92418 11.1129C5.01461 11.8773 4.13287 13.1816 4.45374 15.2868C4.63682 16.3581 4.58365 17.4564 4.29797 18.5049C4.01229 19.5535 3.50099 20.527 2.79983 21.3573C1.55027 22.886 1.53983 24.4564 2.78679 25.9825C3.49293 26.8139 4.00873 27.7897 4.29803 28.8415C4.58734 29.8933 4.64316 30.9956 4.46157 32.0712C4.15114 34.1581 4.95722 35.4808 6.91374 36.2451C7.90124 36.5974 8.79831 37.1643 9.54036 37.905C10.2824 38.6457 10.8509 39.5417 11.205 40.5286C11.9329 42.4877 13.292 43.3121 15.379 42.9964C16.4319 42.8106 17.5127 42.8575 18.5456 43.1337C19.5785 43.41 20.5385 43.9089 21.3581 44.5955C22.965 45.8999 24.5981 45.9208 26.2129 44.6086C27.0306 43.92 27.989 43.4186 29.021 43.1396C30.053 42.8607 31.1335 42.8109 32.1868 42.9938C34.2477 43.3095 35.6277 42.5164 36.3607 40.5495C36.7135 39.5619 37.2805 38.6648 38.0211 37.9224C38.7617 37.1799 39.6575 36.6107 40.6442 36.2555C42.5877 35.5068 43.4277 34.1895 43.1146 32.1025C42.9312 31.0268 42.9851 29.9241 43.2726 28.8714C43.5601 27.8188 44.0742 26.8417 44.779 26.0086C46.0207 24.4903 46.0416 22.9199 44.779 21.386C44.0717 20.5547 43.5552 19.5785 43.2658 18.5261C42.9765 17.4737 42.9213 16.3707 43.1042 15.2947C43.4224 13.2077 42.5824 11.8642 40.6546 11.1208C39.6511 10.7506 38.741 10.1649 37.9883 9.40503C37.2356 8.64513 36.6587 7.72946 36.2981 6.7225C35.599 4.89641 34.3103 4.07989 32.3329 4.37467C30.0242 4.69554 27.9164 4.19206 26.0903 2.7051C24.4937 1.40076 22.9598 1.51815 21.3633 2.75989C19.7668 4.00163 18.0033 4.73467 15.932 4.42423ZM13.4668 58.0486C15.6398 54.0703 17.6903 50.2981 19.7668 46.5416C20.0772 45.9755 19.8816 45.7225 19.412 45.4042C18.1077 44.5225 16.6755 44.7051 15.2381 44.7781C13.639 44.8564 12.079 44.7781 10.9494 43.4242C10.4824 42.8634 10.2659 43.1634 10.0259 43.5964C8.38766 46.6103 6.75114 49.6208 5.11635 52.6277C4.80853 53.1938 4.94679 53.4103 5.5807 53.4103C6.66592 53.4103 7.75374 53.4834 8.83635 53.4442C9.91896 53.4051 10.6337 53.8408 11.1842 54.7486C11.8572 55.7921 12.6059 56.8016 13.4668 58.0486Z" fill="#FA8B02"/>
<path d="M23.9434 5.50162C28.7174 5.5688 33.2738 7.50915 36.6305 10.9044C39.9873 14.2997 41.8755 18.878 41.8881 23.6524C41.9008 28.4269 40.0369 33.0151 36.6982 36.4281C33.3595 39.8412 28.8135 41.8056 24.0399 41.8981C10.7356 42.1303 1.60512 28.0042 7.29208 15.9938C7.44077 15.6781 7.5973 15.3677 7.77208 15.0677C8.11643 14.4729 8.4373 13.6538 9.31643 14.1625C10.1147 14.6242 9.61382 15.2894 9.31643 15.8634C7.02077 20.366 6.67643 24.9938 8.51295 29.7234C11.1216 36.4799 18.1651 40.7764 25.4095 40.0486C32.6538 39.3208 38.7138 33.7094 39.9425 26.5903C41.1764 19.4294 37.819 12.5999 31.3338 9.11206C25.3703 5.89032 17.6929 6.94945 12.5512 11.6947C12.3363 11.9099 12.107 12.1103 11.8651 12.2947C11.6974 12.4177 11.4902 12.4745 11.2832 12.4544C11.0762 12.4342 10.8839 12.3384 10.7431 12.1853C10.6023 12.0323 10.5229 11.8327 10.5201 11.6247C10.5172 11.4167 10.5912 11.215 10.7277 11.0581C11.2332 10.5205 11.7744 10.0176 12.3477 9.55293C15.739 6.80336 19.6129 5.4938 23.9434 5.50162Z" fill="#FA8B02"/>
<path d="M15.1494 33.4069C15.4259 31.7243 15.6894 29.919 16.0285 28.1243C16.1055 27.8338 16.0972 27.5273 16.0047 27.2415C15.9121 26.9556 15.7393 26.7024 15.5068 26.5121C14.325 25.4217 13.1981 24.2738 12.0346 23.1651C11.2833 22.4503 10.8711 21.6416 11.2311 20.5982C11.5781 19.6043 12.3789 19.2625 13.3494 19.1347C14.8546 18.9364 16.352 18.6495 17.8624 18.4903C18.7337 18.399 19.2763 18.0651 19.6415 17.2408C20.2911 15.7721 21.0476 14.353 21.7546 12.9077C22.172 12.0573 22.832 11.5121 23.7868 11.5121C24.7415 11.5121 25.4015 12.0573 25.8189 12.9103C26.5259 14.353 27.285 15.7799 27.932 17.2434C28.2972 18.073 28.8476 18.3912 29.7137 18.4877C31.3076 18.6651 32.8911 18.9547 34.4824 19.1817C35.3746 19.3069 36.0476 19.7321 36.3398 20.6008C36.6607 21.5217 36.3946 22.3147 35.7163 22.9773C34.5059 24.1643 33.3059 25.3617 32.0641 26.5173C31.8316 26.7076 31.6588 26.9608 31.5662 27.2467C31.4737 27.5326 31.4655 27.839 31.5424 28.1295C31.845 29.6634 32.0641 31.2156 32.325 32.7547C32.5102 33.7982 32.4868 34.7712 31.5424 35.4521C30.6398 36.0886 29.7372 35.8695 28.8424 35.3869C27.4259 34.6251 25.9885 33.9051 24.5824 33.1251C24.3484 32.9767 24.077 32.8978 23.7998 32.8978C23.5227 32.8978 23.2512 32.9767 23.0172 33.1251C21.4963 33.9599 19.9702 34.7973 18.3998 35.5434C16.665 36.3599 15.1024 35.3451 15.1494 33.4069ZM16.9755 33.1277C16.8059 34.1399 17.2363 34.1712 17.9876 33.7721C19.4433 32.9895 20.925 32.2643 22.3676 31.4608C22.7941 31.1973 23.2855 31.0577 23.7868 31.0577C24.288 31.0577 24.7794 31.1973 25.2059 31.4608C26.5337 32.199 27.8876 32.8903 29.2415 33.5843C29.6146 33.7747 30.0241 34.2156 30.4207 33.939C30.872 33.6208 30.5694 33.0443 30.5015 32.5982C30.2746 31.0956 30.0215 29.5956 29.7189 28.1034C29.6059 27.6376 29.6243 27.1495 29.7722 26.6936C29.92 26.2376 30.1915 25.8316 30.5563 25.5208C31.7928 24.3625 32.9902 23.173 34.2085 21.9703C34.4224 21.7617 34.7302 21.5425 34.6024 21.2086C34.4746 20.8747 34.1302 20.8799 33.8198 20.8356C32.1894 20.593 30.5615 20.293 28.9233 20.113C27.7546 19.9851 27.032 19.4295 26.552 18.373C25.8685 16.8703 25.0989 15.4095 24.3607 13.9382C24.2302 13.6773 24.1494 13.3251 23.7685 13.3303C23.3876 13.3356 23.3146 13.6851 23.1841 13.9486C22.4015 15.5138 21.632 17.0608 20.8781 18.626C20.7055 19.0264 20.4285 19.373 20.076 19.6295C19.7236 19.8861 19.3086 20.0431 18.8746 20.0843C17.2024 20.3138 15.5302 20.5747 13.8555 20.8356C13.5137 20.8851 13.0885 20.8356 12.9607 21.2295C12.8328 21.6234 13.2215 21.8425 13.4537 22.0799C14.5363 23.1495 15.5928 24.2477 16.7276 25.2573C17.7033 26.1234 18.0789 27.0834 17.7998 28.3877C17.4607 29.9477 17.2441 31.5443 16.9755 33.1277Z" fill="#FA8B02"/>
</svg>
