<svg width="24" height="24" viewBox="0 0 24 24" fill="none" xmlns="http://www.w3.org/2000/svg">
<path d="M7.18362 12.8275C7.46652 12.1763 7.40701 11.8767 6.91116 11.4217C6.29463 10.8751 5.85156 10.1601 5.63657 9.36475C5.57306 9.06389 5.39675 8.79876 5.14385 8.62378C4.22105 7.9663 4.0154 6.8277 4.60833 5.85192C4.70333 5.69433 4.76492 5.56388 4.71272 5.3729C4.22731 3.64466 5.2044 1.63464 7.29323 0.810182C8.49934 0.342768 9.79813 0.164065 11.0857 0.288371C11.855 0.355163 12.4918 0.658856 12.7935 1.45201C12.9346 1.79076 13.1819 2.07458 13.4981 2.26082C14.7445 3.07588 14.9742 3.75841 14.5243 5.18296C14.4731 5.34472 14.4136 5.47308 14.5483 5.65885C15.279 6.66699 15.065 7.98091 14.043 8.71457C13.8733 8.8317 13.7517 9.0063 13.7007 9.20612C13.4435 10.1348 12.9129 10.9646 12.1776 11.5877C11.8644 11.858 11.8415 12.791 12.1202 13.0832C12.2611 13.2303 12.3561 13.1009 12.4146 13.0206C12.996 12.2264 13.803 12.3328 14.5942 12.4987C16.7864 12.9725 18.3418 14.2124 19.0109 16.3967C19.6853 18.5998 19.7417 20.8842 19.7594 23.1635C19.7594 23.6331 19.4744 23.6853 19.1018 23.6853C15.6054 23.6798 12.1087 23.6798 8.61167 23.6853C5.98523 23.6853 3.35844 23.6853 0.731311 23.6853C0.0444291 23.6853 -0.00672176 23.6352 0.000585497 22.9339C0.0183317 20.9813 0.122721 19.0381 0.541323 17.1251C1.14783 14.3491 3.25545 12.5332 5.96957 12.4038C6.49987 12.3787 6.49987 12.3787 7.18362 12.8275ZM10.0481 22.9193C11.736 22.9193 13.423 22.9057 15.1099 22.9287C15.5275 22.9287 15.6433 22.8129 15.6319 22.4069C15.6047 21.2944 15.6225 20.1808 15.6235 19.0673C15.6235 18.8586 15.6078 18.6425 15.8323 18.5184C16.1267 18.3566 16.3824 18.5695 16.3855 19.013C16.3949 20.1777 16.3981 21.3434 16.3855 22.5081C16.3855 22.8212 16.4711 22.9402 16.7979 22.9256C17.4054 22.9026 18.0151 22.913 18.6237 22.9256C18.8523 22.9256 18.9859 22.8744 18.9775 22.6125C18.9086 20.5096 18.8784 18.3994 18.179 16.38C17.6445 14.8344 16.5087 13.9066 14.9888 13.3952C14.6892 13.2909 14.5222 13.3514 14.3625 13.6363C13.7278 14.7352 13.0701 15.8216 12.4094 16.9049C12.2635 17.1374 12.1881 17.407 12.1922 17.6814C12.2027 18.9859 12.1995 20.2904 12.1922 21.5939C12.1922 22.2086 12.1066 22.2942 11.5043 22.2963C10.3741 22.2963 9.24322 22.2963 8.11164 22.2963C7.44668 22.2963 7.38614 22.2389 7.38092 21.5908C7.38092 20.3384 7.37152 19.0861 7.38092 17.8337C7.39312 17.4875 7.30151 17.1455 7.11786 16.8517C6.47795 15.8164 5.84117 14.778 5.24511 13.7208C5.03633 13.3524 4.82755 13.342 4.49037 13.4745C2.84833 14.1331 1.77416 15.2915 1.36182 17.0354C0.931739 18.8398 0.834657 20.6776 0.764716 22.5217C0.752189 22.8588 0.888939 22.9318 1.19167 22.9235C1.86916 22.9068 2.54873 22.9026 3.22622 22.9235C3.56235 22.935 3.67718 22.8358 3.67092 22.4872C3.65108 21.357 3.66465 20.2268 3.66257 19.0955C3.66257 18.8022 3.68136 18.485 4.04985 18.4745C4.41834 18.4641 4.44653 18.7876 4.44757 19.0798C4.44757 20.1756 4.46636 21.2714 4.43922 22.3662C4.42878 22.7899 4.54361 22.9339 4.98622 22.9277C6.67316 22.8995 8.36113 22.9193 10.0481 22.9193ZM9.74116 11.7327C9.7944 11.7327 9.91654 11.7254 10.0366 11.7056C11.7371 11.4322 12.5806 10.281 13.0305 8.74797C13.1192 8.44427 13.2393 8.24703 13.5399 8.09153C14.3562 7.66782 14.4293 6.5261 13.6954 6.02203C13.5253 5.90514 13.4512 5.73399 13.3666 5.56492C13.0608 4.95928 12.6699 4.4005 12.2058 3.90556C12.091 3.78346 11.9605 3.56013 11.7381 3.77407C11.2579 4.23952 10.6598 4.27501 10.0387 4.26666C9.01357 4.25518 7.98533 4.2437 6.97275 4.42737C6.31823 4.54426 5.79524 4.85317 5.70233 5.60458C5.66757 5.77515 5.58034 5.9306 5.45284 6.04916C4.80145 6.763 4.95908 7.68347 5.82238 8.12388C6.13033 8.28043 6.22741 8.49333 6.29109 8.80433C6.63975 10.5159 8.05527 11.7327 9.74116 11.7327ZM5.39125 4.39815C6.22637 3.63735 7.13351 3.56326 8.03961 3.52986C8.78495 3.49855 9.53238 3.50481 10.2788 3.50064C10.6556 3.50064 10.9991 3.42654 11.2757 3.14059C11.7392 2.66157 11.877 2.65322 12.401 3.04666C12.8812 3.40776 13.2225 3.88887 13.5649 4.37102C13.6464 4.48477 13.6693 4.66949 13.8593 4.68411C14.0942 3.93165 14.0086 3.56326 13.3457 3.11137C12.7549 2.70957 12.259 2.25873 11.9887 1.58351C11.8738 1.29547 11.6076 1.16606 11.3321 1.1264C9.59502 0.898889 7.93314 1.08779 6.49569 2.19507C5.84535 2.69705 5.45598 3.38375 5.39125 4.39815ZM13.6746 13.2595C13.353 13.128 13.2319 13.3441 13.0879 13.4683C12.2402 14.2155 11.3971 14.9676 10.5585 15.7246C9.785 16.429 9.79127 16.429 9.01565 15.6985C8.22125 14.945 7.42058 14.1978 6.62618 13.4453C6.42784 13.2575 6.23368 13.0947 5.92468 13.2606C5.9413 13.3262 5.96402 13.3902 5.99254 13.4516C6.60635 14.4806 7.22955 15.5054 7.83501 16.5396C7.9655 16.7619 8.13878 16.787 8.35696 16.7849C9.05219 16.7849 9.75682 16.7129 10.4447 16.8006C11.3185 16.9133 11.8018 16.5699 12.1849 15.8122C12.6202 14.9346 13.1683 14.1153 13.6746 13.2595ZM8.14192 19.5495C8.14192 20.088 8.1534 20.6254 8.14192 21.1629C8.13461 21.4311 8.22647 21.5344 8.49788 21.5313C9.333 21.5198 10.1681 21.5167 10.997 21.5313C11.3227 21.5376 11.4145 21.4071 11.4145 21.1003C11.4013 20.0567 11.4013 19.0155 11.4145 17.9767C11.4145 17.6574 11.3101 17.553 10.997 17.5593C10.1817 17.5749 9.36536 17.5781 8.55008 17.5593C8.21812 17.552 8.13774 17.6855 8.14922 17.9892C8.16279 18.5079 8.14818 19.0297 8.14818 19.5495H8.14192ZM11.4918 13.63C11.3274 13.303 11.2214 12.9499 11.1786 12.5864C11.1535 12.2671 11.0325 12.2733 10.7819 12.3485C10.1643 12.5377 9.50863 12.5664 8.87682 12.432C8.17636 12.2952 8.17532 12.2932 7.9989 12.9934C7.93522 13.247 7.75881 13.4881 8.0584 13.7448C8.57096 14.1842 9.05532 14.6601 9.54073 15.1308C9.70671 15.2915 9.83407 15.3301 10.0209 15.1558C10.4531 14.7551 10.902 14.372 11.3415 13.9786C11.4396 13.9014 11.5544 13.8304 11.498 13.63H11.4918Z" fill="#FA8B02" stroke="#FA8B02" stroke-width="0.5"/>
<path d="M17.175 6.64505V1.43321C17.175 1.38103 17.175 1.32884 17.175 1.27666C17.1854 1.00741 17.2627 0.777812 17.5852 0.789292C17.8723 0.799728 17.9882 1.01785 17.9454 1.26101C17.8493 1.81935 18.1646 2.09591 18.5633 2.39751C20.2565 3.67282 21.9278 4.97735 23.6043 6.27561C23.8047 6.43007 24.0866 6.56887 23.9749 6.89135C23.8632 7.21383 23.5699 7.16478 23.3089 7.16478H19.1918C17.9579 7.16478 17.9579 7.16478 17.9579 8.42547C17.9579 9.57206 17.9579 10.72 17.9579 11.8694C17.9579 12.1522 17.9767 12.4852 17.5904 12.4956C17.1624 12.5113 17.1729 12.1585 17.1729 11.8579C17.1729 10.1207 17.1736 8.38303 17.175 6.64505ZM22.3151 6.261C20.9507 5.21112 19.601 4.16541 18.2376 3.12387C17.9715 2.91515 17.9621 3.12387 17.9621 3.3159C17.9621 4.18524 17.9777 5.05562 17.9537 5.92495C17.9443 6.30275 18.0915 6.39563 18.4412 6.39041C19.5895 6.37476 20.7378 6.39041 21.8861 6.38206C22.0145 6.38102 22.1616 6.43007 22.3151 6.261Z" fill="#FA8B02" stroke="#FA8B02" stroke-width="0.5"/>
<path d="M9.80111 18.0153C10.0276 18.0153 10.2542 18.0048 10.4796 18.0153C10.5281 18.0133 10.5765 18.0211 10.6218 18.0384C10.6671 18.0556 10.7085 18.0818 10.7434 18.1155C10.7784 18.1491 10.8061 18.1895 10.825 18.2341C10.8439 18.2788 10.8535 18.3268 10.8534 18.3753C10.8603 18.4235 10.8567 18.4727 10.8429 18.5194C10.8291 18.5661 10.8054 18.6093 10.7734 18.646C10.7414 18.6828 10.7019 18.7122 10.6575 18.7323C10.6131 18.7524 10.5649 18.7627 10.5162 18.7625C10.0308 18.7802 9.54327 18.7781 9.05473 18.7625C9.00599 18.7637 8.95757 18.7544 8.9127 18.7354C8.86783 18.7163 8.82754 18.6879 8.79453 18.6521C8.76152 18.6162 8.73656 18.5737 8.7213 18.5274C8.70605 18.4811 8.70085 18.4321 8.70607 18.3837C8.70389 18.3351 8.71175 18.2867 8.72917 18.2414C8.74659 18.196 8.77318 18.1548 8.80728 18.1202C8.84138 18.0856 8.88226 18.0584 8.92736 18.0404C8.97245 18.0223 9.02079 18.0138 9.06934 18.0153C9.31466 18.0059 9.55788 18.0163 9.80111 18.0153Z" fill="#FA8B02" stroke="#FA8B02" stroke-width="0.2"/>
<path d="M9.79994 19.9137C9.55672 19.9137 9.31349 19.9231 9.06922 19.9137C9.02075 19.9152 8.9725 19.9066 8.92751 19.8885C8.88252 19.8705 8.84177 19.8432 8.80783 19.8086C8.77389 19.774 8.7475 19.7327 8.73032 19.6874C8.71314 19.6421 8.70555 19.5937 8.70803 19.5453C8.7028 19.4969 8.70799 19.4479 8.72325 19.4017C8.73852 19.3554 8.7635 19.313 8.79653 19.2772C8.82955 19.2414 8.86986 19.2131 8.91473 19.1942C8.9596 19.1753 9.00801 19.1661 9.05669 19.1675C9.52575 19.155 9.9948 19.155 10.4639 19.1675C10.7071 19.1727 10.8595 19.3115 10.8511 19.563C10.8428 19.7874 10.6946 19.9074 10.4764 19.9189C10.2582 19.9304 10.0265 19.9147 9.79994 19.9137Z" fill="#FA8B02" stroke="#FA8B02" stroke-width="0.2"/>
<path d="M9.76126 21.0564C9.53682 21.0564 9.31134 21.0564 9.08586 21.0564C9.03769 21.0597 8.98936 21.053 8.94391 21.0367C8.89845 21.0205 8.85686 20.995 8.82175 20.9618C8.78665 20.9287 8.75878 20.8886 8.73992 20.8442C8.72106 20.7998 8.7116 20.7519 8.71215 20.7037C8.70451 20.6557 8.70747 20.6067 8.72083 20.5601C8.73419 20.5134 8.75762 20.4703 8.78947 20.4336C8.82132 20.397 8.86081 20.3678 8.90517 20.3481C8.94952 20.3284 8.99766 20.3187 9.04619 20.3196C9.53056 20.306 10.017 20.3071 10.5014 20.3196C10.5498 20.3174 10.5982 20.3257 10.6432 20.3438C10.6881 20.362 10.7287 20.3897 10.762 20.425C10.7953 20.4602 10.8205 20.5023 10.8361 20.5482C10.8517 20.5941 10.8571 20.6429 10.8521 20.6911C10.8543 20.7393 10.8465 20.7875 10.8291 20.8325C10.8117 20.8774 10.7851 20.9183 10.751 20.9525C10.717 20.9867 10.6761 21.0134 10.6312 21.0309C10.5862 21.0484 10.5381 21.0564 10.4899 21.0543C10.2477 21.0668 10.0045 21.0543 9.75917 21.0543L9.76126 21.0564Z" fill="#FA8B02" stroke="#FA8B02" stroke-width="0.2"/>
</svg>
