<svg width="24" height="24" viewBox="0 0 24 24" fill="none" xmlns="http://www.w3.org/2000/svg">
<path d="M12.0002 22.9999C10.4567 21.6833 9.0261 20.24 7.72323 18.6851C5.76806 16.3498 3.44629 12.8721 3.44629 9.55806C3.44544 7.86556 3.9467 6.21085 4.88663 4.80335C5.82657 3.39584 7.16292 2.29881 8.72657 1.65108C10.2902 1.00336 12.0109 0.834055 13.6708 1.1646C15.3307 1.49515 16.8552 2.31069 18.0514 3.50801C18.8479 4.30091 19.4791 5.24389 19.9087 6.28237C20.3383 7.32086 20.5576 8.43423 20.5541 9.55806C20.5541 12.8721 18.2323 16.3498 16.2771 18.6851C14.9742 20.24 13.5436 21.6833 12.0002 22.9999ZM12.0002 5.8921C11.0279 5.8921 10.0955 6.27834 9.40796 6.96584C8.72046 7.65334 8.33423 8.58578 8.33423 9.55806C8.33423 10.5303 8.72046 11.4628 9.40796 12.1503C10.0955 12.8378 11.0279 13.224 12.0002 13.224C12.9724 13.224 13.9049 12.8378 14.5924 12.1503C15.2799 11.4628 15.6661 10.5303 15.6661 9.55806C15.6661 8.58578 15.2799 7.65334 14.5924 6.96584C13.9049 6.27834 12.9724 5.8921 12.0002 5.8921Z" fill="#FA8B02"/>
</svg>
