<svg width="24" height="24" viewBox="0 0 24 24" fill="none" xmlns="http://www.w3.org/2000/svg">
<g opacity="0.8">
<path d="M4.66732 4.00008H15.334V10.5334H16.6673V4.00008C16.6673 3.64646 16.5268 3.30732 16.2768 3.05727C16.0267 2.80722 15.6876 2.66675 15.334 2.66675H4.66732C4.3137 2.66675 3.97456 2.80722 3.72451 3.05727C3.47446 3.30732 3.33398 3.64646 3.33398 4.00008V20.0001C3.33398 20.3537 3.47446 20.6928 3.72451 20.9429C3.97456 21.1929 4.3137 21.3334 4.66732 21.3334H15.334C15.6876 21.3334 16.0267 21.1929 16.2768 20.9429C16.5268 20.6928 16.6673 20.3537 16.6673 20.0001H4.66732V4.00008Z" fill="#333333"/>
<path d="M18.7739 11.5199C18.6464 11.4107 18.4823 11.3536 18.3145 11.3601C18.1468 11.3666 17.9876 11.4362 17.8689 11.5549C17.7501 11.6736 17.6806 11.8328 17.6741 12.0006C17.6676 12.1683 17.7247 12.3324 17.8339 12.4599L20.0872 14.6666H10.4206C10.2438 14.6666 10.0742 14.7368 9.94917 14.8619C9.82414 14.9869 9.75391 15.1564 9.75391 15.3333C9.75391 15.5101 9.82414 15.6796 9.94917 15.8047C10.0742 15.9297 10.2438 15.9999 10.4206 15.9999H20.0872L17.8339 18.3066C17.7641 18.3664 17.7074 18.4399 17.6674 18.5226C17.6274 18.6053 17.6049 18.6954 17.6014 18.7872C17.5978 18.879 17.6133 18.9706 17.6468 19.0561C17.6803 19.1417 17.7312 19.2194 17.7961 19.2844C17.8611 19.3493 17.9388 19.4002 18.0244 19.4337C18.1099 19.4672 18.2015 19.4827 18.2933 19.4791C18.3851 19.4756 18.4752 19.4531 18.5579 19.4131C18.6406 19.3731 18.7141 19.3164 18.7739 19.2466L22.6672 15.3799L18.7739 11.5199Z" fill="#333333"/>
</g>
</svg>
