<svg width="20" height="20" viewBox="0 0 20 20" fill="none" xmlns="http://www.w3.org/2000/svg">
<path fill-rule="evenodd" clip-rule="evenodd" d="M17.5 10C17.5 9.85795 17.4436 9.7217 17.3431 9.62124C17.2426 9.52078 17.1064 9.46434 16.9643 9.46434H4.32977L7.70134 6.09384C7.80193 5.99325 7.85843 5.85683 7.85843 5.71458C7.85843 5.57233 7.80193 5.4359 7.70134 5.33532C7.60075 5.23473 7.46433 5.17822 7.32208 5.17822C7.17983 5.17822 7.0434 5.23473 6.94282 5.33532L2.65738 9.62076C2.60749 9.67052 2.56791 9.72963 2.5409 9.79471C2.5139 9.85979 2.5 9.92956 2.5 10C2.5 10.0705 2.5139 10.1402 2.5409 10.2053C2.56791 10.2704 2.60749 10.3295 2.65738 10.3793L6.94282 14.6647C7.0434 14.7653 7.17983 14.8218 7.32208 14.8218C7.46433 14.8218 7.60075 14.7653 7.70134 14.6647C7.80193 14.5641 7.85843 14.4277 7.85843 14.2855C7.85843 14.1432 7.80193 14.0068 7.70134 13.9062L4.32977 10.5357H16.9643C17.1064 10.5357 17.2426 10.4793 17.3431 10.3788C17.4436 10.2783 17.5 10.1421 17.5 10Z" fill="#333333"/>
</svg>
