<svg width="28" height="28" viewBox="0 0 28 28" fill="none" xmlns="http://www.w3.org/2000/svg">
<path d="M22.667 12.333C22.6669 9.59255 21.5774 6.96417 19.6396 5.02637C17.7018 3.0887 15.0734 2 12.333 2C9.59255 2.00009 6.96417 3.08857 5.02637 5.02637C3.08857 6.96417 2.00009 9.59255 2 12.333C2 15.0734 3.0887 17.7018 5.02637 19.6396C6.96417 21.5774 9.59255 22.6669 12.333 22.667C15.0736 22.667 17.7018 21.5775 19.6396 19.6396C21.5775 17.7018 22.667 15.0736 22.667 12.333ZM24.667 12.333C24.667 15.2667 23.6206 18.0922 21.7363 20.3125L27.041 25.627C27.4311 26.0178 27.4308 26.6508 27.04 27.041C26.6493 27.4311 26.0162 27.4306 25.626 27.04L20.3232 21.7275C18.1014 23.6174 15.2714 24.667 12.333 24.667C9.0622 24.6669 5.92516 23.3675 3.6123 21.0547C1.29936 18.7417 0 15.604 0 12.333C8.63747e-05 9.06212 1.29943 5.92518 3.6123 3.6123C5.92518 1.29943 9.06212 8.63738e-05 12.333 0C15.604 0 18.7417 1.29936 21.0547 3.6123C23.3675 5.92516 24.6669 9.0622 24.667 12.333Z" fill="white"/>
</svg>
