<svg width="24" height="18" viewBox="0 0 24 18" fill="none" xmlns="http://www.w3.org/2000/svg">
<path d="M-0.200195 16.9619V2.66895C-0.200195 2.49364 -0.19935 2.3441 -0.18457 2.22656C-0.169841 2.10965 -0.13707 1.98611 -0.0429688 1.8916C0.0514427 1.79693 0.17563 1.76395 0.292969 1.74902C0.410709 1.73406 0.56045 1.7334 0.736328 1.7334V1.93262C0.0182312 1.93262 0 1.95295 0 2.66895V16.9619L0.00195312 17.21C0.0145804 17.7163 0.10606 17.7266 0.760742 17.7266H12.0059L15.6729 17.7305L15.6738 17.9297L0.760742 17.9268C0.577837 17.9268 0.422819 17.9259 0.301758 17.9111C0.18138 17.8964 0.0542735 17.8635 -0.0419922 17.7666C-0.138006 17.6698 -0.170059 17.5424 -0.18457 17.4219C-0.199163 17.3005 -0.200194 17.1455 -0.200195 16.9619ZM24 17.2158C23.993 12.2947 23.993 7.37277 24 2.4502C24 2.05383 23.8219 1.92631 23.4561 1.93262C22.8253 1.94101 22.1942 1.91828 21.5635 1.94141L21.4385 1.94043C21.1599 1.92263 20.9683 1.79968 20.7715 1.56152L20.9258 1.43457C21.0277 1.55784 21.1175 1.63396 21.21 1.67969C21.3004 1.72437 21.4076 1.74696 21.5557 1.74121C21.8706 1.72966 22.1927 1.72967 22.5117 1.73145L23.4541 1.7334C23.6518 1.73011 23.8517 1.75998 23.999 1.8916C24.1509 2.02751 24.2002 2.22798 24.2002 2.4502C24.1967 4.91153 24.1943 7.373 24.1943 9.83398L24.2002 17.2158C24.2002 17.5038 24.1131 17.7184 23.9082 17.834C23.8173 17.8853 23.7176 17.9081 23.626 17.9189C23.5803 17.9243 23.5332 17.9272 23.4863 17.9287L23.3477 17.9297C20.7897 17.9255 18.2318 17.9255 15.6738 17.9297L15.6729 17.7305C18.2308 17.7263 20.7897 17.7263 23.3477 17.7305L23.6025 17.7197C23.8371 17.6922 24 17.5898 24 17.2158ZM6.15527 12.3555L6.28906 12.5049C6.2325 12.5553 6.22656 12.6129 6.22656 12.791C6.22656 14.0672 6.23648 15.3472 6.2207 16.626C6.22095 16.788 6.24988 16.8253 6.25781 16.833C6.26733 16.8421 6.30823 16.8692 6.47266 16.8672L6.47559 17.0674L6.35742 17.0645C6.14285 17.0463 6.04802 16.9592 6.02539 16.7432L6.02051 16.624C6.02838 15.9857 6.02969 15.3464 6.0293 14.708L6.02637 12.791C6.02637 12.6335 6.02111 12.4753 6.15527 12.3555ZM10.7676 13.7959V8.53027L6.28906 12.5049L6.15527 12.3555L10.9678 8.08594V13.7959L10.9639 15.1875C10.9632 15.6513 10.9656 16.1154 10.9756 16.5791C10.9818 16.9257 10.907 17.0736 10.5195 17.0674C9.17169 17.0474 7.82343 17.0506 6.47559 17.0674L6.47266 16.8672C7.82186 16.8503 9.17233 16.8472 10.5225 16.8672C10.7026 16.8701 10.7359 16.8335 10.7412 16.8271C10.7555 16.8099 10.7785 16.757 10.7754 16.583C10.7554 15.6529 10.7676 14.7205 10.7676 13.7959ZM5.00879 12.6406C5.28005 12.6354 5.37012 12.7205 5.37012 12.998C5.35891 14.2217 5.3589 15.4447 5.37012 16.667C5.37327 16.9603 5.28913 17.0654 4.98633 17.0654C3.65821 17.0556 2.33007 17.0556 1.00195 17.0654C0.761041 17.0673 0.665631 16.9912 0.645508 16.792L0.641602 16.6982C0.647381 16.0871 0.650127 15.4757 0.650391 14.8643L0.641602 13.0293C0.638447 12.7339 0.726647 12.6322 1.02734 12.6406L1.52539 12.6494C2.0231 12.654 2.52114 12.6465 3.01855 12.6465C3.67986 12.6465 4.34748 12.6564 5.00879 12.6406ZM11.6445 12.4336C11.6426 12.1019 11.7485 12.0417 12.0479 12.1572C13.7931 12.8294 15.5417 13.4957 17.2939 14.1553C17.5147 14.2383 17.5684 14.3761 17.5684 14.5947C17.5568 15.2749 17.5484 15.9593 17.5684 16.6416C17.5684 16.9569 17.4731 17.0698 17.1484 17.0625C16.2916 17.0499 15.4341 17.0625 14.5762 17.0625C13.7541 17.0625 12.9318 17.0511 12.1191 17.0605C11.8415 17.0651 11.6859 17.0155 11.6514 16.7568L11.6445 16.6328C11.6592 15.2337 11.655 13.8327 11.6445 12.4336L11.8438 12.4326C11.8543 13.8325 11.8585 15.2336 11.8438 16.6348C11.8441 16.796 11.8805 16.824 11.8857 16.8281C11.9042 16.8425 11.9567 16.863 12.1162 16.8604C12.9301 16.8509 13.7578 16.8613 14.5762 16.8613H14.7764C15.5647 16.8597 16.3597 16.8506 17.1514 16.8623C17.3018 16.8657 17.3336 16.8374 17.3369 16.834C17.3433 16.8272 17.3685 16.7918 17.3691 16.6475L17.3584 16.1318C17.3529 15.6175 17.3605 15.1038 17.3691 14.5947L17.3604 14.4824C17.3552 14.4552 17.3485 14.4364 17.3408 14.4229C17.329 14.4021 17.3035 14.3728 17.2236 14.3428C15.4709 13.683 13.7213 13.0171 11.9756 12.3447C11.9192 12.323 11.8795 12.3124 11.8525 12.3076C11.8476 12.3337 11.8434 12.3737 11.8438 12.4326L11.6445 12.4336ZM23.0908 14.3506C23.2908 14.3715 23.3604 14.4736 23.3604 14.7119C23.3467 15.3793 23.3446 16.0447 23.3604 16.709L23.1611 16.7139C23.1453 16.0473 23.1475 15.3803 23.1611 14.7119L23.1494 14.5918C23.1464 14.5809 23.1434 14.5746 23.1416 14.5713C23.1408 14.5698 23.14 14.5689 23.1396 14.5684L23.1387 14.5674C23.1383 14.5671 23.1372 14.5662 23.1357 14.5654C23.1327 14.5638 23.126 14.5606 23.1152 14.5576L22.998 14.5469C21.5256 14.5567 20.0552 14.5567 18.5869 14.5469C18.53 14.5469 18.4898 14.5504 18.4619 14.5566C18.4364 14.5624 18.4282 14.5692 18.4268 14.5703C18.4264 14.5706 18.4257 14.571 18.4248 14.5723C18.4238 14.5738 18.4216 14.5778 18.4189 14.5859C18.4131 14.6039 18.4069 14.6375 18.4082 14.6953C18.4223 15.3626 18.4223 16.0321 18.4082 16.7021C18.4085 16.7567 18.4134 16.7924 18.4199 16.8145C18.426 16.835 18.4325 16.8397 18.4326 16.8398C18.4345 16.8415 18.4604 16.8631 18.5742 16.8613C19.2915 16.8529 20.0125 16.8603 20.7266 16.8604H20.9268V16.8623C21.6109 16.8614 22.2989 16.8566 22.9844 16.8623C23.0419 16.8623 23.0818 16.8587 23.1094 16.8525C23.1359 16.8466 23.1435 16.8399 23.1436 16.8398L23.1445 16.8389C23.1454 16.8375 23.1477 16.8328 23.1504 16.8242C23.1562 16.8058 23.1624 16.772 23.1611 16.7139L23.3604 16.709C23.3667 16.995 23.243 17.0625 22.9844 17.0625H20.7266V17.0605C20.0097 17.0605 19.2929 17.0531 18.5771 17.0615C18.3132 17.0657 18.208 16.9717 18.208 16.6973C18.222 16.0302 18.222 15.3645 18.208 14.7002C18.2017 14.4142 18.3303 14.3467 18.5879 14.3467C20.0555 14.3565 21.5253 14.3565 22.9971 14.3467L23.0908 14.3506ZM0.94043 12.8418C0.918909 12.8436 0.902323 12.8464 0.889648 12.8496C0.877662 12.8527 0.870364 12.8557 0.867188 12.8574C0.866041 12.8581 0.865653 12.8591 0.865234 12.8594L0.863281 12.8604C0.862807 12.861 0.862404 12.8631 0.861328 12.8652C0.859138 12.8696 0.855767 12.8775 0.852539 12.8906C0.845657 12.9187 0.841098 12.9619 0.841797 13.0273C0.855479 14.2516 0.853368 15.4766 0.841797 16.7002C0.841884 16.7576 0.84624 16.7951 0.852539 16.8193C0.855556 16.8309 0.858462 16.8382 0.860352 16.8418C0.861145 16.8433 0.861924 16.8442 0.862305 16.8447L0.865234 16.8477C0.867779 16.8491 0.873704 16.8516 0.883789 16.8545C0.905535 16.8607 0.941951 16.8656 1 16.8652C2.32845 16.8554 3.65788 16.8545 4.98633 16.8643C5.05223 16.8643 5.09447 16.8599 5.12012 16.8525C5.13209 16.8491 5.13912 16.8457 5.14258 16.8438C5.14568 16.842 5.14618 16.8402 5.14648 16.8398C5.14786 16.8383 5.16195 16.8222 5.16797 16.7549L5.1709 16.6689C5.15968 15.446 5.15969 14.2224 5.1709 12.998L5.15918 12.876C5.154 12.857 5.14939 12.8535 5.15137 12.8555C5.15641 12.8604 5.13956 12.8374 5.0127 12.8398C4.41585 12.8541 3.8117 12.8473 3.21875 12.8457L3.01855 12.8467C2.36078 12.8467 1.68876 12.8599 1.02148 12.8398L0.94043 12.8418ZM16.5547 8.91797C17.3254 9.75487 17.6937 10.5365 17.5654 11.6289L17.5479 11.8174C17.5168 12.2574 17.5502 12.7054 17.5576 13.1484L17.5586 13.1494C17.5628 13.4037 17.5407 13.5548 17.2139 13.4287C16.3333 13.0895 15.4521 12.7525 14.5703 12.417L11.9229 11.415L11.9932 11.2285C13.7599 11.8924 15.5243 12.5635 17.2861 13.2422L17.3535 13.2637C17.3555 13.2352 17.3592 13.1992 17.3584 13.1523C17.3503 12.664 17.3062 12.1236 17.3672 11.6055L17.3838 11.415C17.4113 10.9804 17.3501 10.6034 17.2109 10.251C17.0508 9.8456 16.7838 9.46161 16.4082 9.05371L16.5547 8.91797ZM23.1553 10.6875C23.1553 9.81651 23.1475 8.93937 23.1611 8.05957L23.1572 7.97461C23.1505 7.90678 23.1362 7.88575 23.1318 7.88086C23.1307 7.87955 23.1255 7.87326 23.1055 7.86719C23.0818 7.8601 23.042 7.85437 22.9785 7.85547C22.1884 7.86918 21.3963 7.86706 20.6104 7.85547H20.6074L20.5059 7.86523C20.4729 7.87305 20.4412 7.88604 20.4111 7.90234C20.3511 7.93495 20.3001 7.98257 20.2646 8.04102L20.2549 8.05664L20.0684 8.30078C19.6267 8.86415 19.1348 9.38627 18.5996 9.8623C18.4628 9.98521 18.4062 10.0613 18.4072 10.1943L18.415 11.7725C18.415 12.298 18.4125 12.823 18.4072 13.3477C18.4074 13.4048 18.4126 13.4406 18.4189 13.4619C18.422 13.472 18.4252 13.4778 18.4268 13.4805C18.428 13.4826 18.4287 13.4834 18.4287 13.4834C18.4291 13.4837 18.4307 13.4848 18.4336 13.4863C18.4374 13.4882 18.4441 13.4913 18.4551 13.4941C18.479 13.5002 18.5162 13.5031 18.5723 13.5029C20.0447 13.4931 21.5149 13.4931 22.9824 13.5029C23.049 13.5029 23.0905 13.4976 23.1152 13.4902C23.1263 13.4869 23.1327 13.4842 23.1357 13.4824C23.1384 13.4808 23.1395 13.4796 23.1396 13.4795C23.1416 13.4773 23.1637 13.4483 23.1611 13.3096L23.3604 13.3057C23.3656 13.5916 23.2903 13.7041 22.9824 13.7041L20.7803 13.6973C20.0455 13.6973 19.3102 13.6992 18.5742 13.7041C18.345 13.705 18.2355 13.6424 18.2119 13.4404L18.207 13.3457C18.2175 12.298 18.2175 11.2485 18.207 10.1973C18.2049 9.97227 18.3217 9.84424 18.4668 9.71387C19.0683 9.17883 19.6134 8.58358 20.0938 7.9375C20.1475 7.84881 20.2243 7.77607 20.3154 7.72656C20.4066 7.67708 20.5096 7.65202 20.6133 7.65527C21.3975 7.66684 22.1872 7.66894 22.9746 7.65527C23.2764 7.65002 23.3604 7.77149 23.3604 8.05957C23.3467 8.93835 23.3555 9.81293 23.3555 10.6875C23.3555 11.5612 23.3467 12.4362 23.3604 13.3057L23.1611 13.3096L23.1533 11.998C23.1537 11.5607 23.1553 11.123 23.1553 10.6875ZM0.647461 7.29883C0.647463 5.87748 0.657446 4.46335 0.640625 3.05566L0.643555 2.93848C0.66452 2.68826 0.779215 2.60352 1.08105 2.60352C2.37559 2.61823 3.67059 2.61823 4.96582 2.60352C5.29464 2.59934 5.37395 2.71719 5.37402 3.03223H5.17383C5.17378 2.87641 5.15007 2.83837 5.14355 2.83105C5.14236 2.8297 5.1362 2.82297 5.11328 2.81641C5.08562 2.80849 5.03991 2.80279 4.96777 2.80371C3.67153 2.81844 2.37563 2.81843 1.08008 2.80371C0.918336 2.8038 0.881338 2.83242 0.874023 2.83984C0.865768 2.84844 0.837814 2.88879 0.839844 3.05371C0.856679 4.46289 0.847658 5.87937 0.847656 7.29883V7.30371C0.847657 8.71929 0.85563 10.1432 0.839844 11.5576C0.840076 11.7223 0.864967 11.7661 0.875 11.7773C0.879209 11.782 0.910761 11.8129 1.07324 11.8105L1.07617 12.0107L0.956055 12.0059C0.738545 11.9843 0.66197 11.8836 0.644531 11.6709L0.640625 11.5557C0.648506 10.8492 0.649546 10.1397 0.649414 9.43066L0.647461 7.29883ZM5.37402 3.03223C5.36491 5.88497 5.36491 8.7378 5.37402 11.5898C5.37507 11.9051 5.2896 12.0107 4.96191 12.0107V11.9336L4.96094 12.0098C3.66582 11.993 2.37024 11.9918 1.07617 12.0107L1.07324 11.8105C2.36892 11.7916 3.66583 11.7928 4.96191 11.8096C5.11248 11.8095 5.14268 11.7841 5.14551 11.7812C5.14935 11.7772 5.17432 11.745 5.17383 11.5908C5.16472 8.7384 5.16472 5.88535 5.17383 3.03223H5.37402ZM13.9316 2.59766C14.2138 2.61154 14.3102 2.6966 14.209 3.08301C13.901 4.26047 14.1824 5.37064 14.708 6.43457C14.7763 6.57542 14.8486 6.71462 14.918 6.85547C14.9243 6.86809 14.9133 6.88945 14.8965 6.98828L13.292 6.99219C13.0251 6.99252 12.7582 6.99186 12.4912 6.99023L11.6895 6.98047C11.5352 6.97289 11.381 6.99752 11.2363 7.05176C11.0918 7.10595 10.9598 7.18886 10.8486 7.2959C9.46298 8.55118 8.05474 9.79249 6.65332 11.0352C6.48626 11.1833 6.34093 11.3646 6.11719 11.4414C6.00855 11.3603 6.01371 11.2547 6.02344 11.1523L6.03027 11.0518C6.02607 8.40861 6.03748 5.76424 6.01855 3.12109L6.21777 3.11914C6.2367 5.76298 6.22627 8.41015 6.23047 11.0518C6.23046 11.0876 6.22637 11.1241 6.22363 11.1523C6.24015 11.1396 6.25847 11.1279 6.27539 11.1133C6.31336 11.0805 6.35083 11.0451 6.3916 11.0059C6.4312 10.9677 6.47501 10.9251 6.52051 10.8848C7.92258 9.64152 9.32923 8.40183 10.7139 7.14746C10.8438 7.02347 10.9978 6.92734 11.166 6.86426C11.3344 6.80111 11.5137 6.7732 11.6934 6.78125C12.6819 6.79971 13.6669 6.78957 14.6602 6.78809C14.6156 6.69989 14.5696 6.60846 14.5283 6.52344C13.9912 5.43624 13.6908 4.27406 14.0156 3.03223C14.0425 2.92956 14.0495 2.86686 14.0479 2.83008C14.0475 2.82333 14.0465 2.81807 14.0459 2.81445C14.0387 2.8119 14.0266 2.80887 14.0078 2.80566C13.9609 2.79767 13.895 2.79441 13.8008 2.79492C11.3847 2.80754 8.96756 2.80754 6.55078 2.79492C6.34847 2.79507 6.28908 2.82615 6.26855 2.8457C6.2512 2.86241 6.21629 2.91575 6.21777 3.11914L6.01855 3.12109C6.01559 2.70143 6.14343 2.59579 6.55176 2.5957C8.96784 2.60832 11.3844 2.60832 13.7998 2.5957L13.9316 2.59766ZM14.0273 7.61426C14.9919 7.41501 15.7437 8.02924 16.5547 8.91797L16.4082 9.05371L16.4072 9.05273C15.9769 8.58117 15.5802 8.20732 15.1719 7.98828C14.7732 7.77442 14.3639 7.7087 13.8906 7.85645L13.8613 7.86523H12.0586L11.918 7.87598C11.8892 7.88188 11.8748 7.88841 11.8682 7.89355C11.8656 7.89557 11.8601 7.90083 11.8535 7.91895C11.8458 7.94013 11.8379 7.9786 11.8379 8.04297C11.8494 9.02293 11.8442 10.0026 11.8379 10.9814C11.838 11.0715 11.8519 11.1171 11.8682 11.1436C11.8823 11.1665 11.9118 11.1977 11.9932 11.2285L11.9219 11.4141C11.7305 11.3414 11.6561 11.2295 11.6406 11.0576L11.6377 10.9805C11.644 10.0009 11.6493 9.02146 11.6377 8.04297C11.6377 7.7286 11.7863 7.66504 12.0586 7.66504C12.5695 7.67344 13.0731 7.66504 13.8311 7.66504L14.0273 7.61426ZM17.9014 0.871094C18.3406 0.872713 18.7743 0.96712 19.1748 1.14746C19.5752 1.3278 19.9333 1.59026 20.2256 1.91797C20.518 2.24606 20.7387 2.63301 20.8721 3.05176C21.0053 3.47032 21.0488 3.9121 21 4.34863C20.9141 5.08152 20.6784 5.78937 20.3066 6.42676L20.085 6.79199C19.5528 7.63474 18.9136 8.40558 18.1836 9.08594L18.0479 8.94043C18.8678 8.17627 19.5706 7.29524 20.1338 6.32617C20.4916 5.71268 20.719 5.03156 20.8018 4.32617C20.8474 3.91761 20.8063 3.50405 20.6816 3.1123C20.5568 2.72032 20.3508 2.35888 20.0771 2.05176C19.8034 1.74463 19.4679 1.49805 19.0928 1.3291C18.7645 1.18133 18.4122 1.09528 18.0537 1.0752L17.9004 1.07129C17.4643 1.06864 17.0319 1.16223 16.6367 1.34668C16.2415 1.53117 15.8923 1.80164 15.6143 2.1377C15.3363 2.47368 15.1365 2.86737 15.0293 3.29004C14.9221 3.71287 14.9098 4.15504 14.9941 4.58301C15.3528 6.40665 16.4935 7.73704 17.8037 9.02734C17.8465 9.06927 17.8713 9.079 17.8779 9.08105C17.8795 9.0816 17.8784 9.08231 17.8818 9.08105C17.8907 9.07775 17.908 9.06768 17.9385 9.04199C17.9703 9.01511 18.0009 8.98464 18.0449 8.94238L18.0479 8.94043L18.1836 9.08594C18.026 9.23725 17.8911 9.39368 17.6631 9.16992L17.1777 8.67969C16.0666 7.52531 15.1226 6.27227 14.7979 4.62109C14.7078 4.16413 14.7205 3.69268 14.835 3.24121C14.9494 2.78979 15.1632 2.3696 15.46 2.01074C15.7569 1.6518 16.1306 1.36306 16.5527 1.16602C16.9748 0.969075 17.4356 0.868222 17.9014 0.871094ZM23.3535 6.57227C23.3598 6.84876 23.2987 6.99193 22.9834 6.98145C22.3705 6.96568 21.7575 6.98144 21.1445 6.98145C20.9017 6.98775 20.7644 6.95514 20.9189 6.66602L21.0957 6.76074C21.0918 6.76811 21.0892 6.77563 21.0859 6.78223C21.1021 6.78237 21.1202 6.78273 21.1396 6.78223L21.1445 6.78125C21.7501 6.78125 22.3724 6.76639 22.9883 6.78223H22.9902C23.0552 6.78437 23.0929 6.7771 23.1133 6.77051C23.1228 6.76743 23.1281 6.76485 23.1299 6.76367C23.1309 6.76295 23.1314 6.76227 23.1318 6.76172C23.1332 6.76 23.1405 6.74922 23.1465 6.71777C23.1526 6.68536 23.1557 6.64005 23.1543 6.57715L23.3535 6.57227ZM23.1553 4.06445C23.1553 3.66541 23.1549 3.38291 23.1318 3.17676C23.1084 2.9676 23.0659 2.88501 23.0225 2.84473C22.9789 2.80439 22.8933 2.76788 22.6826 2.75977C22.4747 2.75177 22.1921 2.77177 21.793 2.80078L21.7861 2.80176H21.6973C22.1259 4.22901 21.7515 5.5385 21.0957 6.76074L20.9189 6.66602C21.5666 5.45911 21.9194 4.19774 21.499 2.83105L21.498 2.83008C21.446 2.66162 21.5189 2.60167 21.6729 2.60156H21.7783C23.3554 2.48696 23.3555 2.48737 23.3555 4.06445V4.7998L23.3564 4.79785C23.3564 5.39384 23.3451 5.98888 23.3535 6.57227L23.1543 6.57715V6.5752C23.1459 5.99101 23.1553 5.38993 23.1553 4.7998V4.06445ZM14.1357 1.73926V1.93945L0.736328 1.93262V1.7334C5.20245 1.7334 9.66892 1.73505 14.1357 1.73926ZM17.874 0.200195C17.3207 0.200206 16.7742 0.32228 16.2734 0.557617L16.0889 0.650391C15.6637 0.879532 15.2856 1.18866 14.9766 1.56152C14.739 1.85481 14.4953 1.93945 14.1357 1.93945V1.73926C14.3006 1.73926 14.4219 1.71986 14.5234 1.67676C14.623 1.6344 14.7185 1.56239 14.8213 1.43555L14.8232 1.43457C15.1951 0.985979 15.6612 0.624807 16.1885 0.376953C16.7158 0.129107 17.2913 1.09353e-05 17.874 0V0.200195ZM17.874 0C18.4567 0 19.0322 0.129097 19.5596 0.376953C20.0869 0.624809 20.5539 0.985945 20.9258 1.43457L20.7715 1.56152C20.4624 1.18863 20.0844 0.879536 19.6592 0.650391L19.4746 0.557617C18.9739 0.322274 18.4273 0.200195 17.874 0.200195V0Z" fill="#FA8B02"/>
</svg>
