<svg width="14" height="15" viewBox="0 0 14 15" fill="none" xmlns="http://www.w3.org/2000/svg">
<path d="M7.20145 6.02776C7.04999 7.04207 6.92359 7.89969 6.79197 8.75522C6.76272 8.94429 6.85778 8.99025 7.01969 9.0195C7.30278 9.06964 7.41351 9.26498 7.29233 9.51569C7.20354 9.69745 7.24533 9.83951 7.28189 10.0119C7.40202 10.5666 7.09908 11.1672 6.55066 11.2769C6.11924 11.3636 6.08164 11.5756 6.03985 11.9381C5.83616 13.6993 4.22015 14.8902 2.54252 14.5496C0.766695 14.1872 -0.277908 12.4813 0.226635 10.7567C0.350463 10.319 0.580883 9.91878 0.897271 9.59194C1.07694 9.406 1.2796 9.23051 1.51881 9.46346C1.72773 9.67238 1.58984 9.8719 1.42688 10.0526C1.1875 10.3078 1.01048 10.6151 0.909717 10.9502C0.80895 11.2853 0.78717 11.6392 0.846085 11.9841C1.02471 13.2021 2.1696 14.0367 3.42939 13.8696C4.59517 13.7129 5.46846 12.5753 5.35355 11.3991C5.32117 11.0711 5.19581 11.0753 4.95451 11.185C4.44683 11.4158 3.93498 11.6352 3.42312 11.8535C2.95096 12.0562 2.78174 11.958 2.72846 11.4628C2.59266 10.1654 2.4297 8.86908 2.34614 7.5675C2.31062 7.01386 1.92829 6.80181 1.60133 6.50932C1.44569 6.3683 1.31511 6.5511 1.18349 6.61378C0.952635 6.71824 0.737446 6.75271 0.605826 6.48738C0.474206 6.22205 0.645521 6.07999 0.846085 5.9912C1.25035 5.81257 1.36839 5.65901 1.05501 5.21923C0.513901 4.46085 0.788632 3.45176 1.5982 2.95767C2.34091 2.50535 3.09825 2.07393 3.85559 1.64565C3.96395 1.59752 4.05684 1.52031 4.12397 1.42257C4.19109 1.32484 4.22981 1.21042 4.23582 1.09201C4.25984 0.811199 4.39224 0.550776 4.60498 0.365921C4.81772 0.181067 5.09408 0.086307 5.37549 0.101722C5.63921 0.113671 5.88984 0.220069 6.08162 0.401492C6.2734 0.582915 6.39353 0.82726 6.42009 1.08992C6.43919 1.22877 6.43015 1.37004 6.39352 1.50532C6.35689 1.6406 6.2934 1.76713 6.20685 1.87737C6.1203 1.98761 6.01245 2.0793 5.88972 2.14699C5.76699 2.21468 5.6319 2.25697 5.49248 2.27136C5.19372 2.31524 5.1018 2.41343 5.1509 2.69756C5.20417 3.00259 5.23655 3.31179 5.2846 3.66591C5.73587 3.44027 6.04612 3.08615 6.41487 2.81351C6.62379 2.65996 6.83271 2.50013 7.04163 2.76964C7.2307 3.0099 7.05207 3.18017 6.87658 3.34313C6.14536 4.02003 6.14536 4.02212 6.86509 4.73872L6.90165 4.77632C7.17534 5.04374 7.40619 5.43129 7.73733 5.54828C8.12802 5.68826 8.3056 5.1576 8.61584 4.96853C9.71686 4.29789 11.148 4.3543 12.1372 5.1576C12.6212 5.55011 12.9703 6.08425 13.1355 6.68515C13.3007 7.28604 13.2737 7.92356 13.0583 8.50834C12.8429 9.09311 12.4499 9.59583 11.9344 9.94601C11.4189 10.2962 10.8068 10.4763 10.1838 10.4611C9.5608 10.4501 8.95731 10.242 8.45996 9.8666C7.96261 9.49124 7.597 8.96795 7.4156 8.37185C7.35396 8.17024 7.24741 7.93834 7.46365 7.79627C7.85328 7.54139 7.96088 7.83283 8.0737 8.14308C8.50198 9.32348 9.51629 9.9189 10.6936 9.70267C11.6671 9.523 12.3754 8.75626 12.5122 7.73568C12.5664 7.26515 12.4725 6.78944 12.2436 6.37477C12.0148 5.9601 11.6623 5.62712 11.2353 5.42217C10.8083 5.21723 10.328 5.15054 9.86129 5.23137C9.3946 5.3122 8.96472 5.53654 8.63152 5.87316C8.34843 6.15206 8.41319 6.31502 8.7015 6.51872C9.12666 6.81852 9.61658 6.93656 10.1023 7.06609C10.3635 7.13713 10.6601 7.20711 10.564 7.56123C10.4679 7.91535 10.1713 7.79627 9.91324 7.75344C8.82685 7.57064 7.9964 6.9679 7.20145 6.02776ZM1.62536 3.75783C2.57281 4.07957 2.66996 4.07121 3.32806 3.6868C3.52236 3.57398 3.70412 3.42669 3.91095 3.35044C4.49802 3.13525 4.5795 2.75293 4.31626 2.18988L1.62536 3.75783ZM6.04717 8.16397L6.16312 8.13577C6.29056 7.32933 6.41835 6.5229 6.54649 5.71647C6.56424 5.59947 6.61856 5.4668 6.48799 5.38324C6.35741 5.29967 6.2634 5.4198 6.16416 5.47412C5.91972 5.60783 5.68364 5.75512 5.43294 5.89196C5.27729 5.97553 5.17806 6.07372 5.2564 6.26384L6.04717 8.16397ZM5.58127 9.18977C5.60321 9.08531 5.62619 9.05084 5.61574 9.02577C5.39115 8.45959 5.16343 7.89655 4.93675 7.33142C4.68291 6.70466 4.03944 6.54901 3.51505 6.98879C3.38656 7.09325 3.38029 7.16533 3.49624 7.27188C4.18359 7.90178 4.86885 8.53376 5.58127 9.18977ZM3.24972 9.71207C3.26957 9.93562 3.28106 10.0902 3.29881 10.2448C3.39701 11.0889 3.40327 11.0972 4.17001 10.741C4.42594 10.6219 4.88452 10.5969 4.88243 10.3336C4.88243 9.97009 4.46459 9.77893 4.15121 9.60239C4.01243 9.53365 3.86811 9.47669 3.71979 9.43212C3.39074 9.3193 3.15988 9.33079 3.24972 9.71416V9.71207ZM4.33611 5.88674C3.6404 4.99673 2.67414 4.65619 1.56582 4.56009C1.72982 5.17849 2.72428 5.67259 4.33611 5.88882V5.88674ZM3.59235 4.35848C3.97258 4.59352 4.34133 4.72827 4.57114 4.98524C4.87199 5.32369 5.11747 5.33414 5.42876 5.06986C5.56143 4.95704 5.86332 4.96539 5.79855 4.71469C5.74319 4.4995 5.53113 4.441 5.28878 4.4807C5.02763 4.52353 4.76648 4.4128 4.69858 4.16001C4.58472 3.70665 4.37684 3.88736 4.15017 4.02316L3.59235 4.35848ZM5.30863 0.80683C5.07255 0.849658 4.93257 0.984412 4.94511 1.22467C4.94479 1.27287 4.95453 1.32061 4.97369 1.36484C4.99285 1.40906 5.02103 1.44881 5.05641 1.48154C5.0918 1.51427 5.13362 1.53927 5.1792 1.55493C5.22479 1.5706 5.27314 1.57659 5.32117 1.57252C5.56247 1.57252 5.72125 1.43046 5.71498 1.18602C5.70871 0.941583 5.55098 0.824588 5.30863 0.807874V0.80683ZM6.59245 10.272C6.59245 10.0192 6.45978 9.87608 6.21848 9.86667C6.17106 9.86083 6.12294 9.86497 6.07721 9.87883C6.03149 9.89268 5.98916 9.91595 5.95296 9.94714C5.91676 9.97832 5.88748 10.0167 5.86701 10.0599C5.84653 10.1031 5.83531 10.15 5.83407 10.1978C5.81004 10.4381 5.93017 10.6 6.17461 10.6209C6.41904 10.6418 6.5538 10.506 6.59245 10.273V10.272ZM3.15048 7.92162C3.1087 8.65285 3.1087 8.65911 3.96736 8.66642L3.15048 7.92162Z" fill="#FA8B02" stroke="#FA8B02" stroke-width="0.2"/>
</svg>
