<svg width="24" height="17" viewBox="0 0 24 17" fill="none" xmlns="http://www.w3.org/2000/svg">
<path d="M7.92817 3.89128C8.62437 1.45059 10.0301 0.230236 12.06 0.250242C14.0246 0.270248 15.4277 1.52127 16.0705 3.89662C16.1559 3.65255 16.2119 3.48317 16.2732 3.31512C16.752 2.02408 17.679 1.25453 19.042 1.1425C20.2957 1.04114 21.3093 1.59196 21.9415 2.68027C22.6257 3.85127 22.5484 5.03295 21.7401 6.11859C21.46 6.49336 21.4827 6.59473 21.8988 6.80545C23.2966 7.50965 23.9821 8.68466 23.9968 10.2464C24.0154 12.1617 24.0141 12.163 22.1656 12.7712C21.6827 12.9423 21.1821 13.0582 20.6732 13.1166C20.3677 13.1446 20.125 13.0446 20.077 12.7258C20.029 12.4071 20.2317 12.2257 20.5304 12.1763C21.2556 12.0677 21.9627 11.8613 22.6324 11.5628C22.8098 11.4815 23.0325 11.4294 23.0325 11.1694C23.0325 10.4385 23.1259 9.69428 22.7924 9.00475C22.3803 8.15251 21.7321 7.56567 20.7705 7.45097C19.7753 7.34628 18.7721 7.3436 17.7763 7.44297C17.5118 7.47471 17.2544 7.55044 17.0148 7.66703C16.2346 8.02047 16.2252 8.13917 16.8134 8.75801C17.6173 9.57475 18.0896 10.6606 18.1391 11.8056C18.1631 12.339 18.0831 12.8805 18.1604 13.406C18.2938 14.2769 17.8804 14.6597 17.1255 14.9771C13.5138 16.4949 9.95809 16.4295 6.41841 14.7544C5.99562 14.5543 5.81423 14.3023 5.84758 13.8315C5.88492 13.298 5.86225 12.7645 5.84758 12.231C5.82357 10.7639 6.32638 9.52623 7.41603 8.55662C7.7788 8.23386 7.66143 8.08982 7.35468 7.87376C6.34505 7.16155 3.08679 7.17756 2.08917 7.90977C1.18891 8.57529 0.667427 10.1411 0.971514 11.2134C1.04087 11.4535 1.23826 11.5015 1.40764 11.5788C2.0365 11.8611 2.7011 12.0559 3.38287 12.1577C3.69763 12.2043 3.96704 12.3404 3.92303 12.7031C3.87368 13.1033 3.56026 13.1539 3.21749 13.1033C2.19586 12.9525 1.24493 12.5884 0.321995 12.1403C0.237409 12.1089 0.163762 12.0537 0.110012 11.9812C0.0562626 11.9088 0.0247269 11.8222 0.0192411 11.7322C0.0312446 10.6946 -0.132802 9.6436 0.321995 8.64465C0.691358 7.801 1.36045 7.12431 2.19987 6.74544C2.46661 6.6214 2.59998 6.55471 2.35724 6.24129C1.46365 5.11297 1.34629 3.88195 2.0905 2.64026C2.73602 1.56395 3.75364 1.02113 5.00734 1.14917C6.48909 1.29988 7.41869 2.17879 7.81881 3.61254C7.83615 3.67522 7.86949 3.73391 7.92817 3.89128ZM12.004 8.28588C11.4705 8.28588 10.937 8.26721 10.4035 8.28588C9.46236 8.33104 8.57244 8.72797 7.91 9.39808C7.24755 10.0682 6.86087 10.9626 6.82652 11.9042C6.81185 12.3484 6.85587 12.7965 6.80785 13.238C6.75184 13.7514 6.98124 13.9862 7.4307 14.1716C10.3155 15.3479 13.215 15.4119 16.1385 14.3396C17.1935 13.9515 17.1895 13.9395 17.1882 12.8445C17.1882 12.5338 17.1882 12.223 17.1802 11.9109C17.1465 10.9689 16.7604 10.0738 16.0981 9.40299C15.4359 8.73214 14.546 8.33441 13.6045 8.28854C13.071 8.26587 12.5375 8.28588 12.004 8.28588ZM15.0542 4.23805C15.0494 3.42873 14.7234 2.65446 14.1477 2.08556C13.5721 1.51666 12.794 1.19974 11.9847 1.20452C11.1753 1.20929 10.4011 1.53537 9.83218 2.11102C9.26328 2.68667 8.94636 3.46474 8.95113 4.27406C8.9618 5.91853 10.3862 7.33227 12.0213 7.31893C13.6565 7.3056 15.0716 5.88252 15.0542 4.23805ZM4.7766 6.40934C5.34942 6.40161 5.89579 6.16698 6.29584 5.75693C6.69589 5.34687 6.91696 4.79488 6.91055 4.22205C6.89054 3.05104 5.87692 2.05609 4.71659 2.07743C3.55625 2.09877 2.5493 3.1324 2.5693 4.28206C2.5867 4.85462 2.82734 5.39766 3.23979 5.79516C3.65224 6.19266 4.2038 6.41309 4.7766 6.40934ZM19.2541 6.40934C19.8266 6.40563 20.375 6.17856 20.7826 5.77649C21.1901 5.37441 21.4246 4.82911 21.436 4.25672C21.4216 3.6844 21.1886 3.13933 20.7847 2.73352C20.3809 2.3277 19.837 2.09197 19.2648 2.07476C18.6913 2.08541 18.1444 2.31831 17.7393 2.72437C17.3343 3.13043 17.1027 3.67791 17.0935 4.25139C17.0949 4.82386 17.323 5.37247 17.7279 5.77715C18.1329 6.18182 18.6816 6.40962 19.2541 6.41067V6.40934ZM9.46995 7.36161C8.62479 6.6257 8.08493 5.60068 7.95618 4.48746C7.80947 4.92625 7.75346 5.19166 7.63609 5.42106C7.4427 5.8065 6.96923 6.24796 7.05726 6.52804C7.15462 6.84546 7.80014 6.9535 8.10022 7.25758C8.51901 7.68571 8.90312 7.74706 9.46995 7.36161ZM14.474 7.43497C14.9529 7.49498 15.2423 7.86976 15.601 7.50965C15.9425 7.16031 16.3507 6.88318 16.8014 6.69475C17.0001 6.6134 17.1201 6.5187 16.9227 6.31731C16.468 5.85451 16.2852 5.25034 16.0345 4.48879C15.8878 5.74115 15.3476 6.6134 14.4727 7.43497H14.474Z" fill="#FA8B02" stroke="#FA8B02" stroke-width="0.5"/>
</svg>
