<svg width="23" height="23" viewBox="0 0 23 23" fill="none" xmlns="http://www.w3.org/2000/svg">
<path d="M9.43719 12.9835C10.8288 14.3952 12.5127 15.4852 14.3705 16.1768L16.8839 14.1768C16.9584 14.1255 17.0467 14.098 17.1372 14.098C17.2277 14.098 17.316 14.1255 17.3905 14.1768L22.0572 17.1835C22.2344 17.29 22.3843 17.4362 22.4953 17.6107C22.6062 17.7851 22.675 17.9829 22.6964 18.1885C22.7177 18.3942 22.691 18.6019 22.6182 18.7954C22.5455 18.9889 22.4287 19.1628 22.2772 19.3035L20.0905 21.4635C19.7774 21.7729 19.3925 22 18.9702 22.1244C18.548 22.2489 18.1014 22.2669 17.6705 22.1768C13.372 21.289 9.40995 19.2098 6.23719 16.1768C3.13485 13.1136 0.98804 9.21603 0.0571904 4.95679C-0.0347654 4.53255 -0.015573 4.09175 0.112908 3.67711C0.241389 3.26247 0.474801 2.88804 0.790524 2.59013L3.05719 0.403459C3.19746 0.259317 3.36851 0.148776 3.55756 0.0801108C3.7466 0.0114461 3.94872 -0.0135623 4.1488 0.00695828C4.34887 0.0274789 4.54171 0.0929966 4.71288 0.198606C4.88405 0.304215 5.02911 0.447179 5.13719 0.616792L8.24386 5.22346C8.29744 5.2958 8.32637 5.38344 8.32637 5.47346C8.32637 5.56348 8.29744 5.65112 8.24386 5.72346L6.19719 8.18346C6.90758 10.0041 8.01435 11.6437 9.43719 12.9835Z" fill="#FA8B02"/>
</svg>
