<svg width="22" height="24" viewBox="0 0 22 24" fill="none" xmlns="http://www.w3.org/2000/svg">
<path d="M0.00324644 13.0078C0.00324644 12.3295 -0.00405805 11.6512 0.00324644 10.973C0.0230729 9.46094 0.57404 8.6898 2.01198 8.25988C2.36573 8.15553 2.31146 7.92283 2.32503 7.70265C2.43981 5.73044 3.19635 4.03997 4.51638 2.58951C6.65555 0.239552 10.1502 -0.616116 13.24 0.458687C16.2578 1.50845 18.4669 4.34572 18.6558 7.48038C18.6871 7.99065 18.8342 8.21083 19.3382 8.36423C20.2909 8.64597 20.8742 9.34929 20.9462 10.3406C21.0762 12.1268 21.0762 13.9201 20.9462 15.7063C20.8649 16.8145 20.1699 17.5063 19.1097 17.786C18.7914 17.8694 18.6746 18.0061 18.6704 18.3077C18.6667 18.499 18.6489 18.6898 18.6172 18.8785C18.2154 21.3412 16.8745 22.5057 14.1833 22.7395C14.0101 22.7589 13.8359 22.768 13.6616 22.7666C13.3298 22.7541 13.1711 22.8709 13.1325 23.232C13.0793 23.711 12.7402 23.9718 12.2717 23.9833C11.3158 24.0056 10.3596 24.0056 9.40308 23.9833C8.85107 23.9729 8.50045 23.6212 8.46914 23.0609C8.44145 22.5743 8.44145 22.0865 8.46914 21.6C8.50358 21.0323 8.83646 20.7046 9.40829 20.6921C10.3474 20.6702 11.2866 20.6733 12.2257 20.6921C12.7475 20.7025 13.0918 20.9791 13.1294 21.5133C13.1534 21.8577 13.3005 21.8974 13.5958 21.8671C14.3263 21.793 15.0515 21.7367 15.7434 21.4716C17.0081 20.9874 17.9514 19.4284 17.7845 18.1324C17.7479 17.8475 17.5559 17.9237 17.4015 17.9154C16.4978 17.8705 16.4728 17.8486 16.4717 16.948C16.4717 14.3219 16.4717 11.6961 16.4717 9.07067C16.4717 8.25049 16.5375 8.16701 17.3577 8.16909C17.6999 8.16909 17.8001 8.07622 17.7824 7.72561C17.5956 4.00032 14.5475 1.06705 10.6542 0.889651C7.09903 0.719561 3.77549 3.52344 3.30383 7.09533C3.2934 7.1809 3.28192 7.26751 3.27044 7.35308C3.17131 8.10335 3.17131 8.11379 3.91219 8.14718C4.34628 8.16596 4.53829 8.36944 4.53829 8.79937C4.53829 11.6168 4.53829 14.4343 4.53829 17.2517C4.53829 17.7088 4.3442 17.931 3.87984 17.9154C3.30696 17.8945 2.73199 17.9581 2.16224 17.8538C0.933003 17.6347 0.157684 16.8541 0.0564648 15.6134C-0.014493 14.7504 0.0428994 13.877 0.0428994 13.0047L0.00324644 13.0078ZM3.61375 13.0297V10.0036C3.61375 9.00807 3.61375 9.00807 2.59321 9.05607C1.62067 9.10198 0.954916 9.65608 0.93196 10.5775C0.89022 12.2106 0.894394 13.8457 0.93196 15.4819C0.950742 16.276 1.47145 16.7978 2.25511 16.9428C2.52642 16.9908 2.81026 16.9637 3.08991 16.996C3.4927 17.043 3.63775 16.9032 3.62731 16.4795C3.59914 15.3254 3.61688 14.1776 3.61688 13.0297H3.61375ZM17.3952 13.0297C17.3952 14.1943 17.4057 15.3598 17.3879 16.5244C17.3879 16.8813 17.486 17.0461 17.8585 17.0023C18.0672 16.9793 18.2759 17.0023 18.4846 16.9846C19.4238 16.9094 20.0363 16.3585 20.0645 15.4308C20.1125 13.8322 20.1115 12.2304 20.0812 10.6307C20.0687 9.80843 19.5688 9.28668 18.7466 9.1312C18.4585 9.07694 18.157 9.10302 17.8648 9.06963C17.5017 9.02685 17.3837 9.16355 17.39 9.5319C17.4109 10.6964 17.3984 11.862 17.3984 13.0276L17.3952 13.0297ZM10.7951 23.0702H11.2125C12.3343 23.0702 12.3249 23.0702 12.2696 21.9568C12.257 21.6866 12.1652 21.5926 11.9033 21.5968C11.1728 21.6073 10.4507 21.5968 9.72447 21.5968C9.57108 21.5968 9.38116 21.577 9.38221 21.8055C9.38221 22.2 9.24133 22.6497 9.4469 22.9711C9.60238 23.2132 10.0271 23.0358 10.3297 23.0619C10.4852 23.0786 10.6469 23.0682 10.7982 23.0682L10.7951 23.0702Z" fill="#FA8B02"/>
</svg>
