<svg width="24" height="18" viewBox="0 0 24 18" fill="none" xmlns="http://www.w3.org/2000/svg">
<path d="M22.7998 4.63776C21.4875 4.65688 20.1732 4.64459 18.8643 4.64459C18.67 4.64459 18.5447 4.6443 18.4551 4.65436C18.3683 4.66414 18.3624 4.67963 18.3721 4.67096C18.3827 4.66066 18.3673 4.66346 18.3535 4.75494C18.3399 4.84568 18.3344 4.97357 18.3271 5.17096C18.3229 5.29577 18.3154 5.47776 18.2412 5.63092C18.2007 5.71465 18.1386 5.79531 18.0459 5.85455C17.9543 5.91308 17.8481 5.94071 17.7354 5.94635C17.6218 5.95197 17.5116 5.93441 17.4141 5.88385C17.3154 5.83266 17.2458 5.75602 17.1982 5.67291C17.1096 5.51808 17.0953 5.33201 17.0947 5.19342V5.19244C17.0947 5.11545 17.084 4.95696 17.0967 4.83014V4.82916C17.1037 4.76125 17.099 4.72212 17.0938 4.70221L17.0879 4.68756C17.0876 4.68728 17.0772 4.67829 17.043 4.66998C17.0256 4.66576 17.0043 4.66171 16.9785 4.65924L16.8857 4.65533C14.274 4.65871 11.6623 4.66022 9.05078 4.66022L1.2168 4.65533C1.06098 4.65535 1.02927 4.68179 1.0293 4.6817C1.03662 4.67484 1.00576 4.6938 1.00879 4.85065C1.02683 5.80798 1.02456 6.76754 1.00879 7.72369C1.00936 7.83858 1.03166 7.8769 1.04492 7.89362C1.06295 7.91612 1.10467 7.94957 1.22559 7.99323C2.31888 8.37866 2.95445 9.29037 2.95703 10.4014C2.95953 11.5176 2.33011 12.3948 1.21875 12.796C1.09301 12.8414 1.05642 12.876 1.04297 12.8946C1.03155 12.9105 1.01135 12.9496 1.01367 13.0714V13.0723C1.02822 13.9674 1.0513 14.8762 1.00586 15.7852C0.99373 16.0304 1.04295 16.0768 1.05273 16.085C1.07989 16.1075 1.15711 16.1365 1.39648 16.1348C3.94616 16.1123 6.49443 16.1231 9.03906 16.1231H16.792C16.8768 16.1231 16.9398 16.1201 16.9883 16.1124C17.0361 16.1047 17.055 16.0947 17.0605 16.0909C17.0613 16.0904 17.0663 16.0881 17.0732 16.0684C17.082 16.0435 17.0921 15.994 17.0889 15.9044L17.0674 15.6641C17.0595 15.5717 17.0528 15.457 17.0693 15.3458C17.086 15.2331 17.13 15.0997 17.2422 14.9952C17.3563 14.8889 17.5064 14.8443 17.6709 14.8419C17.8432 14.839 18.0016 14.8774 18.124 14.9805C18.2465 15.0837 18.2966 15.2207 18.3164 15.338C18.3357 15.4525 18.3299 15.5719 18.3232 15.6671C18.3158 15.7742 18.3079 15.8458 18.3076 15.9151C18.3074 15.987 18.3121 16.0358 18.3193 16.0684C18.3262 16.0993 18.3329 16.1057 18.3311 16.1036C18.3216 16.0925 18.3342 16.126 18.4912 16.1241C19.9343 16.1072 21.3774 16.1096 22.8193 16.1231C22.8916 16.1231 22.9408 16.119 22.9746 16.1114C22.9906 16.1078 23.0008 16.1043 23.0068 16.1016L23.0146 16.0977V16.0967C23.0157 16.0951 23.0191 16.0891 23.0225 16.0782C23.0297 16.0546 23.0365 16.0117 23.0352 15.9385C23.0171 14.9821 23.0206 14.024 23.0352 13.0694C23.0351 12.9486 23.0145 12.9094 23.002 12.8926C22.9872 12.8729 22.9497 12.8383 22.8252 12.794H22.8242C22.2787 12.5982 21.8481 12.2893 21.5537 11.8751C21.2594 11.4608 21.113 10.9571 21.1074 10.3917V10.3907C21.0982 9.36437 21.6611 8.49474 22.6299 8.06158L22.8291 7.98053C22.9586 7.93239 23.0044 7.89095 23.0244 7.86237C23.0435 7.83506 23.0643 7.78382 23.0625 7.65826L23.0498 6.27838C23.0491 5.81808 23.0523 5.35734 23.0625 4.89655V4.89557C23.0671 4.71525 23.0332 4.67778 23.0293 4.67389C23.0241 4.6687 22.9832 4.63513 22.7998 4.63776ZM21.3672 1.57037C21.3633 1.56861 21.3233 1.55087 21.1816 1.57428C20.0716 1.7591 18.9574 1.91298 17.8486 2.0733H17.8477C17.6136 2.10646 17.4574 2.12857 17.3447 2.15631C17.2322 2.18405 17.2093 2.20727 17.2061 2.211C17.205 2.21218 17.186 2.23254 17.1787 2.3399C17.1714 2.44833 17.1785 2.59751 17.1895 2.82526C17.1957 2.95479 17.1872 3.11591 17.1123 3.25787C17.0676 3.34255 17.0039 3.40874 16.9258 3.45807C18.4288 3.45792 19.9434 3.44546 21.4473 3.46783L21.5625 3.46393C21.5932 3.46096 21.6167 3.45702 21.6338 3.45221C21.6437 3.44939 21.6495 3.44522 21.6533 3.44342C21.6542 3.43871 21.6547 3.43194 21.6553 3.42291C21.6565 3.4047 21.6553 3.38132 21.6523 3.35162L21.6357 3.24323C21.5351 2.74006 21.4618 2.23145 21.4072 1.72467V1.72369C21.394 1.61319 21.3732 1.57819 21.3672 1.57037ZM15.8408 2.37701C15.7918 2.37344 15.7238 2.37707 15.6309 2.39166C13.4881 2.72893 11.3398 3.04136 9.19727 3.36139C8.97656 3.39441 8.75574 3.42624 8.53516 3.45905H16.2617C16.2339 3.43963 16.2071 3.41794 16.1826 3.39264C16.0681 3.27437 16.0168 3.11758 15.9922 2.98346V2.98248C15.9599 2.86131 15.94 2.73673 15.9346 2.61139V2.59186C15.9379 2.49902 15.9288 2.44443 15.9189 2.4151C15.9145 2.40193 15.9106 2.39567 15.9092 2.39362C15.908 2.39202 15.9068 2.39206 15.9062 2.39166C15.9039 2.39011 15.8879 2.38045 15.8408 2.37701ZM24.249 8.07819C24.249 8.29539 24.2316 8.53705 24.0996 8.73053C23.9567 8.93991 23.7228 9.03779 23.4297 9.07233H23.4277C23.1114 9.10695 22.8184 9.25692 22.6064 9.4942C22.3945 9.73154 22.2781 10.0393 22.2793 10.3575V10.3663C22.2695 10.6919 22.3813 11.0099 22.5938 11.2569C22.7797 11.4731 23.0311 11.6209 23.3076 11.6807L23.4277 11.7012L23.4355 11.7022L23.626 11.7432C23.8066 11.7959 23.9567 11.8862 24.0615 12.0333C24.1611 12.173 24.1993 12.3377 24.2109 12.5049L24.2148 12.6719C24.198 13.9065 24.1913 15.1393 24.2148 16.3712V16.3721C24.2202 16.6613 24.173 16.9309 23.9805 17.1172C23.8382 17.2549 23.6504 17.3138 23.4463 17.334L23.2383 17.3428C19.4817 17.326 15.7186 17.3331 11.9551 17.3331H0.831055C0.641174 17.3331 0.47558 17.3295 0.34082 17.3087C0.204489 17.2876 0.0626058 17.244 -0.046875 17.1329C-0.155672 17.0224 -0.198287 16.8806 -0.21875 16.7442C-0.239071 16.6084 -0.242188 16.4406 -0.242188 16.2481C-0.242186 15.0473 -0.231084 13.8526 -0.249023 12.6563C-0.252698 12.416 -0.214689 12.1846 -0.0654297 12.004C0.0851551 11.8219 0.308877 11.7402 0.55957 11.7032L0.568359 11.7022C0.892185 11.6666 1.19097 11.5101 1.40527 11.2647C1.6194 11.0194 1.73391 10.7026 1.72559 10.377V10.3682C1.72878 10.0499 1.61433 9.74124 1.4043 9.50201C1.19426 9.26285 0.902944 9.10935 0.586914 9.07135H0.582031C0.321308 9.03488 0.0965609 8.94988 -0.0507812 8.76276C-0.194083 8.58044 -0.224091 8.34996 -0.22168 8.12213L-0.210938 6.24323C-0.210516 5.61716 -0.214382 4.99148 -0.225586 4.36627C-0.230684 4.09243 -0.17335 3.85142 -0.00195312 3.67194C0.163741 3.49847 0.396521 3.42561 0.639648 3.38971H0.640625C6.76833 2.49089 12.895 1.58287 19.0205 0.666077C19.8335 0.544136 20.6423 0.432854 21.4453 0.282288C21.699 0.235308 21.9682 0.223188 22.1846 0.360413C22.4131 0.505366 22.505 0.763771 22.5342 1.05865C22.5676 1.39484 22.6203 1.7306 22.6738 2.07428C22.727 2.41543 22.7815 2.76468 22.8154 3.11725C22.8337 3.30384 22.8683 3.36436 22.8906 3.38678C22.9064 3.40238 22.9566 3.43908 23.1426 3.43561L23.4248 3.43365C23.5114 3.43531 23.5902 3.44017 23.6602 3.44928C23.8005 3.46758 23.9478 3.50986 24.0605 3.62604C24.1718 3.74069 24.2116 3.88845 24.2295 4.02643C24.2475 4.16497 24.2487 4.33867 24.249 4.53912V8.07819Z" fill="#FA8B02" stroke="#FA8B02" stroke-width="0.5"/>
<path d="M13.9434 11.5115C13.9433 11.647 13.915 11.774 13.8447 11.8806C13.773 11.9894 13.6734 12.0527 13.5752 12.0886C13.4812 12.123 13.3838 12.1342 13.3027 12.1384C13.2236 12.1425 13.1364 12.1411 13.0752 12.1414H4.88086C4.81741 12.1414 4.73156 12.1424 4.65039 12.1375C4.56855 12.1324 4.4708 12.1197 4.37695 12.0837C4.27914 12.0462 4.18015 11.9812 4.11035 11.8708C4.04183 11.7624 4.01616 11.6337 4.01953 11.4978C4.02274 11.3703 4.05444 11.251 4.125 11.1511C4.19615 11.0506 4.29131 10.9914 4.38379 10.9578C4.54905 10.8977 4.75019 10.906 4.86035 10.906H13.1104C13.223 10.906 13.4234 10.8995 13.5889 10.9626C13.6815 10.998 13.7766 11.0586 13.8457 11.1609C13.9138 11.2619 13.9421 11.3814 13.9434 11.5085V11.5115Z" fill="#FA8B02" stroke="#FA8B02" stroke-width="0.5"/>
<path d="M13.083 13.1435C13.1427 13.1435 13.2316 13.141 13.3105 13.1445C13.3916 13.148 13.4896 13.1582 13.584 13.1913C13.6825 13.226 13.7848 13.2886 13.8574 13.3994C13.9287 13.508 13.9545 13.6369 13.9512 13.7734C13.9478 13.9107 13.9152 14.0384 13.8389 14.1435C13.7615 14.2499 13.6573 14.3083 13.5586 14.3398C13.4636 14.37 13.3656 14.3776 13.2852 14.3798C13.211 14.3818 13.117 14.3789 13.0635 14.3788H4.74512C4.61615 14.3747 4.44437 14.3581 4.29883 14.2744C4.12991 14.1771 4.02657 14.0086 4.01953 13.7831C4.01604 13.6699 4.0349 13.5608 4.08398 13.4638C4.13403 13.3652 4.20825 13.2937 4.29199 13.2451C4.44751 13.1547 4.6353 13.1435 4.77344 13.1435H13.083Z" fill="#FA8B02" stroke="#FA8B02" stroke-width="0.5"/>
<path d="M13.1143 8.66876C13.2288 8.66876 13.4276 8.66312 13.5928 8.72736C13.6849 8.76327 13.7781 8.82462 13.8467 8.9256C13.9143 9.02529 13.9442 9.14319 13.9473 9.26935C13.9504 9.39637 13.9256 9.51679 13.8604 9.61993C13.7943 9.72426 13.7012 9.78823 13.6094 9.82599C13.4441 9.89381 13.2444 9.88995 13.1289 9.89044H13.127C11.7249 9.88707 10.3238 9.88458 8.92188 9.88458H4.88477C4.82768 9.88459 4.73885 9.8868 4.66113 9.88361C4.58058 9.88028 4.48242 9.87117 4.3877 9.83771C4.28841 9.8026 4.18518 9.73792 4.11328 9.62482C4.04326 9.51438 4.01982 9.38365 4.02539 9.24591C4.03058 9.1182 4.06411 8.99941 4.1377 8.90118C4.21138 8.80289 4.30839 8.74706 4.40039 8.71564C4.56505 8.65948 4.76609 8.66876 4.87207 8.66876H13.1143Z" fill="#FA8B02" stroke="#FA8B02" stroke-width="0.5"/>
<path d="M8.79297 6.4118C8.90978 6.4118 9.09677 6.41149 9.25391 6.48212C9.34066 6.5212 9.42464 6.58434 9.48535 6.68134C9.54494 6.7767 9.57084 6.8869 9.57324 7.0036C9.57559 7.11999 9.5549 7.23199 9.5 7.32977C9.44403 7.42932 9.3625 7.49654 9.27637 7.53973C9.11946 7.61824 8.93224 7.62177 8.80859 7.62177H4.77734C4.65795 7.62176 4.46731 7.61972 4.30957 7.54071C4.22177 7.49668 4.13923 7.42683 4.08496 7.32196C4.03217 7.2199 4.01599 7.10529 4.02441 6.987C4.03214 6.87319 4.06362 6.76724 4.125 6.67645C4.18701 6.58482 4.2691 6.52426 4.35449 6.48602C4.51009 6.41646 4.69029 6.41604 4.81641 6.41864V6.41766L6.83203 6.4118H8.79297Z" fill="#FA8B02" stroke="#FA8B02" stroke-width="0.5"/>
<path d="M17.7393 6.58539C17.9324 6.59678 18.0896 6.68111 18.1914 6.8266C18.2848 6.95996 18.3143 7.11962 18.3184 7.25922V7.26703C18.3172 7.62772 18.3145 7.98176 18.3145 8.33636V9.40765C18.3104 9.56012 18.277 9.73443 18.168 9.87347C18.0486 10.0256 17.8689 10.0977 17.6611 10.0903H17.6592C17.4586 10.0814 17.2976 9.99369 17.1973 9.84222C17.1293 9.73967 17.0996 9.62308 17.0889 9.5141L17.083 9.40765C17.0785 8.69723 17.0785 7.98531 17.083 7.27191C17.0832 7.11996 17.1136 6.94426 17.2227 6.80316C17.3277 6.66744 17.4805 6.59556 17.6572 6.58539H17.7393Z" fill="#FA8B02" stroke="#FA8B02" stroke-width="0.5"/>
<path d="M17.7324 10.7098C17.9508 10.7219 18.1184 10.8221 18.2168 10.9891C18.3033 11.136 18.3203 11.3082 18.3203 11.4461V11.4471L18.3154 12.4539C18.3154 12.8019 18.3211 13.1643 18.3154 13.5213C18.3149 13.6722 18.2845 13.8446 18.1787 13.9852C18.0626 14.1393 17.8854 14.2166 17.6768 14.2166H17.6699C17.4668 14.2112 17.3039 14.1244 17.2021 13.9725C17.1114 13.8368 17.0873 13.6758 17.084 13.5447V13.5408C17.0772 12.8293 17.0772 12.1179 17.084 11.407C17.0842 11.2578 17.1135 11.0821 17.2168 10.9393C17.3323 10.7797 17.5142 10.6977 17.7324 10.7098Z" fill="#FA8B02" stroke="#FA8B02" stroke-width="0.5"/>
</svg>
