<svg width="24" height="24" viewBox="0 0 24 24" fill="none" xmlns="http://www.w3.org/2000/svg">
<path d="M22.6426 11.9997C22.6424 6.12203 17.8777 1.35727 12 1.35712V2.85712C17.0492 2.85727 21.1424 6.95046 21.1426 11.9997C21.1426 16.8915 17.3008 20.8859 12.4697 21.1306L12 21.1432C7.10832 21.1432 3.11399 17.3012 2.86914 12.4704L2.85645 11.9997C2.8566 6.95036 6.95063 2.85712 12 2.85712V1.35712C6.1222 1.35712 1.3566 6.12194 1.35645 11.9997C1.35645 17.8776 6.12211 22.6432 12 22.6432C17.8778 22.6431 22.6426 17.8775 22.6426 11.9997Z" fill="#FA8B02"/>
<path d="M12.75 8.57141C12.75 8.1572 12.4142 7.82141 12 7.82141C11.5858 7.82141 11.25 8.1572 11.25 8.57141V13.1427C11.25 13.5569 11.5858 13.8927 12 13.8927H16C16.4142 13.8927 16.75 13.5569 16.75 13.1427C16.7499 12.7286 16.4142 12.3927 16 12.3927H12.75V8.57141Z" fill="#FA8B02"/>
</svg>
