<svg width="9" height="24" viewBox="0 0 9 24" fill="none" xmlns="http://www.w3.org/2000/svg">
<path d="M4.50736 0C4.85483 0 5.20231 0 5.55083 0C6.0277 0.00937608 6.3084 0.269823 6.33762 0.72925C6.36683 1.18868 6.39918 1.6356 6.0757 2.06586C5.79709 2.4357 5.97135 2.85241 6.27709 3.19203C6.91779 3.89941 7.53762 4.62761 8.19083 5.32353C8.45086 5.59268 8.65427 5.9111 8.78904 6.26001C8.92381 6.60892 8.98722 6.98124 8.97553 7.35501C8.96301 9.48963 8.96927 11.6263 8.97553 13.7578C8.97669 14.2445 8.87945 14.7264 8.68962 15.1747C8.01136 16.7915 7.99988 18.4167 8.68962 20.0304C9.06631 20.9159 9.02875 21.8327 8.92544 22.7391C8.89005 23.0736 8.73057 23.3828 8.47838 23.6058C8.22619 23.8289 7.89954 23.9497 7.56266 23.9444C6.65379 23.9569 5.72196 24.1121 4.86944 23.585C4.57518 23.4037 4.22666 23.4944 3.92092 23.66C3.02144 24.1486 2.05414 24.0017 1.11814 23.8819C0.454485 23.8027 0.0443982 23.2318 0.0183113 22.5474C-0.0182105 21.5764 0.0183113 20.6336 0.404398 19.6918C0.966833 18.3115 0.932398 16.8655 0.39292 15.4726C0.12589 14.7954 -0.00700035 14.073 0.00161563 13.3453C0.0238765 11.3506 0.0238765 9.35524 0.00161563 7.35918C-0.0111092 6.98643 0.0514379 6.61493 0.185531 6.26681C0.319625 5.9187 0.522522 5.60109 0.782137 5.3329C1.43327 4.63387 2.05936 3.91295 2.69275 3.19828C3.09762 2.7399 3.09866 2.42215 2.79709 1.90334C2.5164 1.42516 2.55709 0.899062 2.73866 0.400046C2.84301 0.118764 3.11222 0.00416715 3.41588 0.00312536L4.50736 0ZM0.836398 20.6013C1.03153 20.6149 1.16614 20.6295 1.30075 20.6336C1.55953 20.642 1.82249 20.6711 1.80996 21.0076C1.80057 21.3035 1.55431 21.3837 1.32057 21.341C0.716398 21.2306 0.663181 21.5681 0.709094 22.0234C0.727877 22.2119 0.709094 22.4057 0.733094 22.5943C0.768572 22.8974 0.94805 23.1704 1.22979 23.1964C2.01657 23.2673 2.82736 23.4339 3.5797 23.0433C4.08996 22.7787 4.63675 22.6464 5.12509 22.9328C5.89727 23.385 6.70909 23.2454 7.51362 23.2454C7.98109 23.2454 8.23362 22.9422 8.26596 22.4776C8.28057 22.2536 8.24822 22.0244 8.27536 21.8015C8.32231 21.4285 8.17101 21.3379 7.81101 21.342C6.35014 21.3618 4.88927 21.3504 3.4284 21.3504C3.2892 21.3546 3.14988 21.3515 3.01101 21.341C2.79605 21.3181 2.6437 21.1993 2.64892 20.9753C2.64892 20.7774 2.79918 20.669 2.99222 20.6472C3.13106 20.636 3.27038 20.6322 3.40962 20.6357C4.83501 20.6357 6.2604 20.6274 7.68788 20.6357C8.03327 20.6357 8.15222 20.5919 8.00092 20.2096C7.28405 18.3969 7.31744 16.5863 8.08127 14.7923C8.143 14.6491 8.19494 14.5019 8.23675 14.3516C8.33066 13.9995 8.26075 13.8308 7.81935 13.8308C5.69796 13.8537 3.57762 13.8412 1.45414 13.8412C0.619355 13.8412 0.555703 13.937 0.860398 14.7184C0.879181 14.7663 0.903181 14.8132 0.925094 14.86C1.36231 15.8289 1.51049 16.8499 1.47918 17.9052C1.44346 18.8372 1.22508 19.7532 0.836398 20.6013ZM8.14075 10.6762L8.2597 10.6137C8.2597 10.0157 8.2597 9.41671 8.2597 8.81872C8.2597 8.58224 8.09275 8.59786 7.93727 8.58432C7.70457 8.56453 7.51988 8.47077 7.53657 8.20719C7.55014 7.97487 7.72857 7.89466 7.93831 7.88111C8.09379 7.86965 8.26283 7.88111 8.2597 7.64775C8.25344 7.21645 8.30562 6.78203 8.08649 6.37573C7.96336 6.14654 7.84649 6.04236 7.56475 6.15904C7.23629 6.30389 6.87596 6.36167 6.51859 6.32682C6.16122 6.29196 5.81891 6.16564 5.52475 5.96006C4.81831 5.48709 4.14736 5.48501 3.44509 5.96006C2.88162 6.3424 2.25031 6.41011 1.59709 6.23717C1.01796 6.08507 0.847877 6.17883 0.745616 6.77161C0.710137 6.97997 0.73205 7.18833 0.703876 7.39668C0.648572 7.79777 0.82805 7.89362 1.20683 7.88945C2.77205 7.87174 4.33727 7.88111 5.90249 7.88216C6.05848 7.8785 6.21456 7.88371 6.36996 7.89778C6.56301 7.91966 6.69762 8.0228 6.70075 8.23115C6.70344 8.27499 6.69717 8.31891 6.68233 8.36025C6.6675 8.4016 6.6444 8.4395 6.61443 8.47165C6.58447 8.50381 6.54828 8.52954 6.50804 8.5473C6.46781 8.56505 6.42438 8.57446 6.3804 8.57494C6.22505 8.58992 6.06894 8.59548 5.91292 8.59161C4.36649 8.59161 2.82005 8.61141 1.27466 8.58119C0.79779 8.56765 0.681963 8.71871 0.696572 9.16772C0.72892 10.1553 0.703876 11.1471 0.710137 12.1337C0.710137 12.2775 0.650659 12.4462 0.82179 12.5994C1.38422 12.1118 1.94457 11.6274 2.50075 11.1409C2.80336 10.8742 3.19675 10.6304 3.53796 10.8346C4.16405 11.2065 4.43536 10.8044 4.77762 10.4512C5.01866 10.2022 5.25866 9.95114 5.51431 9.7157C6.07779 9.19481 6.66214 9.19481 7.22144 9.7157C7.54388 10.022 7.83814 10.3554 8.14075 10.6762ZM7.35918 5.47459C6.7957 4.8391 6.27918 4.25882 5.76475 3.67542C5.56962 3.45456 5.32022 3.22329 5.32962 2.92742C5.35257 2.15337 4.87362 2.15337 4.32892 2.20546C4.24216 2.2138 4.15481 2.2138 4.06805 2.20546C3.83536 2.18567 3.70805 2.27005 3.71222 2.518C3.72057 3.02118 3.4597 3.40143 3.13831 3.75668C2.63327 4.31612 2.13762 4.88389 1.61588 5.4725C2.16579 5.71941 2.63014 5.65586 3.05796 5.36833C4.01483 4.71825 4.95814 4.72033 5.91501 5.36833C6.34388 5.66315 6.80718 5.72357 7.35918 5.47459ZM7.00857 13.1265C7.39883 13.1265 7.6764 13.1265 7.95396 13.1265C8.05831 13.1265 8.16266 13.1421 8.23779 13.0421C8.34214 12.8952 8.24718 11.7347 8.10631 11.593C7.64405 11.1242 7.17553 10.6616 6.70909 10.198C6.53066 10.0199 6.32092 9.92927 6.11431 10.1241C5.66144 10.5533 5.22631 11.0002 4.78388 11.4388C4.67953 11.543 4.65136 11.6545 4.77031 11.7514C5.48509 12.3295 5.87953 13.4536 7.00857 13.1265ZM1.34666 13.0796H5.03327C4.51675 12.5504 4.04822 12.0545 3.55883 11.5805C3.40544 11.4315 3.1957 11.4763 3.03709 11.6138C2.4997 12.0764 1.96857 12.5431 1.34666 13.0838V13.0796ZM4.49901 1.48975C4.77553 1.48975 5.05205 1.47725 5.32857 1.48975C5.64162 1.50642 5.64162 1.31994 5.64683 1.09179C5.65205 0.863641 5.61449 0.692788 5.31709 0.701122C4.80162 0.717791 4.27988 0.718833 3.75814 0.702164C3.45657 0.692788 3.32822 0.778214 3.32509 1.10742C3.32509 1.45433 3.48579 1.50955 3.76962 1.49392C4.01379 1.47934 4.25692 1.4908 4.49901 1.48975Z" fill="#FA8B02"/>
</svg>
