<svg width="40" height="30" viewBox="0 0 40 30" fill="none" xmlns="http://www.w3.org/2000/svg">
<rect x="0.5" y="0.5" width="39" height="29" rx="3.5" fill="white" stroke="#B2BCCA"/>
<path d="M20 29L39 23.25V26C39 27.6569 37.6569 29 36 29H20Z" fill="#FD6020"/>
<path fill-rule="evenodd" clip-rule="evenodd" d="M34.5807 11.3886C35.8104 11.3886 36.4868 11.993 36.4868 13.1347C36.5483 14.0078 35.9949 14.7466 35.257 14.8809L36.9172 17.3657H35.626L34.2117 14.948H34.0888V17.3657H33.0435V11.3886H34.5807ZM34.0888 14.1421H34.3962C35.0726 14.1421 35.38 13.8063 35.38 13.2019C35.38 12.6646 35.0726 12.3288 34.3962 12.3288H34.0888V14.1421ZM29.4158 17.3657H32.3672V16.3584H30.4611V14.7466H32.3057V13.7392H30.4611V12.396H32.3672V11.3886H29.4158V17.3657ZM26.3413 15.4181L24.9271 11.3886H23.8203L26.0953 17.5001H26.6487L28.9238 11.3886H27.817L26.3413 15.4181ZM13.8592 14.4106C13.8592 16.0896 15.0889 17.4999 16.6261 17.4999C17.118 17.4999 17.5485 17.3656 17.9789 17.1641V15.821C17.6714 16.2239 17.241 16.4926 16.7491 16.4926C15.7653 16.4926 14.966 15.6867 14.966 14.6121V14.4778C14.9045 13.4033 15.7038 12.463 16.6876 12.3959C17.1795 12.3959 17.6714 12.6645 17.9789 13.0675V11.7243C17.6099 11.4557 17.118 11.3885 16.6876 11.3885C15.0889 11.2542 13.8592 12.6645 13.8592 14.4106ZM11.9531 13.672C11.3382 13.4033 11.1538 13.269 11.1538 12.9332C11.2153 12.5303 11.5227 12.1945 11.8916 12.2616C12.1991 12.2616 12.5065 12.4631 12.7525 12.7317L13.3058 11.9258C12.8754 11.5229 12.322 11.2542 11.7686 11.2542C10.9078 11.1871 10.17 11.9258 10.1085 12.8661V12.9332C10.1085 13.7391 10.4159 14.2092 11.3997 14.545C11.6457 14.6122 11.8916 14.7465 12.1376 14.8808C12.322 15.0151 12.445 15.2166 12.445 15.4852C12.445 15.9554 12.0761 16.3583 11.7072 16.3583H11.6457C11.1538 16.3583 10.7234 16.0225 10.5389 15.5524L9.86252 16.2911C10.2314 17.0299 10.9693 17.4328 11.7072 17.4328C12.691 17.5 13.4903 16.6941 13.5518 15.6196V15.4181C13.4903 14.6122 13.1829 14.2092 11.9531 13.672ZM8.38682 17.3657H9.43211V11.3886H8.38682V17.3657ZM3.5293 11.3886H5.06649H5.37393C6.84964 11.4558 8.01791 12.799 7.95643 14.4108C7.95643 15.2838 7.5875 16.0897 6.97262 16.6942C6.41923 17.1643 5.74286 17.4329 5.06649 17.3658H3.5293V11.3886ZM4.88207 16.3584C5.37397 16.4256 5.92736 16.2241 6.29629 15.8883C6.66522 15.4854 6.84968 14.9481 6.84968 14.3437C6.84968 13.8064 6.66522 13.2691 6.29629 12.8662C5.92736 12.5304 5.37397 12.3289 4.88207 12.3961H4.57463V16.3584H4.88207Z" fill="#333333"/>
<path fill-rule="evenodd" clip-rule="evenodd" d="M21.1151 11.25C19.5779 11.25 18.2866 12.5932 18.2866 14.3393C18.2866 16.0183 19.5164 17.4286 21.1151 17.4958C22.7137 17.5629 23.9435 16.1526 24.005 14.4065C23.9435 12.6603 22.7137 11.25 21.1151 11.25V11.25Z" fill="#FD6020"/>
</svg>
