<svg width="40" height="30" viewBox="0 0 40 30" fill="none" xmlns="http://www.w3.org/2000/svg">
<rect x="0.5" y="0.5" width="39" height="29" rx="3.5" fill="white" stroke="#B2BCCA"/>
<path d="M22.6558 14.6323C22.6558 19.2616 19.1642 23.0145 14.8572 23.0145C10.5501 23.0145 7.05859 19.2616 7.05859 14.6323C7.05859 10.0029 10.5501 6.25006 14.8572 6.25006C19.1642 6.25006 22.6558 10.0029 22.6558 14.6323Z" fill="#ED0006"/>
<path d="M32.773 14.6323C32.773 19.2616 29.2814 23.0145 24.9744 23.0145C20.6673 23.0145 17.1758 19.2616 17.1758 14.6323C17.1758 10.0029 20.6673 6.25006 24.9744 6.25006C29.2814 6.25006 32.773 10.0029 32.773 14.6323Z" fill="#2F80ED"/>
<path fill-rule="evenodd" clip-rule="evenodd" d="M19.9158 8.25244C21.5925 9.78989 22.6558 12.0776 22.6558 14.6322C22.6558 17.1868 21.5926 19.4745 19.9158 21.012C18.239 19.4745 17.1758 17.1868 17.1758 14.6322C17.1758 12.0776 18.239 9.78989 19.9158 8.25244Z" fill="#6C6BBD"/>
</svg>
