<svg width="40" height="30" viewBox="0 0 40 30" fill="none" xmlns="http://www.w3.org/2000/svg">
<rect x="0.5" y="0.5" width="39" height="29" rx="3.5" fill="white" stroke="#B2BCCA"/>
<path fill-rule="evenodd" clip-rule="evenodd" d="M20.2103 21.0369C18.8173 22.2844 17.0104 23.0375 15.0359 23.0375C10.6301 23.0375 7.05859 19.2879 7.05859 14.6625C7.05859 10.0372 10.6301 6.28754 15.0359 6.28754C17.0104 6.28754 18.8173 7.04066 20.2103 8.28821C21.6033 7.04066 23.4103 6.28754 25.3848 6.28754C29.7905 6.28754 33.3621 10.0372 33.3621 14.6625C33.3621 19.2879 29.7905 23.0375 25.3848 23.0375C23.4103 23.0375 21.6033 22.2844 20.2103 21.0369Z" fill="#ED0006"/>
<path fill-rule="evenodd" clip-rule="evenodd" d="M20.2104 21.0369C21.9257 19.5008 23.0133 17.215 23.0133 14.6625C23.0133 12.1101 21.9257 9.82428 20.2104 8.28815C21.6034 7.04064 23.4104 6.28754 25.3848 6.28754C29.7906 6.28754 33.3621 10.0372 33.3621 14.6625C33.3621 19.2879 29.7906 23.0375 25.3848 23.0375C23.4104 23.0375 21.6034 22.2844 20.2104 21.0369Z" fill="#F9A000"/>
<path fill-rule="evenodd" clip-rule="evenodd" d="M20.2105 21.0368C21.9257 19.5007 23.0133 17.2149 23.0133 14.6625C23.0133 12.1101 21.9257 9.82434 20.2105 8.28821C18.4953 9.82434 17.4077 12.1101 17.4077 14.6625C17.4077 17.2149 18.4953 19.5007 20.2105 21.0368Z" fill="#FD6020"/>
</svg>
