<svg width="40" height="30" viewBox="0 0 40 30" fill="none" xmlns="http://www.w3.org/2000/svg">
<rect x="0.5" y="0.5" width="39" height="29" rx="3.5" fill="white" stroke="#B2BCCA"/>
<path fill-rule="evenodd" clip-rule="evenodd" d="M12.6473 19.8228H10.224L8.40692 12.2404C8.32067 11.8916 8.13754 11.5833 7.86816 11.438C7.1959 11.0727 6.45511 10.7821 5.64697 10.6355V10.3436H9.5506C10.0894 10.3436 10.4934 10.7821 10.5608 11.2914L11.5036 16.7608L13.9256 10.3436H16.2815L12.6473 19.8228ZM17.6285 19.8228H15.3399L17.2244 10.3436H19.5129L17.6285 19.8228ZM22.4737 12.9696C22.5411 12.4591 22.9451 12.1672 23.4165 12.1672C24.1573 12.0939 24.9643 12.2405 25.6377 12.6044L26.0418 10.5635C25.3683 10.2716 24.6276 10.125 23.9553 10.125C21.7341 10.125 20.1178 11.438 20.1178 13.2603C20.1178 14.6466 21.2627 15.3745 22.0708 15.813C22.9451 16.2503 23.2818 16.5422 23.2145 16.9794C23.2145 17.6353 22.5411 17.9272 21.8688 17.9272C21.0607 17.9272 20.2525 17.7086 19.5129 17.3434L19.1088 19.3856C19.917 19.7495 20.7913 19.8961 21.5994 19.8961C24.09 19.9681 25.6377 18.6564 25.6377 16.6875C25.6377 14.2081 22.4737 14.0628 22.4737 12.9696ZM33.6469 19.8228L31.8298 10.3436H29.878C29.4739 10.3436 29.0698 10.6355 28.9351 11.0727L25.5703 19.8228H27.9261L28.3964 18.4377H31.291L31.5604 19.8228H33.6469ZM30.2148 12.8962L30.8871 16.4688H29.0026L30.2148 12.8962Z" fill="#28356A"/>
</svg>
