<svg xmlns="http://www.w3.org/2000/svg" width="16" height="24" viewBox="0 0 16 24"><path stroke-width="0.1" d="M7.754.05a7.7 7.7 0 0 1 4.423 1.4l.256.188.25.202a7.78 7.78 0 0 1 2.14 8.983c-.617 1.449-1.55 2.69-2.49 3.922-.485.634-.97 1.272-1.48 1.888q-.096.115-.138.192c-.028.052-.033.083-.027.102.004.018.02.04.073.064q.076.034.24.061l.378.065c.877.164 1.728.429 2.523.866.39.201.745.47 1.043.792h.001c.324.367.488.777.485 1.188s-.173.818-.504 1.18c-.615.67-1.418 1.032-2.248 1.296-2.05.65-4.159.815-6.291.654-1.485-.112-2.956-.332-4.337-.954-.482-.2-.926-.48-1.313-.83-.443-.426-.67-.896-.669-1.37.002-.472.232-.94.685-1.358.685-.633 1.528-.975 2.403-1.22l.428-.117c.41-.105.836-.196 1.287-.301-.57-.733-1.118-1.43-1.66-2.132-.905-1.175-1.803-2.36-2.43-3.724l-.123-.275a7.79 7.79 0 0 1 2.415-9.18A7.7 7.7 0 0 1 7.754.05Zm2.499 17.883a.57.57 0 0 0-.354.032.7.7 0 0 0-.26.247c-.443.627-.907 1.238-1.363 1.852a1.4 1.4 0 0 1-.27.29.44.44 0 0 1-.27.1.45.45 0 0 1-.27-.108 1.5 1.5 0 0 1-.27-.298q-.383-.523-.765-1.05c-.22-.3-.383-.523-.527-.684-.143-.16-.265-.256-.401-.307s-.292-.058-.509-.032-.49.087-.86.168c-.785.175-1.544.404-2.225.82l-.286.19c-.382.275-.557.552-.554.816.004.265.186.54.574.81h-.001c.437.297.916.528 1.42.686v.001c1.515.488 3.078.65 4.663.679l.697-.012a17 17 0 0 0 2.08-.212 10.5 10.5 0 0 0 1.495-.323l.485-.155c.58-.21 1.143-.446 1.597-.863.225-.207.333-.42.334-.626 0-.206-.106-.419-.34-.626v-.001a4 4 0 0 0-.508-.368l-.182-.103c-.972-.535-2.044-.736-3.13-.923ZM8.244 1.063a6.697 6.697 0 0 0-7.111 5.69c-.276 1.89.204 3.61 1.244 5.188.798 1.21 1.686 2.352 2.583 3.49.896 1.138 1.801 2.272 2.633 3.462.082.118.132.132.162.126a.14.14 0 0 0 .068-.042 1 1 0 0 0 .088-.11c.22-.314.454-.62.68-.928.72-.981 1.484-1.93 2.234-2.885.75-.956 1.487-1.92 2.155-2.936l.314-.502c.699-1.18 1.152-2.424 1.122-3.703v-.001c0-3.56-2.515-6.397-5.847-6.816zM7.75 4.546a3.19 3.19 0 0 1 2.94 1.974 3.188 3.188 0 1 1-2.94-1.974Zm-.026 1.002a2.185 2.185 0 1 0 .044 4.37 2.185 2.185 0 0 0-.044-4.37Z"/></svg>