<svg xmlns="http://www.w3.org/2000/svg" width="24" height="24" viewBox="0 0 24 24"><path stroke-width="0.3" d="M9.822 7.333c.614-.216 1.092.14 1.449.494.447.446.682 1.005.804 1.582l.046.248v.001c.203 1.326.152 2.657-.487 3.897v.001a1 1 0 0 0-.068.159 1 1 0 0 0 .168.011c1.577-.013 3.135.01 4.707-.012.318-.005.62.034.88.162.264.13.473.343.61.665l.043.112c.09.261.109.519.047.764-.07.28-.24.528-.496.737a.2.2 0 0 0-.05.053l-.003.006c0 .002 0 .013.01.036.009.024.024.052.044.093.197.382.282.722.203 1.046-.08.323-.313.596-.668.864l-.08.074v.003l.001.014.028.086v.002c.167.427.22.788.1 1.112-.12.322-.399.57-.808.803H16.3c-.081.046-.076.063-.073.052q-.002-.004.002.026a1 1 0 0 0 .025.092c.177.559.116 1.07-.16 1.445s-.747.586-1.332.587c-2.239 0-4.475-.005-6.711.006H8.05a1.7 1.7 0 0 1-.544-.114c-.165-.055-.292-.098-.416-.1a.1.1 0 0 0-.08.038.7.7 0 0 0-.095.162c-.033.07-.074.164-.128.246a.6.6 0 0 1-.243.223 1.8 1.8 0 0 1-.785.189H1.7c-.423-.003-.766-.11-1.003-.35S.354 22.26.35 21.833v-7.716c0-.5.091-.887.343-1.144.253-.257.635-.35 1.127-.35 1.271 0 2.538.01 3.805-.006.307-.004.6.035.849.166.253.134.444.358.557.691q.016.042.028.057.014-.005.038-.019l.049-.03.06-.034.2-.113c.975-.59 1.455-1.517 1.65-2.66.113-.665.098-1.332.114-2.026.005-.224.004-.496.08-.734a.86.86 0 0 1 .572-.582zM4.421 13.36c-.188-.016-.24.022-.257.044-.028.035-.049.112-.046.294v.001c.02 1.269.007 2.54.006 3.809q.004.203-.017.404a.355.355 0 0 1-.317.344h.001-.003l-.01.002-.002-.001a.4.4 0 0 1-.138-.01.35.35 0 0 1-.252-.33v.002a4 4 0 0 1-.018-.42c0-1.28-.009-2.566.005-3.85l-.004-.1c-.009-.084-.029-.12-.046-.138-.015-.016-.048-.035-.129-.041l-.096-.001c-.449.02-.923 0-1.356.007-.29.005-.43.054-.507.13-.075.075-.122.214-.123.505q-.008 3.907 0 7.807v.001c0 .284.05.427.128.505.06.059.155.101.318.12l.186.009 1.951.005q.977 0 1.954-.005h.001c.314 0 .464-.052.545-.135.083-.085.132-.241.132-.56l-.003-3.853v-3.808c0-.348-.045-.509-.126-.593-.078-.083-.228-.132-.564-.135-.388 0-.805.025-1.213-.009Zm6.126-5.14c-.18-.135-.316-.204-.457-.149-.073.03-.101.075-.118.139a.6.6 0 0 0-.018.129l-.007.162c-.037.665-.02 1.376-.1 2.057-.191 1.655-.954 2.975-2.536 3.7H7.31c-.119.055-.162.116-.184.176a.9.9 0 0 0-.028.296v6.259c0 .285.06.468.164.588.103.118.273.2.552.238q.165.015.33.007h.005l3.254-.023h3.407c.493 0 .819-.318.83-.71a.52.52 0 0 0-.189-.447c-.13-.104-.335-.172-.619-.175-.797-.006-1.604 0-2.404-.01-.048 0-.084.003-.149.005a.8.8 0 0 1-.187-.014.36.36 0 0 1-.2-.112.4.4 0 0 1-.084-.251.4.4 0 0 1 .074-.252.35.35 0 0 1 .192-.122.8.8 0 0 1 .189-.022 3 3 0 0 1 .155.002q1.628.002 3.254-.007c.271 0 .458-.066.575-.168.113-.098.178-.245.177-.45l-.015-.138a.5.5 0 0 0-.169-.296c-.115-.099-.294-.163-.546-.166-.633-.01-1.263 0-1.901 0-.049 0-.082.003-.148.004a.8.8 0 0 1-.189-.015.34.34 0 0 1-.197-.121.4.4 0 0 1-.072-.26l.007-.068a.36.36 0 0 1 .081-.178.36.36 0 0 1 .198-.112.8.8 0 0 1 .186-.017c.066 0 .101.004.15.004h2.355c.313 0 .511-.06.63-.152.113-.088.18-.226.183-.45.002-.223-.064-.369-.177-.464a.8.8 0 0 0-.406-.154l-.204-.015h-2.252a.57.57 0 0 1-.295-.067.3.3 0 0 1-.123-.139.4.4 0 0 1-.029-.094l-.003-.102a.316.316 0 0 1 .19-.286c.087-.04.19-.044.253-.047h.358q1.177.001 2.353-.005a.75.75 0 0 0 .363-.079.52.52 0 0 0 .227-.262l.003-.006a.65.65 0 0 0-.08-.69l-.003-.002c-.16-.206-.385-.21-.704-.21h-5.36l-.107.003q-.062.003-.137-.007a.39.39 0 0 1-.291-.193.37.37 0 0 1-.018-.354 1 1 0 0 1 .072-.12l.067-.09c.91-1.28.919-2.712.655-4.21v-.002a2 2 0 0 0-.782-1.286ZM16.658.802c3.339.025 6.16 2.356 6.847 5.649.664 3.185-1.01 6.493-3.974 7.803-.059.025-.124.066-.208.114a1.6 1.6 0 0 1-.264.128.5.5 0 0 1-.322.016.46.46 0 0 1-.268-.264c-.059-.13-.073-.257-.019-.372a.46.46 0 0 1 .235-.21c.086-.039.184-.066.265-.087.089-.024.154-.041.2-.063l.251-.123c2.556-1.324 3.905-4.16 3.257-6.956-.656-2.835-3.246-4.844-6.178-4.793a6.17 6.17 0 0 0-5.785 4.328c-.038.119-.077.258-.12.385v-.001a.4.4 0 0 1-.202.26.4.4 0 0 1-.333.023v.002l-.01-.005h-.003a.38.38 0 0 1-.234-.197.45.45 0 0 1-.023-.294q.05-.252.13-.496l.093-.265A7.045 7.045 0 0 1 16.658.803Zm-.089 2.541a.47.47 0 0 1 .27.053.37.37 0 0 1 .156.183c.053.13.044.287.034.391v.003c-.015.142.017.19.043.213.04.036.116.063.261.088.772.132 1.257.624 1.502 1.33.033.098.091.251.092.395a.43.43 0 0 1-.064.238.4.4 0 0 1-.155.14l-.07.03a.43.43 0 0 1-.302.015.35.35 0 0 1-.188-.176 1 1 0 0 1-.07-.198c-.017-.066-.027-.113-.042-.153v-.001a1.26 1.26 0 0 0-.563-.689 1.46 1.46 0 0 0-.816-.163l-.14.014c-.34.043-.605.162-.791.333q-.246.224-.317.581l-.015.104c-.034.307.032.572.18.782.147.21.385.378.712.475.169.049.343.082.526.121.18.039.368.082.55.147l.155.061c.754.33 1.164.978 1.16 1.791l-.004.165c-.025.38-.138.72-.34 1.003-.231.324-.572.564-1.008.71-.136.045-.21.085-.25.13-.033.037-.059.097-.049.226l.013.173a.7.7 0 0 1-.022.203.4.4 0 0 1-.131.202.44.44 0 0 1-.262.087.45.45 0 0 1-.267-.063.37.37 0 0 1-.148-.188.9.9 0 0 1-.025-.39c.014-.142-.012-.19-.035-.213-.032-.033-.098-.063-.252-.093-.86-.17-1.458-.8-1.582-1.584v-.001a.7.7 0 0 1 .003-.313.35.35 0 0 1 .1-.161.43.43 0 0 1 .184-.095c.142-.037.27-.019.37.068a.66.66 0 0 1 .169.276c.176.476.394.763.669.911.274.148.634.173 1.13.058l.005-.002a1.1 1.1 0 0 0 .89-1.105v-.004c0-.521-.327-.955-.91-1.119-.16-.045-.326-.074-.501-.108a4 4 0 0 1-.528-.13c-.865-.292-1.348-.996-1.342-1.89 0-.451.113-.849.344-1.17.232-.321.576-.555 1.018-.691l.092-.033a.3.3 0 0 0 .137-.099.28.28 0 0 0 .039-.153l-.003-.087a.9.9 0 0 1 .024-.362.4.4 0 0 1 .127-.183.43.43 0 0 1 .237-.083ZM4.834 20.027l-.001.001a.97.97 0 0 1 1 .985 1 1 0 0 1-1.015 1.051l-.002.001c-.589-.002-1.011-.46-1-1.054a.964.964 0 0 1 1.018-.984Zm.012.742c-.106 0-.169.028-.205.062s-.066.09-.07.189c-.004.1.02.161.052.197.03.034.086.066.189.07l.017.001a.218.218 0 0 0 .248-.23v-.015l.001-.015a.232.232 0 0 0-.23-.26z"/></svg>