<svg xmlns="http://www.w3.org/2000/svg" width="24" height="24" viewBox="0 0 24 24"><path stroke-width="0.5" d="M11.97.25h7.072c.942 0 1.805.176 2.307 1.108.188.322.292.687.3 1.06v1.297c0 .816 0 .816.808.89 1.163.106 1.92 1.532 1.347 2.552a.471.471 0 0 1-.885-.117 3 3 0 0 1-.035-.645c.026-.539-.236-.737-.752-.721-.354.01-.506.148-.482.497.01.157 0 .315 0 .471v11.84c0 1.067-.226 1.38-1.27 1.663-.316.085-.41.246-.405.538 0 .353.012.707-.008 1.06a1.34 1.34 0 0 1-1.155 1.29 5.5 5.5 0 0 1-1.585.03c-.863-.107-1.273-.569-1.297-1.455q-.015-.502 0-1.002c0-.296-.135-.43-.428-.43h-7.07c-.326 0-.463.147-.455.471s.009.668 0 1.002c-.033.85-.441 1.31-1.275 1.414-.526.069-1.06.061-1.585-.023a1.34 1.34 0 0 1-1.178-1.27 2 2 0 0 1 0-.353c.055-.694.068-1.272-.888-1.436-.65-.118-.797-.768-.794-1.414.01-3.947 0-7.896 0-11.84 0-.156-.01-.314 0-.471.03-.377-.08-.598-.518-.581-.403.014-.7.102-.707.579q.003.382-.037.762a.447.447 0 0 1-.453.402.445.445 0 0 1-.496-.408C-.1 5.87.01 4.621 1.72 4.61c.42 0 .545-.188.531-.577-.018-.53-.014-1.06 0-1.59.032-1.178.778-1.99 1.946-2.132q.47-.055.943-.055Q8.554.25 11.97.25Zm-.016 4.275H3.88c-.377 0-.642.031-.637.522.02 1.69.012 3.379 0 5.068 0 .33.136.503.455.576 2.438.556 4.887.99 7.392 1.064 3.046.087 6.027-.345 8.982-1.036.424-.099.59-.28.582-.715-.018-1.591-.03-3.182.006-4.773.013-.59-.207-.72-.753-.716-2.65.024-5.302.01-7.954.01Zm0 14.575h8.07c.5 0 .63-.236.637-.692s-.17-.634-.623-.617q-.826.04-1.65-.011a1.83 1.83 0 0 1 .095-3.654c.57-.016 1.139-.011 1.708 0 .323 0 .464-.14.46-.462-.008-.471-.025-.943.006-1.414.035-.504-.1-.658-.628-.504-2.486.724-5.047.968-7.623 1-2.914.037-5.804-.218-8.622-1.02-.369-.105-.557-.06-.536.38.024.51.015 1.022 0 1.532-.008.354.146.496.494.49q.795-.017 1.59 0c1.026.02 1.865.824 1.886 1.8.025.953-.816 1.821-1.829 1.865-.529.023-1.06.02-1.59 0-.4-.01-.563.15-.56.556 0 .63.091.744.755.745q3.98.012 7.956.013zm.008-15.57h8.066c.242 0 .519.065.614-.296.284-1.098-.326-1.934-1.461-1.935q-7.242-.008-14.481 0c-1.025 0-1.424.403-1.449 1.414-.02.785 0 .811.825.811zm-7.45 13.22h.824c.49 0 .771-.244.812-.737.038-.465-.257-.825-.761-.863-.428-.035-.86-.016-1.296-.016-.847 0-.847 0-.843.833 0 .767.018.783.792.787zm14.787-.006c1.448.007 1.448.007 1.347-1.162q.001-.059-.006-.118a.307.307 0 0 0-.334-.328c-.626 0-1.256-.032-1.876.027-.434.04-.699.347-.678.814.024.486.284.755.783.764.255.009.51.002.764.002ZM6.967 21.077c0-.902 0-.902-.842-.905-1.126 0-1.126 0-1.13.808 0 1.05.014 1.07.964 1.07.975.003 1.006-.027 1.008-.973Zm10.935-.91c-.971 0-.971 0-.971.836 0 1.02.021 1.044.997 1.043.953 0 .976-.023.975-1.002 0-.876 0-.876-1.001-.876Zm-5.983-2.449c-.786 0-1.57.015-2.357 0-.874-.02-1.381-.532-1.414-1.397a10 10 0 0 1 0-.649c.019-.895.507-1.48 1.39-1.503a93 93 0 0 1 4.832 0c.882.022 1.371.607 1.389 1.503 0 .236.01.472 0 .708-.044.796-.55 1.296-1.355 1.34h-.118zm.09-2.493c-.744 0-1.488.013-2.231 0-.505-.012-.639.248-.632.696.007.426.027.798.599.796q2.202-.01 4.404 0c.57 0 .596-.364.602-.792 0-.446-.117-.713-.628-.7-.703.013-1.41 0-2.114 0Z"/></svg>