<svg xmlns="http://www.w3.org/2000/svg" width="20" height="20" viewBox="0 0 20 20"><path stroke-linecap="round" stroke-linejoin="round" d="M.5 5.071h18.286M2.786.5H16.5a2.286 2.286 0 0 1 2.286 2.286V16.5a2.285 2.285 0 0 1-2.286 2.286H2.786A2.286 2.286 0 0 1 .5 16.5V2.786A2.286 2.286 0 0 1 2.786.5"/><path d="M9.643 10.786a1.143 1.143 0 1 0 0-2.286 1.143 1.143 0 0 0 0 2.286m-4.571 0a1.143 1.143 0 1 0 0-2.286 1.143 1.143 0 0 0 0 2.286m9.142 0a1.143 1.143 0 1 0 0-2.286 1.143 1.143 0 0 0 0 2.286m-4.571 4.571a1.143 1.143 0 1 0 0-2.286 1.143 1.143 0 0 0 0 2.286m-4.571 0a1.143 1.143 0 1 0 0-2.286 1.143 1.143 0 0 0 0 2.286m9.142 0a1.143 1.143 0 1 0 0-2.286 1.143 1.143 0 0 0 0 2.286"/></svg>