<svg xmlns="http://www.w3.org/2000/svg" width="24" height="24" viewBox="0 0 24 24"><path stroke-width="0.2" d="M4.394 9.94c-.328-.037-.524-.041-.711-.085a.88.88 0 0 1-.677-.927.86.86 0 0 1 .81-.808c.422-.015.86-.1 1.251.174.187.131.176-.078.206-.165.152-.433.283-.87.435-1.3.273-.776.77-1.133 1.584-1.133h9.424c.796 0 1.294.354 1.564 1.108q.235.663.442 1.336c.056.181.108.218.291.111.434-.25.914-.182 1.37-.092.377.078.62.47.61.86a.87.87 0 0 1-.653.83c-.195.048-.402.054-.725.095l1.021.967a1.11 1.11 0 0 1 .363.87q-.015 1.837 0 3.675c0 .366-.1.677-.411.877-.174.112-.205.25-.192.429.092 1.275-.271 1.604-1.559 1.534-.442-.024-.886 0-1.33-.005-.646-.006-.992-.346-1.01-.983-.024-.814-.024-.814-.829-.814H8.003c-.498 0-.497 0-.5.517 0 .143.006.287-.006.43-.042.483-.378.831-.86.844a42 42 0 0 1-2.151 0c-.498-.012-.842-.375-.874-.876a3 3 0 0 1 0-.39c.022-.32 0-.595-.321-.803-.23-.142-.29-.42-.29-.696q.006-1.898 0-3.793a1 1 0 0 1 .318-.77c.328-.313.66-.624 1.075-1.017Zm7.564 5.944h7.894c.487 0 .536-.05.538-.54 0-.638.008-1.277 0-1.915s.19-1.347-.072-1.892c-.263-.545-.87-.949-1.324-1.414q-.015-.014-.027-.028c-.123-.156-.282-.2-.48-.2q-6.491.006-12.976 0a.61.61 0 0 0-.482.197c-.391.403-.782.801-1.188 1.188a.74.74 0 0 0-.24.587c.009 1.146 0 2.293.005 3.44 0 .544.038.582.574.583q3.888 0 7.778-.002zm-6.43-6.633a.5.5 0 0 0 .083.033q6.309.006 12.616.016c.282 0 .21-.137.157-.29q-.314-.946-.63-1.888c-.212-.644-.458-.823-1.144-.823h-5.313c-1.33 0-2.659.005-3.984 0-.395 0-.77.093-.916.469-.323.812-.58 1.654-.869 2.483Zm.01 7.243c-.207 0-.415-.004-.626 0-.823.022-.704-.174-.722.753-.004.313.135.45.448.443.469-.008.934 0 1.402 0 .885 0 .913-.037.86-.923-.008-.2-.067-.278-.271-.278-.364.013-.727.006-1.091.005Zm12.912 0c-.207 0-.415-.004-.626 0-.824.021-.717-.173-.733.747-.006.34.156.46.477.45.47-.012.935 0 1.402 0 .843 0 .828 0 .836-.837 0-.307-.108-.38-.385-.362-.32.018-.646.002-.971.002Zm-14.22-7.2c.108 0 .186.006.263 0 .127-.013.303.061.306-.177 0-.198-.043-.363-.268-.406a1 1 0 0 0-.269-.013c-.246.028-.626-.113-.626.298s.381.262.594.297Zm15.446 0c.149 0 .266.005.381 0 .192-.012.322-.102.319-.314 0-.194-.14-.268-.309-.278a5 5 0 0 0-.54 0c-.214.01-.327.135-.329.35-.003.449.35.142.478.241Zm-7.68 2.403h3.086c.337 0 .63.064.76.417.128.354-.07.596-.314.849-.636.669-1.373.921-2.305.853-1.075-.078-2.16-.028-3.24-.013a1.2 1.2 0 0 1-.917-.346c-.206-.198-.438-.37-.66-.547-.256-.21-.378-.47-.258-.792.116-.313.366-.416.681-.416zm-3.233.632c.479.64.9.86 1.595.86 1.066 0 2.137-.06 3.197.02.782.06 1.205-.384 1.73-.884zM5.95 13.794c-.364 0-.728.01-1.095 0-.43-.014-.656-.229-.663-.653-.012-1.247-.11-1.423 1.36-1.475.972-.033 1.486.556 2.089 1.08.189.165.193.424.098.656a.6.6 0 0 1-.58.39c-.404.009-.806 0-1.21 0zm1.22-.603c-.528-.696-1.133-1.037-1.95-.893-.134.024-.334-.068-.385.094-.066.238-.065.49.004.728.01.036.11.067.168.068.697.004 1.396.003 2.164.003Zm10.83.603h-1.094c-.319 0-.565-.126-.667-.434-.103-.31 0-.56.25-.761.281-.235.562-.463.838-.699a.83.83 0 0 1 .573-.204c.403 0 .806-.005 1.209 0 .47.01.678.228.69.704q.01.331 0 .662c-.01.5-.218.716-.71.727-.36.013-.725.006-1.088.005Zm-1.16-.601h1.842c.52 0 .524 0 .51-.538-.005-.14.063-.32-.185-.354-.865-.114-1.609.065-2.168.892Zm-4.856 1.497h2.54c.22 0 .451.006.456.296.005.289-.228.305-.447.305H9.45c-.223 0-.448-.026-.437-.312.01-.26.217-.286.428-.285.85-.004 1.694-.004 2.543-.004Zm-6.128 0h.972c.213 0 .365.088.362.313 0 .204-.156.286-.347.287q-.991.004-1.984 0c-.19 0-.342-.085-.341-.292 0-.224.156-.307.366-.306q.484-.003.972-.002Zm12.306 0h.972c.198 0 .335.09.344.289s-.133.305-.326.306q-1.012.008-2.023 0c-.193 0-.335-.105-.326-.307.01-.203.149-.288.347-.287z"/></svg>