<svg xmlns="http://www.w3.org/2000/svg" width="60" height="60" viewBox="0 0 60 60"><path d="M27.988 2.011h22.5c.779 0 1.599.183 1.532-1.092-.03-.556.483-.886 1.056-.892 1.156 0 2.33-.089 3.469.056 2.093.278 3.444 2.023 3.45 4.36q.015 9.927 0 19.856v22.91c0 3.226-1.53 4.74-4.773 4.743-4.814 0-9.631.02-14.454 0-.806 0-1.454.125-1.893.834-.047.078-.13.133-.18.208-2.397 3.554-5.882 5.48-9.882 6.65-.497.147-.99.352-1.448-.025-.517-.431-.37-.973-.206-1.531.49-1.687.934-3.388 1.432-5.071.203-.695.244-1.079-.72-1.073-5.648.039-11.296.03-16.956 0-.725 0-.964.214-.947.945.044 1.85-.017 3.704.025 5.557.025 1.142-.479 1.598-1.59 1.553-1.018-.039-2.038 0-3.058 0C2.126 59.944 0 57.824 0 54.547V7.608c.014-3.543 2.054-5.585 5.623-5.593q11.183-.017 22.365-.003m.072 2.05H5.965c-3.01 0-3.955.962-3.955 4.019v41.819c-.042.683.153.978.864.597.931-.5 1.946-.503 2.98-.503h24.46a.86.86 0 0 0 .814-.647c.12-.367-.213-.578-.478-.764a2.8 2.8 0 0 0-1.553-.54 56 56 0 0 0-2.36-.019c-.687 0-.734-.436-.695-.928.03-.417-.206-1.05.517-1.072 1.798-.053 3.694-.34 5.206.922.834.692 1.2.53 1.851-.2 4.34-4.88 8.745-9.7 13.095-14.569 1.22-1.367 2.638-1.975 4.447-1.592.259.053.673.392.745-.172s-.408-.38-.684-.383a223 223 0 0 0-4.725 0c-.762 0-1.481-.123-1.443-1.065.037-.867.756-.917 1.443-.914 1.481 0 2.966-.036 4.447 0 .776.028 1.06-.206 1.034-1.009a80 80 0 0 1 0-5.001c.028-.834-.278-1.02-1.048-.998-1.526.047-3.057.017-4.583 0-.728 0-1.334-.244-1.3-1.086.032-.764.633-.945 1.292-.948 1.484 0 2.965-.044 4.447 0 .867.03 1.237-.186 1.198-1.145a73 73 0 0 1 0-5.693c.039-.961-.328-1.164-1.195-1.131-1.526.056-3.058.025-4.584 0-.69 0-1.192-.328-1.159-1.084.033-.692.556-.906 1.168-.92.694-.013 1.39.023 2.084-.016 1.19-.064 2.78.522 3.458-.278.584-.675.106-2.223.225-3.36.12-1.136-.358-1.364-1.39-1.358-7.504.055-15.01.039-22.514.039zm29.933 19.785V4.968a5.6 5.6 0 0 0-.142-1.506c-.344-1.181-1.637-1.732-3.235-1.432-1.2.226-.631 1.195-.634 1.793a8091 8091 0 0 0-.02 37.326c0 .87-.338 1.898.176 2.565.464.6 1.484.125 2.243.277q.142.008.278.05c1.315.603 1.367-.114 1.362-1.17-.047-6.346-.028-12.684-.028-19.025M51.96 38.5c-2.002 1.778-9.704 10.459-10.187 11.478 4.8 0 9.55.037 14.3-.025 1.162-.014 1.893-.833 1.877-2.009s-.76-1.861-1.946-1.945a26 26 0 0 0-2.502-.022c-1.111.039-1.584-.467-1.559-1.59.036-1.875.017-3.77.017-5.887M8.04 54.998c0-3.404 0-3.404-3.235-3.026a2 2 0 0 0-.278.033c-1.192.325-2.07.995-2.396 2.24a2.78 2.78 0 0 0 .864 2.895c1.354 1.259 3.114 1.062 4.6.711 1.035-.241.217-1.697.44-2.578q.018-.138.003-.275zM31.86 52.81c.43-.033.617-.39.856-.653q5.576-6.16 11.137-12.335c.153-.172.3-.35.45-.525a.44.44 0 0 0-.066-.711.41.41 0 0 0-.598.036c-.197.194-.38.4-.556.606l-10.965 12.12a5 5 0 0 0-.614.745c-.267.422.055.567.353.717zm14.879-11.787c-.12-.167-.187-.364-.323-.434-.536-.278-.734.23-.987.509q-5.65 6.219-11.27 12.462c-.265.295-.907.62-.315 1.112.592.491.803-.223 1.062-.503q5.612-6.16 11.182-12.357c.211-.236.403-.492.648-.79zm5.309-6.67a2 2 0 0 0-.4-1.15c-.712-.916-1.994-.992-2.928-.216-1.242 1.033.031 1.39.504 1.967.17.22.378.408.614.556.428.247.661 1.061 1.326.628a1.99 1.99 0 0 0 .88-1.781zm-2.68 3.805c.03-.434-.245-.572-.436-.753-.537-.506-1.112-.97-1.632-1.492-.52-.523-.87-.44-1.354.083-.52.556-.578.962.059 1.45.556.423 1.026.926 1.554 1.373.26.22.525.625.93.278q.467-.442.876-.936zm-19.71 18.859a8 8 0 0 0 2.502-.973 7.2 7.2 0 0 0-1.77-1.634 7.7 7.7 0 0 0-.732 2.607M19.307 16.046c-2.827-4.36-2.927-6.824-.481-8.864a5.085 5.085 0 0 1 6.62.22c2.225 2.095 2.005 4.924-.816 8.639 1.754-.059 3.335.294 4.875-.334 1.61-.664 2.427-1.945 2.454-3.698.028-1.668.05-3.335 0-5.002-.03-.872.39-.95 1.09-.967.748-.02.962.278.942.973-.036 1.48 0 2.962 0 4.446-.016 4.137-2.432 6.574-6.548 6.582-5.74 0-11.483-.014-17.234 0-2.543 0-4.258 1.8-4.127 4.21a3.94 3.94 0 0 0 2.813 3.59c1.706.506 2.065.278 2.143-1.49.038-.939.453-1.325 1.376-1.316 2.36.019 4.725.036 7.082 0 1.153-.02 1.668.5 1.534 1.589-.144 1.18.345 1.495 1.485 1.428 1.753-.089 3.516-.039 5.28-.017 3.597.042 6.166 2.518 6.182 5.927.017 3.451-2.607 6.033-6.237 6.052-5.881.031-11.763 0-17.642.023-2.357 0-3.994 1.65-4.02 3.89-.024 2.24 1.568 3.89 3.892 4.032q.417.044.834 0c1.192-.19 1.279.52 1.192 1.408a.61.61 0 0 1-.555.637c-2.269.511-5.207-.767-6.518-2.868a6.04 6.04 0 0 1 .428-6.894c1.298-1.57 2.974-2.253 5.003-2.245 5.559.028 11.118 0 16.677 0q.838.024 1.668-.092a3.925 3.925 0 0 0 3.266-4.176 3.82 3.82 0 0 0-3.686-3.665c-2.129-.083-4.26 0-6.393-.039-.695 0-.9.278-.834.906.028.367-.025.742 0 1.111.106 1.279-.258 2.115-1.753 1.931a1.065 1.065 0 0 0-1.132.617c-.161.278-.358.537-.542.806-1.504 2.184-1.79 2.198-3.219-.022-.556-.834-1.003-1.614-2.24-1.431-.806.12-1.095-.486-1.112-1.245-.025-.834.342-1.87-.18-2.409-.431-.447-1.465-.278-2.224-.459a5.92 5.92 0 0 1-4.561-6.543c.322-2.948 2.77-5.171 5.87-5.23 1.529-.036 3.058 0 4.586 0zm-3.322 8.961c-2.943 0-2.954 0-2.938 2.924 0 1.003-.422 2.317 1.39 2.223 1.067 1.87 2.124 1.842 3.169-.02 1.729.15 1.39-1.09 1.39-2.09.005-3.037.002-3.037-3.01-3.037m9.003-13.924a2.984 2.984 0 1 0-5.968.084c.028 1.964 1.563 2.928 2.719 4.146.136.141.295.127.492.044 1.117-.472 2.76-2.99 2.757-4.274m18.032-.472c0 3.71.278 3.426-3.466 3.42-3.961 0-3.536.334-3.544-3.612 0-3.698-.328-3.431 3.446-3.431 3.906.01 3.57-.278 3.564 3.623m-3.67 1.337c.96.152 1.78.172 1.669-1.281-.073-1.01 0-1.812-1.424-1.668-.886.098-1.781-.108-1.595 1.295.122.887-.29 2.04 1.35 1.654m.15 20.028c-3.819-.022-3.488.437-3.493-3.484-.006-3.92-.295-3.485 3.499-3.485 3.736 0 3.522-.391 3.516 3.496s.261 3.451-3.521 3.473m1.446-3.426c.278-1.111-.025-1.667-1.354-1.609-1.092.037-1.731.111-1.604 1.47.095.992-.033 1.787 1.423 1.629 1.015-.112 1.918-.006 1.535-1.49m2.074-9.014c.016 3.851.244 3.507-3.52 3.504-3.763-.003-3.496.367-3.493-3.51s-.34-3.476 3.502-3.478 3.516-.4 3.51 3.484m-4.96-.042c-.26 1.19.15 1.607 1.416 1.593 1.195 0 1.576-.306 1.565-1.54-.014-1.175-.278-1.586-1.52-1.55-1.163.033-1.79.208-1.46 1.497m-23.128 26.51c.853-.137 1.148.166 1.14.972 0 .758-.214 1.061-1.02 1.056-.806-.006-1.079-.223-1.054-1.02.022-.72.125-1.231.934-1.009m5.05 1.047c.173.855-.305.95-1.02.98-.878.037-.914-.41-.95-1.091-.045-.834.339-.965 1.059-.987.861-.025 1.031.38.912 1.098m3.019-1.062c.834-.142.998.292 1.012 1.026 0 .8-.303 1.005-1.06 1.017-.817 0-.989-.323-1-1.065-.011-.8.284-1.1 1.048-.978m-1.042-35.961c.589.038.986.341 1.036.916a.88.88 0 0 1-.9 1.004.858.858 0 0 1-1.017-.876c-.045-.589.308-.914.88-1.044"/></svg>