<svg xmlns="http://www.w3.org/2000/svg" width="24" height="24" viewBox="0 0 24 24"><path d="M12.005 22.78c0-1.136 0-1.126 1.138-1.101.296.007.418.082.404.393l-.2-.008-.001-.082a.3.3 0 0 0-.008-.048l-.007-.019-.003-.004a.1.1 0 0 0-.043-.017.7.7 0 0 0-.146-.014c-.29-.006-.49-.011-.637 0-.149.013-.197.04-.217.059-.018.017-.047.062-.063.209a6 6 0 0 0-.017.631c0 .261-.01.499 0 .744l.003.109q.001.056-.004.11a.55.55 0 0 1-.07.233c-.102.173-.291.23-.509.23-.21 0-.4-.047-.508-.214a.54.54 0 0 1-.076-.228 2 2 0 0 1-.01-.22h.2c0 .253.011.417.268.454l.126.009c.38 0 .394-.196.38-.473zm8.617-2.273c.244.024.323.137.317.426-.02.879-.002 1.76-.01 2.638-.003.265.027.43.367.431.297 0 .413-.09.42-.33l-.004-.111a4 4 0 0 1-.007-.404v-.403l.2-.01c.006.143.002.286 0 .417l-.002.195.008.188c.014.171.002.36-.123.495-.125.136-.313.164-.493.163-.196 0-.373-.049-.478-.205-.089-.133-.09-.304-.088-.429.008-.867-.01-1.762.01-2.64.003-.156-.025-.189-.029-.193-.006-.006-.043-.033-.203-.033q-2.748.021-5.5 0a.7.7 0 0 0-.165.016l-.012.004v.01q0 .024.007.061l.021.094c.037.137.071.308.041.477a.66.66 0 0 1-.328.463c-.018.01-.023.02-.025.023a.1.1 0 0 0-.009.032 1 1 0 0 0 0 .085c0 .032.004.083.004.129l-.201-.002c0-.154-.048-.33.127-.438.293-.177.268-.454.198-.716-.088-.324-.023-.438.344-.438q2.75.021 5.497 0zm-7.085 3.074c-.01.292.069.419.392.419l.003.2h-.003c-.178 0-.354-.033-.472-.17-.112-.13-.124-.305-.119-.456zm.87-1.486h.134l-.009.755q-.003.373.01.745l-.004.132a.5.5 0 0 1-.156.34c-.126.112-.299.131-.45.133l-.003-.2c.293-.003.424-.084.412-.398-.017-.501-.007-1.004 0-1.507l-.001-.001zm-13.261.704c0-1.211-.001-1.204 1.231-1.127.253.016.346.09.34.346-.008.538.01 1.076-.008 1.615l-.2-.006c.02-.543 0-1.055.009-1.613l-.008-.103c-.004-.015-.008-.016-.005-.013l-.024-.01a.5.5 0 0 0-.117-.017 8 8 0 0 0-.69-.025c-.164.007-.218.034-.24.054s-.053.068-.07.224a7 7 0 0 0-.018.675c0 .26-.009.499 0 .747.004.117.008.29-.075.427-.1.165-.28.22-.488.22-.174 0-.358-.025-.485-.154-.13-.132-.148-.317-.138-.493l.2.012c-.02.328.093.435.423.435.35.002.371-.188.363-.44zm1.563.834c-.01.263.105.34.3.353l.089.002c.217-.003.356-.024.387-.24l.007-.104q-.008-1.09-.008-2.181l.008-2.182c.001-.226-.076-.292-.305-.323l.027-.198c.119.016.256.046.354.146.105.107.125.249.124.376q-.006 1.09-.007 2.18l.007 2.18v.002c0 .18-.042.351-.19.454a.5.5 0 0 1-.206.077 1.4 1.4 0 0 1-.196.014c-.127.001-.29-.009-.415-.105-.142-.108-.182-.278-.175-.457zm10.838-1.56c-.02.502.007 1.005-.009 1.507l-.2-.006c.008-.246.005-.492.003-.745-.002-.25-.005-.507.006-.765zM.095 21.511c.332.21.265.512.265.807.008.413.024.826 0 1.238l-.2-.011q.017-.3.012-.606l-.012-.617v-.004c0-.07.004-.166.005-.223a1 1 0 0 0-.01-.177.33.33 0 0 0-.167-.238zm11.558-2.546c-.335 0-.421.107-.421.43.014 1.383.01 2.766 0 4.148h-.2l.01-2.073q0-1.037-.01-2.073v-.002c0-.164.018-.344.139-.473.125-.132.307-.157.482-.157zm11.993.92v-3.177c0-.166-.069-.37.13-.49l.102.173a.1.1 0 0 0-.031.028.1.1 0 0 0-.011.044 1 1 0 0 0 .002.1l.007.146c-.006 1.058 0 2.115 0 3.176 0 .649-.13 1.19-.426 1.63-.297.442-.748.762-1.349.994-.1.038-.132.069-.144.087-.011.016-.026.05-.022.147l-.2.01c-.01-.231.062-.342.294-.432 1.078-.415 1.583-1.099 1.642-2.209zM-.012 21.68l-.002-.001.109-.168zm3.305-7.202-.02.198c-1.2-.121-2.464.806-2.674 2.221-.203 1.366-.387 2.736-.576 4.105-.025.176-.085.406.07.508l-.107.169c-.16-.104-.194-.27-.196-.39-.002-.114.025-.246.034-.314.19-1.369.375-2.74.577-4.107.226-1.516 1.581-2.522 2.892-2.39m19.571 2.175.001.001c-.021 1.146 0 2.293-.008 3.44a1.51 1.51 0 0 1-.718 1.315c-.113.073-.246.219-.378.121-.034-.024-.048-.081-.054-.146l-.004-.199v-2.262c0-.753.03-1.507-.014-2.258-.018-.362.146-.416.345-.415l.205.01c.274.012.635-.136.625.393l-.198-.003c.002-.113-.017-.161-.026-.176-.005-.007-.009-.012-.03-.017a.5.5 0 0 0-.145-.006c-.06.003-.153.012-.234.009-.083-.004-.135-.01-.198-.01a.3.3 0 0 0-.106.013c-.01.004-.014.006-.02.018a.4.4 0 0 0-.017.173c.043.758.013 1.526.013 2.269v2.262q0 .081.002.144l.028-.017c.024-.019.063-.048.097-.07l.004-.003a1.31 1.31 0 0 0 .614-.97l.008-.17v-1.725q-.004-.863.01-1.724zM13.6 20.908v-.068l-.001.07c-.501-.012-1.086.137-1.478-.078l.095-.176h.002c.146.08.342.1.595.091q.184-.008.385-.023c.132-.01.27-.017.406-.014q.022 0 .036-.003a.5.5 0 0 0-.006-.09l-.27-1.892a103 103 0 0 0-.289-1.885l-.027-.132a.45.45 0 0 0-.122-.232c-.058-.051-.17-.098-.422-.056l-.033-.197c.564-.095.734.172.802.584.205 1.257.376 2.52.56 3.78.026.187.001.328-.233.321m-12.04-3.821c-.084.556-.158 1.115-.233 1.676q-.11.84-.234 1.682l-.012.116c-.003.089.014.11.015.11.006.007.048.038.241.039.35 0 .594.003.775-.016.183-.018.255-.054.291-.09.035-.034.072-.102.092-.28A4 4 0 0 0 2.512 20l.002-.451c0-.073-.004-.171 0-.253a.8.8 0 0 1 .057-.278.44.44 0 0 1 .25-.232.8.8 0 0 1 .393-.027l-.027.198c-.525-.07-.473.256-.473.592l-.003.455c-.018.921-.172.906-1.375.906l-.133-.006c-.28-.027-.36-.154-.31-.489.17-1.118.298-2.242.467-3.36zm10.094 1.679c.204 0 .388.052.489.22a.5.5 0 0 1 .067.224c.006.07.002.142-.004.209v.002l-.004.09a1 1 0 0 0 .004.09 2 2 0 0 1-.008.38c-.013.132-.029.238-.038.351a.8.8 0 0 0 .008.247c.012.05.03.067.048.077l-.096.175c-.32-.175-.066-.794-.113-1.213a1 1 0 0 1 0-.215c.018-.225.006-.391-.234-.43l-.119-.007zm9.667-6.025c-.31 0-.395.108-.395.406.015 2.013-.007 4.023.015 6.032.006.438-.099.581-.56.574-1.724-.027-3.449-.024-5.174 0-.358.005-.477-.086-.5-.376l-.006-.137q.014-1.491.012-2.986l-.003-2.99c0-.226.053-.457-.233-.512l-.145-.013.001-.2c.128 0 .244.02.339.068a.42.42 0 0 1 .203.226.7.7 0 0 1 .038.238q0 .054-.002.103l-.002.09c0 1.99.013 3.987-.008 5.978 0 .2.03.253.044.269.012.012.059.045.26.043a177 177 0 0 1 5.18 0c.224.003.285-.035.305-.056.024-.026.054-.096.051-.316-.022-2.005 0-4.031-.015-6.034 0-.155.019-.328.135-.453.12-.127.294-.154.46-.154zm-10.847 2.694c.498.952 1.279.907 1.997.788l.033.197c-.36.06-.774.109-1.166.004a1.5 1.5 0 0 1-.788-.514c-.332 1.052-.929 1.789-1.901 2.212-1.827.795-3.9-.207-4.461-2.16-.048-.166-.093-.236-.131-.268-.03-.024-.086-.05-.234-.032l-.011.001q-.277.015-.556 0c-.484.001-.87.133-1.15.367-.281.234-.474.585-.545 1.057l-.199-.031c.156-1.022.854-1.592 1.899-1.592q.27.015.539 0c.348-.041.48.094.58.442.528 1.841 2.477 2.779 4.188 2.033 1.03-.448 1.619-1.267 1.906-2.504m-4.284-.726v-.95c.648.158 1.218.228 1.777.124l.24-.056c.212-.056.31.017.322.194l.001.08-.2-.01a.3.3 0 0 0-.005-.08q-.02-.002-.067.01l-.001-.002c-.609.17-1.211.13-1.867-.01v.7c0 .173 0 .32-.015.436a.57.57 0 0 1-.135.332.55.55 0 0 1-.324.152c-.114.02-.26.027-.43.034-.065.003-.112.005-.15.01l-.017.002.001.005.018.082c.22.786 1.095 1.437 2.022 1.435l.001.2-.188-.007c-.938-.079-1.797-.747-2.027-1.574-.1-.343.087-.341.332-.352.609-.027.697-.044.71-.52zm3.375 1.1c-.223.877-1.195 1.586-2.204 1.589v-.2c.93-.003 1.813-.66 2.01-1.437zm13.71-5.319a.97.97 0 0 1 .2.508h.002c.222 1.507.463 3.014.696 4.524.018.118.044.279.017.432a.62.62 0 0 1-.311.438l-.102-.172c.274-.163.236-.416.198-.668l-.352-2.263-.345-2.262a.77.77 0 0 0-.16-.414zm-9.529 2.765c0-.045-.003-.142-.002-.198a.6.6 0 0 1 .044-.24.42.42 0 0 1 .21-.216.8.8 0 0 1 .335-.062v.2c-.447-.002-.387.248-.387.516v2.934c-.293-.353-.482-.597-.41-1.001a.98.98 0 0 0-.083-.631v-.001l.179-.09q.088.179.114.373zM8.33 14.533c0-.128-.008-.29 0-.441l.2.01c-.007.144 0 .288 0 .431l.001.275c.011.559.099.577.803.655.255.029.287.119.23.346l-.193-.048q.013-.057.014-.085-.024-.008-.073-.015a5 5 0 0 1-.489-.07.62.62 0 0 1-.345-.186.65.65 0 0 1-.134-.368c-.014-.132-.014-.3-.014-.504m5.403.689a.6.6 0 0 0 .013.3v-.381zm7.979-.727c0-.45-.02-.898 0-1.346.011-.263-.058-.378-.284-.403l-.107-.005v-.2c.167 0 .343.027.463.155s.135.303.128.462c-.019.442 0 .876 0 1.337 0 .253 0 .424.015.547s.038.155.048.164c.011.011.048.034.18.047.128.012.304.012.56.012v.2l-.331-.001c-.576-.008-.658-.077-.67-.643zm-6.05-4.534c.233-.108.322-.056.45.166.85 1.471 2.564 1.464 3.436-.016.138-.232.24-.243.455-.143q1.076.494 2.165.963c.23.1.371.23.41.503q.246 1.788.54 3.565c.057.358-.037.466-.403.466v-.2q.124-.001.175-.016c.033-.009.037-.017.034-.014s.004 0 .008-.033a.7.7 0 0 0-.013-.17 134 134 0 0 1-.539-3.57.4.4 0 0 0-.086-.213.55.55 0 0 0-.205-.135 98 98 0 0 1-2.17-.965l-.102-.039c-.02-.004-.022-.001-.017-.003.01-.002-.014-.003-.08.107v-.001c-.466.79-1.172 1.21-1.898 1.213s-1.43-.411-1.884-1.2l.108-.062.065-.037-.173.1a1 1 0 0 0-.069-.104c-.016-.019-.022-.02-.017-.018.014.006.001-.011-.105.038v-.001c-.735.341-1.478.666-2.217.99h.001a.5.5 0 0 0-.171.11.27.27 0 0 0-.066.156c-.1.732-.217 1.461-.34 2.186-.021.125-.02.185-.007.224.01.025.032.068.136.122.238.112.431.302.549.537l-.18.089a.98.98 0 0 0-.454-.446c-.275-.14-.284-.308-.241-.56q.093-.543.179-1.087l.16-1.09c.031-.235.162-.339.354-.424.74-.324 1.48-.648 2.212-.988m-4.407 5.13a.4.4 0 0 1 .003-.074l.018-.073a.36.36 0 0 1 .342-.24v.2a.2.2 0 0 0-.065.012.17.17 0 0 0-.089.096.2.2 0 0 0-.009.065l.001.014c0 .072.02.1.038.116.023.02.07.042.156.048h.003l-.013.17-.001.017.014-.186c.118.009.225.002.364.002h.2v.003h.068v.199h-.268v-.002c-.125 0-.252.007-.38-.003-.225-.014-.382-.126-.382-.364m1.01-.398c.265-.002.478.079.489.38.01.3-.205.387-.469.387v-.2c.117 0 .188-.02.224-.045.02-.014.048-.041.045-.135-.004-.097-.034-.127-.059-.143-.038-.026-.11-.044-.227-.043h-.002c-.228 0-.426-.01-.63.008l-.009.001h-.009v-.2c.216-.02.432-.01.648-.01m-7.421-1.725c.55.37.596.809.582 1.361-.009.287-.097.372-.374.364h-.444c-.446.007-.893.03-1.333-.015l-.001-.001.02-.197c.281.028.568.027.863.022.292-.006.599-.017.9-.009.11.003.14-.013.143-.016s.022-.034.026-.154c.007-.273-.003-.49-.069-.678-.062-.18-.182-.348-.424-.511zm6.805-2.552.036.198c-.156.028-.222.065-.26.103-.039.04-.075.11-.11.265a4 4 0 0 1-1.557 2.36.54.54 0 0 0-.124.191 2 2 0 0 0-.122.37 2 2 0 0 0-.049.381.5.5 0 0 0 .027.206l.005.005.009.001.016-.003h.015c.126-.006.255.002.365.006a2 2 0 0 0 .308-.007.6.6 0 0 0 .233-.08.6.6 0 0 0 .2-.228l.076-.112c.198-.239.533-.342.82-.322.135.009.165-.024.176-.037.026-.032.047-.095.067-.232l.18-1.147c.06-.378.116-.754.158-1.136l.198.022c-.085.766-.23 1.525-.337 2.288-.04.27-.106.466-.457.442-.275-.02-.578.1-.707.33-.31.563-.812.394-1.272.412a.2.2 0 0 1-.13-.014l-.055-.036a.2.2 0 0 1-.042-.051c-.155-.28.05-1.205.323-1.408a3.8 3.8 0 0 0 1.48-2.245l.066.014-.066-.015c.076-.328.183-.46.53-.521M2.12 5.903c-.216-2.422 1.748-3.983 3.556-3.81l.358.023c.36.014.723.002 1.098-.005.495-.009 1.006-.009 1.517.08l-.036.196c-.98-.17-1.975-.002-2.956-.094v-.001c-1.742-.167-3.663 1.396-3.311 3.82.069.479.117.96.19 1.44a.56.56 0 0 1-.181.57l-.144.151c-.299.367-.352.811-.188 1.283a1.24 1.24 0 0 0 1.117.873c.297.027.382.16.431.42.161.861.554 1.634 1.27 2.118l-.11.167c-.775-.523-1.189-1.352-1.356-2.248-.023-.122-.048-.173-.072-.198-.018-.02-.058-.049-.18-.06a1.445 1.445 0 0 1-1.292-1.013c-.206-.603-.097-1.19.388-1.64l.006-.005a.37.37 0 0 0 .117-.368l-.003-.01-.001-.01-.097-.726q-.044-.36-.093-.715zm2.13 2.64c.001-.54.719-.92 1.207-.64 1.466.844 2.237.853 3.453-.073l.25-.197c.196-.16.35-.17.52-.04.276.21.79.143.784.681V9.43c.03.72-.007 1.55-.509 2.299-.767 1.147-2.133 1.68-3.427 1.318a3.14 3.14 0 0 1-1.623-1.098l.159-.123c.383.496.916.856 1.52 1.028 1.205.339 2.483-.157 3.205-1.237l.082-.13c.388-.659.42-1.383.394-2.05l-.001-.007V8.272l-.003-.067a.25.25 0 0 0-.041-.118.3.3 0 0 0-.127-.095c-.07-.033-.142-.055-.241-.09a1.3 1.3 0 0 1-.22-.1l-.073-.05-.073-.042a.1.1 0 0 0-.042-.006c-.026.002-.075.016-.159.084-.69.567-1.266.893-1.888.938s-1.25-.196-2.04-.65c-.171-.099-.398-.087-.592.016-.171.09-.284.233-.31.386l-.005.065c0 .525-.01 1.038 0 1.556l.015.234a2.94 2.94 0 0 0 .599 1.493l-.16.122a3.14 3.14 0 0 1-.654-1.844zm9.77-2.37c.238.032.337.101.382.338a3.36 3.36 0 0 0 1.245 2.021c.353.281.31.472-.088.647-.855.371-1.701.782-2.564 1.125-.449.177-.628.456-.68.916l-.01-.002-.188-.02c.028-.25.094-.471.228-.658.135-.188.327-.323.577-.422l.64-.266c.637-.276 1.267-.574 1.917-.857a.8.8 0 0 0 .181-.103c.032-.028.03-.037.028-.028-.002.012.005.006-.017-.027a.7.7 0 0 0-.146-.147l-.248-.209a3.56 3.56 0 0 1-.996-1.618l-.075-.314c-.019-.099-.042-.123-.052-.131-.014-.012-.05-.032-.16-.047zm-1.43 1.962c.43.42.493.996.306 1.482a1.6 1.6 0 0 1-1.212.997l-.036-.198c1.03-.185 1.532-1.424.802-2.138zm7.639.884c.862.393 1.73.787 2.603 1.154a.97.97 0 0 1 .442.317l-.158.122a.77.77 0 0 0-.361-.255h-.001a66 66 0 0 1-1.309-.569l-1.3-.588zm-1.252.402c-.059.542-.582 1.017-1.178 1.03l-.144-.014a1.1 1.1 0 0 1-.403-.14l.1-.173c.136.078.29.121.447.125.5-.012.933-.415.98-.849zm-2.294-.217c.117-.193.382.006.574.041l-.009.05-.025.147-.103-.026q-.048-.016-.089-.032c-.059-.023-.102-.041-.144-.053q-.027-.006-.04-.008c-.016.038-.017.089.009.167a1 1 0 0 0 .065.147l.094.157.003.004a.94.94 0 0 0 .334.326l-.1.173a1.14 1.14 0 0 1-.405-.396c-.138-.215-.292-.481-.164-.697M3.325 8.542c.346.04.03.405.205.53-.136.204.15.554-.26.569-.331.011-.53-.204-.538-.538s.181-.564.515-.564l.002.2h-.002c-.119 0-.192.038-.236.088-.047.053-.082.14-.08.27.004.13.043.215.092.264.046.048.121.084.24.08l.039-.005v-.003c0-.021-.002-.044-.005-.077L3.29 9.25a.6.6 0 0 1 .016-.152.4.4 0 0 1-.032-.17c0-.042.006-.082.01-.113l.01-.072c-.012 0-.027-.004-.045-.004l-.002-.199zm8.159-.001c.327.017.512.245.503.568-.008.324-.215.56-.539.527l.02-.2c.106.01.178-.021.225-.07a.38.38 0 0 0 .094-.262.38.38 0 0 0-.077-.262.3.3 0 0 0-.157-.09l-.08-.012zm0 0-.011.2q-.024-.002-.038 0l.003.046c.002.025.006.061.007.095.002.04.001.096-.012.157.022.07.024.136.021.186a1 1 0 0 1-.011.107q-.009.047-.011.08v.017q.012.004.037.008l-.02.199-.068-.012c-.298-.074-.038-.405-.161-.573v-.002c.1-.178-.149-.53.263-.508m7.21.628c.277-.079.307.026.283.252l-.199-.02.003-.047-.033.006.001.001a3.4 3.4 0 0 1-1.526.081l.034-.197c.478.085.97.06 1.436-.076m2.71-2.577c-.157.849-.624 1.51-1.247 2.054a1.3 1.3 0 0 0-.19.19l-.013.023q.008.01.026.024c.047.036.126.08.249.136l-.084.18c-.5-.227-.52-.355-.12-.705.6-.523 1.036-1.146 1.181-1.938zm-5.352 1.07c.466.47 1.1.735 1.762.737l-.001.2a2.7 2.7 0 0 1-1.904-.795v-.001zm3.669.155a2.7 2.7 0 0 1-1.908.782v-.2a2.5 2.5 0 0 0 1.767-.724zm-7.717-.925V5.706c0-1.063-.473-1.634-1.51-1.831-.182-.034-.393-.055-.412-.27-.082-.908-.747-1.092-1.468-1.217l.035-.198c.359.063.744.145 1.05.345.32.211.536.542.582 1.052l.004.02.003.003q-.002.002.025.017.029.014.086.026c.042.01.08.016.132.026.547.104.974.312 1.261.66s.412.807.412 1.367v1.186c0 .26-.001.47.047.67.046.19.139.377.339.573l-.14.142c-.341-.332-.421-.66-.44-1.017zm8.314-2.21V3.499c-.001-.077.002-.168.002-.244a2 2 0 0 0-.01-.222c-.017-.145-.055-.155-.063-.157-.045-.013-.122-.002-.234.082-.108.08-.214.205-.295.334l-.001.001-.083.121q-.044.06-.092.114l.001.001c-.152.182-.388.427-.712.449h.001c-.253.018-.501.054-.772.083a4 4 0 0 1-.804.021 1.8 1.8 0 0 1-.79-.246 1.9 1.9 0 0 1-.65-.685.5.5 0 0 0-.14-.117l.098-.175a.7.7 0 0 1 .203.172c.696 1.201 1.815.82 2.841.748.231-.015.419-.195.572-.378q.086-.102.158-.215c.18-.287.486-.58.755-.502.268.077.21.517.216.813.006.396 0 .79 0 1.185 0 .412.014.825-.001 1.233-.003.714-.29 1.4-.797 1.902l-.14-.142c.469-.466.734-1.099.736-1.76v-.007l.007-.606c-.001-.203-.006-.41-.006-.62m-5.176-1.528c.02-.507.127-.606.47-.401l.162.106-.002.003-.095.172-.009-.005-.009-.006-.15-.098a1 1 0 0 0-.107-.056l-.022-.007-.004.011a1.3 1.3 0 0 0-.034.29 42 42 0 0 0-.015 2.728v.005l.011.248c.055.57.306 1.108.714 1.518l-.144.14a2.7 2.7 0 0 1-.781-1.906c-.024-.91-.02-1.83.015-2.742m-9.648-.071c1.038.012 2.082-.086 3.116.086l-.03.198h-.002l-.38-.052c-.887-.094-1.773-.021-2.707-.032-1.12-.014-1.995.726-2.167 1.821-.063.412-.036.82.023 1.25.041.307.1.641.148.982a2 2 0 0 1 .606-.268c.15-.042.303-.074.441-.105a3 3 0 0 0 .394-.109l.142-.043a.96.96 0 0 1 .428-.018.9.9 0 0 1 .397.193l.119.11.108.101c.262.217.595.312.973.325h.004c.274.015.548-.037.798-.15l.082.18c-.28.128-.584.186-.891.17-.465-.017-.896-.149-1.219-.488-.264-.275-.538-.315-.872-.192-.54.197-1.172.157-1.663.686-.093-.931-.352-1.775-.216-2.655.188-1.194 1.15-2.005 2.368-1.99m3.116.086c.395.062.685.191.75.674.064.482.46.733.955.805.693.102.919.37.925 1.072V7.5c-.517-.26-.965-.45-1.377-.7-.464-.284-.815-.24-1.162.19a1.9 1.9 0 0 1-.714.563l-.082-.182c.25-.114.47-.287.639-.504l.002-.002.147-.162a.95.95 0 0 1 .515-.273c.255-.04.508.045.76.199l.307.175c.236.125.486.24.765.376V5.722l-.012-.226c-.021-.199-.072-.323-.145-.407-.096-.112-.266-.194-.598-.242-.537-.079-1.042-.368-1.124-.978-.027-.201-.095-.301-.175-.362-.088-.068-.217-.11-.407-.14zm9.214-3.37c1.912 0 3.387 1.337 3.649 3.299l.027.123c.009.022.016.03.019.032.01.009.041.028.168.046.83.121 1.391.77 1.374 1.558a1.526 1.526 0 0 1-1.38 1.497c-.13.016-.181.043-.206.064-.022.018-.05.057-.072.174l-.197-.036c.05-.274.167-.364.451-.399a1.327 1.327 0 0 0 1.204-1.302c.017-.683-.465-1.25-1.203-1.358-.227-.032-.322-.084-.367-.28l-.017-.093C21.026 1.256 19.63 0 17.825 0zm-3.468 3.32c-.036.253-.1.35-.376.388-.739.101-1.223.673-1.212 1.35.01.678.497 1.208 1.252 1.316l-.027.198h-.002c-.84-.12-1.41-.723-1.423-1.51-.012-.784.552-1.437 1.385-1.551.124-.017.15-.042.157-.05.01-.011.03-.045.047-.17zm7.207 1.134c.298.056.511.247.493.612-.018.335-.233.51-.556.544h-.07c-.067-.008-.122-.044-.122-.13q-.018-.458 0-.913c.004-.113.112-.12.255-.113m-7.452.01c.447.02.083.412.265.557-.132.21.145.566-.243.581-.345.012-.568-.233-.56-.588 0-.326.215-.561.538-.55m7.395.188q-.013.375 0 .754a.45.45 0 0 0 .25-.101c.053-.05.094-.125.1-.25.007-.139-.03-.224-.078-.279a.43.43 0 0 0-.243-.123zm-7.403.012a.3.3 0 0 0-.238.087.37.37 0 0 0-.092.263v.004a.4.4 0 0 0 .093.29.33.33 0 0 0 .26.094q.014 0 .024-.003V5.19q0-.031-.005-.08c-.003-.03-.007-.07-.008-.109-.001-.044.002-.099.015-.156a.4.4 0 0 1-.032-.173 1 1 0 0 1 .012-.114c.005-.036.01-.06.012-.083v-.006q-.015-.004-.041-.006M17.824 0c-1.805 0-3.205 1.245-3.468 3.118l-.199-.027C14.434 1.124 15.914-.2 17.824-.2zM16.11 1.377c1.038-.865 2.71-.774 3.625.18.22.23.23.371-.068.513l-.12.063c-.271.155-.5.378-.66.65-.258.427-.7.253-1.07.286-.544.083-.99-.018-1.271-.554-.08-.145-.257-.245-.404-.342-.538-.355-.541-.373-.032-.796m3.48.32c-.84-.878-2.394-.965-3.352-.167l-.163.139q-.066.057-.105.099l-.019.022.017.017c.056.048.146.108.284.199.066.043.158.1.238.161.061.046.126.103.18.174l.05.076.003.005.095.153c.1.135.214.215.336.262.17.065.379.073.633.034h.012c.109-.01.22-.005.315 0 .1.005.185.009.265.003a.5.5 0 0 0 .19-.048.4.4 0 0 0 .148-.147c.203-.344.504-.619.864-.79l.075-.04.034-.026q-.002-.004-.004-.01a.7.7 0 0 0-.095-.117"/></svg>