<svg xmlns="http://www.w3.org/2000/svg" width="24" height="15" viewBox="0 0 24 15"><path d="M12.048.209h11.175c.746 0 .771.03.771.771 0 .918-.013 1.835.006 2.754.007.385-.11.585-.508.707-1.412.44-2.254 1.586-2.243 2.983.011 1.37.853 2.494 2.244 2.928.359.11.513.272.507.652q-.029 1.487 0 2.974c.01.454-.171.615-.618.615q-11.368-.012-22.736 0c-.473 0-.66-.166-.645-.645a68 68 0 0 0 0-2.918c0-.364.11-.55.481-.67 1.433-.446 2.275-1.568 2.275-2.961 0-1.394-.84-2.514-2.27-2.963-.374-.117-.484-.309-.484-.672.021-.955.033-1.912 0-2.863C-.013.368.182.2.708.2c3.78.016 7.556.008 11.34.008m-3.271.69c-2.514 0-5.029.01-7.542-.01-.418-.003-.546.126-.527.534.03.622.024 1.248 0 1.872-.012.344.11.51.432.65 1.322.563 2.1 1.588 2.271 3.007.179 1.473-.305 2.826-1.603 3.485-1.099.558-1.176 1.29-1.094 2.259.022.2.022.404 0 .604-.07.494.135.612.613.61 4.79-.018 9.583-.01 14.368-.012.33 0 .703.072.973-.059.27-.13.076-.536.135-.814.042-.201.13-.352.355-.341.226.01.307.175.322.376q.017.22.006.441c-.016.268.067.404.368.403q2.534-.014 5.067 0c.29 0 .386-.11.383-.39a73 73 0 0 1 0-2.147c0-.267-.12-.375-.353-.476-1.542-.66-2.373-1.842-2.367-3.508 0-1.642.834-2.815 2.348-3.464.293-.126.378-.283.373-.574a36 36 0 0 1 0-1.983c.013-.365-.12-.473-.476-.469-1.413.015-2.827 0-4.239.01-.343 0-.738-.133-1.017.081-.214.166-.05.521-.096.788-.034.205-.13.35-.354.343-.196-.007-.29-.14-.314-.323a1.2 1.2 0 0 1-.013-.33c.07-.47-.14-.579-.587-.576C13.73.91 11.254.9 8.777.9M23.994.98c0-.74-.026-.771-.771-.771v-.2c.183 0 .339.002.462.018.123.017.25.052.345.149.096.096.13.223.147.345.016.123.017.278.017.46 0 .92-.013 1.833.005 2.748.004.21-.024.407-.137.57-.114.166-.291.264-.511.332-1.33.416-2.112 1.486-2.102 2.79l.011.238c.099 1.17.861 2.117 2.09 2.501.194.06.37.143.49.29.122.152.163.341.16.558q-.029 1.484 0 2.966l-.007.18a.7.7 0 0 1-.192.445c-.157.152-.381.194-.62.194q-5.683-.006-11.367-.006l-11.368.006c-.25 0-.483-.042-.645-.2-.165-.16-.209-.394-.2-.652.024-.966.017-1.936 0-2.907v-.004c0-.198.029-.385.136-.54.11-.159.277-.254.484-.321h.002c1.355-.42 2.134-1.47 2.134-2.77S1.779 5.05.427 4.625l.06-.19c1.429.449 2.27 1.57 2.27 2.962 0 1.394-.842 2.516-2.275 2.961-.37.12-.481.307-.481.671a68 68 0 0 1 0 2.918c-.014.42.128.599.481.637l.164.008q5.685-.006 11.368-.006l11.368.006c.447 0 .627-.162.617-.616H24q-.015-.742-.015-1.486L24 11.004c.007-.38-.148-.542-.507-.652-1.391-.434-2.233-1.558-2.244-2.928-.011-1.397.831-2.542 2.243-2.983.398-.122.515-.322.507-.708H24c-.01-.459-.01-.918-.01-1.377zm-6.836 11.704c-.225-.011-.312.14-.354.34l-.067-.013.066.014c-.059.278.134.683-.135.814-.203.098-.463.082-.72.068l-.253-.01v-.2q.136.001.265.01.13.009.246.01a.85.85 0 0 0 .374-.058c.015-.007.02-.013.026-.028a.4.4 0 0 0 .01-.134c-.005-.08-.013-.132-.02-.232a1 1 0 0 1 .011-.282.73.73 0 0 1 .156-.341.49.49 0 0 1 .405-.158zm.415-11.7c.279-.214.674-.08 1.017-.08l.002.199h-.002c-.097 0-.195-.01-.284-.019a4 4 0 0 0-.255-.02.65.65 0 0 0-.287.039l-.069.04c-.02.015-.042.046-.034.185.005.076.012.122.02.216.006.078.01.17-.006.262a.7.7 0 0 1-.157.353.5.5 0 0 1-.402.155.5.5 0 0 1-.364-.162.6.6 0 0 1-.142-.334 1.4 1.4 0 0 1-.013-.377v-.01c.033-.214-.012-.266-.03-.283-.038-.032-.132-.063-.357-.061-2.478.023-4.958.012-7.434.012-2.512 0-5.028.01-7.543-.01-.201 0-.263.033-.283.054-.018.018-.05.075-.042.27l.016.473q.01.473-.001.945l-.015.472c-.005.147.02.227.056.281.038.056.11.114.255.177l.253.116c1.233.612 1.968 1.653 2.137 3.052.185 1.527-.315 2.978-1.71 3.686-.517.263-.77.553-.894.87-.129.328-.132.713-.092 1.194q.034.322 0 .643v.006l-.05-.007.048.007c-.032.23.013.292.037.314.04.035.139.07.378.068l.001.2-.167-.006c-.358-.028-.507-.172-.446-.603a2.8 2.8 0 0 0 0-.606c-.077-.908-.014-1.608.9-2.152l.195-.106c1.297-.66 1.78-2.012 1.602-3.485-.161-1.33-.855-2.314-2.03-2.896l-.241-.112C.818 3.806.696 3.64.708 3.296v-.001c.024-.624.03-1.25 0-1.872-.019-.408.11-.537.526-.533 2.514.018 5.029.008 7.542.008 2.478 0 4.956.012 7.433-.011.448-.004.657.105.587.575a1.2 1.2 0 0 0 .013.33c.02.16.095.282.245.314l.069.008c.224.008.32-.137.354-.342.046-.266-.119-.622.096-.788m-1.878 12.914c-4.785.002-9.578-.005-14.368.012v-.2c4.789-.018 9.584-.01 14.368-.013zm1.473-1.414a.5.5 0 0 1 .39.197.7.7 0 0 1 .122.365h-.001q.018.233.008.465l-.002.003c-.007.12.015.155.02.16 0 .002.024.03.149.03v.2l-.103-.006c-.217-.029-.28-.163-.265-.397q.006-.11.004-.22l-.01-.22.06-.005-.061.004c-.013-.176-.076-.324-.243-.366l-.078-.01zm5.783-1.592c.232.1.353.208.353.475a73 73 0 0 0 0 2.146h-.001c.003.28-.092.391-.382.391l-2.533-.006q-1.268 0-2.533.006l-.002-.2q2.535-.014 5.068 0c.127 0 .154-.026.156-.028s.017-.02.024-.082l.003-.078a74 74 0 0 1 0-2.149l-.004-.066a.2.2 0 0 0-.041-.109.5.5 0 0 0-.187-.117zm-2.367-3.51c-.006 1.666.825 2.848 2.366 3.509l-.078.184c-.799-.342-1.425-.825-1.85-1.448-.426-.624-.641-1.377-.638-2.244zm2.245-6.49c.356-.004.489.105.476.47l-.012.496q-.008.744.012 1.487c.005.29-.08.448-.372.574-1.515.649-2.349 1.822-2.349 3.464h-.2c0-.856.218-1.601.641-2.218.423-.616 1.043-1.093 1.829-1.43.126-.054.18-.104.207-.147.027-.044.046-.111.044-.238l-.014-.996q-.003-.498.014-.999l-.003-.104c-.006-.084-.026-.11-.035-.117-.011-.011-.043-.03-.13-.037l-.106-.004c-1.41.015-2.836 0-4.24.01l-.001-.2c1.412-.01 2.825.005 4.238-.01zM-.197 3.765v-.005l.2.005.006.128c.026.281.15.44.477.543l-.058.191c-.21-.065-.378-.161-.488-.32-.108-.157-.137-.344-.137-.542M.709 0c3.779.017 7.555.009 11.339.009v.2C8.264.209 4.488.217.708.2.182.2-.013.368.003.9c.033.952.02 1.908 0 2.863l-.2-.004c.015-.716.027-1.43.017-2.14L-.197.906l.005-.204C-.176.506-.12.334.013.207.185.041.437 0 .709 0m22.514.009v.2H12.048v-.2zm-16.73 10.98c-.263-.056-.414-.207-.26-.497q.136-.21.33-.368Q9.48 7.202 12.4 4.286l.118-.11c.171-.17.363-.282.571-.078.209.205.08.4-.086.566a1714 1714 0 0 0-6.036 6.025c-.129.128-.246.28-.476.3m6.249-7.186c.173-.043.342.01.488.153.07.07.123.148.15.237a.46.46 0 0 1 0 .257.75.75 0 0 1-.168.284l-.067.072q-1.305 1.296-2.611 2.6l-.001-.002-3.424 3.426-.142-.142 3.425-3.424q1.305-1.302 2.611-2.6v-.001c.167-.165.294-.36.086-.565s-.4-.092-.571.078l-.118.11a7172 7172 0 0 0-5.838 5.838q-.193.16-.33.368c-.153.29-.002.441.26.496.23-.02.347-.171.475-.299l.142.14-.001.002c-.106.105-.28.329-.599.356l-.03.003-.028-.006-.115-.03a.55.55 0 0 1-.298-.219c-.105-.165-.077-.357.017-.537l.004-.008.006-.008q.149-.226.355-.4 2.919-2.92 5.84-5.838l.003-.005.13.14.004.003-.133-.143.117-.11a.8.8 0 0 1 .36-.226M7.44 3.62a1.565 1.565 0 0 1 1.567 1.572 1.583 1.583 0 1 1-3.166-.036 1.564 1.564 0 0 1 1.6-1.536m-.032 2.45a.886.886 0 1 0 .037-1.77.886.886 0 0 0-.037 1.77m.036-2.65a1.764 1.764 0 0 1 1.763 1.773v.001A1.79 1.79 0 0 1 8.67 6.45a1.784 1.784 0 0 1-3.03-1.295v-.002l.2.004.007.155a1.6 1.6 0 0 0 .445.97 1.583 1.583 0 0 0 2.705-.933l.01-.156a1.57 1.57 0 0 0-.456-1.112l-.114-.103a1.6 1.6 0 0 0-.256-.171l-.14-.067a1.6 1.6 0 0 0-.446-.112L7.44 3.62a1.57 1.57 0 0 0-1.47.938l-.183-.08a1.76 1.76 0 0 1 1.653-1.056V3.42h.004m-.512 2.24a.69.69 0 0 0 .48.21l-.004.2a.89.89 0 0 1-.62-.272zM7.444 4.3a.89.89 0 0 1 .772.484l.036.08a.9.9 0 0 1 .06.34l-.006.087a.886.886 0 0 1-.898.78l.004-.2A.687.687 0 0 0 7.441 4.5a.685.685 0 0 0-.51 1.161l-.144.138a.886.886 0 0 1-.034-1.189l.06-.063a.89.89 0 0 1 .631-.247m-1.473.258a1.6 1.6 0 0 0-.13.598l-.2-.003c.004-.232.054-.462.147-.674zm7.404 5.02a1.563 1.563 0 0 1-1.557 1.579 1.54 1.54 0 0 1-1.59-1.534 1.566 1.566 0 0 1 2.68-1.152c.294.294.462.692.467 1.107m-.704-.015a.866.866 0 0 0-.882-.854.88.88 0 0 0-.881.915.906.906 0 0 0 .893.858.88.88 0 0 0 .87-.919m-.867-1.759.175.011a1.796 1.796 0 0 1 1.596 1.76l-.2.004a1.596 1.596 0 0 0-1.573-1.575 1.6 1.6 0 0 0-.614.122l-.142.069q-.209.113-.375.284l-.105.118a1.57 1.57 0 0 0-.338 1.026q.002.232.07.454l.054.144a1.54 1.54 0 0 0 .863.833c.192.074.397.108.602.102a1.57 1.57 0 0 0 1.108-.464 1.56 1.56 0 0 0 .444-.96l.006-.153.2-.002a1.77 1.77 0 0 1-1.08 1.642c-.213.09-.441.135-.672.137h-.004v.001l-.002-.001a1.74 1.74 0 0 1-1.257-.487 1.74 1.74 0 0 1-.532-1.245l.001-.001a1.77 1.77 0 0 1 .498-1.284 1.77 1.77 0 0 1 1.276-.535m-.011 1.106h-.004a.68.68 0 0 0-.682.703.707.707 0 0 0 .694.668.68.68 0 0 0 .484-.212l.146.137a.9.9 0 0 1-.287.202l-.082.031a.9.9 0 0 1-.26.043H11.8v-.001a.9.9 0 0 1-.551-.195l-.065-.057a.9.9 0 0 1-.277-.605.88.88 0 0 1 .245-.645.88.88 0 0 1 .636-.27zm.081-.198a.865.865 0 0 1 .797.851.88.88 0 0 1-.24.643l-.146-.137a.7.7 0 0 0 .178-.361l.008-.136v-.006a.666.666 0 0 0-.678-.656l-.004-.2zm5.601-1.304c0 .202.013.404 0 .603-.013.2-.14.352-.357.33s-.31-.18-.315-.382a24 24 0 0 1 0-1.096c0-.22.094-.416.337-.418s.34.182.347.41v.55zm.012-.553c-.006-.227-.103-.412-.346-.41-.244.002-.338.198-.338.419q-.014.547 0 1.095c.004.203.098.36.315.382s.343-.13.357-.33q.008-.15.005-.3l-.005-.303.012-.002zm.2.703-.01.002c.003.148.008.312-.002.465a.58.58 0 0 1-.16.376.5.5 0 0 1-.417.14.52.52 0 0 1-.376-.202.64.64 0 0 1-.119-.375l-.006-.554q0-.276.006-.551c.001-.133.03-.28.114-.402a.5.5 0 0 1 .422-.213c.18-.001.327.07.424.2.089.12.12.27.125.405zM16.8 4.295c0-.201-.01-.401 0-.6.01-.2.11-.36.33-.361s.331.153.338.355q.02.574 0 1.147c0 .22-.11.395-.362.383-.23-.012-.305-.18-.316-.377-.01-.197.01-.365.01-.547m.33-.961c-.22.001-.32.161-.33.36-.01.2 0 .4 0 .6 0 .184-.021.35-.01.548.01.172.068.322.236.365l.08.012-.011.199a.5.5 0 0 1-.392-.202.7.7 0 0 1-.112-.362 3 3 0 0 1 0-.3c.004-.093.009-.173.01-.26l-.005-.298a5 5 0 0 1 .004-.311.63.63 0 0 1 .132-.372.5.5 0 0 1 .398-.18zm0-.2c.16-.001.3.058.4.17a.6.6 0 0 1 .138.378l.01.58q0 .293-.01.582a.62.62 0 0 1-.135.4.52.52 0 0 1-.437.174h-.001l.01-.2c.22.011.333-.12.358-.301l.005-.08h.013l-.013-.001q.02-.573 0-1.148c-.006-.176-.091-.316-.26-.347l-.077-.007zm.35 7.42c0 .182.009.365 0 .551-.014.2-.11.36-.33.365-.221.004-.331-.148-.342-.348a18 18 0 0 1 0-1.202.31.31 0 0 1 .35-.33c.23.01.308.172.32.37.01.199.003.392.002.595m0 .55.2.01v.004l-.012.096a.6.6 0 0 1-.12.273.5.5 0 0 1-.394.183.51.51 0 0 1-.534-.439l-.011-.098-.001-.005.183-.006.016-.001c.01.176.096.315.265.344l.078.005c.22-.005.316-.164.33-.365m-.313-1.713.001-.002.012.002h.005l-.001.001a.5.5 0 0 1 .376.193c.083.11.11.246.117.364.012.206.004.413.003.606 0 .168.009.368 0 .559l-.2-.01v-.55c0-.202.009-.395-.002-.593-.011-.199-.09-.36-.32-.371v-.002.002a.31.31 0 0 0-.253.08.31.31 0 0 0-.097.25q-.02.6-.001 1.2l-.2.008q-.02-.608 0-1.215h.003a.5.5 0 0 1 .032-.201.51.51 0 0 1 .525-.32"/></svg>