<svg xmlns="http://www.w3.org/2000/svg" width="22" height="24" viewBox="0 0 22 24"><path d="M10.805 24h-9.7c-.834 0-1.042-.246-1.094-1.084-.098-1.737.43-3.21 1.717-4.404.522-.482 1.139-.792 1.773-1.082 1.09-.498 2.22-.908 3.375-1.227.354-.104.535-.274.596-.618.054-.313.128-.613.184-.92.159-.875.046-1.619-.798-2.161-.6-.386-.89-1.014-.848-1.75.016-.263-.073-.392-.325-.498-.817-.339-1.26-.966-1.251-1.86.005-.868.425-1.492 1.228-1.822.258-.105.307-.215.264-.492-.104-.685-.363-1.205-1.082-1.415-.229-.065-.437-.208-.65-.328-.625-.35-.979-.887-.98-1.605 0-.743.364-1.293 1.02-1.635C5.171.61 6.192.393 7.227.253 9.95-.117 12.666-.1 15.37.425c.685.123 1.349.342 1.973.65.679.345 1.065.895 1.064 1.66 0 .741-.375 1.285-1.027 1.63-.353.189-.706.38-1.07.539a.71.71 0 0 0-.46.574c-.05.29-.21.588-.173.859s.442.26.659.417c.61.452.9 1.043.848 1.798-.053.78-.451 1.356-1.16 1.66-.329.14-.434.302-.422.647.027.695-.332 1.209-.828 1.669-.313.284-.788.454-.834.946-.081.834.03 1.675.326 2.46.082.208.307.202.483.259 1.391.439 2.79.87 4.068 1.591 2.43 1.375 2.932 3.338 2.76 5.5-.04.5-.387.713-.866.715h-9.906M6.019 7.292c-.595.273-.826.67-.807 1.197.017.508.417 1.026.917 1.063.646.05.73.41.68.915a1.6 1.6 0 0 0 .67 1.541 8 8 0 0 1 1.133 1c.73.822 1.616 1.132 2.7.998.36-.044.674-.121.948-.363.6-.529 1.183-1.078 1.811-1.57.56-.44.815-.969.737-1.67-.053-.474.054-.79.64-.84.529-.044.923-.561.963-1.086.035-.474-.25-.898-.755-1.112-.094.198-.03.406-.049.607-.022.24-.135.4-.383.418-.248.016-.383-.145-.405-.384a2.8 2.8 0 0 1-.008-.573c.049-.41-.105-.491-.503-.438-2.242.3-4.514.312-6.76.036-.73-.088-.73-.089-.74.678a2.3 2.3 0 0 1-.025.355.384.384 0 0 1-.758 0 7 7 0 0 1-.006-.772m11.576-4.572c0-.45-.242-.744-.625-.938a6.5 6.5 0 0 0-1.576-.532C12.838.696 10.26.7 7.676.99c-1.035.117-2.063.313-3.01.779-.626.313-.86.958-.506 1.466.399.57 1.087.714 1.669 1 .058.028.187-.063.27-.117a4.9 4.9 0 0 1 1.846-.678c1.602-.292 3.219-.285 4.826-.136.99.092 1.96.28 2.8.869a.33.33 0 0 0 .385.008c.384-.2.778-.383 1.155-.596a.94.94 0 0 0 .485-.865m-6.794 3.671c1.214.046 2.43-.032 3.628-.233.18-.03.374-.02.484-.236.43-.851.288-1.214-.617-1.511a3 3 0 0 0-.35-.105 16.1 16.1 0 0 0-6.257 0A2.7 2.7 0 0 0 7 4.54c-.242.123-.626.183-.484.603.136.4 0 .948.702 1.033 1.194.15 2.38.257 3.582.216m.407 14.577v-.885c0-.998.484-1.328 1.41-.93 1.6.689 2.587 1.897 2.902 3.613.073.4.265.47.598.425.44-.058.174-.368.19-.566a1.4 1.4 0 0 0-.086-.405 5.589 5.589 0 0 0-10.924.41c-.089.515.043.647.522.565.312-.054.234-.313.273-.487.394-1.789 1.437-3.016 3.156-3.644.67-.245 1.136.097 1.158.811.015.47 0 .939 0 1.407 0 .581.116 1.194-.521 1.571a.2.2 0 0 0-.094.269c.064.104.186.069.285.07.451 0 .903.006 1.356 0 .131 0 .313.066.381-.074.086-.171-.08-.313-.197-.379-.394-.233-.44-.585-.417-.987.023-.261.008-.523.008-.784m-5.916-3.271-.104-.105c-.6.26-1.217.488-1.797.783-1.808.916-2.663 2.398-2.587 4.429.01.282.078.405.38.4.972-.014 1.943-.009 2.914 0 .226 0 .339-.054.364-.313.049-.537.175-1.064.373-1.565.09-.223.063-.324-.196-.404-.824-.252-.977-.71-.508-1.443.385-.598.775-1.189 1.16-1.782m11.004-.047c.417.65.82 1.251 1.207 1.86.444.7.278 1.167-.514 1.41-.237.071-.312.15-.216.393.202.5.329 1.027.375 1.564.025.294.171.323.405.321.953-.006 1.907-.01 2.86 0 .287 0 .382-.089.396-.386.136-2.845-1.72-4.469-4.513-5.162M8.536 14.1c-.079.636-.129 1.24-.323 1.82-.04.12-.046.247.104.304q1.216.46 2.437.906a.4.4 0 0 0 .251-.035q1.095-.408 2.19-.823c.135-.051.277-.112.218-.292-.198-.603-.244-1.237-.344-1.869-1.52.993-2.995 1.01-4.534-.011m3.48 6.913c.047.313-.105.7.079 1.03.655 1.16.664 1.154 2.026 1.147.087 0 .175-.008.26 0 .339.034.422-.105.343-.429-.297-1.212-.974-2.13-2.077-2.72-.597-.319-.626-.29-.626.402zm-2.422.084c0-.4-.006-.677 0-.954s-.1-.335-.343-.224c-1.299.577-2.074 1.573-2.38 2.95-.046.214.018.33.256.327h1.454c.105 0 .235.008.274-.104.241-.71 1.069-1.213.744-1.995zm-2.276-2.92c-.208-.177-.425-.307-.578-.489-.225-.268-.349-.231-.521.053-.409.663-.854 1.304-1.268 1.965-.073.117-.337.276-.097.412.197.113.467.238.671-.097.385-.625.913-1.13 1.496-1.576.075-.056.146-.129.297-.264zm7.87-.7c-.105-.009-.81.682-.79.747a.36.36 0 0 0 .122.158 7 7 0 0 1 1.641 1.723c.175.267.437.104.607.014.218-.112-.007-.267-.073-.372-.425-.674-.865-1.34-1.303-2.005-.066-.094-.145-.184-.205-.26zm-2.608-.117c.916.564.98.562 1.584-.092.084-.09.285-.169.174-.32-.09-.12-.275-.13-.434-.073-.434.16-.863.32-1.327.489zm-3.451.024c-.553-.2-.989-.361-1.427-.513-.156-.055-.339-.036-.424.096-.073.113.104.194.162.29.336.5.746.658 1.283.3q.196-.098.403-.17zm1.676-5.391c-.277 0-.554.014-.829-.007a.364.364 0 0 1-.356-.375.35.35 0 0 1 .336-.391q.853-.03 1.707 0a.347.347 0 0 1 .332.394.367.367 0 0 1-.361.372c-.276.024-.553.007-.83.007m-1.936-4.38c.27.028.674-.105.705.408.014.22-.533.759-.752.766s-.81-.558-.814-.777c0-.293.225-.397.861-.397m3.953 0c.313.017.704-.092.776.389.032.208-.578.788-.799.787s-.753-.54-.765-.756c-.02-.322.166-.42.788-.42m-2.006 2.81a3 3 0 0 1-.462-.03.377.377 0 0 1-.326-.405.36.36 0 0 1 .357-.372c.24-.018.481-.012.722-.011.277 0 .486.11.476.417-.009.27-.203.38-.456.392-.104.005-.209 0-.313 0zm.035 1.975c.137.007.276 0 .417.022a.354.354 0 0 1 .324.347c.018.215-.09.387-.305.417q-.436.045-.874.017a.372.372 0 0 1-.378-.408c.01-.24.167-.37.408-.379h.417z"/></svg>