<svg xmlns="http://www.w3.org/2000/svg" width="21" height="24" viewBox="0 0 21 24"><path d="M10.264 23.997H1.218a4 4 0 0 1-.429-.006.857.857 0 0 1-.789-.857.846.846 0 0 1 .807-.841q.69-.039 1.38 0c.325.019.396-.106.387-.405-.046-1.48.039-2.943.542-4.357.701-1.968 1.905-3.49 3.844-4.357.516-.23.812-.624.807-1.181s-.311-.937-.824-1.171C4.501 9.699 3.287 7.664 2.765 5.129c-.197-.952-.218-1.922-.18-2.888.015-.397-.06-.594-.506-.528-.264.04-.538.007-.809.007C.42 1.716-.005 1.43.004.85S.424.002 1.242.002h18.084c.143 0 .286-.007.428.006a.865.865 0 0 1 .817.84.85.85 0 0 1-.834.868q-.667.039-1.333 0c-.348-.024-.422.108-.412.43.046 1.463-.041 2.91-.536 4.311-.701 1.987-1.91 3.523-3.872 4.39-.498.221-.78.612-.785 1.143 0 .556.29.947.805 1.183 2.476 1.142 3.705 3.194 4.214 5.776.19.94.205 1.89.172 2.841-.014.38.068.556.483.502q.405-.03.809-.007c.863 0 1.276.272 1.284.847q.011.863-1.26.865zm.028-22.28c-1.857 0-3.713.01-5.57-.01-.36 0-.456.096-.442.45.028.728-.016 1.46.095 2.184.341 2.219 1.267 4.02 3.438 5 1.113.503 1.676 1.458 1.673 2.666 0 1.249-.616 2.19-1.768 2.704-1.286.57-2.161 1.523-2.739 2.775-.667 1.452-.727 3-.694 4.561 0 .24.137.238.306.238h11.377c.253 0 .325-.079.32-.326-.013-.776.027-1.555-.095-2.327-.345-2.198-1.263-3.993-3.413-4.966-1.116-.506-1.689-1.445-1.695-2.65-.005-1.225.572-2.177 1.707-2.69 1.294-.582 2.201-1.523 2.79-2.79.65-1.405.728-2.901.71-4.416-.004-.347-.112-.414-.433-.412-1.858.02-3.711.008-5.567.008m-.013 19.71H6.19c-.752 0-1.066-.333-1.047-1.086.078-2.564 2.203-4.74 4.789-4.905 2.66-.17 5.033 1.714 5.419 4.304.014.095.035.19.047.286.136 1.038-.183 1.406-1.221 1.406zm.06-16.283h2.424c.697.005 1.014.365.94 1.054a2.64 2.64 0 0 1-2.544 2.374q-.878.03-1.758 0a2.636 2.636 0 0 1-2.528-2.333c-.09-.714.227-1.087.948-1.095z"/></svg>