<svg xmlns="http://www.w3.org/2000/svg" width="14" height="18" viewBox="0 0 14 18"><path d="M9.07 0q1.066 0 2.121.246 1.067.234 1.97.645l-1.395 3.504a8 8 0 0 0-1.325-.446 6 6 0 0 0-1.37-.152q-.657 0-1.16.164-.493.165-.845.469a2.3 2.3 0 0 0-.562.726q-.21.423-.281.938h3.96v2.402H6.048a3 3 0 0 0-.024.211v.574q.012.129.024.223H9.41v2.402H6.316q.129.646.516 1.078.4.423 1.031.633.645.21 1.5.211.902 0 1.676-.176a8 8 0 0 0 1.441-.468v3.785q-.621.339-1.488.492-.855.153-1.922.152-1.898 0-3.386-.62a6.1 6.1 0 0 1-2.473-1.9q-.984-1.264-1.383-3.187H0V9.504h1.512a6 6 0 0 1-.024-.234V9q0-.141.012-.316l.012-.188H0V6.094h1.734q.375-1.899 1.313-3.258A6.24 6.24 0 0 1 5.497.738Q7.006 0 9.07 0"/></svg>