<svg xmlns="http://www.w3.org/2000/svg" width="48" height="60" viewBox="0 0 48 60"><path d="M34.099 58.056c.837-1.218 1.607-2.256 2.285-3.352a2.44 2.44 0 0 1 2.377-1.27c.954.039 1.914-.073 2.87-.018 1.165.065 1.097-.373.615-1.17-.54-.889-1.002-1.825-1.5-2.744-.308-.563-.373-1.119.279-1.447.603-.306.983.107 1.252.597.728 1.336 1.482 2.658 2.152 4.023.6 1.218-.034 2.259-1.424 2.374-1.08.125-2.17.163-3.256.114-1.207-.096-1.938.4-2.501 1.399-.426.754-.95 1.455-1.448 2.165-1.213 1.724-2.442 1.672-3.449-.17-1.896-3.47-3.796-6.939-5.64-10.434-.456-.87-.85-1.417-1.935-.877a2.35 2.35 0 0 1-2.038-.016c-1.023-.5-1.403-.023-1.847.822-1.826 3.462-3.704 6.89-5.57 10.325-1.126 2.087-2.543 2.254-3.602.17-1.409-2.77-3.423-3.723-6.433-3.511-2.38.166-2.924-.979-1.771-3.102l5.217-9.626c.796-1.472.569-2.523-.848-3.509q-1.097-.706-2.29-1.24c-2.05-.998-3.201-2.587-2.906-4.896.302-2.39-.293-4.416-1.73-6.33-1.289-1.715-1.273-3.617.021-5.328a8.32 8.32 0 0 0 1.709-6.339c-.277-2.244.782-3.895 2.843-4.78C7.545 9.024 9.02 7.73 9.86 5.65c.952-2.347 2.823-3.375 5.317-3.028a7.01 7.01 0 0 0 5.478-1.477c2.048-1.565 4.2-1.565 6.242 0a7.18 7.18 0 0 0 5.609 1.474c2.382-.313 4.2.665 5.124 2.92.86 2.102 2.319 3.474 4.39 4.35 2.071.877 3.13 2.536 2.846 4.777a8.35 8.35 0 0 0 1.706 6.337c1.328 1.768 1.278 3.688-.042 5.441-1.382 1.826-1.964 3.788-1.664 6.089.318 2.416-.86 4.06-3.018 5.095-1.2.576-2.481 1.043-3.222 2.319-.389.67-.496 1.218-.063 1.91.553.881 1.01 1.825 1.5 2.744.3.56.36 1.132-.3 1.445-.597.284-.97-.125-1.244-.62-.083-.152-.162-.309-.26-.46-.348-.6-.562-1.456-1.083-1.73-.6-.313-.916.687-1.461.981-1.305.71-2.692.605-4.078.522-1.234-.073-2.434-.063-3.511.676-.389.26-.7.47-.394 1.022 2.108 3.804 4.182 7.615 6.368 11.62M15.932 4.424c-2.609-.657-4.077.545-4.956 2.87-.72 1.912-2.21 3.083-4.052 3.819-1.91.764-2.791 2.069-2.47 4.174a7.46 7.46 0 0 1-1.654 6.07c-1.25 1.529-1.26 3.1-.013 4.626a7.48 7.48 0 0 1 1.675 6.088c-.31 2.087.495 3.41 2.452 4.174a7.09 7.09 0 0 1 4.291 4.284c.728 1.959 2.087 2.783 4.174 2.467a7.33 7.33 0 0 1 5.98 1.6c1.606 1.304 3.24 1.325 4.854.013a7.33 7.33 0 0 1 5.974-1.615c2.06.316 3.44-.478 4.174-2.444a7.1 7.1 0 0 1 4.283-4.294c1.944-.75 2.784-2.066 2.47-4.154a7.49 7.49 0 0 1 1.665-6.093c1.242-1.519 1.263-3.09 0-4.623a7.47 7.47 0 0 1-1.675-6.091c.318-2.087-.522-3.43-2.45-4.174a7.32 7.32 0 0 1-4.356-4.398C35.6 4.896 34.31 4.08 32.333 4.375c-2.309.32-4.417-.183-6.243-1.67-1.596-1.304-3.13-1.187-4.727.055-1.596 1.242-3.36 1.975-5.431 1.664M13.467 58.05c2.173-3.979 4.223-7.75 6.3-11.507.31-.567.115-.82-.355-1.138-1.304-.882-2.736-.699-4.174-.626-1.599.078-3.159 0-4.289-1.354-.467-.56-.683-.26-.923.172l-4.91 9.032c-.307.566-.17.782.465.782 1.085 0 2.173.073 3.255.034 1.083-.039 1.798.397 2.348 1.305.673 1.043 1.422 2.053 2.283 3.3M23.943 5.502a18.2 18.2 0 0 1 .097 36.396C10.736 42.13 1.605 28.004 7.292 15.994c.149-.316.305-.626.48-.926.344-.595.665-1.414 1.544-.905.799.461.298 1.126 0 1.7-2.295 4.503-2.64 9.13-.803 13.86 2.609 6.757 9.652 11.053 16.897 10.326s13.304-6.34 14.533-13.459c1.233-7.16-2.124-13.99-8.61-17.478-5.963-3.222-13.64-2.163-18.782 2.583a7 7 0 0 1-.686.6.846.846 0 0 1-1.137-1.237 16 16 0 0 1 1.62-1.505c3.391-2.75 7.265-4.06 11.595-4.051M15.15 33.407c.277-1.683.54-3.488.88-5.283a1.57 1.57 0 0 0-.522-1.612c-1.182-1.09-2.309-2.238-3.472-3.347-.752-.715-1.164-1.523-.804-2.567.347-.994 1.148-1.335 2.118-1.463 1.506-.199 3.003-.486 4.513-.645.872-.091 1.414-.425 1.78-1.25.65-1.468 1.406-2.887 2.113-4.332.417-.85 1.077-1.396 2.032-1.396.954 0 1.614.545 2.032 1.398.707 1.443 1.466 2.87 2.113 4.333.365.83.916 1.148 1.782 1.245 1.594.177 3.177.467 4.768.694.893.125 1.566.55 1.858 1.419.32.92.055 1.714-.624 2.376-1.21 1.187-2.41 2.385-3.652 3.54a1.57 1.57 0 0 0-.522 1.613c.303 1.533.522 3.086.783 4.625.185 1.043.162 2.016-.783 2.697-.902.637-1.805.418-2.7-.065-1.416-.762-2.854-1.482-4.26-2.262a1.46 1.46 0 0 0-1.565 0c-1.52.835-3.047 1.672-4.617 2.418-1.735.817-3.298-.198-3.25-2.136m1.827-.28c-.17 1.013.26 1.044 1.012.645 1.455-.782 2.937-1.508 4.38-2.311a2.7 2.7 0 0 1 2.838 0c1.328.738 2.682 1.43 4.035 2.123.374.19.783.632 1.18.355.451-.318.148-.895.08-1.34a91 91 0 0 0-.782-4.496 2.59 2.59 0 0 1 .837-2.582c1.237-1.158 2.434-2.348 3.653-3.55.213-.21.521-.428.393-.762-.127-.334-.472-.33-.782-.373-1.63-.243-3.259-.543-4.897-.723-1.168-.128-1.891-.683-2.371-1.74-.683-1.503-1.453-2.964-2.191-4.435-.13-.26-.212-.613-.593-.608-.38.006-.453.355-.584.619a352 352 0 0 0-2.306 4.677 2.43 2.43 0 0 1-2.003 1.458c-1.673.23-3.345.49-5.02.752-.341.05-.767 0-.894.394-.128.393.26.613.493.85 1.082 1.07 2.139 2.168 3.274 3.177.975.866 1.35 1.826 1.072 3.13-.34 1.56-.556 3.157-.825 4.74"/></svg>