<svg xmlns="http://www.w3.org/2000/svg" width="24" height="24" viewBox="0 0 24 24"><path stroke-width="0.5" d="M7.184 12.828c.283-.652.223-.951-.273-1.406a4.2 4.2 0 0 1-1.274-2.057c-.064-.301-.24-.566-.493-.741-.923-.658-1.129-1.796-.536-2.772.095-.158.157-.288.105-.48-.486-1.727.491-3.737 2.58-4.562a8.3 8.3 0 0 1 3.793-.522c.769.067 1.406.37 1.707 1.164.142.339.389.623.705.809 1.247.815 1.476 1.497 1.026 2.922-.05.162-.11.29.024.476.731 1.008.517 2.322-.505 3.056a.85.85 0 0 0-.342.491 4.8 4.8 0 0 1-1.523 2.382c-.314.27-.337 1.203-.058 1.495.141.147.236.018.295-.062.581-.795 1.388-.688 2.18-.522 2.191.473 3.747 1.713 4.416 3.898.674 2.203.73 4.487.748 6.767 0 .47-.285.521-.657.521q-5.245-.007-10.49 0H.732c-.688 0-.739-.05-.731-.751.017-1.953.122-3.896.54-5.809.607-2.776 2.714-4.592 5.429-4.721.53-.025.53-.025 1.214.424Zm2.864 10.091c1.688 0 3.375-.013 5.062.01.418 0 .533-.116.522-.522-.027-1.113-.01-2.226-.008-3.34 0-.208-.016-.425.208-.549.295-.161.55.052.553.495.01 1.165.013 2.33 0 3.495 0 .313.086.432.413.418a31 31 0 0 1 1.826 0c.228 0 .362-.052.354-.313-.07-2.103-.1-4.214-.799-6.233-.534-1.546-1.67-2.473-3.19-2.985-.3-.104-.467-.044-.626.241a159 159 0 0 1-1.954 3.269 1.4 1.4 0 0 0-.217.776q.014 1.958 0 3.913c0 .615-.085.7-.688.702H8.112c-.665 0-.726-.057-.731-.705 0-1.253-.01-2.505 0-3.757a1.74 1.74 0 0 0-.263-.982 91 91 0 0 1-1.873-3.131c-.209-.369-.417-.379-.755-.246-1.642.658-2.716 1.816-3.128 3.56-.43 1.805-.527 3.643-.597 5.487-.013.337.124.41.427.402.677-.017 1.357-.021 2.034 0 .336.011.451-.088.445-.437-.02-1.13-.006-2.26-.008-3.391 0-.294.018-.611.387-.622.368-.01.397.314.398.606 0 1.096.018 2.191-.009 3.286-.01.424.105.568.547.562 1.687-.029 3.375-.009 5.062-.009Zm-.307-11.186c.053 0 .176-.008.296-.027 1.7-.274 2.544-1.425 2.993-2.958.09-.304.21-.501.51-.656.816-.424.89-1.566.155-2.07-.17-.117-.244-.288-.328-.457a7.1 7.1 0 0 0-1.161-1.66c-.115-.122-.245-.345-.468-.13-.48.465-1.078.5-1.7.492-1.024-.012-2.053-.023-3.065.16-.655.117-1.178.426-1.27 1.178a.84.84 0 0 1-.25.444c-.652.714-.494 1.634.37 2.075.307.156.404.37.468.68.349 1.712 1.764 2.929 3.45 2.929Zm-4.35-7.335c.835-.76 1.743-.835 2.649-.868.745-.031 1.492-.025 2.239-.03.377 0 .72-.073.997-.36.463-.478.601-.487 1.125-.093.48.36.822.842 1.164 1.324.081.114.104.298.294.313.235-.752.15-1.12-.513-1.573-.591-.401-1.087-.852-1.357-1.527-.115-.289-.381-.418-.657-.458C9.595.9 7.933 1.088 6.496 2.196c-.65.501-1.04 1.188-1.105 2.202Zm8.284 8.862c-.322-.132-.443.084-.587.208q-1.271 1.122-2.53 2.257c-.773.704-.767.704-1.542-.027-.795-.753-1.595-1.5-2.39-2.253-.198-.187-.392-.35-.701-.184q.024.099.068.19c.613 1.03 1.237 2.054 1.842 3.089.13.222.304.247.522.245.695 0 1.4-.072 2.088.016.874.112 1.357-.231 1.74-.989.435-.877.983-1.697 1.49-2.552Zm-5.533 6.29c0 .538.011 1.075 0 1.613-.007.268.084.371.356.368a80 80 0 0 1 2.499 0c.326.007.418-.124.418-.43a123 123 0 0 1 0-3.124c0-.32-.105-.424-.418-.418-.815.016-1.632.02-2.447 0-.332-.007-.412.127-.4.43.013.519-.002 1.04-.002 1.56zm3.35-5.92a3.1 3.1 0 0 1-.313-1.044c-.026-.319-.146-.313-.397-.238a3.8 3.8 0 0 1-1.905.084c-.7-.137-.702-.139-.878.561-.064.254-.24.495.06.752.512.44.996.915 1.482 1.386.166.16.293.2.48.025.432-.4.881-.784 1.32-1.177.099-.078.213-.149.157-.349zm5.683-6.985V1.277c.01-.27.088-.5.41-.488.287.01.403.229.36.472-.096.558.22.835.618 1.137 1.694 1.275 3.365 2.58 5.041 3.878.2.154.483.293.37.615-.11.323-.404.274-.665.274h-4.117c-1.234 0-1.234 0-1.234 1.26v3.444c0 .283.019.616-.368.627-.428.015-.417-.338-.417-.638q0-2.606.002-5.213Zm5.14-.384c-1.364-1.05-2.714-2.096-4.077-3.137-.267-.209-.276 0-.276.192 0 .87.016 1.74-.008 2.609-.01.378.137.47.487.465 1.149-.015 2.297 0 3.445-.008.129-.001.276.048.43-.121Z"/><path stroke-width="0.2" d="M9.801 18.015c.227 0 .453-.01.679 0a.357.357 0 0 1 .373.36.34.34 0 0 1-.337.387q-.728.025-1.461 0a.343.343 0 0 1-.349-.378.35.35 0 0 1 .363-.369c.246-.01.489.001.732 0ZM9.8 19.914c-.243 0-.487.01-.73 0a.35.35 0 0 1-.362-.369.34.34 0 0 1 .349-.378q.704-.018 1.407 0c.243.006.396.144.387.396-.008.224-.156.344-.375.356-.218.011-.45-.004-.676-.005Zm-.039 1.142h-.675a.35.35 0 0 1-.374-.352.332.332 0 0 1 .334-.384q.728-.02 1.455 0a.34.34 0 0 1 .335.228.3.3 0 0 1 .016.143.35.35 0 0 1-.362.363c-.242.013-.486 0-.73 0z"/></svg>