<svg xmlns="http://www.w3.org/2000/svg" width="24" height="24" viewBox="0 0 24 24"><g opacity="0.4"><path d="M11.907 14.625a2.625 2.625 0 0 0 2.615-2.853l-2.844 2.843q.113.01.229.01M20.595 3.88l-1-1a.187.187 0 0 0-.266 0l-2.562 2.563Q14.647 4.36 12 4.359q-6.756 0-10.082 7.039a1.41 1.41 0 0 0 0 1.207q1.329 2.798 3.2 4.487l-2.48 2.478a.19.19 0 0 0 0 .265l1.001 1a.187.187 0 0 0 .265 0l16.691-16.69a.19.19 0 0 0 .041-.204.2.2 0 0 0-.04-.06M7.782 12a4.125 4.125 0 0 1 6.067-3.64L12.71 9.5a2.627 2.627 0 0 0-3.302 3.303l-1.14 1.14A4.1 4.1 0 0 1 7.782 12m14.301-.605q-1.237-2.606-2.946-4.25l-3.378 3.378a4.126 4.126 0 0 1-5.33 5.33l-2.865 2.865q1.994.923 4.436.923 6.758 0 10.083-7.039a1.41 1.41 0 0 0 0-1.207"/></g></svg>