<svg xmlns="http://www.w3.org/2000/svg" width="50" height="50" viewBox="0 0 50 50"><path fill-rule="evenodd" d="M3.125 25C3.125 12.92 12.92 3.125 25 3.125S46.875 12.92 46.875 25 37.08 46.875 25 46.875 3.125 37.08 3.125 25M25 14c-2.988 0-3.362.012-4.535.066h-.001c-1.17.054-1.97.24-2.67.511a5.4 5.4 0 0 0-1.947 1.269 5.4 5.4 0 0 0-1.27 1.948c-.271.7-.458 1.5-.511 2.672S14 22.012 14 25s.012 3.361.066 4.536c.054 1.17.24 1.97.511 2.67.276.734.71 1.399 1.269 1.948.55.56 1.215.992 1.949 1.268.7.272 1.5.459 2.67.512 1.173.053 1.547.066 4.535.066s3.362-.012 4.536-.066c1.17-.054 1.97-.24 2.67-.512a5.4 5.4 0 0 0 1.948-1.268c.56-.55.992-1.215 1.268-1.949.272-.7.459-1.5.512-2.67.053-1.173.066-1.547.066-4.535 0-2.987-.012-3.361-.066-4.536-.054-1.17-.24-1.97-.512-2.67a5.4 5.4 0 0 0-1.268-1.947 5.4 5.4 0 0 0-1.948-1.27c-.7-.271-1.5-.458-2.672-.511S27.988 14 25 14m0 1.982c2.937 0 3.285.011 4.445.064 1.073.049 1.655.228 2.043.379.478.176.91.457 1.265.822.385.385.622.752.822 1.265.151.388.33.97.379 2.043.053 1.16.064 1.508.064 4.445s-.011 3.285-.064 4.445c-.049 1.073-.228 1.655-.379 2.043-.176.477-.457.91-.822 1.265a3.4 3.4 0 0 1-1.265.822c-.388.151-.97.33-2.043.379-1.16.053-1.507.064-4.445.064s-3.285-.011-4.445-.064c-1.073-.049-1.655-.228-2.043-.379a3.4 3.4 0 0 1-1.265-.822 3.4 3.4 0 0 1-.822-1.265c-.151-.388-.33-.97-.379-2.043-.053-1.16-.064-1.508-.064-4.445s.011-3.285.064-4.445c.049-1.073.228-1.655.379-2.043.176-.478.457-.91.822-1.265a3.4 3.4 0 0 1 1.265-.822c.388-.151.97-.33 2.043-.379 1.16-.053 1.508-.064 4.445-.064m1.067 12.534a3.67 3.67 0 0 1-3.786-1.051 3.67 3.67 0 1 1 6.375-2.824 3.67 3.67 0 0 1-2.59 3.875m-3.23-8.74a5.653 5.653 0 1 0 4.326 10.446 5.653 5.653 0 0 0-4.327-10.446m9.377-.022a1.336 1.336 0 1 1-2.446-1.076 1.336 1.336 0 0 1 2.446 1.076" clip-rule="evenodd"/></svg>