<svg xmlns="http://www.w3.org/2000/svg" width="24" height="24" viewBox="0 0 24 24"><path d="M23.998 14.165v7.457c0 1.524-.849 2.375-2.368 2.375H10.674c-1.4 0-2.194-.705-2.363-2.092-.078-.632-.167-1.264-.225-1.899-.027-.312-.226-.256-.412-.256H2.466C.843 19.748 0 18.915 0 17.294V2.422C0 .838.833 0 2.406 0h6.666c1.48 0 2.31.78 2.436 2.26.047.553.144 1.1.193 1.653.026.284.147.344.417.343 3.138-.01 6.276-.007 9.416-.006 1.624 0 2.464.84 2.464 2.46zm-13.24 8.394c.14.013.193.022.246.022H21.79c.57 0 .79-.25.791-.872V6.551c0-.635-.244-.885-.88-.885q-4.704.001-9.415-.006c-.284 0-.374.044-.333.366.25 1.852.477 3.709.708 5.564.29 2.324.561 4.65.87 6.97.066.485-.03.847-.356 1.209-.801.896-1.577 1.82-2.416 2.79M1.418 9.873v7.624c0 .544.25.833.759.833 3.208.006 6.416 0 9.624.007.223 0 .285-.064.254-.287-.09-.646-.156-1.294-.239-1.94-.27-2.117-.55-4.232-.815-6.349-.314-2.517-.616-5.035-.925-7.552-.072-.583-.311-.787-.91-.788H2.334c-.712 0-.916.205-.916.916zm9.908 9.875H9.697c-.166 0-.225.06-.205.22.065.523.128 1.047.203 1.666zm4.435-9.166h.291c.264 0 .577.084.777-.035.2-.118.055-.458.09-.698.057-.382.381-.687.727-.673.345.014.634.306.683.673.03.23-.104.544.062.676.208.166.533.047.807.055.375.01.75 0 1.125.005.467.009.784.268.825.66.036.356-.236.678-.682.745a.3.3 0 0 0-.28.242 8.2 8.2 0 0 1-1.417 2.618c-.156.194-.108.303.064.437.405.316.8.644 1.199.966.424.343.517.779.238 1.114-.279.334-.694.333-1.106 0a52 52 0 0 1-1.35-1.112c-.144-.125-.238-.125-.383 0q-.665.57-1.349 1.112c-.416.333-.833.323-1.106-.005-.274-.327-.185-.77.239-1.112.399-.322.794-.65 1.199-.966.172-.135.22-.244.063-.437a8 8 0 0 1-1.412-2.62c-.055-.172-.148-.219-.325-.243a.72.72 0 0 1-.643-.702c.008-.37.323-.675.745-.698.305-.016.611 0 .917 0zM16.48 12c.24.653.57 1.27.98 1.833.127.178.207.167.328 0a8.5 8.5 0 0 0 .89-1.583c.095-.225.015-.25-.185-.25-.65.005-1.3 0-2.013 0M6.408 4.984c1.25 0 1.259.016 1.5 1.242.407 2.049.826 4.095 1.232 6.144.063.317.083.644-.22.875-.225.172-.47.22-.738.09-.27-.131-.37-.361-.423-.63-.117-.597-.238-1.194-.345-1.793-.042-.242-.14-.35-.408-.333q-.645.037-1.29 0c-.257-.015-.34.102-.38.317-.112.584-.232 1.167-.342 1.75-.099.523-.417.822-.815.76-.454-.07-.69-.472-.584-1.019.341-1.696.689-3.39 1.032-5.083.107-.529.198-1.06.312-1.588.127-.583.32-.727.917-.73q.284-.003.552-.002m-.055 4.182h.207c.513 0 .5 0 .392-.524-.137-.647-.25-1.3-.381-1.949-.025-.12-.017-.312-.213-.295-.156.012-.155.179-.179.292-.121.608-.234 1.218-.347 1.833-.12.643-.119.643.52.643"/></svg>