<svg xmlns="http://www.w3.org/2000/svg" width="24" height="18" viewBox="0 0 24 18"><path d="M-.2 16.962V2.669c0-.175 0-.325.015-.442a.55.55 0 0 1 .142-.335.55.55 0 0 1 .336-.143c.118-.015.267-.016.443-.016v.2c-.718 0-.736.02-.736.736v14.293l.002.248c.013.506.104.517.759.517h11.245l3.667.003v.2L.762 17.927c-.183 0-.338-.001-.46-.016a.56.56 0 0 1-.343-.144.56.56 0 0 1-.143-.345 4 4 0 0 1-.015-.46m24.2.254q-.01-7.381 0-14.766c0-.396-.178-.524-.544-.517-.63.008-1.262-.015-1.892.008h-.125c-.28-.018-.47-.141-.668-.38l.155-.126c.102.123.192.199.284.245.09.044.198.067.346.061.315-.011.637-.011.956-.01l.942.002c.198-.003.398.027.545.159.152.136.201.336.201.558q-.005 3.693-.006 7.384l.006 7.382c0 .288-.087.502-.292.618a.8.8 0 0 1-.282.085 2 2 0 0 1-.14.01h-.138q-3.837-.004-7.674 0l-.001-.198q3.837-.007 7.675 0l.255-.011c.234-.028.397-.13.397-.504m-17.845-4.86.134.149c-.056.05-.062.108-.062.286 0 1.276.01 2.556-.006 3.835 0 .162.029.2.037.207.01.01.05.036.215.034l.003.2-.119-.003c-.214-.018-.309-.105-.332-.32l-.004-.12q.01-.958.008-1.916l-.003-1.917c0-.158-.005-.316.13-.436m4.613 1.44V8.53l-4.479 3.975-.134-.15 4.813-4.27v5.71l-.004 1.393q-.002.695.012 1.391c.006.347-.069.495-.457.488-1.347-.02-2.696-.016-4.043 0l-.003-.2c1.349-.017 2.7-.02 4.05 0 .18.003.213-.034.218-.04.014-.017.037-.07.034-.244-.02-.93-.007-1.862-.007-2.787m-5.76-1.155c.272-.006.362.08.362.357a200 200 0 0 0 0 3.669c.003.293-.08.398-.384.398q-1.992-.015-3.984 0c-.241.002-.336-.074-.356-.273l-.004-.094q.008-.915.008-1.834L.642 13.03c-.004-.295.085-.397.385-.388l.498.008c.498.005.996-.002 1.494-.002.66 0 1.328.01 1.99-.006m6.637-.207c-.002-.332.104-.392.403-.277a736 736 0 0 0 5.246 1.998c.22.083.274.221.274.44-.011.68-.02 1.364 0 2.047 0 .315-.095.428-.42.42-.856-.012-1.714 0-2.572 0-.822 0-1.644-.01-2.457-.002-.277.005-.433-.044-.468-.303l-.006-.124c.014-1.4.01-2.8 0-4.2h.199c.01 1.4.014 2.8 0 4.202 0 .161.037.189.042.193.018.015.07.035.23.032.814-.01 1.642.001 2.46.001h.2c.789-.001 1.584-.01 2.375.001.15.004.183-.025.186-.028.006-.007.032-.042.032-.186l-.01-.516c-.006-.515.001-1.028.01-1.537l-.009-.113a.2.2 0 0 0-.02-.06c-.011-.02-.037-.05-.116-.08a737 737 0 0 1-5.248-1.997 1 1 0 0 0-.124-.037 1 1 0 0 0-.008.125zM23.09 14.35c.2.02.27.123.27.36a45 45 0 0 0 0 1.998l-.2.005a46 46 0 0 1 0-2.002l-.012-.12-.007-.02-.002-.004h-.001l-.003-.003-.02-.007-.118-.011q-2.209.015-4.411 0a.6.6 0 0 0-.125.01c-.026.005-.034.012-.035.013l-.002.002-.006.014a.4.4 0 0 0-.01.11q.02 1 0 2.006 0 .08.01.112c.007.021.014.026.014.026.002.002.027.023.141.021.717-.008 1.438 0 2.153 0h.2v.001c.684 0 1.372-.005 2.057 0a.6.6 0 0 0 .125-.01c.027-.005.034-.012.035-.012v-.001q.002-.002.006-.015a.4.4 0 0 0 .011-.11l.2-.005c.006.286-.118.354-.377.354h-2.257v-.002c-.717 0-1.434-.008-2.15 0-.264.005-.369-.09-.369-.364q.021-1 0-1.997c-.006-.286.122-.353.38-.353q2.2.015 4.41 0zM.94 12.84a.3.3 0 0 0-.074.016l-.002.002-.002.001q0 .002-.002.005l-.008.026a.6.6 0 0 0-.011.136q.018 1.838 0 3.673a.5.5 0 0 0 .018.142l.002.003.003.003.019.007a.4.4 0 0 0 .116.01q1.993-.015 3.986 0a.5.5 0 0 0 .134-.012l.023-.01q.004-.002.003-.003c.002-.002.016-.018.022-.085l.003-.086a200 200 0 0 1 0-3.671l-.012-.122c-.005-.019-.01-.022-.008-.02.005.004-.011-.019-.138-.016-.597.014-1.201.007-1.794.006h-.2c-.658 0-1.33.014-1.998-.006zm15.614-3.923c.77.837 1.139 1.619 1.01 2.71l-.017.19c-.031.44.002.887.01 1.33v.001c.005.255-.017.406-.344.28q-1.32-.51-2.644-1.012l-2.647-1.002.07-.186a686 686 0 0 1 5.293 2.013l.067.022q.005-.043.005-.112c-.008-.488-.052-1.028.01-1.546l.016-.191a2.6 2.6 0 0 0-.173-1.164c-.16-.405-.427-.79-.803-1.197zm6.6 1.77c0-.871-.008-1.749.006-2.628l-.004-.085c-.006-.068-.02-.09-.025-.094-.001-.001-.007-.008-.027-.014a.4.4 0 0 0-.127-.012 74 74 0 0 1-2.368 0h-.003l-.101.01a.388.388 0 0 0-.241.176l-.01.016-.187.244A12 12 0 0 1 18.6 9.862c-.137.123-.194.2-.193.332l.008 1.579q0 .788-.008 1.575a.4.4 0 0 0 .012.114l.01.021.005.003q.005.003.021.008a.5.5 0 0 0 .117.009q2.21-.015 4.41 0a.5.5 0 0 0 .154-.02l.004-.004c.002-.002.024-.03.021-.17l.2-.003c.005.286-.07.398-.379.398l-2.202-.007q-1.102 0-2.206.007c-.229.001-.339-.062-.362-.264l-.005-.094q.015-1.571 0-3.149c-.002-.225.115-.353.26-.483a11.8 11.8 0 0 0 1.627-1.777.59.59 0 0 1 .52-.282 74 74 0 0 0 2.36 0c.302-.005.386.116.386.405-.013.878-.005 1.753-.005 2.627s-.008 1.75.005 2.619l-.199.004-.008-1.312zM.647 7.297c0-1.42.01-2.835-.006-4.242l.003-.118c.02-.25.135-.334.437-.334q1.943.021 3.885 0c.329-.005.408.113.408.428h-.2c0-.156-.024-.194-.03-.201-.002-.001-.008-.008-.03-.015a.5.5 0 0 0-.146-.012q-1.944.021-3.888 0c-.162 0-.199.028-.206.036-.008.008-.036.049-.034.214.017 1.409.008 2.825.008 4.245v.005c0 1.415.008 2.84-.008 4.254 0 .164.025.208.035.22.004.004.036.035.198.032l.003.2-.12-.004c-.217-.022-.294-.122-.311-.335l-.004-.115q.01-1.061.008-2.125zm4.727-4.266q-.015 4.28 0 8.558c.001.315-.084.42-.412.42v-.076l-.001.076q-1.942-.026-3.885 0l-.003-.2a141 141 0 0 1 3.889 0c.15 0 .18-.026.184-.029.003-.004.028-.036.028-.19q-.015-4.28 0-8.559zm8.558-.434c.282.014.378.099.277.485-.308 1.177-.027 2.288.499 3.352q.104.21.21.42c.006.013-.005.034-.021.133l-1.605.004q-.4 0-.8-.002l-.803-.01a1.13 1.13 0 0 0-.84.316c-1.386 1.255-2.794 2.496-4.196 3.74-.167.147-.312.329-.536.405-.108-.08-.103-.186-.094-.289l.007-.1c-.004-2.643.007-5.288-.011-7.93l.199-.003c.019 2.644.008 5.291.012 7.933q-.001.056-.006.1.025-.017.051-.039.056-.048.117-.107.06-.058.129-.121c1.402-1.243 2.808-2.483 4.193-3.738a1.33 1.33 0 0 1 .98-.366c.988.019 1.973.009 2.966.007l-.132-.265c-.537-1.087-.837-2.249-.512-3.49a.7.7 0 0 0 .032-.203l-.002-.016-.038-.008a1.3 1.3 0 0 0-.207-.011q-3.624.02-7.25 0c-.203 0-.262.031-.282.05-.018.017-.053.07-.051.274l-.2.002c-.002-.42.125-.525.534-.525q3.624.018 7.248 0zm.095 5.016c.965-.199 1.717.415 2.528 1.304l-.147.136v-.001c-.431-.472-.828-.846-1.236-1.065-.399-.214-.808-.28-1.281-.132l-.03.01H12.06l-.141.01a.1.1 0 0 0-.05.018c-.002.002-.008.007-.014.025a.4.4 0 0 0-.016.124c.011.98.006 1.96 0 2.938 0 .09.014.136.03.163.014.022.044.054.125.085l-.071.185c-.192-.073-.266-.184-.281-.356l-.003-.078c.006-.98.011-1.959 0-2.937 0-.314.148-.378.42-.378.511.008 1.015 0 1.773 0zM17.901.871A3.13 3.13 0 0 1 21 4.35a5.4 5.4 0 0 1-.693 2.078l-.222.365a11.6 11.6 0 0 1-1.901 2.294l-.136-.146a11.4 11.4 0 0 0 2.086-2.614 5.2 5.2 0 0 0 .668-2 2.93 2.93 0 0 0-2.748-3.25L17.9 1.07a2.95 2.95 0 0 0-2.286 1.067 2.94 2.94 0 0 0-.62 2.445c.359 1.824 1.5 3.154 2.81 4.444a.2.2 0 0 0 .074.054h.004a.2.2 0 0 0 .056-.039c.032-.027.063-.057.107-.1l.003-.002.136.146c-.158.151-.293.308-.52.084l-.486-.49c-1.111-1.155-2.055-2.408-2.38-4.059A3.142 3.142 0 0 1 17.9.871m5.453 5.701c.006.277-.055.42-.37.41-.614-.016-1.227 0-1.84 0-.242.006-.38-.027-.225-.316l.177.095-.01.021h.059c.605 0 1.227-.016 1.843 0h.002a.4.4 0 0 0 .123-.011l.017-.007.002-.002a.1.1 0 0 0 .014-.044.7.7 0 0 0 .008-.14zm-.199-2.508c0-.399 0-.681-.023-.887-.024-.21-.066-.292-.11-.332-.043-.04-.129-.077-.34-.085a9 9 0 0 0-.889.04l-.007.002h-.089c.429 1.427.055 2.737-.601 3.959l-.177-.095c.648-1.207 1-2.468.58-3.835h-.001c-.052-.17.02-.23.175-.23h.105c1.577-.114 1.578-.114 1.578 1.463V4.8v-.002c0 .596-.01 1.19-.003 1.774l-.199.005v-.002c-.008-.584.001-1.185.001-1.775zm-9.02-2.325v.2L.737 1.933v-.2q6.7 0 13.4.006M17.875.2c-.553 0-1.1.122-1.6.358l-.185.092c-.425.23-.803.539-1.112.912-.238.293-.482.377-.841.377v-.2c.165 0 .286-.02.387-.062a.8.8 0 0 0 .298-.241l.002-.001A3.96 3.96 0 0 1 17.874 0zm0-.2a3.96 3.96 0 0 1 3.052 1.435l-.154.127A3.8 3.8 0 0 0 19.659.65l-.184-.092A3.8 3.8 0 0 0 17.874.2z"/></svg>