<svg xmlns="http://www.w3.org/2000/svg" width="14" height="15" viewBox="0 0 14 15"><path stroke-width="0.2" d="M7.201 6.028C7.05 7.042 6.924 7.9 6.792 8.755c-.03.19.066.235.228.264.283.05.394.246.272.497-.088.181-.047.324-.01.496.12.555-.183 1.155-.731 1.265-.432.087-.47.299-.511.661-.204 1.761-1.82 2.952-3.497 2.612-1.776-.363-2.82-2.069-2.316-3.793.123-.438.354-.838.67-1.165.18-.186.383-.361.622-.129.209.21.07.409-.092.59a2.27 2.27 0 0 0-.58 1.931c.178 1.218 1.323 2.053 2.582 1.886 1.166-.157 2.04-1.295 1.925-2.47-.033-.329-.158-.325-.4-.215-.507.23-1.019.45-1.53.668-.473.203-.642.105-.696-.39-.135-1.298-.298-2.594-.382-3.895-.035-.554-.418-.766-.745-1.059-.155-.14-.286.042-.418.105-.23.104-.446.139-.577-.127-.132-.265.04-.407.24-.496.404-.178.522-.332.209-.772-.541-.758-.266-1.767.543-2.261a81 81 0 0 1 2.258-1.312.64.64 0 0 0 .38-.554 1.084 1.084 0 0 1 1.14-.99 1.1 1.1 0 0 1 1.044.988 1.045 1.045 0 0 1-.928 1.181c-.298.044-.39.142-.341.427.053.305.086.614.134.968.45-.226.761-.58 1.13-.852.209-.154.418-.314.627-.044.189.24.01.41-.165.573-.732.677-.732.68-.012 1.396l.037.037c.273.268.504.655.835.772.391.14.569-.39.879-.58 1.1-.67 2.532-.614 3.521.19a2.986 2.986 0 0 1-1.953 5.303 2.95 2.95 0 0 1-2.768-2.09c-.062-.2-.169-.433.048-.575.39-.255.497.037.61.347.428 1.18 1.442 1.776 2.62 1.56.973-.18 1.681-.947 1.818-1.967a2.277 2.277 0 0 0-3.88-1.863c-.284.28-.219.442.07.646.425.3.915.418 1.4.547.261.071.558.141.462.495s-.393.235-.65.192C8.826 7.571 7.995 6.968 7.2 6.028Zm-5.576-2.27c.948.322 1.045.313 1.703-.071.194-.113.376-.26.583-.337.587-.215.669-.597.405-1.16zm4.422 4.406.116-.028.383-2.42c.018-.117.073-.25-.058-.333-.13-.083-.225.037-.324.091-.244.134-.48.281-.731.418-.156.084-.255.182-.177.372zM5.581 9.19c.022-.105.045-.14.035-.164q-.338-.848-.68-1.695c-.253-.626-.897-.782-1.421-.342-.128.104-.135.176-.019.283.688.63 1.373 1.262 2.085 1.918Zm-2.331.522c.02.224.031.378.049.533.098.844.104.852.871.496.256-.12.715-.144.712-.407 0-.364-.417-.555-.73-.732a3 3 0 0 0-.432-.17c-.33-.113-.56-.101-.47.282zm1.086-3.825c-.696-.89-1.662-1.23-2.77-1.327.164.618 1.158 1.113 2.77 1.329zm-.744-1.529c.38.236.75.37.98.627.3.339.545.35.857.085.132-.113.434-.105.37-.355-.056-.215-.268-.274-.51-.234-.261.043-.523-.068-.59-.321-.114-.453-.322-.273-.549-.137zM5.31.807c-.236.043-.376.177-.364.418a.347.347 0 0 0 .376.348c.241 0 .4-.143.394-.387S5.551.825 5.309.808zm1.283 9.465c0-.253-.132-.396-.374-.405a.343.343 0 0 0-.384.33c-.024.241.096.403.34.424s.38-.115.418-.348zM3.15 7.922c-.041.73-.041.737.817.744z"/></svg>