<svg xmlns="http://www.w3.org/2000/svg" width="24" height="24" viewBox="0 0 24 24"><path d="M11.945 23.999H2.191C.76 23.999 0 23.241 0 21.817V3.872c0-1.389.772-2.165 2.158-2.175.886-.005 1.773-.023 2.658.009.428.015.557-.137.51-.536a3.3 3.3 0 0 1 0-.626C5.35.222 5.535.022 5.854 0c.32-.02.51.182.588.484q.021.13.017.26c.032.951.03.951 1.01.951 1.148 0 2.296-.02 3.443.01.449.012.588-.141.539-.565a2.7 2.7 0 0 1 .015-.675.5.5 0 0 1 .532-.466c.299 0 .482.175.536.47q.021.156.016.313c.017.914.017.914.957.914 1.199 0 2.4-.011 3.598.008.342.005.468-.105.436-.443a3.2 3.2 0 0 1 .008-.73c.044-.332.241-.554.595-.53.313.022.494.226.521.546v.104c.06 1.044.06 1.044 1.137 1.044.712 0 1.425-.01 2.137 0 1.27.026 2.058.823 2.058 2.076v18.154c0 1.284-.798 2.07-2.093 2.072q-4.98.005-9.959.001m.053-15.44c-3.443 0-6.886.009-10.329-.01-.44 0-.546.126-.545.554.015 4.244.008 8.487.01 12.735 0 .78.245 1.023 1.032 1.023H21.83c.784 0 1.03-.244 1.03-1.024 0-4.243-.005-8.486.011-12.73 0-.43-.11-.555-.548-.553-3.439.017-6.882.006-10.325.006m0-1.134c3.458 0 6.916 0 10.373.01.389 0 .505-.105.496-.493-.028-1.06 0-2.122-.012-3.182 0-.64-.281-.92-.925-.93-.73-.01-1.46 0-2.191 0-1.032 0-1.032 0-1.068 1.006v.156c-.025.327-.216.522-.528.542-.347.021-.55-.193-.593-.53a2.5 2.5 0 0 1-.007-.626c.053-.418-.082-.574-.533-.56-1.13.033-2.26.01-3.388.01-1.032 0-1.032 0-1.07 1.01 0 .07 0 .14-.01.208-.043.302-.232.48-.522.49a.51.51 0 0 1-.564-.494 3.4 3.4 0 0 1-.01-.73c.045-.404-.124-.499-.505-.493-1.267.022-2.536.009-3.805.009-.679 0-.678 0-.68.657a4 4 0 0 1-.01.522c-.04.313-.23.522-.548.529-.335 0-.552-.197-.572-.55a6 6 0 0 1 0-.731c.022-.3-.06-.44-.397-.432-.956.018-1.912 0-2.867.009-.641.007-.916.292-.92.94-.008 1.043.02 2.087-.013 3.13-.015.446.127.545.553.543 3.439-.023 6.88-.016 10.316-.016zm.065 5.987c-.15.166-.29.345-.455.495a.5.5 0 0 1-.71.016c-.246-.21-.312-.498-.104-.741.522-.609 1.044-1.211 1.618-1.769.313-.305.783-.104.885.324q.033.18.023.363v7.252q.008.157-.017.313c-.065.313-.255.494-.584.476-.303-.017-.473-.198-.512-.494a3 3 0 0 1-.01-.417v-5.77z"/></svg>