<svg xmlns="http://www.w3.org/2000/svg" width="24" height="17" viewBox="0 0 24 17"><path stroke-width="0.5" d="M7.928 3.891c.696-2.44 2.102-3.66 4.132-3.64 1.965.02 3.368 1.27 4.01 3.646.086-.244.142-.414.203-.582.479-1.29 1.406-2.06 2.769-2.172 1.254-.102 2.267.449 2.9 1.537.684 1.171.606 2.353-.202 3.439-.28.374-.257.476.159.686 1.398.705 2.083 1.88 2.098 3.441.018 1.916.017 1.917-1.831 2.525a6.8 6.8 0 0 1-1.493.346c-.305.028-.548-.072-.596-.391s.155-.5.453-.55a8.1 8.1 0 0 0 2.102-.613c.178-.082.4-.134.4-.394 0-.73.094-1.475-.24-2.164-.412-.852-1.06-1.44-2.022-1.554a14.7 14.7 0 0 0-2.994-.008 2.4 2.4 0 0 0-.761.224c-.78.353-.79.472-.202 1.091a4.63 4.63 0 0 1 1.326 3.048c.024.533-.056 1.075.021 1.6.134.87-.28 1.254-1.035 1.571-3.611 1.518-7.167 1.453-10.707-.223-.422-.2-.604-.452-.57-.922.037-.534.014-1.068 0-1.601-.024-1.467.478-2.705 1.568-3.674.363-.323.245-.467-.061-.683-1.01-.712-4.268-.696-5.266.036-.9.665-1.422 2.231-1.117 3.303.069.24.266.289.436.366a7.5 7.5 0 0 0 1.975.579c.315.046.584.182.54.545-.05.4-.363.45-.706.4-1.021-.15-1.972-.515-2.895-.963a.47.47 0 0 1-.303-.408c.012-1.037-.152-2.088.303-3.087a3.72 3.72 0 0 1 1.878-1.9c.267-.124.4-.19.157-.504-.893-1.128-1.01-2.359-.267-3.6.646-1.077 1.664-1.62 2.917-1.492C6.49 1.3 7.42 2.18 7.82 3.613c.017.062.05.12.11.278Zm4.076 4.395c-.534 0-1.067-.019-1.6 0a3.76 3.76 0 0 0-3.577 3.618c-.015.444.029.893-.02 1.334-.055.513.174.748.624.934 2.885 1.176 5.784 1.24 8.708.168 1.055-.389 1.05-.4 1.05-1.495 0-.311 0-.622-.009-.934a3.76 3.76 0 0 0-3.575-3.622c-.534-.023-1.068-.003-1.601-.003Zm3.05-4.048a3.051 3.051 0 1 0-6.103.036c.01 1.645 1.435 3.058 3.07 3.045s3.05-1.436 3.033-3.08ZM4.777 6.41A2.163 2.163 0 0 0 6.91 4.222c-.02-1.171-1.034-2.166-2.194-2.145-1.16.022-2.168 1.055-2.148 2.205A2.194 2.194 0 0 0 4.777 6.41Zm14.477 0a2.197 2.197 0 0 0 2.182-2.152 2.24 2.24 0 0 0-2.171-2.182 2.213 2.213 0 0 0-2.172 2.176 2.165 2.165 0 0 0 2.161 2.16zm-9.784.953a4.5 4.5 0 0 1-1.514-2.875c-.147.44-.203.705-.32.934-.193.385-.667.827-.579 1.107.098.317.743.426 1.043.73.419.428.803.49 1.37.104Zm5.004.073c.479.06.768.435 1.127.075.341-.35.75-.627 1.2-.815.2-.082.32-.176.122-.378-.455-.462-.638-1.067-.888-1.828-.147 1.252-.687 2.124-1.562 2.946z"/></svg>