<svg xmlns="http://www.w3.org/2000/svg" width="22" height="24" viewBox="0 0 22 24"><path d="M.003 13.008c0-.678-.007-1.357 0-2.035.02-1.512.571-2.283 2.009-2.713.354-.104.3-.337.313-.557.115-1.973.871-3.663 2.191-5.113C6.656.24 10.15-.616 13.24.459c3.018 1.05 5.227 3.887 5.416 7.021.031.51.178.73.682.884.953.282 1.536.985 1.608 1.977.13 1.786.13 3.58 0 5.365-.081 1.108-.776 1.8-1.836 2.08-.319.083-.435.22-.44.522a4 4 0 0 1-.053.57c-.402 2.463-1.742 3.628-4.434 3.861q-.26.03-.521.028c-.332-.013-.49.104-.53.465-.053.479-.392.74-.86.751a62 62 0 0 1-2.869 0c-.552-.01-.903-.362-.934-.922a13 13 0 0 1 0-1.461c.035-.568.367-.895.94-.908.938-.022 1.878-.019 2.817 0 .521.01.866.287.903.821.024.345.172.384.467.354.73-.074 1.456-.13 2.147-.395 1.265-.485 2.208-2.044 2.042-3.34-.037-.285-.23-.208-.384-.217-.903-.044-.928-.066-.93-.967V9.071c0-.82.067-.904.887-.902.342 0 .442-.093.424-.443C17.596 4 14.547 1.067 10.654.89 7.1.72 3.775 3.523 3.304 7.095q-.015.13-.034.258c-.099.75-.099.76.642.794.434.019.626.222.626.652v8.453c0 .457-.194.679-.658.663-.573-.02-1.148.043-1.718-.061-1.229-.22-2.004-1-2.106-2.24-.07-.864-.013-1.737-.013-2.61zm3.61.022v-3.026c0-.996 0-.996-1.02-.948-.972.046-1.638.6-1.661 1.522a101 101 0 0 0 0 4.904c.019.794.54 1.316 1.323 1.46.271.049.555.022.835.054.403.047.548-.093.537-.516-.028-1.155-.01-2.302-.01-3.45zm13.782 0c0 1.164.01 2.33-.007 3.494 0 .357.098.522.47.478.21-.023.418 0 .627-.017.939-.076 1.551-.626 1.58-1.554a98 98 0 0 0 .016-4.8c-.012-.823-.512-1.344-1.334-1.5-.288-.054-.59-.028-.882-.061-.363-.043-.481.094-.475.462.02 1.164.008 2.33.008 3.496zm-6.6 10.04h.418c1.121 0 1.112 0 1.057-1.113-.013-.27-.105-.364-.367-.36-.73.01-1.452 0-2.179 0-.153 0-.343-.02-.342.208 0 .395-.14.845.065 1.166.155.242.58.065.883.09.155.018.317.007.468.007z"/></svg>