<svg xmlns="http://www.w3.org/2000/svg" width="24" height="18" viewBox="0 0 24 18"><path stroke-width="0.5" d="M22.8 4.638c-1.312.019-2.627.007-3.936.007-.194 0-.32 0-.409.01-.087.01-.093.025-.083.016s-.005-.008-.018.084c-.014.09-.02.219-.027.416-.004.125-.012.307-.086.46a.54.54 0 0 1-.195.224.6.6 0 0 1-.31.091.6.6 0 0 1-.322-.062.53.53 0 0 1-.216-.211c-.088-.155-.103-.341-.103-.48 0-.078-.011-.236.002-.363a.4.4 0 0 0-.003-.128l-.006-.014s-.01-.01-.045-.018a1 1 0 0 0-.064-.01l-.093-.005q-3.918.005-7.835.005l-7.834-.005c-.156 0-.188.027-.188.027.008-.007-.023.012-.02.169q.025 1.437 0 2.873c0 .115.023.153.036.17.018.022.06.056.18.1 1.094.385 1.73 1.296 1.732 2.407.003 1.117-.627 1.994-1.738 2.395-.126.045-.163.08-.176.099-.011.016-.032.055-.03.176v.001c.015.895.038 1.804-.007 2.713-.012.245.037.292.047.3.027.023.104.052.343.05 2.55-.023 5.098-.012 7.643-.012h7.753q.126 0 .196-.01a.2.2 0 0 0 .073-.022s.005-.003.012-.023a.5.5 0 0 0 .016-.164l-.022-.24a1.4 1.4 0 0 1 .002-.318.6.6 0 0 1 .173-.35.62.62 0 0 1 .429-.154.67.67 0 0 1 .453.138c.123.104.173.24.192.358.02.115.014.234.007.33-.007.106-.015.178-.015.247 0 .072.004.12.011.153.007.031.014.038.012.036-.01-.011.003.022.16.02 1.443-.017 2.886-.014 4.328 0a.8.8 0 0 0 .156-.013l.032-.01.008-.003v-.001l.008-.019a.5.5 0 0 0 .012-.14 84 84 0 0 1 0-2.869c0-.12-.02-.16-.033-.176-.015-.02-.052-.055-.177-.099-.546-.196-.977-.505-1.271-.919-.295-.414-.441-.918-.447-1.483v-.001c-.009-1.027.554-1.896 1.523-2.33l.2-.08c.129-.049.174-.09.194-.119.02-.027.04-.078.038-.204l-.012-1.38q-.002-.69.012-1.381v-.001c.005-.18-.029-.218-.033-.222-.005-.005-.046-.039-.23-.036ZM21.367 1.57c-.004-.001-.044-.02-.185.004-1.11.185-2.225.339-3.333.5h-.001c-.234.032-.39.055-.503.082s-.136.051-.139.055c-.001.001-.02.022-.027.129-.008.108 0 .258.01.485a.84.84 0 0 1-.077.433.5.5 0 0 1-.186.2c1.503 0 3.017-.013 4.521.01l.116-.004a.4.4 0 0 0 .07-.012q.015-.005.02-.009l.002-.02a1 1 0 0 0-.003-.071l-.016-.109c-.1-.503-.174-1.012-.229-1.518v-.001c-.013-.11-.034-.146-.04-.154Zm-5.526.807a1 1 0 0 0-.21.015c-2.143.337-4.291.65-6.434.97l-.662.097h7.727a.5.5 0 0 1-.08-.066.8.8 0 0 1-.19-.41 1.7 1.7 0 0 1-.057-.372v-.02a.5.5 0 0 0-.016-.176l-.01-.021q-.002-.002-.003-.002c-.002-.002-.018-.012-.065-.015Zm8.408 5.701c0 .217-.017.46-.15.653-.142.209-.376.307-.67.341h-.001a1.29 1.29 0 0 0-1.149 1.286v.008a1.305 1.305 0 0 0 1.029 1.315l.12.02.008.001.19.041a.78.78 0 0 1 .435.29c.1.14.138.305.15.472l.004.167a113 113 0 0 0 0 3.7c.005.29-.042.559-.235.745-.142.138-.33.197-.534.217l-.208.009c-3.756-.017-7.52-.01-11.283-.01H.831c-.19 0-.355-.003-.49-.024a.67.67 0 0 1-.388-.176.68.68 0 0 1-.172-.389 4 4 0 0 1-.023-.496c0-1.2.01-2.395-.007-3.592-.004-.24.034-.471.184-.652s.374-.264.625-.3l.008-.002a1.3 1.3 0 0 0 1.158-1.325v-.009a1.294 1.294 0 0 0-1.14-1.297H.583c-.26-.036-.485-.121-.633-.308-.143-.183-.173-.413-.17-.64l.01-1.88q.001-.94-.015-1.877c-.005-.274.053-.515.224-.694.166-.174.399-.246.642-.282Q9.833 2.04 19.02.666c.814-.122 1.622-.233 2.425-.384.254-.047.523-.059.74.078.228.145.32.404.35.699.033.336.085.672.139 1.015.053.341.108.69.141 1.043.019.187.053.247.076.27.015.015.066.052.252.049l.282-.002q.13.001.235.015c.14.019.288.06.4.177a.68.68 0 0 1 .17.4c.017.139.019.313.019.513zm-10.306 3.434a.66.66 0 0 1-.098.369.54.54 0 0 1-.27.208 1 1 0 0 1-.272.05c-.08.004-.167.002-.228.002H4.881c-.064 0-.15.001-.23-.004a1 1 0 0 1-.274-.053.53.53 0 0 1-.267-.213.66.66 0 0 1-.09-.373.6.6 0 0 1 .105-.347c.071-.1.166-.16.259-.193.165-.06.366-.052.476-.052h8.25c.113 0 .313-.007.479.057a.53.53 0 0 1 .257.198c.068.1.096.22.097.348zm-.86 1.631c.06 0 .149-.002.227.002.082.003.18.013.274.046.098.035.2.098.273.208a.64.64 0 0 1 .094.374.65.65 0 0 1-.112.37.54.54 0 0 1-.28.197 1 1 0 0 1-.274.04c-.074.002-.168-.001-.222-.001H4.746a.96.96 0 0 1-.446-.105.56.56 0 0 1-.28-.49.66.66 0 0 1 .065-.32.53.53 0 0 1 .208-.219c.156-.09.343-.101.481-.101zm.031-4.474c.115 0 .314-.006.479.058a.54.54 0 0 1 .254.199.63.63 0 0 1 .1.343.6.6 0 0 1-.087.35.53.53 0 0 1-.25.207c-.166.068-.366.064-.481.064h-.002a1749 1749 0 0 0-4.205-.005H4.885c-.057 0-.146.002-.224-.001a1 1 0 0 1-.273-.046.53.53 0 0 1-.275-.213.65.65 0 0 1-.088-.38.6.6 0 0 1 .113-.344.54.54 0 0 1 .262-.185c.165-.057.366-.047.472-.047zM8.793 6.412c.117 0 .304 0 .46.07.088.04.172.102.232.2.06.095.086.205.088.322a.63.63 0 0 1-.073.326.5.5 0 0 1-.224.21c-.157.078-.344.082-.467.082H4.777c-.12 0-.31-.002-.467-.081a.5.5 0 0 1-.225-.219.6.6 0 0 1-.06-.335.6.6 0 0 1 .1-.31.54.54 0 0 1 .23-.191c.155-.07.335-.07.461-.067v-.001l2.016-.006zm8.946.173c.193.012.35.096.452.242a.8.8 0 0 1 .127.432v.008c0 .36-.004.715-.004 1.07v1.07a.8.8 0 0 1-.146.466.59.59 0 0 1-.507.217h-.002a.56.56 0 0 1-.462-.248.7.7 0 0 1-.108-.328l-.006-.106q-.008-1.066 0-2.136c0-.152.03-.328.14-.469a.57.57 0 0 1 .434-.218zm-.007 4.125a.57.57 0 0 1 .485.28c.086.146.103.318.103.456v.001l-.005 1.007c0 .348.006.71 0 1.067a.77.77 0 0 1-.136.464.6.6 0 0 1-.502.232h-.007a.56.56 0 0 1-.468-.245.8.8 0 0 1-.118-.427v-.004q-.01-1.068 0-2.134c0-.15.03-.325.133-.468a.57.57 0 0 1 .515-.23Z"/></svg>