<svg xmlns="http://www.w3.org/2000/svg" width="24" height="24" viewBox="0 0 24 24"><path stroke-width="0.1" d="M6.515 2.95a.92.92 0 0 1 .6.207.63.63 0 0 1 .233.547.98.98 0 0 0 .142.643c.11.175.272.324.454.483l.251.205c1.272.97 2.74 1.11 4.304.925.94-.108 1.887-.272 2.846-.272 1.748 0 3.189.678 4.364 1.95.053.058.115.125.147.199q.027.057.024.126a.3.3 0 0 1-.049.14.3.3 0 0 1-.225.152.5.5 0 0 1-.254-.06c-.983-.496-1.96-.366-2.943.04l-.137.057q-.26.116-.499.273c-.77.508-1.795 1.215-2.832 1.867-1.036.65-2.09 1.25-2.917 1.539-.803.28-1.618.36-2.446.101a.6.6 0 0 0-.119-.027q-.044-.004-.058.007c-.009.005-.018.016-.026.042a.4.4 0 0 0-.012.123q.013.784 0 1.566c0 .084.012.128.035.155.024.028.067.05.159.067.426.076.735.222.935.465s.287.574.287 1.007l.011 1.253c.003.419 0 .837-.02 1.254-.04.858.084 1.668.45 2.442q.074.158.092.273a.28.28 0 0 1-.037.205.3.3 0 0 1-.178.112q-.117.03-.29.029v-.001c-.889.005-1.774-.007-2.66.006-.164.002-.303-.029-.394-.111q-.14-.131-.096-.382c.075-.432.02-.796-.136-1.112a2.1 2.1 0 0 0-.517-.644l-.24-.19c-.484-.349-.688-.841-.637-1.442.013-.15.012-.303.01-.457-.003-.153-.008-.31-.004-.465a1.35 1.35 0 0 1 1.27-1.3l.09-.012c.078-.016.12-.042.145-.077.036-.049.049-.126.049-.258-.006-2.66-.005-5.321-.005-7.982v-.353c-.002-.843-.008-2.318.005-2.555.026-.456.374-.755.828-.76Zm-.066 17.117a.17.17 0 0 0-.17.166v.001c-.002.077.013.119.035.143s.062.04.14.041h.94c.29 0 .573.008.857-.005.033-.002.071.004.103.009a.5.5 0 0 0 .087.007q.035-.004.043-.015c.007-.008.018-.028.016-.075a.4.4 0 0 0-.05-.189c-.03-.047-.081-.082-.172-.083zm1.49-5.245c-.158-.147-.335-.239-.513-.167a.12.12 0 0 0-.063.053.2.2 0 0 0-.017.084q0 .053.01.112c.005.038.011.08.013.117l.001.137c-.009.129-.047.23-.123.299-.1.092-.251.12-.438.11-.426-.017-.855-.005-1.286 0-.27.003-.455.066-.574.187-.119.12-.181.309-.185.583-.005.307.012.628-.005.941-.02.336.11.578.355.818q.148.141.31.275c.106.09.214.182.315.278.204.194.387.415.49.707q.015.04.036.056a.1.1 0 0 0 .053.023.4.4 0 0 0 .078.005h.043l.045-.002h.001c.466.006.94-.01 1.41.005.118.006.177-.014.208-.048.032-.034.048-.097.045-.213-.014-.639-.005-1.278-.005-1.914V15.39c0-.224-.043-.419-.204-.568ZM6.518 3.568c-.075 0-.125.023-.158.059a.25.25 0 0 0-.056.167c-.01.285-.006 2.745-.002 3.034v7.75c0 .036-.005.075-.008.109a1 1 0 0 0-.004.097q.002.045.02.076.008.016.024.032l.041.029h.003a.23.23 0 0 0 .35-.204V3.8a.27.27 0 0 0-.053-.17c-.031-.036-.08-.061-.156-.063Zm.892 1.626a.15.15 0 0 0-.05.107q-.001.036.003.078.006.042.007.088c-.004 1.852.006 3.705-.01 5.556-.002.143.024.233.075.296.05.064.132.109.256.147.897.27 1.752.12 2.592-.25 1.183-.525 2.206-1.306 3.278-2.028.218-.147 1.447-.895 1.935-1.193a.9.9 0 0 1 .188-.111 5.7 5.7 0 0 1 2.518-.67 4.4 4.4 0 0 0-2.4-.872h-.001c-1.073-.072-2.12.104-3.182.24-1.926.247-3.721-.01-5.209-1.388Z"/></svg>