<svg xmlns="http://www.w3.org/2000/svg" width="50" height="50" viewBox="0 0 50 50"><path d="M25 3.125C12.92 3.125 3.125 12.92 3.125 25S12.92 46.875 25 46.875 46.875 37.08 46.875 25 37.08 3.125 25 3.125m10.513 16.49c.014.229.014.468.014.702 0 7.168-5.459 15.425-15.434 15.425a15.4 15.4 0 0 1-8.33-2.431c.44.048.86.068 1.308.068 2.54 0 4.873-.86 6.734-2.314a5.425 5.425 0 0 1-5.069-3.76c.835.122 1.587.122 2.447-.098a5.42 5.42 0 0 1-4.341-5.322v-.069a5.4 5.4 0 0 0 2.446.689 5.43 5.43 0 0 1-2.417-4.512c0-1.01.264-1.933.737-2.734a15.4 15.4 0 0 0 11.182 5.669c-.767-3.687 1.987-6.67 5.298-6.67 1.562 0 2.969.654 3.96 1.709a10.7 10.7 0 0 0 3.442-1.304 5.4 5.4 0 0 1-2.383 2.983 10.7 10.7 0 0 0 3.125-.844 11.4 11.4 0 0 1-2.72 2.812"/></svg>