<svg xmlns="http://www.w3.org/2000/svg" width="9" height="24" viewBox="0 0 9 24"><path d="M4.507 0h1.044c.477.01.757.27.787.73.029.459.061.906-.262 1.336-.279.37-.105.786.201 1.126.64.707 1.26 1.436 1.914 2.132a2.8 2.8 0 0 1 .785 2.031 728 728 0 0 0 0 6.403c0 .487-.097.968-.286 1.417-.679 1.616-.69 3.242 0 4.855.376.886.339 1.803.235 2.71a1.346 1.346 0 0 1-1.362 1.204c-.91.013-1.841.168-2.694-.359-.294-.181-.642-.09-.948.075-.9.489-1.867.342-2.803.222-.664-.08-1.074-.65-1.1-1.335-.036-.97 0-1.913.386-2.855.563-1.38.528-2.826-.011-4.22-.267-.677-.4-1.399-.391-2.127q.033-2.992 0-5.986a2.78 2.78 0 0 1 .78-2.026c.651-.7 1.277-1.42 1.91-2.135.406-.458.407-.776.105-1.295C2.517 1.425 2.557.9 2.74.4c.104-.281.373-.396.677-.397zM.837 20.601c.195.014.33.029.464.033.259.008.521.037.509.374-.01.296-.256.376-.49.333-.604-.11-.657.227-.61.682.018.189 0 .383.023.571.036.303.215.576.497.602.787.071 1.597.238 2.35-.153.51-.264 1.057-.397 1.545-.11.772.452 1.584.312 2.389.312.467 0 .72-.303.752-.767.015-.224-.018-.454.01-.677.046-.372-.105-.463-.465-.459-1.46.02-2.922.008-4.383.008q-.209.007-.417-.009c-.215-.023-.367-.142-.362-.366 0-.198.15-.306.343-.328q.209-.017.418-.011c1.425 0 2.85-.009 4.278 0 .345 0 .464-.044.313-.426-.717-1.813-.684-3.624.08-5.418q.093-.215.156-.44c.094-.353.024-.521-.418-.521-2.121.023-4.241.01-6.365.01-.835 0-.898.096-.594.877q.031.072.065.142c.437.969.585 1.99.554 3.045a7.1 7.1 0 0 1-.643 2.696m7.304-9.925.119-.062V8.819c0-.237-.167-.221-.323-.235-.232-.02-.417-.113-.4-.377.013-.232.192-.312.401-.326.156-.011.325 0 .322-.233-.007-.432.046-.866-.174-1.272-.123-.23-.24-.334-.521-.217a2.09 2.09 0 0 1-2.04-.199c-.707-.473-1.378-.475-2.08 0-.563.382-1.195.45-1.848.277-.579-.152-.75-.058-.851.535-.036.208-.014.416-.042.625-.055.4.124.497.503.492 1.565-.017 3.13-.008 4.695-.007q.235-.005.468.016c.193.022.328.125.33.333a.323.323 0 0 1-.32.344 4 4 0 0 1-.467.017c-1.547 0-3.093.02-4.638-.01-.477-.014-.593.137-.578.586.032.987.007 1.98.013 2.966 0 .143-.06.312.112.465q.844-.73 1.679-1.458c.302-.267.696-.51 1.037-.306.626.371.897-.03 1.24-.384.24-.249.48-.5.736-.735.564-.521 1.148-.521 1.707 0 .323.306.617.64.92.96m-.782-5.201c-.563-.636-1.08-1.216-1.594-1.8-.195-.22-.445-.452-.435-.748.023-.774-.456-.774-1.001-.722a1.4 1.4 0 0 1-.26 0c-.234-.02-.36.065-.357.313.009.503-.252.883-.574 1.239-.505.56-1 1.127-1.522 1.716.55.246 1.014.183 1.442-.105.957-.65 1.9-.648 2.857 0 .429.295.892.356 1.444.107m-.35 7.652h.945c.104 0 .209.015.284-.085.104-.147.01-1.307-.132-1.449-.462-.469-.93-.931-1.397-1.395-.178-.178-.388-.269-.595-.074-.453.43-.888.876-1.33 1.315-.104.104-.133.216-.014.312.715.579 1.11 1.703 2.239 1.376m-5.662-.047h3.686c-.516-.53-.985-1.025-1.474-1.5-.154-.149-.363-.104-.522.034-.537.462-1.068.93-1.69 1.47zM4.499 1.49c.277 0 .553-.013.83 0 .313.016.313-.17.318-.398s-.033-.4-.33-.39q-.774.025-1.559 0c-.301-.01-.43.076-.433.405 0 .347.16.403.445.387.244-.015.487-.003.729-.004"/></svg>