<svg width="347" height="347" viewBox="0 0 347 347" fill="none" xmlns="http://www.w3.org/2000/svg">
<path d="M53.4868 309.253C54.0906 306.866 52.5152 304.479 50.7525 302.757C48.9897 301.036 46.88 299.503 45.9569 297.205C44.4579 293.506 46.415 288.69 43.8749 285.616C42.3828 283.804 39.7109 283.207 38.3923 281.271C37.7788 280.199 37.3694 279.023 37.1848 277.801C35.7473 271.655 32.684 266.007 28.3155 261.451C28.056 266.939 29.276 272.397 31.8479 277.253C32.882 279.196 34.1451 281.084 34.499 283.249C35.0681 286.775 33.111 290.411 34.0063 293.867C35.0195 297.823 39.4819 300.446 39.7179 304.52C39.9122 307.99 36.9419 311.002 37.1709 314.444C37.3552 315.916 37.8881 317.322 38.7255 318.546C41.4182 322.96 45.3462 325.986 51.273 325.854L58.5392 326.069L53.4868 309.253Z" fill="#F5F5F5"/>
<path d="M60.0099 326.222C60.6742 326.321 61.3508 326.302 62.0086 326.166C62.813 326.043 63.6033 325.84 64.3682 325.562C65.4201 325.188 66.4027 324.641 67.276 323.945C67.7957 323.515 68.2029 322.965 68.4628 322.342C68.6789 321.638 68.7888 320.906 68.789 320.17C68.7986 319.383 68.8519 318.598 68.9486 317.817C69.0862 316.989 69.3832 316.194 69.823 315.478C70.6697 313.966 72.0855 312.536 72.5296 310.489C72.9738 308.441 72.6476 306.325 72.3006 304.125C71.9536 301.925 71.6066 299.579 72.4325 297.303C73.2583 295.026 74.7782 292.965 75.5555 290.397C76.3327 287.83 75.951 285.033 76.1037 282.284C76.1473 280.891 76.4607 279.519 77.0267 278.245C77.6097 276.955 78.4147 275.74 79.0463 274.387C80.3163 271.611 80.5245 268.536 80.8646 265.497C81.0265 263.965 81.1907 262.418 81.3573 260.854C81.4577 259.281 81.7205 257.723 82.1415 256.204C82.6205 254.67 83.1906 253.166 83.8488 251.7C84.1914 250.94 84.47 250.153 84.6816 249.347C84.7994 248.519 84.8735 247.685 84.9036 246.849C84.9717 245.168 84.8974 243.485 84.6816 241.817C84.4734 240.145 84.1611 238.486 83.9876 236.807C83.9876 236.703 83.9876 236.605 83.9876 236.515L83.9459 236.182L83.6475 236.335C82.1121 237.127 80.7798 238.262 79.7542 239.652C78.7593 241.014 77.9603 242.509 77.3807 244.094C76.187 247.224 75.7637 250.492 75.1738 253.622C74.5839 256.752 73.7858 259.82 72.2381 262.422C71.447 263.72 70.4962 264.907 69.6565 266.17C68.7623 267.409 68.1554 268.831 67.8798 270.334C67.4634 273.408 69.1776 276.101 68.8375 278.821C68.6763 280.158 68.2315 281.446 67.5328 282.597C66.8805 283.763 66.1448 284.845 65.3814 285.928C64.6366 286.989 63.9908 288.115 63.4521 289.294C62.9467 290.447 62.6506 291.681 62.5777 292.937C62.418 295.387 62.7789 297.712 62.6124 299.877C62.4213 301.968 61.8225 304 60.8496 305.86C59.9821 307.65 59.0174 309.267 58.2055 310.843C57.8025 311.596 57.4389 312.37 57.1159 313.161C56.83 313.905 56.6207 314.677 56.4913 315.465C56.292 316.845 56.292 318.248 56.4913 319.629C56.6867 321.545 57.4071 323.37 58.5733 324.903C58.7488 325.132 58.9464 325.344 59.1632 325.535C59.3071 325.686 59.4678 325.821 59.642 325.937C59.9127 326.138 60.0584 326.229 60.0584 326.229C59.5492 325.815 59.084 325.35 58.6704 324.841C57.5436 323.306 56.853 321.496 56.6717 319.601C56.4987 318.242 56.5221 316.865 56.7411 315.513C56.8683 314.743 57.08 313.989 57.3727 313.265C57.6957 312.483 58.0594 311.718 58.4622 310.974C59.2812 309.42 60.2597 307.803 61.148 305.998C62.1499 304.11 62.7678 302.041 62.9663 299.912C63.1467 297.67 62.7928 295.346 62.9663 292.972C63.0108 291.744 63.274 290.534 63.7436 289.398C64.2807 288.245 64.9194 287.142 65.6521 286.101C66.3808 285.026 67.1581 283.943 67.8312 282.749C68.5693 281.554 69.0426 280.215 69.2192 278.821C69.5524 275.921 67.8312 273.214 68.2754 270.355C68.5462 268.92 69.1342 267.563 69.9965 266.385C70.8154 265.143 71.7801 263.956 72.5921 262.623C74.223 259.945 75.0072 256.815 75.5902 253.678C76.1731 250.541 76.6103 247.293 77.7832 244.232C78.3482 242.689 79.1286 241.234 80.1012 239.909C81.0789 238.572 82.3549 237.481 83.8279 236.723L83.4948 236.536C83.4948 236.633 83.4948 236.73 83.4948 236.834C83.6822 238.528 83.9945 240.193 84.1888 241.845C84.4044 243.487 84.4787 245.145 84.4109 246.8C84.3693 247.605 84.3207 248.459 84.2027 249.222C83.9955 249.999 83.7263 250.758 83.3977 251.492C82.734 252.975 82.1571 254.495 81.6696 256.044C81.2451 257.589 80.98 259.172 80.8784 260.77C80.7188 262.339 80.5523 263.887 80.3926 265.42C80.0595 268.474 79.8513 271.527 78.6229 274.179C78.0192 275.497 77.2349 276.719 76.6173 278.044C76.0354 279.358 75.7125 280.772 75.6665 282.208C75.5208 284.984 75.9025 287.76 75.1599 290.238C74.4173 292.715 72.8489 294.783 72.0577 297.129C71.2665 299.475 71.5858 301.952 71.9467 304.125C72.3075 306.297 72.6754 308.434 72.2173 310.371C71.7593 312.307 70.4337 313.743 69.5662 315.291C69.1153 316.056 68.8226 316.903 68.7057 317.783C68.6108 318.573 68.5622 319.367 68.5599 320.163C68.5635 320.867 68.4654 321.569 68.2685 322.245C68.027 322.842 67.6406 323.369 67.1442 323.779C66.2951 324.471 65.3386 325.019 64.3127 325.403C63.5592 325.689 62.7809 325.905 61.9878 326.048C61.4999 326.137 61.0055 326.186 60.5095 326.194L60.0099 326.222Z" fill="#E0E0E0"/>
<path d="M82.4748 240.526C82.4388 240.593 82.4152 240.666 82.4054 240.742C82.3637 240.915 82.3152 241.13 82.2458 241.401C82.107 241.97 81.9404 242.838 81.6767 243.913C81.413 244.989 80.7467 246.217 80.1915 247.716C79.6363 249.215 79.0256 250.937 78.4912 252.88C77.9568 254.823 77.471 256.974 76.9714 259.278C76.5403 261.741 75.772 264.132 74.6881 266.385C74.0982 267.572 73.432 268.772 72.9115 270.077C72.3967 271.417 72.0517 272.816 71.8843 274.241C71.5357 277.197 71.0307 280.132 70.3714 283.034L66.3601 299.843C65.097 304.992 63.9519 309.635 62.9942 313.549C62.0365 317.463 61.3008 320.628 60.7665 322.814C60.5166 323.883 60.3223 324.723 60.1835 325.333C60.128 325.604 60.0794 325.819 60.0447 326.027C60.0372 326.103 60.0372 326.18 60.0447 326.256C60.08 326.188 60.1057 326.116 60.121 326.041L60.3084 325.389C60.468 324.785 60.6971 323.952 61.0024 322.89C61.5715 320.677 62.3904 317.54 63.3759 313.674C64.3614 309.809 65.5412 305.138 66.8459 299.995C68.1506 294.853 69.3998 289.113 70.8295 283.152C71.4888 280.238 71.9938 277.291 72.3424 274.324C72.4949 272.93 72.8237 271.562 73.3209 270.251C73.8275 268.974 74.4799 267.78 75.0698 266.586C76.1635 264.299 76.9298 261.869 77.3461 259.369C77.8319 257.058 78.29 254.906 78.8105 252.977C79.331 251.048 79.8792 249.313 80.4344 247.82C80.9896 246.328 81.5934 245.086 81.8224 243.969C82.0514 242.851 82.2041 242.005 82.3152 241.422C82.3568 241.158 82.3915 240.936 82.4262 240.762C82.4523 240.686 82.4686 240.607 82.4748 240.526Z" fill="#E0E0E0"/>
<path d="M61.293 326.236C66.0192 323.39 67.3308 314.819 65.3252 309.684C63.3195 304.548 59.8287 299.85 59.2596 294.36C58.8224 290.141 60.1826 285.803 59.1763 281.681C57.7883 276.129 52.3543 271.833 52.389 266.107C52.389 262.894 54.2142 259.861 54.0477 256.655C53.8464 252.72 50.8067 249.611 48.919 246.155C46.025 240.867 45.8029 234.572 44.7897 228.645C43.7765 222.718 41.4724 216.334 36.1772 213.44C35.4276 218.499 34.0952 221.969 34.574 228.812C34.7406 231.269 37.6207 235.96 38.044 241.345C38.2939 244.559 38.4743 247.786 38.6894 251.006C38.9046 254.226 39.1128 257.335 40.2509 260.25C41.1254 262.492 42.5203 264.525 43.1727 266.843C44.4011 271.201 42.8465 275.941 43.8667 280.362C44.7134 284.103 47.3367 287.302 47.878 291.112C48.6553 296.449 45.2269 302.015 47.0244 307.074C47.9196 309.593 50.0086 311.613 50.6124 314.215C51.0843 316.242 50.6124 318.379 51.0218 320.42C51.7158 323.695 57.9618 326.201 61.3138 325.972" fill="#E0E0E0"/>
<path d="M37.5167 218.45C37.5075 218.545 37.5075 218.64 37.5167 218.735C37.5167 218.95 37.5792 219.221 37.6277 219.568C37.7388 220.296 37.8706 221.365 38.1205 222.746C38.3703 224.127 39.1198 225.703 39.7097 227.604C40.2996 229.506 40.9381 231.664 41.4864 234.093C42.0346 236.522 42.5066 239.215 42.9993 242.116C43.492 245.017 44.0264 248.167 45.4838 251.179C46.1778 252.692 46.9135 254.205 47.4825 255.815C48.0448 257.474 48.3969 259.197 48.5305 260.944C48.812 264.641 49.2916 268.319 49.9671 271.965C51.4592 279.446 52.8888 286.539 54.1796 293.055C55.4705 299.572 56.796 305.36 57.8301 310.218C58.8641 315.076 59.7247 319.025 60.3146 321.787L61.0086 324.931C61.0919 325.264 61.1543 325.535 61.2029 325.743C61.2208 325.836 61.2487 325.926 61.2862 326.013C61.2939 325.919 61.2939 325.824 61.2862 325.729C61.2446 325.521 61.196 325.25 61.1335 324.91C60.9878 324.153 60.7865 323.099 60.5228 321.752C59.9676 318.976 59.1348 315.027 58.184 310.149C57.2332 305.27 55.9771 299.426 54.6516 292.958C53.326 286.49 51.9588 279.356 50.4876 271.881C49.8083 268.241 49.3218 264.567 49.0302 260.875C48.8961 259.094 48.537 257.339 47.9614 255.649C47.3784 253.997 46.615 252.477 45.9349 250.978C44.4914 248.015 43.9709 244.913 43.4435 242.025C42.916 239.138 42.4441 236.432 41.8681 233.996C41.3597 231.803 40.7413 229.638 40.0151 227.507C39.4044 225.612 38.6271 224.037 38.3634 222.705C38.0997 221.372 37.9262 220.262 37.7804 219.54C37.718 219.2 37.6624 218.929 37.6277 218.721C37.5984 218.628 37.5612 218.537 37.5167 218.45Z" fill="#EBEBEB"/>
<path d="M145.955 38.3296C150.008 33.6035 160.529 36.5738 167.76 40.4116C167.76 40.4116 172.73 42.7573 174.576 43.9718H174.638L191.516 41.8898C192.888 41.7135 194.281 41.9554 195.514 42.5838L196.902 43.2778C197.058 43.3585 197.188 43.4818 197.277 43.6336C197.366 43.7853 197.411 43.9592 197.405 44.1351C197.399 44.311 197.343 44.4816 197.245 44.6271C197.146 44.7727 197.007 44.8872 196.846 44.9573L184.417 50.2664V50.4191L196.686 58.4834L196.874 58.6013C199.187 60.0851 201.976 60.6403 204.681 60.1559L211.253 58.9761C211.586 58.9128 211.929 58.9416 212.246 59.0594C212.512 59.1675 212.745 59.3425 212.923 59.5674C213.102 59.7922 213.219 60.0593 213.263 60.3428C213.308 60.6263 213.279 60.9165 213.178 61.1853C213.078 61.4541 212.91 61.6923 212.69 61.877L205.056 68.2341C204.473 68.7235 203.763 69.0369 203.008 69.1376C202.254 69.2384 201.486 69.1224 200.795 68.8031L197.228 67.1653L179.184 58.5805L181.266 68.8448C181.28 68.9437 181.272 69.0445 181.244 69.1403C181.215 69.236 181.166 69.3245 181.1 69.3996C181.034 69.4747 180.953 69.5347 180.862 69.5755C180.771 69.6163 180.672 69.6369 180.572 69.6359H179.725C179.157 69.6118 178.604 69.4437 178.118 69.1476C177.633 68.8514 177.231 68.4368 176.949 67.9426L169.683 54.0626L148.391 43.9371C145.553 42.6324 144.539 40.1965 145.955 38.3296Z" fill="#E0E0E0"/>
<path d="M27.7598 83.7727L81.2741 82.586C81.2741 82.586 76.3398 74.0567 62.5986 75.646C49.4681 77.1381 48.6769 71.7179 41.9659 71.2044C35.255 70.6908 29.8001 75.9166 27.7598 83.7727Z" fill="#F5F5F5"/>
<path d="M278.002 112.719H328.421C328.421 112.719 323.966 104.6 310.988 105.779C298.586 106.904 297.961 101.782 291.653 101.157C285.344 100.533 280.098 105.363 278.002 112.719Z" fill="#F5F5F5"/>
<path d="M58.2324 57.2134H96.6939C96.6939 57.2134 93.2933 51.0229 83.3899 51.9251C73.9376 52.7856 73.4588 48.8784 68.6494 48.3926C63.8399 47.9068 59.8356 51.5989 58.2324 57.2134Z" fill="#F5F5F5"/>
<path d="M278.051 138.161H303.208C303.208 138.161 300.987 134.109 294.512 134.691C288.322 135.254 288.01 132.7 284.866 132.387C281.722 132.075 279.099 134.49 278.051 138.161Z" fill="#F5F5F5"/>
<path d="M265.469 68.5116H290.633C290.633 68.5116 288.405 64.4587 281.93 65.0416C275.74 65.6038 275.428 63.0499 272.284 62.7376C269.14 62.4253 266.496 64.8404 265.469 68.5116Z" fill="#FAFAFA"/>
<path d="M329.254 326.277C329.254 326.374 259.209 326.458 172.813 326.458C86.4167 326.458 16.3574 326.374 16.3574 326.277C16.3574 326.18 86.389 326.097 172.813 326.097C259.237 326.097 329.254 326.18 329.254 326.277Z" fill="#263238"/>
<path d="M281.312 203.897C281.262 203.412 281.033 202.963 280.67 202.637C280.307 202.311 279.836 202.132 279.348 202.134H264.531C264.242 202.135 263.957 202.2 263.696 202.324C263.435 202.448 263.204 202.628 263.021 202.852C262.838 203.075 262.707 203.337 262.637 203.617C262.566 203.897 262.559 204.19 262.616 204.473C262.703 204.926 262.948 205.333 263.308 205.622C263.668 205.911 264.119 206.062 264.58 206.049H279.355C279.629 206.048 279.899 205.99 280.149 205.879C280.399 205.768 280.623 205.606 280.807 205.404C280.991 205.202 281.131 204.963 281.218 204.704C281.305 204.444 281.337 204.17 281.312 203.897Z" fill="#263238"/>
<path d="M313.632 321.419C313.496 322.344 313.638 323.289 314.039 324.133C314.44 324.978 315.083 325.684 315.886 326.164C316.689 326.643 317.615 326.873 318.549 326.825C319.483 326.778 320.381 326.454 321.131 325.896C321.881 325.337 322.448 324.569 322.761 323.688C323.075 322.807 323.119 321.853 322.89 320.947C322.661 320.04 322.168 319.222 321.474 318.596C320.779 317.97 319.915 317.564 318.99 317.429C317.75 317.248 316.49 317.567 315.485 318.315C314.48 319.063 313.814 320.18 313.632 321.419Z" fill="#263238"/>
<path d="M317.323 322.134L314.443 316.179L315.956 315.215L318.746 321.433L317.323 322.134Z" fill="#455A64"/>
<path d="M290.633 248.827L272.735 202.128L269.334 203.835L286.677 250.111L290.633 248.827Z" fill="#263238"/>
<path d="M331.96 310.511L305.517 321.017C305.045 321.205 304.518 321.197 304.051 320.996C303.585 320.795 303.217 320.417 303.03 319.945L276.729 253.753C275.735 251.252 275.776 248.459 276.842 245.988C277.907 243.517 279.911 241.571 282.412 240.577L293.556 236.149C296.057 235.155 298.85 235.196 301.321 236.262C303.792 237.327 305.739 239.331 306.732 241.832L333.033 308.023C333.221 308.495 333.213 309.023 333.012 309.489C332.811 309.955 332.432 310.323 331.96 310.511Z" fill="#FB9212"/>
<path d="M303 320.246C303 320.246 302.958 320.108 302.861 319.844L302.424 318.671L300.703 314.167L294.297 297.643C291.569 290.668 288.335 282.375 284.741 273.152L279.084 258.695C278.599 257.446 278.099 256.183 277.606 254.906C277.084 253.657 276.892 252.295 277.051 250.95C277.222 249.58 277.759 248.282 278.606 247.191C279.453 246.101 280.578 245.259 281.863 244.755C283.149 244.25 284.546 244.102 285.909 244.325C287.271 244.548 288.548 245.135 289.605 246.023C290.631 246.904 291.417 248.031 291.889 249.299L293.374 253.095C295.345 258.106 297.246 262.936 299.051 267.544L308.69 292.001C311.466 298.941 313.666 304.569 315.221 308.476L317.012 312.952C317.22 313.445 317.372 313.834 317.49 314.111C317.608 314.389 317.664 314.5 317.664 314.5C317.664 314.5 317.622 314.361 317.525 314.091L317.088 312.918C316.692 311.877 316.109 310.364 315.367 308.421L308.961 291.896L299.405 267.405C297.607 262.797 295.713 257.96 293.749 252.949C293.263 251.693 292.763 250.43 292.263 249.153C291.778 247.809 290.953 246.614 289.869 245.683C288.756 244.746 287.41 244.128 285.974 243.892C284.539 243.656 283.066 243.813 281.711 244.344C280.357 244.876 279.171 245.763 278.279 246.912C277.386 248.061 276.821 249.43 276.642 250.874C276.474 252.289 276.674 253.724 277.224 255.038L278.71 258.862C280.681 263.866 282.582 268.703 284.387 273.304C288.009 282.493 291.278 290.786 294.019 297.726L300.55 314.209L302.347 318.678C302.549 319.178 302.708 319.559 302.826 319.837C302.876 319.977 302.934 320.114 303 320.246Z" fill="#263238"/>
<path d="M301.294 273.207C301.349 273.387 304.805 272.02 309.018 270.167C313.23 268.314 316.596 266.656 316.541 266.482C316.485 266.309 313.022 267.662 308.817 269.522C304.611 271.382 301.238 273.027 301.294 273.207Z" fill="#263238"/>
<path d="M277.905 202.128L274.817 196.02C274.471 195.338 273.893 194.801 273.186 194.507L268.328 192.481L255.239 174.728L254.004 188.324L262.332 196.923C262.332 196.923 267.558 207.929 271.826 207.367C271.72 206.375 271.428 205.412 270.965 204.529C269.577 202.128 271.055 202.128 271.25 202.141H274.824L277.905 202.128Z" fill="#FFBE9D"/>
<path d="M256.537 192.738C256.933 193.328 260.167 197.714 260.167 197.714L269.334 191.044L266.003 187.789L256.537 192.738Z" fill="#FB9212"/>
<path d="M270.992 204.529C270.992 204.529 273.379 205.917 273.678 207.041V207.735L270.818 207.319L270.992 204.529Z" fill="#FFBE9D"/>
<path d="M274.192 205.833C273.768 205.502 273.438 205.067 273.234 204.57C273.142 204.32 273.146 204.044 273.246 203.796C273.346 203.549 273.535 203.347 273.775 203.231C274.268 203.064 274.775 203.418 275.163 203.772C275.651 204.209 276.114 204.672 276.551 205.16C276.758 205.338 276.92 205.562 277.024 205.814C277.127 206.066 277.17 206.339 277.148 206.611C277.084 206.822 276.956 207.008 276.782 207.143C276.608 207.278 276.397 207.357 276.177 207.367C275.955 207.372 275.735 207.331 275.529 207.248C275.324 207.164 275.138 207.04 274.983 206.881C274.674 206.57 274.426 206.202 274.254 205.799" fill="#FFBE9D"/>
<path d="M276.614 205.625C276.19 205.294 275.86 204.859 275.656 204.362C275.564 204.112 275.568 203.836 275.668 203.588C275.768 203.341 275.957 203.139 276.197 203.023C276.69 202.856 277.197 203.21 277.585 203.564C278.073 204.001 278.536 204.464 278.973 204.952C279.18 205.13 279.342 205.354 279.446 205.606C279.549 205.858 279.592 206.131 279.57 206.403C279.506 206.613 279.378 206.799 279.204 206.935C279.03 207.07 278.819 207.148 278.598 207.159C278.377 207.163 278.157 207.123 277.952 207.039C277.746 206.955 277.56 206.831 277.405 206.673C277.096 206.362 276.848 205.994 276.676 205.591" fill="#FFBE9D"/>
<path d="M269.334 195.201C269.334 195.118 269.952 195.146 270.666 195.764C270.999 196.17 271.277 196.618 271.492 197.096C271.815 197.677 271.978 198.333 271.964 198.998C271.865 199.651 271.607 200.27 271.215 200.802C270.949 201.23 270.757 201.699 270.646 202.19C270.545 202.645 270.512 203.113 270.548 203.578C270.428 203.361 270.353 203.122 270.326 202.875C270.3 202.628 270.324 202.379 270.396 202.141C270.479 201.615 270.661 201.109 270.93 200.649C271.283 200.153 271.52 199.584 271.624 198.984C271.632 198.381 271.491 197.785 271.215 197.249C271.032 196.787 270.799 196.348 270.521 195.937C270.282 195.701 270.011 195.5 269.716 195.34C269.591 195.287 269.464 195.241 269.334 195.201Z" fill="#EB996E"/>
<path d="M170.572 132.561L160.842 163.666L189.462 193.557L215.689 186.742L170.572 132.561Z" fill="#F5F5F5"/>
<path d="M170.564 132.554L170.786 132.811L171.446 133.588L174 136.628L183.514 147.975L215.834 186.631L216.014 186.846L215.744 186.915L200.961 190.76L189.517 193.73H189.413L189.344 193.654L160.737 163.784L160.682 163.722V163.645C163.694 154.117 166.164 146.337 167.878 140.924C168.725 138.245 169.391 136.156 169.849 134.726L170.363 133.116C170.481 132.762 170.536 132.582 170.536 132.582C170.203 133.671 166.782 144.796 160.952 163.728L160.918 163.59L189.559 193.432L189.385 193.383L200.83 190.406L215.612 186.561L215.522 186.853L183.493 148.211L174.013 136.76L171.459 133.657L170.765 132.852L170.564 132.554Z" fill="#263238"/>
<path d="M171.459 153.076C171.822 152.511 172.296 152.025 172.852 151.648C173.407 151.27 174.033 151.009 174.693 150.879C175.352 150.75 176.03 150.754 176.687 150.893C177.344 151.032 177.967 151.302 178.517 151.688C180.307 153.076 181.133 155.692 183.285 156.386C184.839 156.886 186.553 156.157 188.143 156.441C190.023 156.782 191.425 158.523 191.967 160.328C192.508 162.132 192.362 164.124 192.21 166.033L182.903 166.157L171.459 153.076Z" fill="#E0E0E0"/>
<path d="M154.248 135.399L214.557 197.547L189.982 195.056L155.608 158.766L154.248 135.399Z" fill="#F5F5F5"/>
<path d="M154.256 135.399C154.311 136.309 154.811 144.303 155.727 158.759V158.683C164.52 167.941 176.547 180.593 190.143 194.938L190.032 194.882L208.888 196.784L214.606 197.367L214.46 197.672C180.926 162.972 155.616 136.78 154.291 135.399L214.717 197.422L215.064 197.776L214.571 197.728L208.846 197.145L189.997 195.229H189.934L189.886 195.188C176.311 180.815 164.319 168.122 155.554 158.857V158.815C154.721 144.31 154.297 136.309 154.256 135.399Z" fill="#263238"/>
<path d="M177.85 160.099C175.99 162.243 176.261 165.651 177.85 168.017C179.439 170.384 182.063 171.814 184.714 172.834C186.858 173.66 189.502 174.18 191.279 172.723" fill="#E0E0E0"/>
<path d="M174.713 156.719C174.824 157.24 174.172 157.628 173.645 157.58C173.117 157.531 172.631 157.233 172.097 157.205C170.646 157.122 169.855 158.843 168.676 159.682C167.964 160.147 167.099 160.317 166.265 160.155C165.431 159.993 164.692 159.512 164.206 158.815C163.415 157.587 163.436 155.768 162.187 155.012C161.451 154.652 160.609 154.576 159.82 154.797C159.039 155.014 158.228 155.098 157.419 155.047C157.016 155.009 156.638 154.835 156.348 154.551C156.059 154.268 155.876 153.894 155.83 153.492L155.392 152.798L154.365 135.642L174.713 156.719Z" fill="#E0E0E0"/>
<path d="M204.104 196.291C204.414 196.369 204.736 196.384 205.051 196.333C205.366 196.282 205.668 196.168 205.937 195.996C206.206 195.824 206.437 195.599 206.616 195.335C206.795 195.071 206.918 194.772 206.977 194.459C207.055 193.77 206.865 193.078 206.448 192.524C206.032 191.971 205.419 191.598 204.736 191.482C203.507 191.322 202.237 192.037 201.058 191.669C199.711 191.246 199.156 189.684 198.816 188.317C198.476 186.95 197.997 185.388 196.692 184.847C194.534 183.972 192.258 186.742 190.002 186.131C188.33 185.68 187.684 183.667 186.372 182.536C185.842 182.086 185.205 181.78 184.522 181.646C183.839 181.513 183.133 181.556 182.472 181.772C181.872 181.919 181.327 182.238 180.904 182.689C180.482 183.14 180.199 183.704 180.092 184.313L190.051 194.813L204.104 196.291Z" fill="#E0E0E0"/>
<path d="M187.616 301.321L185.138 315.603C185.138 315.603 169.787 317.88 169.072 320.461L196.596 326.263L201.371 304.166L187.616 301.321Z" fill="#FB9212"/>
<g opacity="0.6">
<path d="M193.904 316.207C194.151 316.343 194.34 316.566 194.433 316.832C194.527 317.098 194.519 317.39 194.41 317.651C194.283 317.903 194.064 318.097 193.798 318.193C193.532 318.288 193.239 318.278 192.981 318.164C192.718 318.02 192.519 317.783 192.421 317.499C192.324 317.216 192.335 316.906 192.453 316.631C192.613 316.381 192.864 316.203 193.153 316.134C193.441 316.065 193.745 316.112 194.001 316.263" fill="white"/>
</g>
<path opacity="0.6" d="M196.596 326.277L197.096 324.098L170.474 319.337C170.474 319.337 169.141 319.615 169.086 320.503L196.596 326.277Z" fill="white"/>
<path d="M184.721 315.367C184.721 315.506 185.359 315.707 185.928 316.277C186.497 316.846 186.733 317.491 186.865 317.463C186.997 317.436 186.962 316.617 186.261 315.937C185.56 315.256 184.721 315.243 184.721 315.367Z" fill="#263238"/>
<path d="M181.584 315.957C181.529 316.082 182.063 316.429 182.396 317.096C182.729 317.762 182.736 318.386 182.875 318.414C183.014 318.442 183.257 317.72 182.819 316.874C182.382 316.027 181.612 315.826 181.584 315.957Z" fill="#263238"/>
<path d="M179.218 319.067C179.336 319.122 179.662 318.49 179.475 317.679C179.288 316.867 178.719 316.443 178.635 316.547C178.552 316.651 178.857 317.123 179.01 317.79C179.163 318.456 179.086 319.025 179.218 319.067Z" fill="#263238"/>
<path d="M185.651 312.175C185.651 312.314 186.345 312.258 187.087 312.467C187.83 312.675 188.371 313.043 188.475 312.945C188.579 312.848 188.101 312.251 187.219 312.009C186.338 311.766 185.602 312.057 185.651 312.175Z" fill="#263238"/>
<path opacity="0.3" d="M187.13 304.152L186.686 306.693L200.239 309.42L200.739 307.151L187.13 304.152Z" fill="black"/>
<path d="M186.199 309.302C186.628 309.519 187.107 309.617 187.587 309.586C188.105 309.607 188.622 309.56 189.128 309.448C189.424 309.382 189.716 309.298 190.002 309.198C190.176 309.145 190.34 309.066 190.488 308.962C190.594 308.885 190.673 308.776 190.712 308.651C190.751 308.526 190.748 308.391 190.703 308.268C190.654 308.161 190.581 308.066 190.49 307.991C190.398 307.917 190.291 307.864 190.176 307.838C190.003 307.8 189.825 307.788 189.648 307.803C188.813 307.827 187.998 308.066 187.282 308.497C186.518 308.955 186.192 309.406 186.234 309.448C186.276 309.489 186.685 309.149 187.435 308.795C188.132 308.473 188.888 308.299 189.655 308.282C189.961 308.282 190.211 308.316 190.259 308.462C190.308 308.608 190.259 308.539 190.197 308.615C190.086 308.686 189.967 308.745 189.843 308.788C189.574 308.888 189.301 308.973 189.024 309.045C188.551 309.169 188.068 309.248 187.58 309.281C187.12 309.257 186.659 309.264 186.199 309.302Z" fill="#263238"/>
<path d="M186.339 309.524C186.381 309.559 186.749 309.135 186.985 308.275C187.112 307.769 187.154 307.246 187.109 306.727C187.087 306.416 187.029 306.109 186.936 305.811C186.9 305.614 186.814 305.43 186.686 305.276C186.559 305.121 186.394 305.002 186.207 304.93C186.084 304.91 185.957 304.924 185.841 304.971C185.725 305.017 185.624 305.094 185.548 305.193C185.443 305.341 185.359 305.502 185.298 305.672C185.185 305.968 185.12 306.279 185.104 306.595C185.071 307.129 185.169 307.662 185.388 308.15C185.777 308.976 186.304 309.253 186.325 309.212C186.346 309.17 185.971 308.795 185.708 308.018C185.551 307.573 185.494 307.099 185.541 306.63C185.57 306.359 185.636 306.093 185.735 305.839C185.839 305.561 185.999 305.346 186.103 305.402C186.207 305.457 186.429 305.693 186.492 305.95C186.58 306.21 186.645 306.477 186.686 306.748C186.753 307.225 186.753 307.708 186.686 308.185C186.52 309.024 186.27 309.524 186.339 309.524Z" fill="#263238"/>
<path d="M278.057 302.188L272.109 294.416L271.797 294.013L261.637 301.557L271.027 311.87L270.686 322.314C265.454 323.661 264.669 326.277 264.669 326.277H275.538L285.413 307.262L278.057 302.188Z" fill="#FB9212"/>
<path opacity="0.6" d="M285.435 307.248L275.559 326.263L264.691 326.277L265.913 324.639L274.754 324.147L283.867 306.172L285.435 307.248Z" fill="white"/>
<path d="M270.77 317.526C270.854 317.637 271.464 317.283 272.318 317.304C273.172 317.325 273.775 317.679 273.859 317.568C273.942 317.456 273.352 316.873 272.325 316.825C271.298 316.776 270.659 317.443 270.77 317.526Z" fill="#263238"/>
<path d="M270.945 314.937C271.056 315.014 271.535 314.375 272.402 314.202C273.27 314.028 273.964 314.431 274.033 314.32C274.103 314.208 273.95 314.084 273.645 313.917C273.232 313.714 272.765 313.652 272.314 313.743C271.863 313.833 271.455 314.07 271.153 314.417C270.938 314.694 270.889 314.909 270.945 314.937Z" fill="#263238"/>
<path d="M270.874 311.606C270.992 311.669 271.36 311.037 272.116 310.773C272.873 310.51 273.553 310.773 273.608 310.634C273.664 310.496 273.504 310.433 273.199 310.322C272.797 310.178 272.358 310.178 271.957 310.322C271.558 310.467 271.219 310.741 270.992 311.099C270.826 311.384 270.812 311.606 270.874 311.606Z" fill="#263238"/>
<path d="M267.96 309.038C268.092 309.08 268.397 308.462 269.07 308.025C269.743 307.588 270.416 307.525 270.458 307.387C270.5 307.248 269.646 307.074 268.834 307.629C268.022 308.185 267.828 309.024 267.96 309.038Z" fill="#263238"/>
<path d="M266.544 306.803C266.599 306.838 266.953 306.401 267.487 305.665L268.41 304.361C268.618 304.092 268.786 303.795 268.91 303.479C268.947 303.365 268.961 303.245 268.95 303.126C268.94 303.006 268.905 302.891 268.848 302.785C268.781 302.672 268.684 302.58 268.567 302.52C268.451 302.46 268.319 302.434 268.188 302.445C267.806 302.518 267.454 302.702 267.175 302.973C266.908 303.187 266.674 303.439 266.481 303.722C266.172 304.196 265.978 304.736 265.912 305.298C265.798 305.803 265.885 306.333 266.155 306.776C266.158 306.298 266.188 305.821 266.245 305.346C266.348 304.848 266.551 304.376 266.842 303.958C267.013 303.719 267.213 303.502 267.439 303.313C267.652 303.118 267.909 302.977 268.188 302.903C268.229 302.898 268.271 302.905 268.308 302.923C268.345 302.942 268.376 302.971 268.397 303.007C268.433 303.106 268.433 303.214 268.397 303.313C268.284 303.58 268.142 303.834 267.973 304.069C267.696 304.534 267.418 304.985 267.14 305.457C266.871 305.871 266.669 306.326 266.544 306.803Z" fill="#263238"/>
<path d="M266.156 307.13C266.205 307.13 266.156 306.554 265.573 305.901C265.173 305.468 264.642 305.177 264.061 305.072C263.48 304.966 262.881 305.053 262.353 305.318C262.298 305.367 262.254 305.427 262.224 305.494C262.194 305.561 262.179 305.634 262.18 305.707C262.187 305.834 262.233 305.955 262.312 306.054C262.424 306.185 262.555 306.3 262.7 306.394C262.941 306.566 263.2 306.712 263.471 306.831C263.923 307.039 264.406 307.175 264.9 307.234C265.351 307.33 265.821 307.287 266.247 307.109C266.247 307.033 265.733 307.067 264.956 306.901C264.507 306.802 264.073 306.646 263.665 306.436C263.422 306.314 263.19 306.173 262.971 306.012C262.865 305.945 262.769 305.864 262.686 305.77C262.638 305.672 262.686 305.7 262.686 305.672C262.784 305.613 262.892 305.572 263.006 305.554C263.139 305.526 263.273 305.505 263.408 305.492C263.666 305.475 263.925 305.494 264.178 305.547C264.613 305.646 265.016 305.851 265.351 306.144C265.92 306.658 266.08 307.158 266.156 307.13Z" fill="#263238"/>
<path opacity="0.6" d="M276.76 306.922C276.76 307.177 276.835 307.426 276.977 307.639C277.119 307.851 277.321 308.016 277.557 308.114C277.792 308.212 278.052 308.237 278.302 308.188C278.553 308.138 278.783 308.015 278.963 307.834C279.144 307.654 279.267 307.424 279.317 307.173C279.366 306.923 279.341 306.663 279.243 306.428C279.145 306.192 278.98 305.99 278.768 305.848C278.555 305.706 278.306 305.631 278.051 305.631C277.708 305.631 277.38 305.767 277.138 306.009C276.896 306.251 276.76 306.579 276.76 306.922Z" fill="white"/>
<path opacity="0.3" d="M262.602 302.591L264.69 304.888L273.47 296.192L272.248 294.603L262.602 302.591Z" fill="black"/>
<path d="M235.578 121.596C241.386 119.578 247.656 119.293 253.622 120.777C256.266 121.436 258.952 122.533 260.645 124.67C262.651 127.196 262.901 130.639 263.213 133.852C263.84 140.388 265.043 146.855 266.808 153.18C268.279 158.44 270.139 163.59 270.938 169.024C271.736 174.458 271.368 180.211 268.613 184.93C264.365 192.203 255.336 195.417 246.918 195.562C242.49 195.632 237.952 194.986 234.024 192.932C230.096 190.878 226.827 187.29 225.869 182.966" fill="#FB9212"/>
<g opacity="0.5">
<path d="M235.578 121.596C241.386 119.578 247.656 119.293 253.622 120.777C256.266 121.436 258.952 122.533 260.645 124.67C262.651 127.196 262.901 130.639 263.213 133.852C263.84 140.388 265.043 146.855 266.808 153.18C268.279 158.44 270.139 163.59 270.938 169.024C271.736 174.458 271.368 180.211 268.613 184.93C264.365 192.203 255.336 195.417 246.918 195.562C242.49 195.632 237.952 194.986 234.024 192.932C230.096 190.878 226.827 187.29 225.869 182.966" fill="black"/>
</g>
<path d="M247.154 128.258C248.066 129.055 248.875 129.961 249.562 130.958C250.277 132.064 250.903 133.224 251.436 134.428C252.089 135.923 252.838 137.374 253.678 138.772C254.542 140.189 255.731 141.379 257.148 142.242C258.332 142.95 259.726 143.222 261.09 143.013C262.003 142.882 262.859 142.489 263.554 141.881C263.738 141.715 263.901 141.526 264.039 141.319C264.136 141.18 264.178 141.104 264.164 141.097C264.15 141.09 263.928 141.361 263.47 141.743C262.773 142.272 261.946 142.603 261.076 142.7C259.788 142.853 258.486 142.565 257.384 141.881C256.035 141.03 254.902 139.878 254.073 138.515C253.245 137.132 252.496 135.703 251.832 134.234C251.272 133.02 250.605 131.859 249.84 130.764C249.32 130.021 248.701 129.354 248.001 128.779C247.751 128.558 247.464 128.382 247.154 128.258Z" fill="#E0E0E0"/>
<path d="M259.347 193.265C259.365 193.083 259.365 192.899 259.347 192.717C259.347 192.314 259.347 191.801 259.347 191.162C259.347 189.816 259.25 187.859 259.146 185.451C258.931 180.593 258.556 173.958 257.973 166.616C257.39 159.273 256.731 152.624 256.189 147.829C255.912 145.428 255.676 143.485 255.495 142.152C255.412 141.52 255.336 141.007 255.28 140.611C255.263 140.43 255.228 140.251 255.176 140.077C255.155 140.257 255.155 140.438 255.176 140.618C255.211 141.021 255.259 141.534 255.308 142.166C255.447 143.554 255.634 145.497 255.856 147.857C256.321 152.666 256.939 159.308 257.515 166.65C258.091 173.993 258.521 180.648 258.813 185.465C258.958 187.831 259.076 189.767 259.16 191.169L259.271 192.724C259.28 192.906 259.306 193.087 259.347 193.265Z" fill="#E0E0E0"/>
<path d="M257.619 163.784C257.619 163.902 260.277 163.874 263.525 163.465C266.773 163.055 269.355 162.445 269.334 162.334C269.313 162.222 266.704 162.625 263.47 163.028C260.236 163.43 257.612 163.631 257.619 163.784Z" fill="#E0E0E0"/>
<path d="M259.764 163.694C259.553 164.083 259.43 164.515 259.403 164.957C259.323 165.427 259.275 165.903 259.258 166.38C259.234 166.691 259.286 167.003 259.41 167.289C259.488 167.463 259.613 167.611 259.771 167.717C259.93 167.822 260.115 167.881 260.306 167.886C260.414 167.89 260.522 167.869 260.621 167.825C260.719 167.78 260.806 167.713 260.875 167.629C260.995 167.478 261.065 167.294 261.076 167.101C261.085 166.8 261.043 166.5 260.951 166.213C260.835 165.737 260.677 165.273 260.479 164.825C260.139 164.082 259.82 163.687 259.785 163.715C259.883 164.137 260.022 164.548 260.201 164.943C260.347 165.38 260.47 165.825 260.569 166.275C260.633 166.522 260.661 166.777 260.653 167.032C260.653 167.268 260.514 167.414 260.319 167.414C259.854 167.414 259.667 166.851 259.688 166.352C259.709 165.852 259.688 165.359 259.729 164.964C259.794 164.544 259.806 164.117 259.764 163.694Z" fill="#E0E0E0"/>
<path d="M229.854 124.108L257.737 120.852C261.388 120.426 264.002 117.121 263.576 113.47L262.971 108.293C262.545 104.642 259.24 102.028 255.589 102.454L227.706 105.71C224.055 106.136 221.441 109.441 221.867 113.092L222.472 118.269C222.898 121.92 226.203 124.534 229.854 124.108Z" fill="#455A64"/>
<path d="M255.12 102.899C255.12 102.899 255.037 102.844 254.856 102.788C254.59 102.712 254.315 102.67 254.038 102.663C253.001 102.668 251.995 103.017 251.178 103.656C249.928 104.536 248.936 105.734 248.305 107.126C247.6 108.847 247.328 110.716 247.514 112.567C247.615 114.434 248.269 116.23 249.395 117.723C250.319 118.943 251.588 119.857 253.038 120.347C254.003 120.679 255.029 120.793 256.043 120.68C256.318 120.649 256.59 120.594 256.855 120.513C257.036 120.458 257.126 120.423 257.119 120.409C257.112 120.395 256.73 120.465 256.029 120.506C255.046 120.549 254.064 120.393 253.142 120.048C251.775 119.543 250.585 118.648 249.721 117.473C248.669 116.031 248.059 114.315 247.965 112.532C247.774 110.755 248.012 108.958 248.659 107.292C249.251 105.959 250.176 104.8 251.345 103.927C252.1 103.302 253.032 102.928 254.01 102.858C254.732 102.809 255.113 102.941 255.12 102.899Z" fill="#263238"/>
<path d="M239.187 104.308L243.49 103.885C242.339 104.237 241.354 104.99 240.714 106.009C240.09 107.021 239.688 108.154 239.534 109.333C238.764 114.281 241.394 119.597 245.62 122.276L242.15 122.734C242.15 122.734 232.226 113.872 239.159 104.308" fill="#263238"/>
<path d="M234.314 113.414C235.423 113.72 236.589 113.764 237.717 113.539C238.846 113.315 239.906 112.83 240.813 112.122C241.721 111.414 242.45 110.504 242.942 109.464C243.434 108.424 243.676 107.284 243.649 106.133C243.6 104.003 242.629 101.824 243.295 99.7903C243.753 98.4023 244.919 97.3058 245.314 95.897C245.897 93.7803 244.62 91.6497 243.406 89.8314C242.683 88.6233 241.782 87.5307 240.734 86.5904C240.206 86.122 239.582 85.7753 238.906 85.575C238.23 85.3748 237.517 85.3257 236.82 85.4314" fill="#263238"/>
<path d="M214.604 85.6188C214.722 87.2289 213.66 88.6724 212.585 89.8799C211.509 91.0875 210.322 92.3575 210.086 93.9537C209.677 96.7922 212.453 99.4224 211.884 102.233C211.571 103.739 210.343 104.947 210.121 106.467C209.899 107.986 210.697 109.381 211.676 110.499C212.654 111.616 213.841 112.581 214.708 113.76C215.532 115.094 216.229 116.502 216.79 117.966C217.351 119.441 218.37 120.696 219.698 121.547C221.78 122.671 224.667 122.144 226.25 123.886C227.832 125.628 229.664 125.829 231.552 127.099" fill="#263238"/>
<path d="M239.43 88.0825C239.471 86.6251 238.118 85.4939 236.758 84.9595C235.397 84.4251 233.878 84.2169 232.663 83.398C231.587 82.704 230.866 81.5519 229.956 80.622C228.832 79.4882 227.427 78.6731 225.885 78.2599C224.343 77.8468 222.718 77.8503 221.178 78.2702C219.637 78.6901 218.236 79.5112 217.116 80.6499C215.997 81.7885 215.2 83.2038 214.806 84.7513C214.286 86.8333 214.64 89.297 216.285 90.685C218.193 92.2881 221.018 91.9342 223.461 91.4345C225.903 90.9348 228.666 90.4421 230.706 91.8787C231.934 92.7392 232.635 94.148 233.392 95.4528C234.148 96.7575 235.085 98.083 236.508 98.5688C237.93 99.0546 239.86 98.2149 239.915 96.7158" fill="#263238"/>
<path d="M233.635 88.3879C234.244 88.4522 234.807 88.7437 235.211 89.2041C235.614 89.6645 235.83 90.2602 235.814 90.8724L234.357 123.935C234.295 127.842 228.59 130.035 224.405 129.938C220.186 129.84 220.047 127.765 219.998 124.053C219.908 117.848 219.915 115.516 219.915 115.551C219.915 115.586 214.578 114.656 213.488 107.695C212.947 104.225 213.134 98.555 213.44 93.9191C213.71 89.7551 216.487 84.6264 220.651 85.0706L233.635 88.3879Z" fill="#FFBE9D"/>
<path d="M214.758 97.8957C214.754 98.1289 214.842 98.3543 215.003 98.5231C215.164 98.6919 215.385 98.7906 215.618 98.7979C215.731 98.8054 215.844 98.7905 215.951 98.754C216.058 98.7175 216.157 98.6601 216.241 98.5852C216.326 98.5104 216.395 98.4194 216.444 98.3178C216.493 98.2161 216.521 98.1056 216.528 97.9928C216.531 97.7607 216.444 97.5364 216.285 97.3678C216.125 97.1992 215.906 97.0997 215.674 97.0906C215.561 97.0822 215.447 97.0964 215.339 97.1324C215.232 97.1685 215.132 97.2257 215.047 97.3007C214.961 97.3756 214.892 97.4669 214.842 97.5691C214.793 97.6712 214.764 97.7823 214.758 97.8957Z" fill="#263238"/>
<path d="M214.661 96.8686C214.772 96.9865 215.452 96.4869 216.41 96.4938C217.367 96.5007 218.075 96.9796 218.179 96.8616C218.283 96.7436 218.117 96.5979 217.811 96.3758C217.403 96.0948 216.919 95.9425 216.423 95.9386C215.926 95.9374 215.44 96.0928 215.035 96.3828C214.709 96.6118 214.605 96.82 214.661 96.8686Z" fill="#263238"/>
<path d="M224.32 98.1385C224.317 98.3718 224.405 98.5972 224.566 98.766C224.727 98.9348 224.948 99.0335 225.181 99.0408C225.294 99.0502 225.408 99.0369 225.515 99.0016C225.623 98.9664 225.722 98.9098 225.808 98.8354C225.893 98.761 225.963 98.6702 226.013 98.5683C226.062 98.4665 226.091 98.3558 226.097 98.2426C226.101 98.0099 226.014 97.7847 225.855 97.615C225.695 97.4453 225.476 97.3443 225.243 97.3335C225.13 97.325 225.016 97.3392 224.908 97.3752C224.799 97.4112 224.7 97.4682 224.614 97.5431C224.528 97.618 224.458 97.7092 224.407 97.8114C224.357 97.9136 224.327 98.0248 224.32 98.1385Z" fill="#263238"/>
<path d="M224.106 97.0698C224.217 97.1878 224.89 96.6881 225.854 96.695C226.819 96.702 227.513 97.1808 227.617 97.0628C227.721 96.9449 227.562 96.7991 227.249 96.577C226.843 96.2912 226.358 96.1385 225.861 96.1398C225.363 96.1338 224.876 96.2896 224.473 96.584C224.161 96.8061 224.05 97.0212 224.106 97.0698Z" fill="#263238"/>
<path d="M220.601 104.19C220.095 104.028 219.57 103.93 219.04 103.899C218.797 103.899 218.568 103.829 218.526 103.663C218.501 103.409 218.557 103.154 218.686 102.934L219.421 101.067C220.094 99.4933 220.641 97.869 221.059 96.2092C220.948 96.1676 220.039 98.2912 219.033 100.942C218.783 101.636 218.554 102.226 218.339 102.823C218.181 103.116 218.135 103.456 218.207 103.781C218.243 103.867 218.297 103.945 218.367 104.007C218.437 104.069 218.52 104.115 218.609 104.142C218.745 104.18 218.885 104.201 219.026 104.204C219.55 104.262 220.079 104.257 220.601 104.19Z" fill="#263238"/>
<path d="M219.914 115.551C223.188 115.618 226.416 114.778 229.241 113.122C229.241 113.122 226.937 117.862 219.997 117.196L219.914 115.551Z" fill="#EB996E"/>
<path d="M221.004 106.501C221.189 106.273 221.428 106.095 221.7 105.983C221.971 105.871 222.267 105.83 222.559 105.863C222.77 105.884 222.976 105.947 223.163 106.048C223.35 106.149 223.515 106.287 223.648 106.453C223.776 106.613 223.851 106.809 223.864 107.014C223.876 107.219 223.825 107.423 223.718 107.598C223.563 107.769 223.361 107.89 223.137 107.946C222.913 108.001 222.678 107.989 222.461 107.91C222.007 107.75 221.589 107.499 221.233 107.174C221.124 107.099 221.032 107.002 220.962 106.89C220.925 106.839 220.904 106.777 220.904 106.713C220.904 106.649 220.925 106.587 220.962 106.536" fill="#EB996E"/>
<path d="M223.425 104.856C223.272 104.856 223.265 105.891 222.37 106.626C221.475 107.362 220.364 107.251 220.358 107.396C220.351 107.542 220.607 107.598 221.052 107.612C221.663 107.624 222.259 107.417 222.731 107.029C223.189 106.66 223.483 106.127 223.55 105.544C223.612 105.113 223.467 104.85 223.425 104.856Z" fill="#263238"/>
<path d="M223.675 95.3903C223.765 95.6471 224.73 95.5291 225.854 95.6679C226.979 95.8067 227.895 96.1121 228.04 95.8831C228.11 95.7651 227.95 95.5222 227.582 95.2654C227.096 94.951 226.542 94.756 225.965 94.6963C225.389 94.627 224.804 94.6935 224.258 94.8906C223.842 95.078 223.634 95.2654 223.675 95.3903Z" fill="#263238"/>
<path d="M215.021 94.0926C215.188 94.3077 215.854 94.0926 216.645 94.0926C217.436 94.0926 218.116 94.2383 218.269 94.0093C218.339 93.9052 218.234 93.6831 217.943 93.4749C217.548 93.2256 217.087 93.0997 216.62 93.1133C216.152 93.1269 215.7 93.2794 215.32 93.5512C215.042 93.7594 214.945 93.9885 215.021 94.0926Z" fill="#263238"/>
<path d="M238.492 111.283C237.531 111.477 236.536 111.439 235.592 111.173C234.648 110.906 233.78 110.419 233.062 109.751C232.343 109.083 231.793 108.254 231.459 107.331C231.124 106.409 231.013 105.42 231.136 104.447C231.358 102.74 232.274 100.977 231.684 99.3808C230.9 97.2433 227.902 96.6048 227.104 94.4534C226.646 93.2112 227.062 91.7607 226.535 90.5462C226.007 89.3317 224.842 88.7418 223.669 88.3185C222.462 88.0073 221.312 87.5085 220.261 86.8403C219.276 86.0769 218.665 84.6333 219.296 83.5646C224.496 84.184 229.604 85.4235 234.509 87.2567C235.64 87.68 236.834 88.1936 237.507 89.1999C238.18 90.2062 238.201 91.6497 238.125 92.9336L237.25 111.672" fill="#263238"/>
<path d="M242.24 117.071C242.237 116.474 242.114 115.884 241.879 115.336C241.592 114.701 241.189 114.125 240.693 113.636C240.025 112.998 239.268 112.463 238.444 112.046C237.535 111.554 236.487 111.103 235.418 110.492C234.241 109.866 233.248 108.942 232.538 107.813C232.166 107.181 231.965 106.464 231.955 105.731C231.986 104.987 232.09 104.247 232.267 103.524C232.461 102.812 232.51 102.069 232.413 101.338C232.338 100.978 232.183 100.64 231.961 100.347C231.739 100.054 231.455 99.8143 231.129 99.6446C230.435 99.2559 229.741 99.013 229.013 98.6799C228.267 98.3778 227.637 97.8453 227.215 97.16C226.864 96.4801 226.683 95.7252 226.688 94.9601C226.688 94.2314 226.688 93.5304 226.688 92.8781C226.704 92.2262 226.61 91.5762 226.41 90.9557C226.208 90.387 225.841 89.8917 225.355 89.533C224.415 88.9295 223.366 88.5169 222.267 88.3185C221.337 88.1333 220.448 87.7805 219.644 87.2775C219.037 86.8649 218.593 86.2539 218.387 85.5494C218.246 85.1118 218.246 84.6407 218.387 84.2031C218.442 84.0559 218.521 83.9196 218.623 83.8005C218.623 83.8005 218.547 83.9463 218.457 84.2308C218.34 84.653 218.354 85.101 218.499 85.5147C218.716 86.1701 219.149 86.7327 219.727 87.1109C220.523 87.5796 221.394 87.9061 222.302 88.0756C223.44 88.2656 224.529 88.6783 225.508 89.2901C226.044 89.6811 226.452 90.222 226.681 90.8446C226.896 91.4983 227.001 92.183 226.993 92.8711C226.993 93.5651 226.993 94.2591 226.993 94.9531C226.991 95.6621 227.158 96.3613 227.479 96.9935C227.866 97.6188 228.442 98.1048 229.124 98.3815C229.818 98.7077 230.56 98.9436 231.275 99.36C231.634 99.5716 231.953 99.844 232.219 100.165C232.473 100.495 232.647 100.88 232.726 101.289C232.83 102.069 232.778 102.862 232.573 103.621C232.397 104.319 232.293 105.033 232.261 105.752C232.263 106.43 232.445 107.096 232.788 107.681C233.463 108.766 234.407 109.658 235.529 110.27C236.57 110.88 237.611 111.345 238.527 111.859C239.365 112.297 240.13 112.861 240.797 113.531C241.299 114.045 241.698 114.65 241.97 115.315C242.14 115.734 242.232 116.181 242.24 116.634C242.249 116.751 242.249 116.87 242.24 116.988C242.254 117.029 242.247 117.071 242.24 117.071Z" fill="#263238"/>
<path d="M221.955 121.846C221.848 121.899 221.733 121.934 221.615 121.95C221.473 121.984 221.329 122.007 221.184 122.019C220.989 122.049 220.792 122.062 220.594 122.061C219.314 122.062 218.064 121.67 217.013 120.936C216.28 120.44 215.664 119.789 215.209 119.028C214.724 118.141 214.409 117.171 214.279 116.169C214.154 115.1 213.849 114.061 213.377 113.094C212.836 112.13 211.829 111.491 210.92 110.665C209.991 109.86 209.385 108.746 209.213 107.528C209.051 106.397 209.279 105.245 209.858 104.26C210.423 103.457 210.909 102.602 211.309 101.706C211.581 100.905 211.682 100.056 211.607 99.2143C211.469 97.9808 211.173 96.7702 210.726 95.6124C210.551 95.1885 210.401 94.7553 210.275 94.3146C210.347 94.4101 210.405 94.5152 210.448 94.6269C210.545 94.8421 210.691 95.1544 210.858 95.5638C211.364 96.7199 211.702 97.942 211.864 99.1935C211.958 100.075 211.866 100.966 211.593 101.81C211.201 102.728 210.717 103.604 210.15 104.426C209.612 105.348 209.407 106.425 209.567 107.48C209.727 108.615 210.294 109.653 211.163 110.402C212.03 111.193 213.085 111.859 213.682 112.914C214.174 113.916 214.486 114.996 214.605 116.106C214.72 117.076 215.012 118.017 215.466 118.882C215.89 119.615 216.467 120.247 217.159 120.735C218.161 121.463 219.357 121.876 220.594 121.922C221.469 121.943 221.948 121.804 221.955 121.846Z" fill="#263238"/>
<path d="M242.206 88.6724C242.274 88.7529 242.315 88.8523 242.324 88.9569C242.339 89.1069 242.323 89.2584 242.276 89.4017C242.23 89.5451 242.154 89.6772 242.054 89.7898C241.9 89.9747 241.709 90.1262 241.494 90.2348C241.28 90.3434 241.045 90.4069 240.804 90.4213C240.184 90.3834 239.581 90.2029 239.042 89.8938C238.419 89.5461 237.727 89.3422 237.015 89.297C236.188 89.2752 235.361 89.3497 234.551 89.5191C233.638 89.7169 232.709 89.8353 231.775 89.873C230.725 89.9147 229.7 89.5407 228.923 88.832C228.226 88.0931 227.671 87.2321 227.285 86.292C226.93 85.4496 226.483 84.6489 225.953 83.9046C225.5 83.2957 224.879 82.8322 224.167 82.5709C223.454 82.3095 222.681 82.2617 221.941 82.4333C220.934 82.7012 220.068 83.3443 219.519 84.2308C219.327 84.562 219.155 84.9051 219.006 85.2579C219.006 85.2579 219.006 85.1538 219.061 84.9595C219.138 84.678 219.25 84.4075 219.394 84.1545C219.837 83.3369 220.549 82.6983 221.41 82.3477C222.27 81.997 223.226 81.9562 224.114 82.2321C224.944 82.4909 225.672 83.003 226.196 83.6964C226.747 84.4568 227.213 85.2761 227.584 86.1393C227.956 87.0369 228.487 87.8598 229.152 88.5683C229.859 89.2176 230.795 89.5595 231.755 89.5191C232.669 89.4838 233.579 89.3724 234.475 89.186C235.311 89.0202 236.164 88.955 237.015 88.9916C237.763 89.0656 238.485 89.3024 239.132 89.6856C239.635 89.9905 240.199 90.1802 240.784 90.2408C240.999 90.2342 241.212 90.1848 241.408 90.0954C241.605 90.0061 241.782 89.8786 241.929 89.7203C242.025 89.6239 242.101 89.5091 242.152 89.3828C242.204 89.2564 242.229 89.121 242.227 88.9847C242.206 88.7696 242.151 88.6793 242.206 88.6724Z" fill="#455A64"/>
<path d="M238.272 86.6667C237.124 86.4032 236.102 85.7509 235.38 84.8204C234.657 83.89 234.279 82.7385 234.308 81.5609C234.338 80.3834 234.773 79.2522 235.541 78.3589C236.309 77.4657 237.362 76.8652 238.521 76.6593C239.069 76.5247 239.644 76.5429 240.182 76.7117C240.72 76.8806 241.202 77.1936 241.575 77.617C242.213 78.4845 242.172 79.7823 242.963 80.4901C243.754 81.198 245.17 80.9204 246.294 81.1841C247.156 81.4299 247.902 81.9736 248.401 82.7184C248.899 83.4632 249.116 84.3607 249.015 85.251C248.873 86.1359 248.502 86.9683 247.938 87.6649C247.374 88.3615 246.638 88.8979 245.801 89.2207C244.108 89.8386 242.256 89.8728 240.541 89.3178C238.84 88.7663 237.224 87.9816 235.738 86.986" fill="#263238"/>
<path d="M246.634 81.6352C246.568 82.0948 246.395 82.5323 246.128 82.9122C245.55 83.8755 244.75 84.6869 243.796 85.2787C242.841 85.8745 241.759 86.2359 240.638 86.3336C240.173 86.4055 239.699 86.3699 239.25 86.2295C239.25 86.167 239.777 86.2295 240.589 86.0768C241.651 85.9156 242.669 85.5402 243.581 84.9734C244.49 84.4016 245.276 83.6536 245.892 82.7734C246.37 82.1002 246.579 81.6144 246.634 81.6352Z" fill="#455A64"/>
<path d="M242.956 89.3317C242.062 88.1533 240.94 87.1665 239.657 86.4297C238.374 85.693 236.957 85.2214 235.488 85.0428C235.926 84.9576 236.376 84.9576 236.814 85.0428C238.963 85.3579 240.912 86.4764 242.269 88.1727C242.576 88.5071 242.81 88.9018 242.956 89.3317Z" fill="#FB9212"/>
<path d="M192.384 164.915L181.134 162.736L183.161 165.616L178.358 168.017L174.34 166.137C174.652 166.958 175.045 167.746 175.513 168.489C176.394 169.954 177.595 171.133 178.33 171.189C178.577 172.203 179.09 173.132 179.816 173.882C180.468 174.533 181.279 175.003 182.169 175.246C183.058 175.489 183.995 175.498 184.889 175.27L192.446 172.535L192.384 164.915Z" fill="#FFBE9D"/>
<path d="M181.037 170.557C180.851 170.79 180.616 170.979 180.348 171.11C180.08 171.24 179.787 171.31 179.489 171.314C179.197 171.375 178.895 171.372 178.604 171.306C178.313 171.241 178.04 171.113 177.803 170.932C177.844 170.828 178.559 171.064 179.448 170.932C180.336 170.8 180.981 170.467 181.037 170.557Z" fill="#EB996E"/>
<path d="M182.523 172.952C182.592 173.021 182.106 173.562 181.273 173.778C181.032 173.871 180.773 173.91 180.515 173.89C180.257 173.871 180.006 173.795 179.781 173.667C179.781 173.563 180.475 173.625 181.169 173.431C181.863 173.236 182.439 172.875 182.523 172.952Z" fill="#EB996E"/>
<path d="M185.345 164.478C185.038 164.7 184.71 164.893 184.367 165.054C183.763 165.394 182.979 165.963 182.098 166.574C181.343 167.121 180.504 167.541 179.613 167.816C179.246 167.955 178.847 167.991 178.461 167.92C178.461 167.865 178.891 167.816 179.537 167.573C180.37 167.232 181.162 166.796 181.896 166.275C182.642 165.733 183.429 165.248 184.249 164.825C184.583 164.627 184.958 164.508 185.345 164.478Z" fill="#EB996E"/>
<path d="M253.587 183.591C253.587 183.591 253.968 183.834 254.926 185.534C257.862 190.774 259.048 203.328 247.986 214.536C233.676 229.013 216.916 252.706 216.916 252.706L203.73 308.337L183.854 304.028L194.097 246.21L222.183 194.105L253.587 183.591Z" fill="#263238"/>
<path d="M275.512 291.258L244.892 244.399L235.607 203.953L211.955 215.577L223.816 256.627L261.659 303.764L275.512 291.258Z" fill="#263238"/>
<path d="M203.744 308.337C203.749 308.243 203.765 308.15 203.793 308.06C203.834 307.865 203.89 307.602 203.959 307.262C204.126 306.568 204.355 305.52 204.653 304.201L207.256 292.972C209.484 283.478 212.558 270.396 215.959 255.947C216.222 254.823 216.486 253.706 216.736 252.665V252.616C225.411 241.512 233.315 231.692 239.131 224.717C242.046 221.247 244.426 218.471 246.113 216.57C246.939 215.619 247.619 214.911 248.07 214.425L248.583 213.877C248.701 213.752 248.764 213.69 248.771 213.697C248.723 213.768 248.67 213.835 248.611 213.898L248.119 214.467C247.688 214.973 247.029 215.695 246.21 216.66C244.558 218.568 242.213 221.372 239.326 224.877C233.558 231.893 225.688 241.741 217.02 252.838V252.769C216.777 253.81 216.514 254.927 216.243 256.051L207.506 293.035C206.361 297.747 205.424 301.571 204.792 304.236C204.466 305.54 204.216 306.568 204.036 307.275C203.952 307.616 203.883 307.872 203.834 308.067C203.813 308.159 203.783 308.25 203.744 308.337Z" fill="#455A64"/>
<path d="M239.652 198.38C239.51 198.497 239.348 198.587 239.173 198.644C238.714 198.842 238.238 198.998 237.75 199.109C236.127 199.479 234.437 199.429 232.839 198.964C231.241 198.499 229.788 197.634 228.617 196.451C228.265 196.095 227.944 195.71 227.659 195.299C227.465 195 227.375 194.827 227.396 194.813C227.416 194.799 227.881 195.423 228.784 196.263C229.963 197.36 231.382 198.165 232.928 198.616C234.474 199.067 236.104 199.15 237.688 198.859C238.916 198.637 239.631 198.324 239.652 198.38Z" fill="#455A64"/>
<path d="M256.536 185.992C244.557 192.3 225.118 196.069 218.9 193.508L218.685 170.433C218.685 170.433 210.17 156.393 210.135 151.084C210.086 143.45 219.615 125.982 219.615 125.982L233.918 122.144C236.798 122.083 239.648 122.746 242.205 124.073C244.88 125.556 247.056 127.796 248.461 130.513C249.865 133.23 250.434 136.302 250.095 139.341L246.494 162.299L256.536 185.992Z" fill="#FB9212"/>
<g opacity="0.3">
<path d="M241.186 124.053C242.018 123.928 242.324 125.281 241.734 125.878C241.144 126.475 240.207 126.502 239.381 126.627C235.654 127.21 232.774 130.403 231.421 133.921C230.068 137.44 229.936 141.285 229.714 145.025C229.492 148.766 229.124 152.659 227.354 155.997C225.702 153.068 224.722 149.808 224.487 146.453C224.252 143.098 224.767 139.733 225.994 136.601C227.221 133.47 229.131 130.652 231.583 128.35C234.035 126.049 236.97 124.322 240.172 123.296" fill="black"/>
</g>
<path d="M242.207 124.073C242.207 124.073 240.125 120.68 233.24 122.151C228.632 123.136 218.555 132.818 221.366 148.37C224.176 163.923 231.713 169.433 231.713 169.433C231.713 169.433 224.773 145.622 228.632 135.233C229.642 132.3 231.445 129.704 233.842 127.734C236.238 125.764 239.134 124.497 242.207 124.073Z" fill="#263238"/>
<g opacity="0.3">
<path d="M218.949 175.332C221.802 176.248 224.536 177.414 227.506 177.789C230.478 178.277 233.527 177.958 236.334 176.866C240.144 175.242 242.976 171.772 244.433 167.893C245.89 164.013 246.092 159.766 245.703 155.636C243.1 158.857 243.413 163.624 241.199 167.129C239.811 169.315 237.555 170.807 235.237 171.987C230.165 174.426 224.572 175.582 218.949 175.353" fill="black"/>
</g>
<path d="M227.528 151.757C227.528 151.757 226.598 169.274 247.966 165.79L250.117 170.856C250.117 170.856 227.653 175.603 224.439 156.976L227.528 151.757Z" fill="#263238"/>
<path d="M247.002 129.986C247.901 131.322 248.507 132.834 248.779 134.421C249.052 136.009 248.985 137.636 248.584 139.196L243.261 163.021C240.978 169.725 234.461 173.798 230.408 174.34L192.453 178.358V164.193L227.687 158.961L229.339 139.668C229.485 137.072 230.762 132.408 232.414 130.396C234.26 128.154 237.098 125.1 241.734 125.878C244.573 126.35 245.78 128.244 247.002 129.986Z" fill="#FB9212"/>
<path d="M248.097 140.126C248.103 140.304 248.091 140.483 248.062 140.66C248.021 141.014 247.958 141.527 247.868 142.194C247.688 143.526 247.41 145.442 246.987 147.801C246.563 150.161 246.022 152.971 245.307 156.06C244.953 157.6 244.571 159.224 244.106 160.918C243.652 162.652 243.029 164.337 242.247 165.949C241.456 167.571 240.368 169.031 239.04 170.252C237.802 171.385 236.398 172.321 234.876 173.028C232.296 174.185 229.539 174.9 226.722 175.145C224.328 175.388 222.384 175.402 221.045 175.415H219.497C219.32 175.432 219.141 175.432 218.963 175.415C219.139 175.384 219.318 175.37 219.497 175.374L221.038 175.311C222.377 175.256 224.321 175.2 226.694 174.923C229.474 174.648 232.189 173.917 234.731 172.757C236.223 172.068 237.601 171.155 238.818 170.051C240.108 168.85 241.167 167.422 241.941 165.838C242.711 164.247 243.327 162.585 243.78 160.876C244.245 159.224 244.634 157.607 245.002 156.067C245.696 152.985 246.306 150.195 246.751 147.843C247.195 145.49 247.521 143.582 247.743 142.291C247.854 141.659 247.937 141.153 248 140.771C248.016 140.554 248.048 140.338 248.097 140.126Z" fill="#263238"/>
<path d="M228.707 163.021C228.312 162.377 228.024 161.674 227.853 160.939C227.565 160.247 227.391 159.514 227.34 158.766C228.025 160.092 228.494 161.519 228.728 162.993L228.707 163.021Z" fill="#263238"/>
<path d="M230.865 162.479C230.116 162.128 229.454 161.613 228.929 160.973C228.319 160.417 227.845 159.728 227.541 158.961C228.134 159.514 228.69 160.105 229.207 160.73C229.799 161.275 230.353 161.859 230.865 162.479Z" fill="#263238"/>
<path d="M195.756 163.708L195.915 163.666L196.387 163.576L198.206 163.277L204.958 162.216L227.631 158.787L227.479 158.947C227.604 157.628 227.735 156.24 227.874 154.824C228.325 149.821 228.804 145.053 229.04 140.702C229.204 138.633 229.6 136.589 230.22 134.608C230.718 132.855 231.563 131.219 232.704 129.799C234.953 127.349 237.472 126.051 239.325 125.815C240.033 125.714 240.752 125.729 241.456 125.857C241.692 125.905 241.872 125.961 241.99 125.996L242.171 126.058C241.244 125.845 240.286 125.81 239.346 125.954C237.542 126.225 235.085 127.536 232.899 129.972C231.793 131.371 230.981 132.978 230.511 134.698C229.906 136.66 229.524 138.683 229.373 140.729C229.158 145.081 228.679 149.855 228.228 154.859C228.096 156.247 227.964 157.635 227.833 158.982V159.12H227.694L204.972 162.438L198.206 163.381L196.374 163.624L195.902 163.68L195.756 163.708Z" fill="#263238"/>
<path d="M217.478 175.249C217.38 175.249 216.978 172.05 216.582 168.087C216.187 164.124 215.944 160.89 216.041 160.876C216.465 163.249 216.767 165.642 216.943 168.045C217.245 170.436 217.423 172.84 217.478 175.249Z" fill="#FAFAFA"/>
<path d="M245.265 153.742C244.462 153.811 243.655 153.823 242.85 153.777C241.358 153.777 239.304 153.693 237.028 153.61C234.751 153.527 232.697 153.43 231.212 153.339C230.407 153.326 229.605 153.254 228.811 153.124C229.613 153.045 230.421 153.031 231.226 153.083C232.711 153.083 234.772 153.166 237.041 153.249C239.311 153.332 241.365 153.43 242.857 153.52C243.664 153.529 244.47 153.604 245.265 153.742Z" fill="#FAFAFA"/>
<path d="M221.171 149.21C220.656 149.342 220.127 149.412 219.596 149.418C218.624 149.488 217.271 149.536 215.779 149.508C214.287 149.481 212.933 149.377 211.962 149.266C211.432 149.242 210.907 149.151 210.4 148.995C210.927 148.943 211.457 148.943 211.983 148.995C212.954 149.043 214.301 149.099 215.786 149.127C217.271 149.154 218.617 149.127 219.589 149.127C220.118 149.096 220.649 149.124 221.171 149.21Z" fill="#FAFAFA"/>
<path d="M224.308 132.748C224.253 132.839 222.795 132.054 220.908 131.36C219.02 130.666 217.438 130.243 217.438 130.139C219.905 130.44 222.263 131.336 224.308 132.748Z" fill="#FAFAFA"/>
<path d="M251.873 176.047C251.777 176.115 251.672 176.169 251.561 176.207L250.645 176.581C249.854 176.908 248.688 177.338 247.237 177.844C243.452 179.148 239.6 180.246 235.696 181.134C231.793 182.043 227.843 182.738 223.863 183.216C222.337 183.39 221.087 183.507 220.241 183.563L219.255 183.619C219.14 183.637 219.023 183.637 218.908 183.619C219.018 183.58 219.132 183.557 219.248 183.549L220.227 183.424C221.08 183.327 222.309 183.174 223.836 182.966C226.868 182.55 231.053 181.863 235.634 180.822C240.214 179.781 244.26 178.573 247.175 177.622C248.632 177.15 249.812 176.755 250.645 176.47L251.582 176.158C251.675 176.112 251.773 176.075 251.873 176.047Z" fill="#FAFAFA"/>
<path d="M249.61 134.546C249.61 134.643 245.515 134.594 240.47 134.428C235.424 134.261 231.344 134.053 231.344 133.956C231.344 133.859 235.438 133.907 240.484 134.067C245.529 134.227 249.61 134.442 249.61 134.546Z" fill="#FAFAFA"/>
<path d="M200.704 177.31C200.437 175.006 200.288 172.689 200.26 170.37C200.109 168.06 200.081 165.743 200.176 163.43C200.444 165.734 200.592 168.051 200.621 170.37C200.771 172.68 200.799 174.997 200.704 177.31Z" fill="#FAFAFA"/>
<path d="M123.068 106.335C129.246 105.188 135.625 105.858 141.431 108.264C144.006 109.34 146.559 110.86 147.947 113.282C149.599 116.141 149.335 119.666 149.148 122.963C148.785 129.679 149.017 136.414 149.842 143.089C150.536 148.641 151.626 154.193 151.605 159.745C151.584 165.297 150.335 171.14 146.83 175.499C141.424 182.21 131.798 184.097 123.234 182.952C118.737 182.355 114.247 181.009 110.576 178.33C106.904 175.651 104.156 171.522 103.844 166.997" fill="#455A64"/>
<path d="M133.768 114.843C134.568 115.79 135.249 116.832 135.794 117.945C136.357 119.172 136.821 120.441 137.182 121.741C137.615 123.354 138.151 124.937 138.785 126.481C139.446 128.053 140.474 129.442 141.783 130.534C142.874 131.432 144.243 131.922 145.656 131.922C146.594 131.932 147.515 131.669 148.307 131.166C148.519 131.026 148.712 130.861 148.883 130.673C149.001 130.548 149.056 130.472 149.043 130.465C149.029 130.458 148.765 130.694 148.21 131.013C147.424 131.443 146.536 131.649 145.642 131.61C144.314 131.569 143.04 131.08 142.026 130.222C140.792 129.157 139.822 127.819 139.195 126.315C138.564 124.788 138.021 123.227 137.571 121.637C137.188 120.324 136.691 119.047 136.086 117.82C135.67 116.993 135.144 116.225 134.524 115.537C134.313 115.264 134.057 115.03 133.768 114.843Z" fill="#263238"/>
<path d="M136.217 182.522C136.271 182.346 136.305 182.164 136.321 181.981C136.377 181.574 136.446 181.046 136.529 180.398C136.703 179.01 136.932 177.039 137.223 174.583C137.744 169.662 138.369 162.861 138.91 155.338C139.451 147.815 139.777 140.986 139.958 136.038C140.048 133.567 140.104 131.568 140.124 130.187C140.124 129.535 140.124 129.008 140.124 128.598C140.146 128.414 140.146 128.227 140.124 128.043C140.085 128.223 140.064 128.407 140.062 128.591C140.062 129.008 139.999 129.528 139.958 130.18C139.881 131.617 139.777 133.602 139.646 136.024C139.382 140.965 138.993 147.78 138.466 155.303C137.938 162.826 137.348 169.627 136.911 174.548C136.696 176.97 136.523 178.948 136.398 180.378C136.342 181.03 136.3 181.557 136.273 181.967C136.233 182.149 136.214 182.335 136.217 182.522Z" fill="#263238"/>
<path d="M138.959 152.382C138.959 152.5 141.638 152.874 144.99 152.958C148.342 153.041 151.048 152.819 151.042 152.694C151.035 152.569 148.335 152.59 145.004 152.5C141.673 152.409 138.973 152.25 138.959 152.382Z" fill="#263238"/>
<path d="M141.139 152.68C140.868 153.042 140.679 153.459 140.584 153.901C140.434 154.356 140.313 154.819 140.223 155.289C140.147 155.599 140.147 155.923 140.223 156.233C140.276 156.422 140.38 156.593 140.525 156.725C140.67 156.858 140.849 156.947 141.042 156.983C141.151 156.999 141.262 156.992 141.368 156.961C141.473 156.929 141.57 156.875 141.653 156.802C141.801 156.67 141.901 156.492 141.937 156.296C141.985 155.992 141.985 155.683 141.937 155.38C141.889 154.891 141.796 154.408 141.66 153.936C141.578 153.488 141.393 153.065 141.118 152.701C141.146 153.145 141.222 153.585 141.347 154.012C141.431 154.471 141.486 154.935 141.514 155.4C141.553 155.658 141.553 155.92 141.514 156.178C141.458 156.414 141.313 156.546 141.125 156.518C140.646 156.435 140.542 155.824 140.64 155.345C140.737 154.866 140.813 154.339 140.896 153.957C141.031 153.543 141.112 153.114 141.139 152.68Z" fill="#263238"/>
<path d="M116.722 108.019L145.764 108.978C149.438 109.099 152.514 106.219 152.636 102.545L152.822 96.8994C152.943 93.2257 150.063 90.1493 146.389 90.0281L117.348 89.0697C113.674 88.9485 110.597 91.8283 110.476 95.502L110.29 101.148C110.169 104.822 113.048 107.898 116.722 108.019Z" fill="#263238"/>
<path d="M145.698 90.3865C145.698 90.3865 145.622 90.3171 145.448 90.2338C145.191 90.1132 144.917 90.0291 144.636 89.984C143.588 89.8269 142.517 90.0274 141.597 90.5531C140.199 91.2458 139.013 92.3003 138.161 93.6067C137.183 95.2401 136.622 97.0901 136.53 98.9921C136.347 100.899 136.736 102.817 137.648 104.502C138.397 105.879 139.543 106.999 140.937 107.716C141.864 108.197 142.885 108.467 143.928 108.507C144.211 108.519 144.495 108.505 144.775 108.465C144.874 108.463 144.971 108.439 145.06 108.396C145.06 108.354 144.657 108.396 143.942 108.326C142.94 108.224 141.969 107.917 141.09 107.424C139.782 106.706 138.713 105.62 138.016 104.301C137.168 102.68 136.811 100.847 136.988 99.0268C137.077 97.1974 137.601 95.4155 138.515 93.8288C139.319 92.5711 140.433 91.5411 141.749 90.8376C142.608 90.3119 143.611 90.0691 144.616 90.1436C145.323 90.22 145.684 90.4282 145.698 90.3865Z" fill="#455A64"/>
<path d="M129.353 89.3872L133.767 89.6093C132.554 89.795 131.448 90.4108 130.651 91.3443C129.865 92.2733 129.285 93.3592 128.951 94.5297C127.417 99.3877 129.27 105.203 133.115 108.555L129.541 108.5C129.541 108.5 120.845 98.0067 129.326 89.3872" fill="#455A64"/>
<path d="M107.785 81.0731C105.981 76.7078 105.884 69.1293 108.639 65.1111C111.394 61.0928 116.557 58.4903 121.297 57.4771C122.077 57.2372 122.912 57.2372 123.692 57.4771C124.072 57.62 124.384 57.9007 124.566 58.2632C124.749 58.6258 124.788 59.0438 124.677 59.4341C125.598 58.8018 126.619 58.328 127.696 58.0323C128.238 57.8793 128.809 57.8626 129.358 57.9836C129.908 58.1047 130.419 58.3598 130.847 58.7263C131.053 58.9147 131.219 59.1427 131.335 59.3966C131.451 59.6505 131.515 59.9251 131.522 60.2042C131.53 60.4832 131.482 60.761 131.38 61.021C131.278 61.2809 131.125 61.5178 130.93 61.7174C131.598 61.4697 132.324 61.424 133.018 61.586C133.711 61.7481 134.342 62.1106 134.831 62.6286C135.32 63.1465 135.646 63.7969 135.768 64.4987C135.89 65.2005 135.803 65.9228 135.517 66.5754C134.868 67.9119 133.968 69.1112 132.866 70.1079C131.874 71.0239 131.707 71.9678 131.874 73.3072" fill="#263238"/>
<path d="M108.917 73.0712L107.667 99.7763C107.616 100.853 107.783 101.928 108.16 102.938C108.537 103.947 109.116 104.87 109.86 105.649C110.605 106.428 111.5 107.047 112.492 107.469C113.483 107.891 114.55 108.107 115.628 108.104C117.667 108.094 119.625 107.3 121.097 105.887C122.568 104.474 123.44 102.55 123.532 100.512C123.622 98.4994 123.706 96.8199 123.727 96.6186C123.727 96.6186 130.555 96.2994 131.361 89.5954C131.749 86.3544 132.013 79.6156 132.173 73.5154C132.257 70.3558 131.148 67.2803 129.067 64.9011C126.987 62.522 124.086 61.0136 120.944 60.6764L120.298 60.607C113.289 60.26 109.069 66.034 108.917 73.0712Z" fill="#FFBE9D"/>
<path d="M123.768 96.5215C120.663 96.2472 117.71 95.0536 115.287 93.0931C115.287 93.0931 116.627 97.2918 123.386 97.4098L123.768 96.5215Z" fill="#EB996E"/>
<path d="M129.778 77.7974C129.753 78.0485 129.631 78.2799 129.438 78.4421C129.244 78.6043 128.995 78.6842 128.744 78.6649C128.621 78.6614 128.5 78.6332 128.388 78.5821C128.277 78.531 128.176 78.4579 128.094 78.3673C128.011 78.2767 127.947 78.1703 127.906 78.0545C127.865 77.9387 127.848 77.8159 127.855 77.6933C127.88 77.4434 128.001 77.2131 128.193 77.0511C128.385 76.8891 128.632 76.8083 128.882 76.8258C129.005 76.8302 129.126 76.859 129.237 76.9103C129.349 76.9617 129.449 77.0346 129.533 77.125C129.616 77.2153 129.68 77.3212 129.722 77.4366C129.764 77.5521 129.783 77.6747 129.778 77.7974Z" fill="#263238"/>
<path d="M130.395 76.6523C130.264 76.7633 129.597 76.1526 128.563 76.0416C127.529 75.9305 126.724 76.3678 126.627 76.229C126.53 76.0902 126.717 75.9514 127.078 75.7501C127.557 75.4903 128.105 75.3837 128.647 75.4447C129.184 75.5013 129.69 75.7273 130.09 76.0902C130.382 76.34 130.472 76.6037 130.395 76.6523Z" fill="#263238"/>
<path d="M119.597 77.034C119.572 77.2838 119.451 77.5142 119.26 77.6761C119.068 77.8381 118.82 77.919 118.57 77.9015C118.447 77.897 118.327 77.8683 118.215 77.8169C118.103 77.7656 118.003 77.6926 117.92 77.6023C117.837 77.512 117.772 77.406 117.73 77.2906C117.688 77.1752 117.669 77.0526 117.675 76.9299C117.698 76.6794 117.818 76.4479 118.011 76.2856C118.203 76.1233 118.451 76.0431 118.702 76.0624C118.825 76.065 118.947 76.0924 119.059 76.1431C119.172 76.1939 119.273 76.2668 119.356 76.3575C119.44 76.4482 119.505 76.5549 119.546 76.6712C119.587 76.7874 119.605 76.9108 119.597 77.034Z" fill="#263238"/>
<path d="M120.236 75.7501C120.104 75.8611 119.438 75.2504 118.404 75.1394C117.37 75.0283 116.558 75.4656 116.46 75.3268C116.363 75.188 116.558 75.0561 116.912 74.8479C117.394 74.5888 117.943 74.4823 118.487 74.5425C119.024 74.6023 119.528 74.8279 119.93 75.1879C120.215 75.4655 120.298 75.7015 120.236 75.7501Z" fill="#263238"/>
<path d="M123.156 83.8074C123.717 83.6911 124.291 83.6491 124.863 83.6825C125.127 83.6825 125.384 83.6825 125.446 83.4882C125.501 83.2193 125.469 82.9401 125.356 82.6901L124.794 80.6081C124.017 77.6378 123.489 75.2018 123.607 75.1741C123.725 75.1463 124.454 77.5267 125.231 80.504C125.412 81.198 125.592 81.9336 125.759 82.586C125.881 82.9246 125.881 83.2953 125.759 83.6339C125.712 83.7236 125.645 83.8011 125.563 83.8601C125.481 83.9192 125.387 83.9582 125.287 83.974C125.137 83.9942 124.985 83.9942 124.836 83.974C124.271 83.992 123.706 83.936 123.156 83.8074Z" fill="#263238"/>
<path d="M120.062 84.1961C120.229 84.1961 120.111 85.3204 120.985 86.2226C121.859 87.1248 123.067 87.1248 123.067 87.2844C123.067 87.444 122.782 87.4718 122.276 87.4301C121.618 87.3702 121.002 87.0773 120.541 86.6043C120.098 86.1544 119.849 85.5491 119.847 84.9178C119.812 84.4459 119.965 84.1822 120.062 84.1961Z" fill="#263238"/>
<path d="M120.936 71.7388C120.804 72.0094 119.791 71.7388 118.562 71.7804C117.334 71.8221 116.321 72.0164 116.189 71.7804C116.133 71.6486 116.328 71.4057 116.751 71.1766C117.312 70.8928 117.934 70.7476 118.562 70.7533C119.19 70.7473 119.81 70.8874 120.374 71.1628C120.797 71.364 120.998 71.6069 120.936 71.7388Z" fill="#263238"/>
<path d="M130.339 73.6264C130.131 73.8416 129.451 73.5223 128.597 73.4182C127.744 73.3141 127.001 73.4182 126.862 73.1406C126.8 73.0157 126.939 72.7936 127.279 72.6063C127.729 72.3933 128.231 72.3166 128.725 72.3857C129.218 72.4547 129.68 72.6665 130.055 72.9949C130.36 73.2655 130.429 73.5223 130.339 73.6264Z" fill="#263238"/>
<path d="M108.958 78.1027C108.847 78.0403 104.496 76.2428 104.142 80.844C103.788 85.4453 108.493 84.8554 108.507 84.7235C108.521 84.5916 108.958 78.1027 108.958 78.1027Z" fill="#FFBE9D"/>
<path d="M107.209 82.8705C107.209 82.8705 107.125 82.9191 106.979 82.9746C106.788 83.049 106.575 83.049 106.383 82.9746C106.099 82.7632 105.877 82.4801 105.739 82.1544C105.602 81.8288 105.553 81.4723 105.598 81.1216C105.618 80.7262 105.725 80.3399 105.911 79.9904C105.965 79.8509 106.052 79.7264 106.164 79.6274C106.277 79.5284 106.411 79.4577 106.556 79.4213C106.65 79.4037 106.748 79.4197 106.832 79.4666C106.915 79.5136 106.98 79.5884 107.014 79.6781C107.07 79.81 107.014 79.9002 107.056 79.9071C107.097 79.9141 107.16 79.8377 107.139 79.6504C107.12 79.5341 107.064 79.427 106.979 79.345C106.859 79.2387 106.702 79.1838 106.542 79.1923C106.351 79.2157 106.168 79.2879 106.013 79.4022C105.857 79.5164 105.734 79.6688 105.654 79.8447C105.426 80.2278 105.297 80.6621 105.279 81.1078C105.223 81.5161 105.289 81.932 105.47 82.3026C105.65 82.6733 105.936 82.982 106.292 83.1898C106.414 83.2358 106.545 83.254 106.674 83.2432C106.804 83.2324 106.93 83.1928 107.042 83.1273C107.188 82.9816 107.222 82.8775 107.209 82.8705Z" fill="#EB996E"/>
<path d="M135.794 65.0486C135.877 71.0586 128.333 72.988 125.384 69.4069C123.996 67.7483 122.851 65.7148 120.873 64.8682C120.196 64.6052 119.474 64.4801 118.748 64.5004C118.022 64.5207 117.308 64.6858 116.647 64.9861H116.605C114.634 65.8259 113.343 67.9356 112.885 70.0315C112.254 72.9533 112.524 75.5835 111.553 78.2415C111.453 78.64 111.223 78.994 110.9 79.2478C110.317 79.6018 109.512 79.1923 109.117 78.6441C108.51 77.7132 108.189 76.6252 108.194 75.5141C107.98 73.0026 108.267 70.4736 109.04 68.0744C109.825 65.6689 111.296 63.5457 113.274 61.9672C115.823 60.086 119.002 59.2674 122.143 59.684C125.273 60.1213 128.187 61.5318 130.471 63.7161C131.575 64.6772 132.422 65.8985 132.935 67.2694" fill="#263238"/>
<path d="M131.165 61.3912C131.381 61.3624 131.6 61.3887 131.803 61.4676C132.368 61.6566 132.868 62.0005 133.247 62.46C133.832 63.1281 134.174 63.9742 134.218 64.8612C134.226 65.9555 133.828 67.0139 133.101 67.8316C132.402 68.649 131.489 69.2548 130.464 69.5804C129.639 69.8446 128.776 69.9689 127.91 69.9483C127.332 69.9378 126.756 69.8774 126.189 69.7678C125.976 69.7473 125.768 69.6861 125.578 69.5874C125.578 69.5249 126.473 69.7262 127.903 69.6984C128.739 69.6823 129.567 69.5396 130.36 69.2751C131.317 68.9472 132.17 68.3699 132.83 67.6025C133.5 66.8508 133.875 65.8819 133.885 64.8751C133.864 64.0532 133.574 63.261 133.059 62.6196C132.716 62.1804 132.264 61.8383 131.748 61.6272C131.394 61.4468 131.165 61.4259 131.165 61.3912Z" fill="#455A64"/>
<path d="M128.25 59.0455C128.25 59.0455 128.424 59.0038 128.688 59.1565C128.864 59.2725 129.013 59.4259 129.123 59.6058C129.233 59.7857 129.303 59.9877 129.326 60.1975C129.371 60.8148 129.199 61.4284 128.84 61.9325C128.461 62.5522 127.993 63.1133 127.452 63.5981C126.466 64.4876 125.273 65.1173 123.982 65.4303C123.46 65.5927 122.909 65.6447 122.365 65.5829C122.365 65.5135 122.976 65.4858 123.913 65.1874C125.129 64.8159 126.249 64.1835 127.195 63.3344C127.716 62.8716 128.175 62.3445 128.563 61.7659C128.897 61.3246 129.077 60.7858 129.076 60.2322C129.065 60.0493 129.017 59.8705 128.936 59.7062C128.855 59.5418 128.742 59.3951 128.604 59.2745C128.389 59.1079 128.243 59.0732 128.25 59.0455Z" fill="#455A64"/>
<path d="M108.736 124.622L110.894 108.84L79.8794 115.086L51.6544 105.28L44.0273 113.122L74.0637 128.591C76.7426 129.871 79.7612 130.257 82.6762 129.695L108.736 124.622Z" fill="#FFBE9D"/>
<path d="M51.654 105.28C51.654 105.28 40.8623 100.116 40.1683 99.936C39.6339 99.7972 31.4864 99.3669 27.7735 99.1726C27.4825 99.1701 27.201 99.2766 26.9845 99.471C26.768 99.6655 26.632 99.9339 26.6033 100.223C26.5746 100.513 26.6553 100.803 26.8294 101.036C27.0036 101.269 27.2586 101.429 27.5444 101.484H27.6832C29.7652 101.657 34.3179 102.698 34.3179 102.698L32.2359 107.556C32.135 107.797 32.1177 108.064 32.1869 108.316C32.2562 108.568 32.4078 108.789 32.6176 108.944L38.8983 113.587C39.7207 113.961 40.627 114.112 41.5261 114.024C42.4253 113.936 43.2854 113.613 44.02 113.087L46.796 113.656L51.654 105.28Z" fill="#FFBE9D"/>
<path d="M32.2148 107.861C32.4092 108.771 34.5744 110.637 36.2192 110.637C36.582 110.643 36.9346 110.518 37.2116 110.284C37.3432 110.16 37.4351 110.001 37.4759 109.826C37.5167 109.65 37.5044 109.467 37.4407 109.298C37.3248 109.091 37.1605 108.915 36.9618 108.784L33.3114 105.918" fill="#FFBE9D"/>
<path d="M33.3107 105.918C33.8547 106.209 34.3684 106.553 34.8445 106.945L36.4476 108.146C36.753 108.382 37.0583 108.583 37.3915 108.889C37.4872 108.978 37.5642 109.085 37.6178 109.204C37.6715 109.323 37.7007 109.452 37.7038 109.583C37.7045 109.835 37.6188 110.08 37.4608 110.277C37.3013 110.456 37.1025 110.597 36.8798 110.687C36.6571 110.777 36.4166 110.815 36.177 110.797C35.762 110.776 35.3548 110.677 34.9763 110.506C34.3479 110.235 33.7687 109.862 33.2622 109.402C32.9166 109.097 32.6194 108.742 32.3808 108.347C32.2211 108.056 32.2142 107.861 32.235 107.861C32.2559 107.861 32.3114 108.021 32.4988 108.271C32.77 108.619 33.0822 108.934 33.4287 109.208C33.9346 109.619 34.4982 109.953 35.1013 110.2C35.4471 110.345 35.8161 110.428 36.1908 110.443C36.3738 110.457 36.5575 110.429 36.7282 110.362C36.8989 110.295 37.0521 110.19 37.1763 110.055C37.2876 109.928 37.3489 109.765 37.3489 109.596C37.3489 109.428 37.2876 109.265 37.1763 109.138C36.9126 108.889 36.5586 108.646 36.281 108.444L34.6987 107.147C34.1933 106.788 33.728 106.376 33.3107 105.918Z" fill="#EB996E"/>
<path d="M40.945 110.665C40.945 110.665 40.7021 110.54 40.48 110.193C40.19 109.733 40.0272 109.203 40.0081 108.66C39.9801 108.12 40.0925 107.582 40.3343 107.098C40.5286 106.73 40.7229 106.557 40.7576 106.584C40.5233 107.255 40.3922 107.957 40.369 108.666C40.457 109.358 40.6513 110.033 40.945 110.665Z" fill="#EB996E"/>
<path d="M36.6144 108.174C36.7642 108.456 37.0067 108.678 37.301 108.802C37.5954 108.926 37.9235 108.945 38.2301 108.855C38.5368 108.766 38.803 108.573 38.9841 108.31C39.1651 108.046 39.2498 107.729 39.2238 107.41C39.162 107.024 39.0218 106.654 38.8117 106.323C38.6017 105.992 38.3263 105.708 38.0024 105.488L35.3027 103.045" fill="#FFBE9D"/>
<path d="M35.3027 103.017C35.7121 103.256 36.0918 103.543 36.434 103.871L37.5929 104.863C38.0983 105.263 38.5632 105.712 38.9809 106.203C39.1958 106.483 39.3388 106.812 39.3973 107.161C39.4521 107.498 39.3883 107.844 39.2169 108.139C39.0837 108.389 38.8831 108.597 38.6378 108.74C38.3925 108.882 38.1123 108.953 37.8289 108.944C37.4574 108.926 37.1059 108.77 36.8434 108.507C36.663 108.319 36.6213 108.181 36.6352 108.174C36.6491 108.167 36.7463 108.264 36.9336 108.403C37.196 108.592 37.5123 108.692 37.8358 108.687C38.0629 108.68 38.2838 108.611 38.4755 108.489C38.6671 108.367 38.8225 108.196 38.9254 107.993C39.0426 107.737 39.0827 107.453 39.0408 107.174C38.9989 106.895 38.8768 106.635 38.6895 106.425C38.2905 105.96 37.8566 105.526 37.3917 105.127L36.2813 104.072C35.9087 103.767 35.5795 103.412 35.3027 103.017Z" fill="#EB996E"/>
<path d="M41.2436 102.608C39.0661 103.128 36.9873 103.998 35.0879 105.183C34.9664 105.242 34.8703 105.343 34.8172 105.467C34.7617 105.648 34.9005 105.821 35.0462 105.939C35.6443 106.344 36.3722 106.51 37.0866 106.404C37.79 106.292 38.4989 106.218 39.2102 106.182C40.4455 106.182 41.5837 106.8 42.7774 107.133C43.9711 107.466 45.4146 107.452 46.2474 106.522" fill="#FFBE9D"/>
<path d="M46.2339 106.522C46.2339 106.522 46.2339 106.591 46.1228 106.689C45.9913 106.831 45.8392 106.952 45.6717 107.05C45.0363 107.395 44.3053 107.525 43.5897 107.417C42.5708 107.242 41.5714 106.967 40.6055 106.598C40.0467 106.424 39.4626 106.344 38.8775 106.362C38.2668 106.397 37.6352 106.55 36.9412 106.591C36.2491 106.673 35.5506 106.505 34.9703 106.12C34.8017 106.012 34.6783 105.847 34.6233 105.655C34.596 105.534 34.6159 105.407 34.6788 105.301C34.7336 105.218 34.8044 105.147 34.887 105.092C35.1576 104.919 35.4075 104.78 35.6643 104.634C36.5525 104.126 37.4809 103.692 38.4403 103.337C39.0909 103.094 39.7561 102.892 40.432 102.733C40.6774 102.657 40.9319 102.615 41.1885 102.608C41.1885 102.67 40.1406 102.913 38.5305 103.573C37.5901 103.96 36.6766 104.41 35.7961 104.919C35.5532 105.065 35.2895 105.224 35.0535 105.377C34.9425 105.46 34.9078 105.509 34.9286 105.578C34.9691 105.686 35.045 105.776 35.1438 105.835C35.6612 106.164 36.2768 106.304 36.8857 106.231C37.5311 106.189 38.1765 106.043 38.822 106.015C39.4479 105.997 40.0723 106.086 40.668 106.279C41.6131 106.656 42.5881 106.953 43.5828 107.167C44.2465 107.281 44.9289 107.199 45.5468 106.932C45.7834 106.808 46.0128 106.671 46.2339 106.522Z" fill="#EB996E"/>
<path d="M80.3576 120.527C79.7529 118.733 79.6974 116.8 80.198 114.975C80.3021 114.975 80.198 116.238 80.198 117.751C80.198 119.264 80.4617 120.506 80.3576 120.527Z" fill="#EB996E"/>
<path d="M107.499 101.518L98.6994 111.436C98.6994 111.436 93.9941 145.684 93.6609 148.377C93.3278 151.07 92.4326 159.662 92.4326 162.014C92.4326 164.367 90.4824 181.183 90.4824 181.183C90.4824 181.183 127.827 188.942 134.079 181.183L132.129 166.782L133.823 131.062C133.823 131.062 136.599 106.265 123.552 100.526C123.531 100.512 115.286 105.488 107.499 101.518Z" fill="#FB9212"/>
<path d="M129.548 104.024C129.548 104.024 126.974 101.484 118.743 103.614C110.075 105.856 105.501 113.969 107.639 136.926C109.416 155.872 116.904 158.593 116.904 158.593C116.904 158.593 112.802 130.021 113.51 118.07C114.398 102.976 129.535 106.73 129.535 106.73C131.7 106.05 129.548 104.024 129.548 104.024Z" fill="#263238"/>
<path d="M107.5 101.518L99.8933 103.614L82.7793 114.094L87.6512 129.57L97.7003 128.466L107.5 101.518Z" fill="#FB9212"/>
<path d="M97.5969 112.261C97.701 112.261 97.2637 117.813 96.6322 124.615C96.0007 131.416 95.4038 136.954 95.3067 136.94C95.2095 136.926 95.6398 131.388 96.2713 124.587C96.9029 117.786 97.4997 112.254 97.5969 112.261Z" fill="#263238"/>
<path d="M132.435 160.363C132.435 160.363 130.006 168.17 121.421 155.276C112.836 142.381 114.037 148.148 114.037 148.148L112.281 150.23C112.281 150.23 121.727 171.501 132.324 168.17L132.435 160.363Z" fill="#263238"/>
<path opacity="0.3" d="M97.2489 115.981L90.4824 129.257L96.0761 128.647L97.2489 115.981Z" fill="black"/>
<g opacity="0.3">
<path d="M94.1484 151.229C99.1284 156.649 105.01 161.165 111.533 164.575C114.261 166.005 117.279 167.261 120.333 166.865C123.692 166.435 126.579 164.006 128.154 161.015C129.73 158.024 129.542 156.58 129.896 153.221C130.313 149.515 130.313 144.567 130.507 141.187C130.507 140.59 130.549 139.896 130.549 139.237C130.549 138.523 130.779 137.828 131.205 137.256C131.632 136.683 132.231 136.263 132.915 136.059C132.915 136.059 130.833 135.094 129.494 135.288C128.154 135.483 127.086 136.628 126.371 137.808C122.561 144.088 124.219 153.298 116.953 157.24C114.552 158.467 111.813 158.869 109.16 158.385C103.212 157.413 98.6594 153.527 94.2734 149.696" fill="black"/>
</g>
<path d="M102.365 138.231C104.185 138.231 105.661 133.794 105.661 128.321C105.661 122.847 104.185 118.41 102.365 118.41C100.544 118.41 99.0684 122.847 99.0684 128.321C99.0684 133.794 100.544 138.231 102.365 138.231Z" fill="#FAFAFA"/>
<path d="M104.1 300.682L104.857 316.998C104.857 316.998 88.5268 323.244 88.3672 326.277L120.055 325.951L119.923 300.481L104.1 300.682Z" fill="#FB9212"/>
<g opacity="0.6">
<path d="M114.67 315.527C114.974 315.618 115.235 315.817 115.402 316.086C115.57 316.356 115.633 316.678 115.579 316.991C115.5 317.3 115.305 317.567 115.036 317.738C114.766 317.908 114.441 317.969 114.128 317.907C113.806 317.808 113.531 317.594 113.355 317.307C113.179 317.02 113.113 316.678 113.171 316.346C113.288 316.033 113.522 315.777 113.822 315.631C114.123 315.485 114.469 315.46 114.788 315.562" fill="white"/>
</g>
<path opacity="0.6" d="M120.061 325.951V323.411L89.6221 324.66C89.6221 324.66 88.2341 325.285 88.3867 326.277L120.061 325.951Z" fill="white"/>
<path d="M104.364 316.846C104.364 316.998 105.148 317.061 105.912 317.54C106.675 318.019 107.092 318.671 107.237 318.608C107.383 318.546 107.14 317.658 106.196 317.082C105.253 316.506 104.33 316.7 104.364 316.846Z" fill="#263238"/>
<path d="M101.06 318.254C101.025 318.407 101.698 318.664 102.226 319.309C102.753 319.955 102.92 320.649 103.072 320.642C103.225 320.635 103.315 319.754 102.642 318.962C101.969 318.171 101.06 318.109 101.06 318.254Z" fill="#263238"/>
<path d="M99.2425 322.252C99.3813 322.252 99.5895 321.509 99.18 320.663C98.7705 319.816 98.0488 319.49 97.9863 319.622C97.9239 319.754 98.375 320.198 98.6803 320.899C98.9857 321.6 99.0551 322.238 99.2425 322.252Z" fill="#263238"/>
<path d="M104.607 313.105C104.677 313.251 105.384 313.029 106.259 313.105C107.133 313.181 107.813 313.424 107.897 313.292C107.98 313.161 107.314 312.598 106.28 312.564C105.246 312.529 104.531 312.994 104.607 313.105Z" fill="#263238"/>
<path opacity="0.3" d="M104.279 303.916L104.411 306.824L119.985 306.519L119.978 303.896L104.279 303.916Z" fill="black"/>
<path d="M104.516 309.815C105.036 309.959 105.585 309.959 106.105 309.815C106.674 309.705 107.229 309.528 107.757 309.288C108.07 309.144 108.374 308.979 108.666 308.795C108.839 308.692 108.997 308.566 109.138 308.421C109.235 308.308 109.294 308.167 109.306 308.018C109.317 307.869 109.28 307.721 109.2 307.595C109.121 307.485 109.016 307.397 108.896 307.336C108.775 307.276 108.641 307.245 108.506 307.248C108.304 307.246 108.102 307.276 107.909 307.338C107.572 307.42 107.244 307.536 106.931 307.685C106.396 307.929 105.904 308.257 105.473 308.656C104.745 309.35 104.502 309.927 104.557 309.961C104.613 309.996 104.981 309.517 105.723 308.948C106.151 308.621 106.617 308.349 107.111 308.136C107.407 308.018 107.711 307.921 108.02 307.845C108.353 307.754 108.645 307.754 108.714 307.9C108.784 308.046 108.714 307.976 108.68 308.08C108.579 308.189 108.462 308.28 108.333 308.351C108.064 308.531 107.786 308.695 107.5 308.844C107.01 309.091 106.499 309.293 105.973 309.448C105.479 309.536 104.992 309.659 104.516 309.815Z" fill="#263238"/>
<path d="M104.718 310.031C105.017 309.578 105.159 309.038 105.12 308.497C105.143 307.909 105.063 307.322 104.884 306.762C104.782 306.429 104.644 306.108 104.475 305.804C104.387 305.595 104.248 305.413 104.069 305.274C103.89 305.136 103.678 305.046 103.455 305.013C103.312 305.011 103.173 305.052 103.055 305.131C102.937 305.211 102.846 305.324 102.795 305.457C102.714 305.643 102.66 305.839 102.636 306.04C102.58 306.394 102.58 306.755 102.636 307.109C102.729 307.703 102.967 308.266 103.33 308.747C103.954 309.559 104.607 309.739 104.614 309.684C104.62 309.628 104.128 309.316 103.642 308.532C103.365 308.08 103.19 307.573 103.128 307.046C103.087 306.74 103.087 306.43 103.128 306.123C103.177 305.79 103.302 305.513 103.427 305.547C103.552 305.582 103.857 305.797 103.989 306.061C104.149 306.335 104.283 306.623 104.391 306.921C104.57 307.429 104.678 307.959 104.711 308.497C104.794 309.427 104.634 310.01 104.718 310.031Z" fill="#263238"/>
<path d="M134.83 290.786L147.641 300.911C147.641 300.911 141.652 317.338 143.838 319.441L164.367 295.304L145.046 278.696L134.83 290.786Z" fill="#FB9212"/>
<g opacity="0.6">
<path d="M152.943 292.556C153.211 292.383 153.533 292.315 153.848 292.365C154.163 292.415 154.448 292.579 154.65 292.826C154.831 293.088 154.905 293.409 154.857 293.724C154.81 294.039 154.643 294.323 154.393 294.52C154.107 294.697 153.767 294.765 153.435 294.71C153.103 294.655 152.802 294.481 152.589 294.221C152.426 293.928 152.383 293.583 152.47 293.26C152.557 292.936 152.766 292.658 153.054 292.486" fill="white"/>
</g>
<path opacity="0.6" d="M164.366 295.297L162.444 293.638L143.421 317.443C143.421 317.443 142.977 318.914 143.838 319.434L164.366 295.297Z" fill="white"/>
<path d="M147.184 301.196C147.309 301.293 147.878 300.745 148.738 300.502C149.599 300.259 150.369 300.356 150.411 300.21C150.452 300.065 149.627 299.655 148.579 299.988C147.531 300.322 147.059 301.127 147.184 301.196Z" fill="#263238"/>
<path d="M146.079 304.617C146.169 304.742 146.773 304.402 147.647 304.423C148.522 304.444 149.112 304.784 149.202 304.659C149.292 304.534 148.695 303.896 147.654 303.889C146.613 303.882 145.968 304.52 146.079 304.617Z" fill="#263238"/>
<path d="M147.885 308.629C148.003 308.545 147.552 307.879 146.65 307.636C145.747 307.393 145.026 307.72 145.081 307.851C145.137 307.983 145.775 307.942 146.511 308.157C147.246 308.372 147.774 308.74 147.885 308.629Z" fill="#263238"/>
<path d="M144.526 298.559C144.671 298.6 144.97 297.927 145.581 297.296C146.191 296.664 146.844 296.331 146.795 296.178C146.747 296.026 145.9 296.178 145.192 296.928C144.484 297.677 144.352 298.538 144.526 298.559Z" fill="#263238"/>
<path opacity="0.3" d="M137.369 292.778L139.652 294.589L149.632 282.631L147.647 280.917L137.369 292.778Z" fill="black"/>
<path d="M141.978 296.47C142.02 296.511 142.492 296.109 142.999 295.255C143.294 294.753 143.527 294.217 143.693 293.659C143.788 293.329 143.862 292.993 143.915 292.653C143.944 292.453 143.944 292.249 143.915 292.049C143.894 291.901 143.826 291.764 143.721 291.657C143.616 291.551 143.479 291.482 143.332 291.459C143.202 291.451 143.072 291.472 142.952 291.521C142.832 291.57 142.724 291.647 142.638 291.744C142.506 291.896 142.396 292.067 142.312 292.25C142.159 292.563 142.031 292.888 141.93 293.222C141.767 293.788 141.695 294.375 141.715 294.964C141.679 295.504 141.81 296.041 142.089 296.504C142.18 296.504 142.041 295.901 142.089 294.964C142.143 294.1 142.38 293.258 142.783 292.493C142.936 292.181 143.117 291.966 143.283 291.993C143.45 292.021 143.366 291.994 143.401 292.132C143.421 292.282 143.421 292.434 143.401 292.583C143.357 292.901 143.297 293.216 143.221 293.527C143.087 294.062 142.904 294.582 142.672 295.082C142.404 295.525 142.172 295.989 141.978 296.47Z" fill="#263238"/>
<path d="M142.271 296.463C142.319 296.463 142.097 295.838 141.375 295.151C140.945 294.749 140.45 294.423 139.911 294.187C139.589 294.047 139.255 293.94 138.912 293.867C138.697 293.798 138.468 293.785 138.246 293.83C138.025 293.875 137.819 293.976 137.649 294.124C137.56 294.234 137.503 294.366 137.486 294.506C137.469 294.646 137.492 294.788 137.551 294.915C137.641 295.097 137.755 295.265 137.891 295.415C138.126 295.685 138.4 295.919 138.703 296.109C139.213 296.425 139.792 296.613 140.39 296.657C141.417 296.713 141.979 296.345 141.944 296.296C141.443 296.332 140.94 296.332 140.438 296.296C139.914 296.208 139.415 296.01 138.974 295.713C138.715 295.541 138.482 295.333 138.28 295.096C138.058 294.839 137.933 294.568 138.037 294.492C138.15 294.425 138.276 294.384 138.406 294.369C138.537 294.355 138.669 294.368 138.794 294.409C139.103 294.468 139.408 294.554 139.703 294.665C140.199 294.865 140.666 295.131 141.091 295.457C141.868 296.005 142.201 296.511 142.271 296.463Z" fill="#263238"/>
<path d="M99.3046 231.657C99.3046 231.657 100.151 192.682 99.3046 192.682C98.4579 192.682 92.4479 189.254 92.4479 189.254L84.9388 247.168C84.9388 247.168 84.2448 253.671 92.3091 258.272C100.373 262.873 136.329 294.839 136.329 294.839L148.516 279.994C148.516 279.994 124.844 255.323 115.204 247.168C107.57 240.818 99.3046 231.657 99.3046 231.657Z" fill="#263238"/>
<path d="M121.353 222.573L122.179 216.403C122.179 216.403 128.106 203.911 128.953 198.595C129.799 193.279 129.244 181.759 129.244 181.759H91.8027C91.8027 181.759 91.9624 224.03 96.4803 235.891C96.4803 235.891 98.7705 258.584 99.1106 260.486C99.8046 264.525 102.324 305.846 102.324 305.846L121.201 305.152C121.201 305.152 122.838 267.162 121.527 256.377C120.881 251.034 120.576 245.343 120.43 240.638C120.252 234.601 120.561 228.56 121.353 222.573Z" fill="#263238"/>
<path d="M92.8214 194.091C92.8284 194.151 92.8284 194.211 92.8214 194.271C92.8214 194.417 92.8214 194.598 92.8561 194.82C92.8561 195.326 92.9116 196.034 92.9532 196.902C93.0226 198.727 93.1614 201.371 93.3488 204.633C93.7236 211.156 94.4245 220.158 95.4308 230.075C96.4371 239.992 97.5683 248.952 98.3664 255.441C98.762 258.661 99.0604 261.277 99.3033 263.123C99.4074 264.011 99.4907 264.705 99.5462 265.205C99.5462 265.427 99.5879 265.608 99.6017 265.753C99.6156 265.899 99.6017 265.941 99.6017 265.941C99.579 265.883 99.5627 265.822 99.5532 265.76L99.4699 265.219L99.1576 263.137C98.9077 261.298 98.5469 258.681 98.1027 255.468C97.2421 248.986 96.097 240.027 95.063 230.103C94.0289 220.178 93.3766 211.17 93.0643 204.64C92.9046 201.371 92.8144 198.727 92.7867 196.902C92.7867 196.006 92.7867 195.305 92.752 194.82V194.278C92.7685 194.214 92.7918 194.151 92.8214 194.091Z" fill="#455A64"/>
<path d="M120.395 244.121C120.449 244.322 120.486 244.526 120.506 244.732C120.562 245.162 120.645 245.752 120.749 246.495C120.937 248.036 121.173 250.263 121.388 253.018C121.832 258.536 122.165 266.204 122.29 274.616C122.415 283.027 122.29 290.71 121.957 296.234C121.818 299.01 121.638 301.231 121.492 302.771C121.409 303.514 121.339 304.104 121.291 304.541C121.276 304.749 121.246 304.955 121.2 305.159C121.182 304.951 121.182 304.742 121.2 304.534C121.235 304.097 121.277 303.507 121.332 302.757C121.436 301.217 121.575 298.982 121.686 296.22C121.915 290.703 122.012 283.034 121.908 274.623C121.804 266.211 121.492 258.55 121.11 253.039C120.93 250.263 120.735 248.049 120.59 246.509C120.513 245.766 120.451 245.176 120.409 244.739C120.388 244.534 120.383 244.327 120.395 244.121Z" fill="#455A64"/>
<path d="M127.757 103.156C127.757 103.156 133.885 104.787 135.19 113.92C136.495 123.053 134.08 125.663 134.08 125.663C134.08 125.663 135.072 108.66 127.459 106.342L127.757 103.489" fill="#263238"/>
<path d="M86.0075 132.984L54.375 132.367L54.7428 133.9L85.8548 134.358L86.0075 132.984Z" fill="#263238"/>
<path d="M124.364 106.022C123.177 105.733 121.928 105.843 120.81 106.335C118.249 107.41 113.558 110.499 113.225 119.271L112.684 133.408L132.914 136.059C132.914 136.059 134.635 108.757 124.364 106.022Z" fill="#FB9212"/>
<path d="M87.1313 135.975L112.809 143.693L113.191 133.366L128.556 135.601L127.696 152.395C127.608 154.792 126.736 157.094 125.212 158.946C123.689 160.798 121.598 162.098 119.264 162.646C116.578 163.274 113.755 162.865 111.359 161.501L84.1055 146.004L87.1313 135.975Z" fill="#FFBE9D"/>
<path d="M132.915 136.059C132.915 136.059 132.915 135.968 132.915 135.816C132.915 135.663 132.915 135.413 132.88 135.122C132.88 134.504 132.832 133.637 132.79 132.526C132.721 130.271 132.617 127.051 132.492 123.074C132.429 121.089 132.367 118.91 132.304 116.578C132.304 115.995 132.27 115.398 132.249 114.795C132.249 114.503 132.193 114.205 132.159 113.899C132.124 113.594 132.055 113.302 131.971 113.004C131.46 111.068 130.343 109.347 128.783 108.09C127.224 106.834 125.304 106.11 123.303 106.022C121.866 106.009 120.456 106.411 119.243 107.181C117.991 107.98 116.921 109.035 116.106 110.277C114.943 112.063 114.156 114.068 113.795 116.169C113.441 118.182 113.23 120.218 113.164 122.262C113.053 126.246 112.949 129.993 112.852 133.401L112.72 133.241L127.342 135.24L131.451 135.816L132.554 136.024L132.936 136.093L132.554 136.024L131.492 135.906L127.405 135.406L112.657 133.56H112.525V133.421C112.609 130.007 112.671 126.266 112.803 122.276C112.858 120.214 113.065 118.159 113.421 116.127C113.788 113.978 114.594 111.928 115.787 110.103C116.63 108.818 117.737 107.727 119.035 106.904C120.305 106.096 121.784 105.676 123.289 105.696C124.699 105.756 126.079 106.124 127.332 106.774C128.585 107.424 129.68 108.34 130.542 109.458C131.347 110.484 131.933 111.665 132.263 112.928C132.339 113.233 132.388 113.545 132.45 113.858C132.513 114.17 132.513 114.475 132.54 114.788C132.54 115.391 132.54 115.995 132.582 116.585C132.631 118.945 132.672 121.145 132.714 123.15C132.783 127.134 132.839 130.361 132.88 132.616C132.88 133.706 132.88 134.567 132.915 135.17V135.864C132.921 135.929 132.921 135.994 132.915 136.059Z" fill="#263238"/>
<path d="M87.6518 136.281L81.489 131.721C80.3647 130.888 78.6159 131.027 77.2209 130.937C74.4449 130.687 69.9131 132.325 69.7396 132.644L71.5995 134.129L59.6211 133.762C60.0321 134.577 60.6563 135.265 61.4274 135.754C62.1985 136.243 63.0876 136.514 64.0002 136.538C64.0002 136.538 64.3819 139.244 67.8589 139.758C67.8589 139.758 68.7611 141.951 70.6973 142.589C70.6973 142.589 71.079 145.039 74.1673 144.907L84.6676 146.08L87.6518 136.281Z" fill="#FFBE9D"/>
<path d="M71.4806 136.961C70.2169 137.071 68.9454 137.057 67.6844 136.919C66.418 136.91 65.1557 136.776 63.916 136.517C65.1777 136.415 66.4461 136.429 67.7053 136.558C68.9734 136.576 70.2372 136.711 71.4806 136.961Z" fill="#EB996E"/>
<path d="M74.5214 139.848C73.4252 140.026 72.3131 140.087 71.204 140.028C70.095 140.087 68.9829 140.026 67.8867 139.848C68.9825 139.666 70.095 139.605 71.204 139.667C72.3131 139.605 73.4256 139.666 74.5214 139.848Z" fill="#EB996E"/>
<path d="M77.7761 142.568C76.6804 142.751 75.5679 142.811 74.4588 142.749C73.3521 142.811 72.2418 142.751 71.1484 142.568C72.2423 142.39 73.3521 142.33 74.4588 142.388C75.5679 142.33 76.6799 142.39 77.7761 142.568Z" fill="#EB996E"/>
<path d="M114.51 148.932C114.003 148.156 113.619 147.306 113.372 146.413C113 145.563 112.765 144.658 112.678 143.734C113.101 144.551 113.438 145.409 113.684 146.295C114.052 147.142 114.329 148.027 114.51 148.932Z" fill="#EB996E"/>
<path d="M116.335 147.933C115.622 147.272 114.974 146.545 114.399 145.761C113.731 145.058 113.133 144.291 112.615 143.471C113.412 144.054 114.114 144.756 114.697 145.553C115.357 146.262 115.908 147.064 116.335 147.933Z" fill="#EB996E"/>
</svg>
